<svg version="1.1" xmlns="http://www.w3.org/2000/svg" xmlns:xlink="http://www.w3.org/1999/xlink" width="348.45164" height="315.00001" viewBox="0,0,348.45164,315.00001"><g transform="translate(-70.60052,15.87107)"><g data-paper-data="{&quot;isPaintingLayer&quot;:true}" fill="#9966ff" fill-rule="nonzero" stroke="none" stroke-linecap="butt" stroke-linejoin="miter" stroke-miterlimit="10" stroke-dasharray="" stroke-dashoffset="0" style="mix-blend-mode: normal"><path d="M70.60052,259.12893l15.11515,9.84243l-15.11515,9.49091z" stroke-width="NaN"/><path d="M70.60052,125.7956l15.11515,9.84243l-15.11515,9.49091z" stroke-width="NaN"/><path d="M70.60052,269.7956l15.11515,9.84243l-15.11515,9.49091z" stroke-width="NaN"/><path d="M70.60052,136.46227l15.11515,9.84243l-15.11515,9.49091z" stroke-width="NaN"/><path d="M70.60052,279.7956l15.11515,9.84243l-15.11515,9.49091z" stroke-width="NaN"/><path d="M70.60052,146.46227l15.11515,9.84243l-15.11515,9.49091z" stroke-width="NaN"/><path d="M149.38234,205.46227l-15.11515,-9.49091l15.11515,-9.84243z" data-paper-data="{&quot;index&quot;:null}" stroke-width="NaN"/><path d="M149.38234,216.12894l-15.11515,-9.49091l15.11515,-9.84243z" data-paper-data="{&quot;index&quot;:null}" stroke-width="NaN"/><path d="M149.38234,226.12894l-15.11515,-9.49091l15.11515,-9.84243z" data-paper-data="{&quot;index&quot;:null}" stroke-width="NaN"/><path d="M402.60369,112.7956l15.11515,9.84243l-15.11515,9.49091z" stroke-width="NaN"/><path d="M403.27036,81.46227l15.11515,9.84243l-15.11515,9.49091z" stroke-width="NaN"/><path d="M403.93702,48.7956l15.11515,9.84243l-15.11515,9.49091z" stroke-width="NaN"/><path d="M403.93702,14.12893l15.11515,9.84243l-15.11515,9.49091z" stroke-width="NaN"/><path d="M403.93702,-15.87107l15.11515,9.84243l-15.11515,9.49091z" stroke-width="NaN"/><path d="M402.60369,123.46227l15.11515,9.84243l-15.11515,9.49091z" stroke-width="NaN"/><path d="M403.27036,92.12894l15.11515,9.84243l-15.11515,9.49091z" stroke-width="NaN"/><path d="M403.93702,59.46227l15.11515,9.84243l-15.11515,9.49091z" stroke-width="NaN"/><path d="M403.93702,24.7956l15.11515,9.84243l-15.11515,9.49091z" stroke-width="NaN"/><path d="M403.93702,-5.2044l15.11515,9.84243l-15.11515,9.49091z" stroke-width="NaN"/><path d="M402.60369,133.46227l15.11515,9.84243l-15.11515,9.49091z" stroke-width="NaN"/><path d="M403.27036,102.12894l15.11515,9.84243l-15.11515,9.49091z" stroke-width="NaN"/><path d="M403.93702,69.46227l15.11515,9.84243l-15.11515,9.49091z" stroke-width="NaN"/><path d="M403.93702,34.7956l15.11515,9.84243l-15.11515,9.49091z" stroke-width="NaN"/><path d="M403.93702,4.7956l15.11515,9.84243l-15.11515,9.49091z" stroke-width="NaN"/></g></g></svg>