<svg version="1.1" xmlns="http://www.w3.org/2000/svg" xmlns:xlink="http://www.w3.org/1999/xlink" width="549.58595" height="128.5955" viewBox="0,0,549.58595,128.5955"><g transform="translate(64.27736,-230.69347)"><g data-paper-data="{&quot;isPaintingLayer&quot;:true}" fill-rule="nonzero" stroke-linejoin="miter" stroke-miterlimit="10" stroke-dasharray="" stroke-dashoffset="0" style="mix-blend-mode: normal"><g data-paper-data="{&quot;index&quot;:null}"><g><path d="M386.85743,359.27889v-52c0,0 32.23359,0 48.38025,0c16.18658,0 48.61976,0 48.61976,0v52z" fill="#5f2e00" stroke="none" stroke-width="0" stroke-linecap="butt"/><path d="M386.85502,323.05826l5.40171,2.79399l4.84292,2.42145l8.00944,-3.72532l6.51931,1.86266l8.94078,-0.55879l3.53905,3.91159l8.94077,3.72532l3.72532,-4.28412l11.73477,-3.53905l4.47038,1.86266l8.19571,0.37253l5.58798,2.23519l6.89184,-3.16652l5.40171,-0.5588l3.91159,-4.09785l-96.06898,0.14148l-0.27278,-14.45717l97.10857,0.27278l-0.02174,12.92532" fill="#0f820e" stroke="#0f820e" stroke-width="2" stroke-linecap="round"/><path d="M476.55044,323.14267c-0.10236,-0.03969 -0.19512,-0.09139 -0.27995,-0.15301c-0.77034,-0.42597 -1.29197,-1.24671 -1.29197,-2.18928c0,-0.79019 0.3666,-1.49474 0.939,-1.95288c0.65545,-1.65421 6.70435,-1.45244 7.63041,0.16817c1.98841,3.47971 -5.1005,4.86249 -6.99748,4.12699z" fill="#0f820e" stroke="none" stroke-width="0.5" stroke-linecap="butt"/></g><path d="M443.05564,322.40677c-3.13847,-3.06354 -6.7984,0.44731 -9.92608,-0.12089c-0.15754,0.03111 -0.32039,0.04742 -0.48705,0.04742c-1.38071,0 -2.5,-1.11929 -2.5,-2.5c0,-1.03139 0.62457,-1.91691 1.51613,-2.29896c0.30196,-0.1294 0.63455,-0.20104 0.98387,-0.20104c0.15418,0 0.30509,0.01395 0.45155,0.04067c3.54162,-0.17524 11.48549,0.24433 13.94164,0.27918c2.06226,0.02927 4.12367,-0.10284 6.18541,-0.15768c3.20563,-0.08527 8.8373,-0.29621 12.00205,-0.16218c3.49753,0.14811 6.54122,0.1114 10.18304,-0.30442c4.53792,-0.51813 8.89727,2.12077 3.97018,5.79837c-1.47196,1.09867 -3.35104,1.05161 -5.29563,0.80489c-0.397,0.14606 -0.83508,0.28054 -1.31577,0.40071h-0.30776c-3.51747,0.87937 -5.76392,0.22996 -6.63882,-0.91533c-4.04073,-0.06857 -8.29439,-0.19208 -11.93937,0.47088c-1.96939,0.3582 -3.90731,0.87317 -5.86947,1.26908c-3.25731,0.65724 -3.18976,-0.72868 -4.95391,-2.45071z" fill="#0f820e" stroke="none" stroke-width="0.5" stroke-linecap="butt"/></g><g data-paper-data="{&quot;index&quot;:null}"><g><path d="M290.47234,359.28897v-52.32258c0,0 32.23359,0 48.38025,0c16.18658,0 48.61976,0 48.61976,0v52.32258z" fill="#5f2e00" stroke="none" stroke-width="0" stroke-linecap="butt"/><path d="M290.46993,322.84365l5.40171,2.81132l4.84292,2.43647l8.00944,-3.74843l6.51931,1.87421l8.94078,-0.56226l3.53905,3.93586l8.94077,3.74843l3.72532,-4.3107l11.73477,-3.561l4.47038,1.87421l8.19571,0.37484l5.58798,2.24906l6.89184,-3.18616l5.40171,-0.56227l3.91159,-4.12327l-96.06898,0.14236l-0.27278,-14.54685l97.10857,0.27447l-0.02174,13.0055" fill="#0f820e" stroke="#0f820e" stroke-width="2" stroke-linecap="round"/><path d="M379.88542,322.77462c-0.77034,-0.42862 -1.29197,-1.25445 -1.29197,-2.20287c0,-0.79509 0.3666,-1.50401 0.939,-1.96499c0.65544,-1.66447 6.70434,-1.46144 7.6304,0.16922c1.98841,3.5013 -5.1005,4.89265 -6.99748,4.15259c-0.10236,-0.03993 -0.19512,-0.09195 -0.27995,-0.15395z" fill="#0f820e" stroke="none" stroke-width="0.5" stroke-linecap="butt"/></g><path d="M346.67057,322.18809c-3.13847,-3.08255 -6.7984,0.45008 -9.92608,-0.12164c-0.15754,0.0313 -0.32039,0.04771 -0.48705,0.04771c-1.38071,0 -2.5,-1.12623 -2.5,-2.51551c0,-1.03779 0.62457,-1.92879 1.51613,-2.31322c0.30196,-0.1302 0.63455,-0.20229 0.98387,-0.20229c0.15418,0 0.30509,0.01405 0.45155,0.04093c3.54162,-0.17632 11.48549,0.24585 13.94164,0.28092c2.06227,0.02945 4.12366,-0.10348 6.18541,-0.15866c3.20563,-0.08579 8.8373,-0.29804 12.00205,-0.16318c3.49754,0.14904 6.54124,0.1121 10.18305,-0.3063c4.53792,-0.52135 8.89727,2.13393 3.97018,5.83434c-1.47196,1.10549 -3.35104,1.05813 -5.29563,0.80988c-0.39701,0.14696 -0.83509,0.28227 -1.31577,0.40319h-0.30777c-3.51747,0.88482 -5.76392,0.2314 -6.63882,-0.921c-4.04073,-0.069 -8.29439,-0.19327 -11.93937,0.4738c-1.96939,0.36042 -3.90733,0.87858 -5.86948,1.27695c-3.25731,0.66133 -3.18976,-0.73319 -4.95391,-2.46591z" fill="#0f820e" stroke="none" stroke-width="0.5" stroke-linecap="butt"/></g><g data-paper-data="{&quot;index&quot;:null}"><g><path d="M193.85743,359.27879v-52.49692c0,0 32.23359,0 48.38025,0c16.18658,0 48.61976,0 48.61976,0v52.49692z" fill="#5f2e00" stroke="none" stroke-width="0" stroke-linecap="butt"/><path d="M193.85502,322.71203l5.40171,2.82069l4.84292,2.44459l8.00944,-3.76092l6.51931,1.88046l8.94078,-0.56413l3.53905,3.94897l8.94077,3.76092l3.72532,-4.32506l11.73477,-3.57287l4.47038,1.88046l8.19571,0.37609l5.58798,2.25655l6.89184,-3.19678l5.40171,-0.56414l3.91159,-4.13701l-96.06898,0.14283l-0.27278,-14.59532l97.10857,0.27539l-0.02174,13.04884" fill="#0f820e" stroke="#0f820e" stroke-width="2" stroke-linecap="round"/><path d="M283.55044,322.79724c-0.10236,-0.04007 -0.19512,-0.09226 -0.27995,-0.15447c-0.77034,-0.43004 -1.29197,-1.25862 -1.29197,-2.2102c0,-0.79774 0.3666,-1.50902 0.939,-1.97154c0.65545,-1.67001 6.70435,-1.46632 7.63041,0.16978c1.98841,3.51296 -5.1005,4.90896 -6.99748,4.16643z" fill="#0f820e" stroke="none" stroke-width="0.5" stroke-linecap="butt"/></g><path d="M250.05564,322.05433c-3.13847,-3.09282 -6.7984,0.45158 -9.92608,-0.12205c-0.15754,0.0314 -0.32039,0.04787 -0.48705,0.04787c-1.38071,0 -2.5,-1.12999 -2.5,-2.52389c0,-1.04125 0.62457,-1.93523 1.51613,-2.32093c0.30196,-0.13064 0.63455,-0.20296 0.98387,-0.20296c0.15418,0 0.30509,0.01408 0.45155,0.04106c3.54162,-0.17691 11.48549,0.24667 13.94164,0.28185c2.06226,0.02955 4.12367,-0.10383 6.18541,-0.15919c3.20563,-0.08609 8.8373,-0.29904 12.00205,-0.16373c3.49753,0.14952 6.54122,0.11246 10.18304,-0.30733c4.53792,-0.52308 8.89727,2.14104 3.97018,5.85378c-1.47196,1.10917 -3.35104,1.06166 -5.29563,0.81258c-0.397,0.14746 -0.83508,0.28322 -1.31577,0.40454h-0.30776c-3.51747,0.88777 -5.76392,0.23215 -6.63882,-0.92408c-4.04073,-0.06923 -8.29439,-0.19392 -11.93937,0.47538c-1.96939,0.36163 -3.90731,0.88152 -5.86947,1.28121c-3.25731,0.66352 -3.18976,-0.73564 -4.95391,-2.47413z" fill="#0f820e" stroke="none" stroke-width="0.5" stroke-linecap="butt"/></g><g data-paper-data="{&quot;index&quot;:null}"><g><path d="M33.47233,283.78897v-52.82258c0,0 32.23359,0 48.38025,0c16.18658,0 48.61976,0 48.61976,0v52.82258z" fill="#5f2e00" stroke="none" stroke-width="0" stroke-linecap="butt"/><path d="M33.46992,246.99537l5.40171,2.83819l4.84292,2.45975l8.00944,-3.78425l6.51931,1.89212l8.94078,-0.56763l3.53905,3.97347l8.94077,3.78425l3.72532,-4.35189l11.73477,-3.59503l4.47038,1.89212l8.19571,0.37842l5.58798,2.27055l6.89184,-3.21661l5.40171,-0.56764l3.91159,-4.16267l-96.06898,0.14372l-0.27278,-14.68586l97.10857,0.27709l-0.02174,13.12978" fill="#0f820e" stroke="#0f820e" stroke-width="2" stroke-linecap="round"/><path d="M122.88541,246.92569c-0.77034,-0.43272 -1.29197,-1.26644 -1.29197,-2.22392c0,-0.80269 0.3666,-1.51838 0.939,-1.98377c0.65544,-1.68037 6.70434,-1.4754 7.6304,0.17084c1.98841,3.53476 -5.1005,4.9394 -6.99748,4.19227c-0.10236,-0.04031 -0.19512,-0.09283 -0.27995,-0.15542z" fill="#0f820e" stroke="none" stroke-width="0.5" stroke-linecap="butt"/></g><path d="M79.74448,246.21076c-0.15754,0.0316 -0.32039,0.04817 -0.48705,0.04817c-1.38071,0 -2.5,-1.13699 -2.5,-2.53955c0,-1.04771 0.62457,-1.94723 1.51613,-2.33533c0.30196,-0.13144 0.63455,-0.20422 0.98387,-0.20422c0.15418,0 0.30509,0.01418 0.45155,0.04132c3.54162,-0.17801 11.48549,0.24819 13.94164,0.2836c2.06227,0.02973 4.12366,-0.10447 6.18541,-0.16018c3.20563,-0.08661 8.8373,-0.30089 12.00205,-0.16474c3.49754,0.15046 6.54124,0.11317 10.18305,-0.30923c4.53792,-0.52634 8.89727,2.15432 3.97018,5.89009c-1.47196,1.11605 -3.35104,1.06824 -5.29563,0.81762c-0.39701,0.14836 -0.83509,0.28496 -1.31577,0.40704h-0.30777c-3.51747,0.89328 -5.76392,0.23361 -6.63882,-0.9298c-4.04073,-0.06966 -8.29439,-0.19511 -11.93937,0.47833c-1.96939,0.36386 -3.90733,0.88697 -5.86948,1.28915c-3.25731,0.66765 -3.18976,-0.74019 -4.95391,-2.48947c-3.13847,-3.112 -6.7984,0.45438 -9.92608,-0.1228z" fill="#0f820e" stroke="none" stroke-width="0.5" stroke-linecap="butt"/></g><g data-paper-data="{&quot;index&quot;:null}"><g><path d="M-63.02767,283.78897v-52.82258c0,0 32.23359,0 48.38025,0c16.18658,0 48.61976,0 48.61976,0v52.82258z" fill="#5f2e00" stroke="none" stroke-width="0" stroke-linecap="butt"/><path d="M-63.03008,246.99537l5.40171,2.83819l4.84292,2.45975l8.00944,-3.78425l6.51931,1.89212l8.94078,-0.56763l3.53905,3.97347l8.94077,3.78425l3.72532,-4.35189l11.73477,-3.59503l4.47038,1.89212l8.19571,0.37842l5.58798,2.27055l6.89184,-3.21661l5.40171,-0.56764l3.91159,-4.16267l-96.06898,0.14372l-0.27278,-14.68586l97.10857,0.27709l-0.02174,13.12978" fill="#0f820e" stroke="#0f820e" stroke-width="2" stroke-linecap="round"/><path d="M26.38541,246.92569c-0.77034,-0.43272 -1.29197,-1.26644 -1.29197,-2.22392c0,-0.80269 0.3666,-1.51838 0.939,-1.98377c0.65544,-1.68037 6.70434,-1.4754 7.6304,0.17084c1.98841,3.53476 -5.1005,4.9394 -6.99748,4.19227c-0.10236,-0.04031 -0.19512,-0.09283 -0.27995,-0.15542z" fill="#0f820e" stroke="none" stroke-width="0.5" stroke-linecap="butt"/></g><path d="M-16.75552,246.21076c-0.15754,0.0316 -0.32039,0.04817 -0.48705,0.04817c-1.38071,0 -2.5,-1.13699 -2.5,-2.53955c0,-1.04771 0.62457,-1.94723 1.51613,-2.33533c0.30196,-0.13144 0.63455,-0.20422 0.98387,-0.20422c0.15418,0 0.30509,0.01418 0.45155,0.04132c3.54162,-0.17801 11.48549,0.24819 13.94164,0.2836c2.06227,0.02973 4.12366,-0.10447 6.18541,-0.16018c3.20563,-0.08661 8.8373,-0.30089 12.00205,-0.16474c3.49754,0.15046 6.54124,0.11317 10.18305,-0.30923c4.53792,-0.52634 8.89727,2.15432 3.97018,5.89009c-1.47196,1.11605 -3.35104,1.06824 -5.29563,0.81762c-0.39701,0.14836 -0.83509,0.28496 -1.31577,0.40704h-0.30777c-3.51747,0.89328 -5.76392,0.23361 -6.63882,-0.9298c-4.04073,-0.06966 -8.29439,-0.19511 -11.93937,0.47833c-1.96939,0.36386 -3.90733,0.88697 -5.86948,1.28915c-3.25731,0.66765 -3.18976,-0.74019 -4.95391,-2.48947c-3.13847,-3.112 -6.7984,0.45438 -9.92608,-0.1228z" fill="#0f820e" stroke="none" stroke-width="0.5" stroke-linecap="butt"/></g><g data-paper-data="{&quot;index&quot;:null}"><g><path d="M80.97233,321.28897v-52.82258c0,0 32.23359,0 48.38025,0c16.18658,0 48.61976,0 48.61976,0v52.82258z" fill="#5f2e00" stroke="none" stroke-width="0" stroke-linecap="butt"/><path d="M80.96992,284.49537l5.40171,2.83819l4.84292,2.45975l8.00944,-3.78425l6.51931,1.89212l8.94078,-0.56763l3.53905,3.97347l8.94077,3.78425l3.72532,-4.35189l11.73477,-3.59503l4.47038,1.89212l8.19571,0.37842l5.58798,2.27055l6.89184,-3.21661l5.40171,-0.56764l3.91159,-4.16267l-96.06898,0.14372l-0.27278,-14.68586l97.10857,0.27709l-0.02174,13.12978" fill="#0f820e" stroke="#0f820e" stroke-width="2" stroke-linecap="round"/><path d="M170.38541,284.42569c-0.77034,-0.43272 -1.29197,-1.26644 -1.29197,-2.22392c0,-0.80269 0.3666,-1.51838 0.939,-1.98377c0.65544,-1.68037 6.70434,-1.4754 7.6304,0.17084c1.98841,3.53476 -5.1005,4.9394 -6.99748,4.19227c-0.10236,-0.04031 -0.19512,-0.09283 -0.27995,-0.15542z" fill="#0f820e" stroke="none" stroke-width="0.5" stroke-linecap="butt"/></g><path d="M127.24448,283.71076c-0.15754,0.0316 -0.32039,0.04817 -0.48705,0.04817c-1.38071,0 -2.5,-1.13699 -2.5,-2.53955c0,-1.04771 0.62457,-1.94723 1.51613,-2.33533c0.30196,-0.13144 0.63455,-0.20422 0.98387,-0.20422c0.15418,0 0.30509,0.01418 0.45155,0.04132c3.54162,-0.17801 11.48549,0.24819 13.94164,0.2836c2.06227,0.02973 4.12366,-0.10447 6.18541,-0.16018c3.20563,-0.08661 8.8373,-0.30089 12.00205,-0.16474c3.49754,0.15046 6.54124,0.11317 10.18305,-0.30923c4.53792,-0.52634 8.89727,2.15432 3.97018,5.89009c-1.47196,1.11605 -3.35104,1.06824 -5.29563,0.81762c-0.39701,0.14836 -0.83509,0.28496 -1.31577,0.40704h-0.30777c-3.51747,0.89328 -5.76392,0.23361 -6.63882,-0.9298c-4.04073,-0.06966 -8.29439,-0.19511 -11.93937,0.47833c-1.96939,0.36386 -3.90733,0.88697 -5.86948,1.28915c-3.25731,0.66765 -3.18976,-0.74019 -4.95391,-2.48947c-3.13847,-3.112 -6.7984,0.45438 -9.92608,-0.1228z" fill="#0f820e" stroke="none" stroke-width="0.5" stroke-linecap="butt"/></g><g data-paper-data="{&quot;index&quot;:null}"><g><path d="M97.47234,359.28897v-52.82258c0,0 32.23359,0 48.38025,0c16.18658,0 48.61976,0 48.61976,0v52.82258z" fill="#5f2e00" stroke="none" stroke-width="0" stroke-linecap="butt"/><path d="M97.46993,322.49537l5.40171,2.83819l4.84292,2.45975l8.00944,-3.78425l6.51931,1.89212l8.94078,-0.56763l3.53905,3.97347l8.94077,3.78425l3.72532,-4.35189l11.73477,-3.59503l4.47038,1.89212l8.19571,0.37842l5.58798,2.27055l6.89184,-3.21661l5.40171,-0.56764l3.91159,-4.16267l-96.06898,0.14372l-0.27278,-14.68586l97.10857,0.27709l-0.02174,13.12978" fill="#0f820e" stroke="#0f820e" stroke-width="2" stroke-linecap="round"/><path d="M186.88542,322.42569c-0.77034,-0.43272 -1.29197,-1.26644 -1.29197,-2.22392c0,-0.80269 0.3666,-1.51838 0.939,-1.98377c0.65544,-1.68037 6.70434,-1.4754 7.6304,0.17084c1.98841,3.53476 -5.1005,4.9394 -6.99748,4.19227c-0.10236,-0.04031 -0.19512,-0.09283 -0.27995,-0.15542z" fill="#0f820e" stroke="none" stroke-width="0.5" stroke-linecap="butt"/></g><path d="M143.74449,321.71076c-0.15754,0.0316 -0.32039,0.04817 -0.48705,0.04817c-1.38071,0 -2.5,-1.13699 -2.5,-2.53955c0,-1.04771 0.62457,-1.94723 1.51613,-2.33533c0.30196,-0.13144 0.63455,-0.20422 0.98387,-0.20422c0.15418,0 0.30509,0.01418 0.45155,0.04132c3.54162,-0.17801 11.48549,0.24819 13.94164,0.2836c2.06227,0.02973 4.12366,-0.10447 6.18541,-0.16018c3.20563,-0.08661 8.8373,-0.30089 12.00205,-0.16474c3.49754,0.15046 6.54124,0.11317 10.18305,-0.30923c4.53792,-0.52634 8.89727,2.15432 3.97018,5.89009c-1.47196,1.11605 -3.35104,1.06824 -5.29563,0.81762c-0.39701,0.14836 -0.83509,0.28496 -1.31577,0.40704h-0.30777c-3.51747,0.89328 -5.76392,0.23361 -6.63882,-0.9298c-4.04073,-0.06966 -8.29439,-0.19511 -11.93937,0.47833c-1.96939,0.36386 -3.90733,0.88697 -5.86948,1.28915c-3.25731,0.66765 -3.18976,-0.74019 -4.95391,-2.48947c-3.13847,-3.112 -6.7984,0.45438 -9.92608,-0.1228z" fill="#0f820e" stroke="none" stroke-width="0.5" stroke-linecap="butt"/></g><g data-paper-data="{&quot;index&quot;:null}"><g><path d="M-15.52767,321.28897v-52.82258c0,0 32.23359,0 48.38025,0c16.18658,0 48.61976,0 48.61976,0v52.82258z" fill="#5f2e00" stroke="none" stroke-width="0" stroke-linecap="butt"/><path d="M-15.53008,284.49537l5.40171,2.83819l4.84292,2.45975l8.00944,-3.78425l6.51931,1.89212l8.94078,-0.56763l3.53905,3.97347l8.94077,3.78425l3.72532,-4.35189l11.73477,-3.59503l4.47038,1.89212l8.19571,0.37842l5.58798,2.27055l6.89184,-3.21661l5.40171,-0.56764l3.91159,-4.16267l-96.06898,0.14372l-0.27278,-14.68586l97.10857,0.27709l-0.02174,13.12978" fill="#0f820e" stroke="#0f820e" stroke-width="2" stroke-linecap="round"/><path d="M73.88541,284.42569c-0.77034,-0.43272 -1.29197,-1.26644 -1.29197,-2.22392c0,-0.80269 0.3666,-1.51838 0.939,-1.98377c0.65544,-1.68037 6.70434,-1.4754 7.6304,0.17084c1.98841,3.53476 -5.1005,4.9394 -6.99748,4.19227c-0.10236,-0.04031 -0.19512,-0.09283 -0.27995,-0.15542z" fill="#0f820e" stroke="none" stroke-width="0.5" stroke-linecap="butt"/></g><path d="M30.74448,283.71076c-0.15754,0.0316 -0.32039,0.04817 -0.48705,0.04817c-1.38071,0 -2.5,-1.13699 -2.5,-2.53955c0,-1.04771 0.62457,-1.94723 1.51613,-2.33533c0.30196,-0.13144 0.63455,-0.20422 0.98387,-0.20422c0.15418,0 0.30509,0.01418 0.45155,0.04132c3.54162,-0.17801 11.48549,0.24819 13.94164,0.2836c2.06227,0.02973 4.12366,-0.10447 6.18541,-0.16018c3.20563,-0.08661 8.8373,-0.30089 12.00205,-0.16474c3.49754,0.15046 6.54124,0.11317 10.18305,-0.30923c4.53792,-0.52634 8.89727,2.15432 3.97018,5.89009c-1.47196,1.11605 -3.35104,1.06824 -5.29563,0.81762c-0.39701,0.14836 -0.83509,0.28496 -1.31577,0.40704h-0.30777c-3.51747,0.89328 -5.76392,0.23361 -6.63882,-0.9298c-4.04073,-0.06966 -8.29439,-0.19511 -11.93937,0.47833c-1.96939,0.36386 -3.90733,0.88697 -5.86948,1.28915c-3.25731,0.66765 -3.18976,-0.74019 -4.95391,-2.48947c-3.13847,-3.112 -6.7984,0.45438 -9.92608,-0.1228z" fill="#0f820e" stroke="none" stroke-width="0.5" stroke-linecap="butt"/></g><g data-paper-data="{&quot;index&quot;:null}"><g><path d="M0.97233,359.28897v-52.82258c0,0 32.23359,0 48.38025,0c16.18658,0 48.61976,0 48.61976,0v52.82258z" fill="#5f2e00" stroke="none" stroke-width="0" stroke-linecap="butt"/><path d="M0.96992,322.49537l5.40171,2.83819l4.84292,2.45975l8.00944,-3.78425l6.51931,1.89212l8.94078,-0.56763l3.53905,3.97347l8.94077,3.78425l3.72532,-4.35189l11.73477,-3.59503l4.47038,1.89212l8.19571,0.37842l5.58798,2.27055l6.89184,-3.21661l5.40171,-0.56764l3.91159,-4.16267l-96.06898,0.14372l-0.27278,-14.68586l97.10857,0.27709l-0.02174,13.12978" fill="#0f820e" stroke="#0f820e" stroke-width="2" stroke-linecap="round"/><path d="M90.38541,322.42569c-0.77034,-0.43272 -1.29197,-1.26644 -1.29197,-2.22392c0,-0.80269 0.3666,-1.51838 0.939,-1.98377c0.65544,-1.68037 6.70434,-1.4754 7.6304,0.17084c1.98841,3.53476 -5.1005,4.9394 -6.99748,4.19227c-0.10236,-0.04031 -0.19512,-0.09283 -0.27995,-0.15542z" fill="#0f820e" stroke="none" stroke-width="0.5" stroke-linecap="butt"/></g><path d="M47.24448,321.71076c-0.15754,0.0316 -0.32039,0.04817 -0.48705,0.04817c-1.38071,0 -2.5,-1.13699 -2.5,-2.53955c0,-1.04771 0.62457,-1.94723 1.51613,-2.33533c0.30196,-0.13144 0.63455,-0.20422 0.98387,-0.20422c0.15418,0 0.30509,0.01418 0.45155,0.04132c3.54162,-0.17801 11.48549,0.24819 13.94164,0.2836c2.06227,0.02973 4.12366,-0.10447 6.18541,-0.16018c3.20563,-0.08661 8.8373,-0.30089 12.00205,-0.16474c3.49754,0.15046 6.54124,0.11317 10.18305,-0.30923c4.53792,-0.52634 8.89727,2.15432 3.97018,5.89009c-1.47196,1.11605 -3.35104,1.06824 -5.29563,0.81762c-0.39701,0.14836 -0.83509,0.28496 -1.31577,0.40704h-0.30777c-3.51747,0.89328 -5.76392,0.23361 -6.63882,-0.9298c-4.04073,-0.06966 -8.29439,-0.19511 -11.93937,0.47833c-1.96939,0.36386 -3.90733,0.88697 -5.86948,1.28915c-3.25731,0.66765 -3.18976,-0.74019 -4.95391,-2.48947c-3.13847,-3.112 -6.7984,0.45438 -9.92608,-0.1228z" fill="#0f820e" stroke="none" stroke-width="0.5" stroke-linecap="butt"/></g></g></g></svg>