<svg version="1.1" xmlns="http://www.w3.org/2000/svg" xmlns:xlink="http://www.w3.org/1999/xlink" width="547.17294" height="215.75996" viewBox="0,0,547.17294,215.75996"><g transform="translate(34.75058,-145.70503)"><g data-paper-data="{&quot;isPaintingLayer&quot;:true}" fill-rule="nonzero" stroke-linejoin="miter" stroke-miterlimit="10" stroke-dasharray="" stroke-dashoffset="0" style="mix-blend-mode: normal"><path d="M-10.02769,154.57896l10.94032,-8.87393l15.82965,19.51576l-10.94032,8.87393z" fill="#c6c6c6" stroke="none" stroke-width="0" stroke-linecap="butt"/><path d="M12.4904,221.22115l-5.9855,-8.48379l41.15491,-29.03566l5.9855,8.48379z" fill="#c6c6c6" stroke="none" stroke-width="0" stroke-linecap="butt"/><g><path d="M-0.13462,360.01924v-45h77v45z" fill="#453d34" stroke="none" stroke-width="0" stroke-linecap="butt"/><path d="M12.4074,328.85678l10.29412,-4.41177" fill="none" stroke="#8a2f00" stroke-width="3" stroke-linecap="round"/><path d="M24.17211,333.26854l-5.29412,-6.17647" fill="none" stroke="#8a2f00" stroke-width="3" stroke-linecap="round"/><path d="M28.58387,349.73913l7.35294,-7.64706" fill="none" stroke="#8a2f00" stroke-width="3" stroke-linecap="round"/><path d="M41.23093,347.09207l-7.05882,-1.17647" fill="none" stroke="#8a2f00" stroke-width="3" stroke-linecap="round"/><path d="M38.28975,330.03325l13.52941,-2.05882l8.52942,4.41177" fill="none" stroke="#8a2f00" stroke-width="3" stroke-linecap="round"/><path d="M15.93681,352.38618l-7.35295,-2.94117l0.88236,-7.35294" fill="none" stroke="#8a2f00" stroke-width="3" stroke-linecap="round"/><path d="M10.05446,357.6803l2.05882,-5.29412" fill="none" stroke="#8a2f00" stroke-width="3" stroke-linecap="round"/><path d="M45.64269,330.03325l4.11765,6.17647" fill="none" stroke="#8a2f00" stroke-width="3" stroke-linecap="round"/><path d="M50.34858,327.09207l5.88235,-4.41177" fill="none" stroke="#8a2f00" stroke-width="3" stroke-linecap="round"/><path d="M61.23093,349.44501l7.64706,-5.58823l6.17647,2.64706" fill="none" stroke="#8a2f00" stroke-width="3" stroke-linecap="round"/><path d="M58.87799,342.68031l5,2.35294" fill="none" stroke="#8a2f00" stroke-width="3" stroke-linecap="round"/><path d="M38.58386,358.26854l14.70589,-4.70588" fill="none" stroke="#8a2f00" stroke-width="3" stroke-linecap="round"/><path d="M52.70152,357.97443l-4.41177,-1.76471" fill="none" stroke="#8a2f00" stroke-width="3" stroke-linecap="round"/><path d="M1.23093,329.73913l0.29412,-13.2353h74.11765v13.2353l-5.51937,-1.27124l-5.64255,5.20184l-8.82322,-9.39217l-8.26602,7.81419l-12.47026,-7.74432l-8.70083,9.33194l-8.50212,-6.38236l-7.36974,6.26563z" fill="#94671e" stroke="#94671e" stroke-width="3" stroke-linecap="butt"/></g><g><path d="M153.32692,360.01924v-45h77v45z" fill="#453d34" stroke="none" stroke-width="0" stroke-linecap="butt"/><path d="M176.16306,324.445l-10.29412,4.41177" fill="none" stroke="#8a2f00" stroke-width="3" stroke-linecap="round"/><path d="M177.63365,333.26854l-5.29412,-6.17647" fill="none" stroke="#8a2f00" stroke-width="3" stroke-linecap="round"/><path d="M182.04541,349.73913l7.35294,-7.64706" fill="none" stroke="#8a2f00" stroke-width="3" stroke-linecap="round"/><path d="M187.63365,345.9156l7.05882,1.17647" fill="none" stroke="#8a2f00" stroke-width="3" stroke-linecap="round"/><path d="M191.75129,330.03325l13.52941,-2.05882l8.52942,4.41177" fill="none" stroke="#8a2f00" stroke-width="3" stroke-linecap="round"/><path d="M169.39835,352.38618l-7.35295,-2.94117l0.88236,-7.35294" fill="none" stroke="#8a2f00" stroke-width="3" stroke-linecap="round"/><path d="M165.57482,352.38618l-2.05882,5.29412" fill="none" stroke="#8a2f00" stroke-width="3" stroke-linecap="round"/><path d="M199.10423,330.03325l4.11765,6.17647" fill="none" stroke="#8a2f00" stroke-width="3" stroke-linecap="round"/><path d="M203.81012,327.09207l5.88235,-4.41177" fill="none" stroke="#8a2f00" stroke-width="3" stroke-linecap="round"/><path d="M214.69247,349.44501l7.64706,-5.58823l6.17647,2.64706" fill="none" stroke="#8a2f00" stroke-width="3" stroke-linecap="round"/><path d="M212.33953,342.68031l5,2.35294" fill="none" stroke="#8a2f00" stroke-width="3" stroke-linecap="round"/><path d="M206.75129,353.56266l-14.70589,4.70588" fill="none" stroke="#8a2f00" stroke-width="3" stroke-linecap="round"/><path d="M201.75129,356.20972l4.41177,1.76471" fill="none" stroke="#8a2f00" stroke-width="3" stroke-linecap="round"/><path d="M154.69247,329.73913l0.29412,-13.2353h74.11765v13.2353l-5.51937,-1.27124l-5.64255,5.20184l-8.82322,-9.39217l-8.26602,7.81419l-12.47026,-7.74432l-8.70083,9.33194l-8.50212,-6.38236l-7.36974,6.26563z" fill="#94671e" stroke="#94671e" stroke-width="3" stroke-linecap="butt"/></g><g><path d="M76.40384,360.01924v-45h77v45z" fill="#453d34" stroke="none" stroke-width="0" stroke-linecap="butt"/><path d="M99.23998,324.445l-10.29412,4.41177" fill="none" stroke="#8a2f00" stroke-width="3" stroke-linecap="round"/><path d="M100.71057,333.26854l-5.29412,-6.17647" fill="none" stroke="#8a2f00" stroke-width="3" stroke-linecap="round"/><path d="M105.12233,349.73913l7.35294,-7.64706" fill="none" stroke="#8a2f00" stroke-width="3" stroke-linecap="round"/><path d="M117.76939,347.09207l-7.05882,-1.17647" fill="none" stroke="#8a2f00" stroke-width="3" stroke-linecap="round"/><path d="M114.82821,330.03325l13.52941,-2.05882l8.52942,4.41177" fill="none" stroke="#8a2f00" stroke-width="3" stroke-linecap="round"/><path d="M92.47527,352.38618l-7.35295,-2.94117l0.88236,-7.35294" fill="none" stroke="#8a2f00" stroke-width="3" stroke-linecap="round"/><path d="M88.65174,352.38618l-2.05882,5.29412" fill="none" stroke="#8a2f00" stroke-width="3" stroke-linecap="round"/><path d="M126.2988,336.20972l-4.11765,-6.17647" fill="none" stroke="#8a2f00" stroke-width="3" stroke-linecap="round"/><path d="M126.88704,327.09207l5.88235,-4.41177" fill="none" stroke="#8a2f00" stroke-width="3" stroke-linecap="round"/><path d="M137.76939,349.44501l7.64706,-5.58823l6.17647,2.64706" fill="none" stroke="#8a2f00" stroke-width="3" stroke-linecap="round"/><path d="M135.41645,342.68031l5,2.35294" fill="none" stroke="#8a2f00" stroke-width="3" stroke-linecap="round"/><path d="M115.12232,358.26854l14.70589,-4.70588" fill="none" stroke="#8a2f00" stroke-width="3" stroke-linecap="round"/><path d="M124.82821,356.20972l4.41177,1.76471" fill="none" stroke="#8a2f00" stroke-width="3" stroke-linecap="round"/><path d="M77.76939,329.73913l0.29412,-13.2353h74.11765v13.2353l-5.51937,-1.27124l-5.64255,5.20184l-8.82322,-9.39217l-8.26602,7.81419l-12.47026,-7.74432l-8.70083,9.33194l-8.50212,-6.38236l-7.36974,6.26563z" fill="#94671e" stroke="#94671e" stroke-width="3" stroke-linecap="butt"/></g><path d="M16.43681,193.82175v-28.66667c0,0 25.56325,0 38.32122,0c12.72651,0 38.13244,0 38.13244,0v28.66667z" fill="#676767" stroke="none" stroke-width="0" stroke-linecap="butt"/><path d="M91.51696,188.33905h-73.81045" fill="none" stroke="#444444" stroke-width="2" stroke-linecap="round"/><path d="M17.70651,182.51666h73.81045" fill="none" stroke="#444444" stroke-width="2" stroke-linecap="round"/><path d="M91.51695,176.36329h-73.81045" fill="none" stroke="#444444" stroke-width="2" stroke-linecap="round"/><path d="M-12.1697,164.59491h28.66667c0,0 0,25.56325 0,38.32122c0,12.72651 0,38.13244 0,38.13244h-28.66667z" fill="#676767" stroke="none" stroke-width="0" stroke-linecap="butt"/><path d="M-6.687,165.86461v73.81044" fill="none" stroke="#444444" stroke-width="2" stroke-linecap="round"/><path d="M-0.86461,165.86461v73.81044" fill="none" stroke="#444444" stroke-width="2" stroke-linecap="round"/><path d="M5.28876,239.67506v-73.81044" fill="none" stroke="#444444" stroke-width="2" stroke-linecap="round"/><path d="M10.24248,193.15258h6.22963v47.76394h-6.22963z" fill="#c6c6c6" stroke="none" stroke-width="0" stroke-linecap="butt"/><path d="M9.44946,193.52647v-6.22963h83.30896v6.22963z" fill="#c6c6c6" stroke="none" stroke-width="0" stroke-linecap="butt"/><path d="M92.70762,192.08497h-6.22963v-24.69955h6.22963z" fill="#c6c6c6" stroke="none" stroke-width="0" stroke-linecap="butt"/><path d="M-11.6169,171.67023v-6.22963h104.63597v6.22963z" fill="#c6c6c6" stroke="none" stroke-width="0" stroke-linecap="butt"/><path d="M-10.32925,171.96458h14.44866c0,0 0,48.54078 0,72.76625c0,24.16573 0,72.40779 0,72.40779h-14.44866z" fill="#676767" stroke="none" stroke-width="0" stroke-linecap="butt"/><path d="M13.01335,233.92764v6.22963h-47.76393v-6.22963z" fill="#c6c6c6" stroke="none" stroke-width="0" stroke-linecap="butt"/><g><path d="M446.70314,297.84703l32.52911,-29.33125l29.47468,32.66066l-32.52912,29.33125z" fill="#453d34" stroke="none" stroke-width="0" stroke-linecap="butt"/><path d="M468.40632,318.92542l-0.41312,-3.02157l3.93871,-7.48135" fill="none" stroke="#8a2f00" stroke-width="3" stroke-linecap="round"/><path d="M464.77441,282.97216l12.49552,2.30915l-1.76275,7.01996l11.1952,6.42315" fill="none" stroke="#8a2f00" stroke-width="3" stroke-linecap="round"/><path d="M479.29738,295.21926l2.00233,9.05553" fill="none" stroke="#8a2f00" stroke-width="3" stroke-linecap="round"/><path d="M465.63879,294.18511l-7.04074,9.2901l-6.72949,-2.75664" fill="none" stroke="#8a2f00" stroke-width="3" stroke-linecap="round"/><path d="M492.4442,305.08689l11.31943,-0.70326" fill="none" stroke="#8a2f00" stroke-width="3" stroke-linecap="round"/><path d="M482.77679,314.03019l-0.79926,10.22407" fill="none" stroke="#8a2f00" stroke-width="3" stroke-linecap="round"/><path d="M483.51511,316.98479l7.22915,-2.67187" fill="none" stroke="#8a2f00" stroke-width="3" stroke-linecap="round"/><path d="M496.97179,303.26711l-1.33938,-8.74821" fill="none" stroke="#8a2f00" stroke-width="3" stroke-linecap="round"/><path d="M474.97962,273.7702l3.31474,1.53655l3.03979,3.36837" fill="none" stroke="#8a2f00" stroke-width="3" stroke-linecap="round"/></g><g><path d="M415.74124,297.46235l0.50996,-44.99711l76.99506,0.87261l-0.50997,44.99711z" fill="#453d34" stroke="none" stroke-width="0" stroke-linecap="butt"/><path d="M468.59716,296.01643l-4.39149,-1.8146l-5.01547,-8.21107" fill="none" stroke="#8a2f00" stroke-width="3" stroke-linecap="round"/><path d="M417.85894,273.46274l17.73592,-7.74068l6.98838,6.25607l21.51587,-3.87407" fill="none" stroke="#8a2f00" stroke-width="3" stroke-linecap="round"/><path d="M450.828,271.18916l14.06342,4.86557" fill="none" stroke="#8a2f00" stroke-width="3" stroke-linecap="round"/><path d="M433.36617,280.69778l3.68996,11.80728l-11.50652,3.10509" fill="none" stroke="#8a2f00" stroke-width="3" stroke-linecap="round"/><path d="M479.09814,268.27406l12.45547,-8.97708" fill="none" stroke="#8a2f00" stroke-width="3" stroke-linecap="round"/><path d="M479.23892,281.80593l12.26549,7.78655" fill="none" stroke="#8a2f00" stroke-width="3" stroke-linecap="round"/><path d="M483.92783,283.32976l5.08301,-7.29581" fill="none" stroke="#8a2f00" stroke-width="3" stroke-linecap="round"/><path d="M482.09247,263.60181l-12.88367,-5.14633" fill="none" stroke="#8a2f00" stroke-width="3" stroke-linecap="round"/><path d="M418.01893,259.34601l5.89864,-1.40383l7.94067,0.08999" fill="none" stroke="#8a2f00" stroke-width="3" stroke-linecap="round"/></g><g><path d="M468.59395,316.73323l43.80029,-0.00964l0.02812,43.99402l-43.80029,0.00965z" fill="#453d34" stroke="none" stroke-width="0" stroke-linecap="butt"/><path d="M470.60355,346.92078l1.71606,-2.52105l7.93446,-2.92032" fill="none" stroke="#8a2f00" stroke-width="3" stroke-linecap="round"/><path d="M491.97625,317.78256l7.73591,10.08097l-6.00922,4.03439l4.01572,12.26635" fill="none" stroke="#8a2f00" stroke-width="3" stroke-linecap="round"/><path d="M494.56477,336.60297l-4.57527,8.06714" fill="none" stroke="#8a2f00" stroke-width="3" stroke-linecap="round"/><path d="M485.1113,326.69043l-11.44966,2.1871l-3.15323,-6.55304" fill="none" stroke="#8a2f00" stroke-width="3" stroke-linecap="round"/><path d="M497.72411,352.73454l8.87909,7.05591" fill="none" stroke="#8a2f00" stroke-width="3" stroke-linecap="round"/><path d="M484.55551,352.90549l-7.43867,7.05951" fill="none" stroke="#8a2f00" stroke-width="3" stroke-linecap="round"/><path d="M483.12585,355.59451l7.15873,2.85517" fill="none" stroke="#8a2f00" stroke-width="3" stroke-linecap="round"/><path d="M502.30561,354.41398l4.86197,-7.39502" fill="none" stroke="#8a2f00" stroke-width="3" stroke-linecap="round"/><path d="M505.71751,317.77954l1.43353,3.36057l0.0029,4.53721" fill="none" stroke="#8a2f00" stroke-width="3" stroke-linecap="round"/></g></g></g></svg>