<svg version="1.1" xmlns="http://www.w3.org/2000/svg" xmlns:xlink="http://www.w3.org/1999/xlink" width="658.0794" height="414.87308" viewBox="0,0,658.0794,414.87308"><g transform="translate(36.03951,48.6499)"><g data-paper-data="{&quot;isPaintingLayer&quot;:true}" fill-rule="nonzero" stroke-linejoin="miter" stroke-miterlimit="10" stroke-dasharray="" stroke-dashoffset="0" style="mix-blend-mode: normal"><g><path d="M378.37163,263.22317v-52c0,0 81.47357,0 122.13496,0c40.56112,0 121.5333,0 121.5333,0v52z" fill="#676767" stroke="none" stroke-width="0" stroke-linecap="butt"/><path d="M382.41833,253.27782h235.24396" fill="none" stroke="#444444" stroke-width="2" stroke-linecap="round"/><path d="M382.41833,242.71627h235.24396" fill="none" stroke="#444444" stroke-width="2" stroke-linecap="round"/><path d="M382.41833,231.55434h235.24396" fill="none" stroke="#444444" stroke-width="2" stroke-linecap="round"/><path d="M378.75935,222.56853v-11.30026h242.85966v11.30026z" fill="#c6c6c6" stroke="none" stroke-width="0" stroke-linecap="butt"/></g><path d="M379.44778,-3.50416l10.28823,-20.83525l151.49648,62.15051l-10.28823,20.83525z" data-paper-data="{&quot;index&quot;:null}" fill="#c6c6c6" stroke="none" stroke-width="NaN" stroke-linecap="butt"/><path d="M46.91303,3.34388l-36.87822,36.87822v-36.87822z" data-paper-data="{&quot;index&quot;:null}" fill="#444444" stroke="none" stroke-width="NaN" stroke-linecap="butt"/><g><path d="M-2.62837,366.22318v-52c0,0 81.47357,0 122.13496,0c40.56112,0 121.5333,0 121.5333,0v52z" fill="#676767" stroke="none" stroke-width="0" stroke-linecap="butt"/><path d="M1.41833,356.27783h235.24396" fill="none" stroke="#444444" stroke-width="2" stroke-linecap="round"/><path d="M1.41833,345.71628h235.24396" fill="none" stroke="#444444" stroke-width="2" stroke-linecap="round"/><path d="M236.66229,334.55431h-235.24396" fill="none" stroke="#444444" stroke-width="2" stroke-linecap="round"/><path d="M-2.24065,325.5685v-11.30026h242.85966v11.30026z" fill="#c6c6c6" stroke="none" stroke-width="0" stroke-linecap="butt"/></g><g><path d="M238.38029,366.22318v-52c0,0 81.47357,0 122.13496,0c40.56112,0 121.5333,0 121.5333,0v52z" fill="#676767" stroke="none" stroke-width="0" stroke-linecap="butt"/><path d="M477.67095,356.27783h-235.24396" fill="none" stroke="#444444" stroke-width="2" stroke-linecap="round"/><path d="M242.42699,345.71628h235.24396" fill="none" stroke="#444444" stroke-width="2" stroke-linecap="round"/><path d="M242.42699,334.55431h235.24396" fill="none" stroke="#444444" stroke-width="2" stroke-linecap="round"/><path d="M238.76801,325.5685v-11.30026h242.85967v11.30026z" fill="#c6c6c6" stroke="none" stroke-width="0" stroke-linecap="butt"/></g><g><path d="M-8.98801,3.3501v-52c0,0 25.20183,0 37.77943,0c12.54658,0 37.59332,0 37.59332,0v52z" fill="#676767" stroke="none" stroke-width="0" stroke-linecap="butt"/><path d="M65.03064,-6.59527h-72.7669" fill="none" stroke="#444444" stroke-width="2" stroke-linecap="round"/><path d="M-7.73627,-17.1568h72.7669" fill="none" stroke="#444444" stroke-width="2" stroke-linecap="round"/><path d="M-7.73626,-28.31873h72.7669" fill="none" stroke="#444444" stroke-width="2" stroke-linecap="round"/><path d="M-8.86808,-37.30455v-11.30026h75.12263v11.30026z" fill="#c6c6c6" stroke="none" stroke-width="0" stroke-linecap="butt"/></g><g><path d="M-8.62837,258.22317v-52c0,0 99.30625,0 148.86747,0c49.43901,0 148.13412,0 148.13412,0v52z" fill="#676767" stroke="none" stroke-width="0" stroke-linecap="butt"/><path d="M283.03747,248.27782h-286.73341" fill="none" stroke="#444444" stroke-width="2" stroke-linecap="round"/><path d="M-3.69594,237.71627h286.73341" fill="none" stroke="#444444" stroke-width="2" stroke-linecap="round"/><path d="M283.03747,226.55434h-286.73341" fill="none" stroke="#444444" stroke-width="2" stroke-linecap="round"/><path d="M-8.15578,217.56853v-11.30026h296.01601v11.30026z" fill="#c6c6c6" stroke="none" stroke-width="0" stroke-linecap="butt"/></g><g><path d="M378.66429,314.96664v-52c0,0 33.75513,0 50.60147,0c16.80479,0 50.35219,0 50.35219,0v52z" fill="#676767" stroke="none" stroke-width="0" stroke-linecap="butt"/><path d="M477.80426,305.02126h-97.46341" fill="none" stroke="#444444" stroke-width="2" stroke-linecap="round"/><path d="M477.80426,294.45971h-97.46341" fill="none" stroke="#444444" stroke-width="2" stroke-linecap="round"/><path d="M380.34085,283.29778h97.46341" fill="none" stroke="#444444" stroke-width="2" stroke-linecap="round"/><path d="M477.46229,273.29504h-97.46341" fill="none" stroke="#444444" stroke-width="2" stroke-linecap="round"/></g><g><path d="M-35.66905,205.29998v-206.66667c0,0 15.92246,0 23.86895,0c7.9269,0 23.75137,0 23.75137,0v206.66667z" fill="#676767" stroke="none" stroke-width="0" stroke-linecap="butt"/><path d="M-34.8782,165.77354h45.97396" fill="none" stroke="#444444" stroke-width="2" stroke-linecap="round"/><path d="M-34.8782,123.79819h45.97396" fill="none" stroke="#444444" stroke-width="2" stroke-linecap="round"/><path d="M-34.8782,79.43668h45.97396" fill="none" stroke="#444444" stroke-width="2" stroke-linecap="round"/><path d="M-35.03951,39.68223h45.97396" fill="none" stroke="#444444" stroke-width="2" stroke-linecap="round"/></g><path d="M389.83931,316.34823h-11.30026v-99.85966h11.30026z" fill="#c6c6c6" stroke="none" stroke-width="0" stroke-linecap="butt"/><path d="M287.83931,259.20534h-11.30026v-51.7168h11.30026z" fill="#c6c6c6" stroke="none" stroke-width="0" stroke-linecap="butt"/><g><path d="M485.81364,126.99859h-52c0,0 0,-43.18416 0,-64.73628c0,-21.49898 0,-64.41738 0,-64.41738h52z" fill="#676767" stroke="none" stroke-width="0" stroke-linecap="butt"/><path d="M475.86829,0.16524v124.68845" fill="none" stroke="#444444" stroke-width="2" stroke-linecap="round"/><path d="M465.30674,0.16524v124.68845" fill="none" stroke="#444444" stroke-width="2" stroke-linecap="round"/><path d="M454.14481,124.85369v-124.68845" fill="none" stroke="#444444" stroke-width="2" stroke-linecap="round"/><path d="M445.159,126.7931h-11.30026v-128.72508h11.30026z" fill="#c6c6c6" stroke="none" stroke-width="0" stroke-linecap="butt"/></g><path d="M489.04758,115.69683v11.30026h-51.7168v-11.30026z" fill="#c6c6c6" stroke="none" stroke-width="0" stroke-linecap="butt"/></g></g></svg>