<svg version="1.1" xmlns="http://www.w3.org/2000/svg" xmlns:xlink="http://www.w3.org/1999/xlink" width="99.70115" height="52.28425" viewBox="0,0,99.70115,52.28425"><g transform="translate(-49.3222,-44.8441)"><g data-paper-data="{&quot;isPaintingLayer&quot;:true}" fill-rule="nonzero" stroke-linejoin="miter" stroke-miterlimit="10" stroke-dasharray="" stroke-dashoffset="0" style="mix-blend-mode: normal"><path d="M50.77335,97.12835v-52c0,0 32.43318,0 48.61976,0c16.14666,0 48.38025,0 48.38025,0v52z" fill="#5f2e00" stroke="none" stroke-width="0" stroke-linecap="butt"/><path d="M50.91742,59.04507l-0.02174,-12.92532l97.10857,-0.27278l-0.27278,14.45717l-96.06898,-0.14148l3.91159,4.09785l5.40171,0.5588l6.89184,3.16652l5.58798,-2.23519l8.19571,-0.37253l4.47038,-1.86266l11.73477,3.53905l3.72532,4.28412l8.94077,-3.72532l3.53905,-3.91159l8.94078,0.55879l6.51931,-1.86266l8.00944,3.72532l4.84292,-2.42145l5.40171,-2.79399" fill="#0f820e" stroke="#0f820e" stroke-width="2" stroke-linecap="round"/></g></g></svg>