<svg version="1.1" xmlns="http://www.w3.org/2000/svg" xmlns:xlink="http://www.w3.org/1999/xlink" width="101.0759" height="148.7654" viewBox="0,0,101.0759,148.7654"><g transform="translate(-98.84322,-95.48459)"><g data-paper-data="{&quot;isPaintingLayer&quot;:true}" fill-rule="nonzero" stroke-linejoin="miter" stroke-miterlimit="10" stroke-dasharray="" stroke-dashoffset="0" style="mix-blend-mode: normal"><g><path d="M99,140.5v-45h77v45z" fill="#453d34" stroke="none" stroke-width="0" stroke-linecap="butt"/><path d="M111.54202,109.33754l10.29412,-4.41177" fill="none" stroke="#8a2f00" stroke-width="3" stroke-linecap="round"/><path d="M118.01261,107.57283l5.29412,6.17647" fill="none" stroke="#8a2f00" stroke-width="3" stroke-linecap="round"/><path d="M127.71849,130.21989l7.35294,-7.64706" fill="none" stroke="#8a2f00" stroke-width="3" stroke-linecap="round"/><path d="M140.36555,127.57283l-7.05882,-1.17647" fill="none" stroke="#8a2f00" stroke-width="3" stroke-linecap="round"/><path d="M137.42437,110.51401l13.52941,-2.05882l8.52942,4.41177" fill="none" stroke="#8a2f00" stroke-width="3" stroke-linecap="round"/><path d="M108.60084,122.57283l-0.88236,7.35294l7.35295,2.94117" fill="none" stroke="#8a2f00" stroke-width="3" stroke-linecap="round"/><path d="M111.2479,132.86694l-2.05882,5.29412" fill="none" stroke="#8a2f00" stroke-width="3" stroke-linecap="round"/><path d="M144.77731,110.51401l4.11765,6.17647" fill="none" stroke="#8a2f00" stroke-width="3" stroke-linecap="round"/><path d="M149.4832,107.57283l5.88235,-4.41177" fill="none" stroke="#8a2f00" stroke-width="3" stroke-linecap="round"/><path d="M174.18908,126.9846l-6.17647,-2.64706l-7.64706,5.58823" fill="none" stroke="#8a2f00" stroke-width="3" stroke-linecap="round"/><path d="M163.01261,125.51401l-5,-2.35294" fill="none" stroke="#8a2f00" stroke-width="3" stroke-linecap="round"/><path d="M137.71848,138.7493l14.70589,-4.70588" fill="none" stroke="#8a2f00" stroke-width="3" stroke-linecap="round"/><path d="M147.42437,136.69048l4.41177,1.76471" fill="none" stroke="#8a2f00" stroke-width="3" stroke-linecap="round"/><path d="M100.36555,110.21989l0.29412,-13.2353h74.11765v13.2353l-5.51937,-1.27124l-5.64255,5.20184l-8.82322,-9.39217l-8.26602,7.81419l-12.47026,-7.74432l-8.70083,9.33194l-8.50212,-6.38236l-7.36974,6.26563z" fill="#94671e" stroke="#94671e" stroke-width="3" stroke-linecap="butt"/></g><g><path d="M122.75,244.25v-45h77v45z" fill="#453d34" stroke="none" stroke-width="0" stroke-linecap="butt"/><path d="M175.58614,242.20518l-4.41177,-1.76471l-5.1082,-8.15371" fill="none" stroke="#8a2f00" stroke-width="3" stroke-linecap="round"/><path d="M124.59559,220.22794l17.64706,-7.94118l7.05882,6.17647l21.47059,-4.11765" fill="none" stroke="#8a2f00" stroke-width="3" stroke-linecap="round"/><path d="M157.53677,217.58088l14.11765,4.70588" fill="none" stroke="#8a2f00" stroke-width="3" stroke-linecap="round"/><path d="M132.53676,242.28676l11.47059,-3.23529l-3.82353,-11.7647" fill="none" stroke="#8a2f00" stroke-width="3" stroke-linecap="round"/><path d="M185.77206,214.34559l12.35294,-9.11765" fill="none" stroke="#8a2f00" stroke-width="3" stroke-linecap="round"/><path d="M186.06618,227.875l12.35294,7.64705" fill="none" stroke="#8a2f00" stroke-width="3" stroke-linecap="round"/><path d="M190.77206,229.34559l5,-7.35294" fill="none" stroke="#8a2f00" stroke-width="3" stroke-linecap="round"/><path d="M188.71324,209.63971l-12.94117,-5" fill="none" stroke="#8a2f00" stroke-width="3" stroke-linecap="round"/><path d="M124.59559,206.1103l5.88235,-1.47059l7.94118,0" fill="none" stroke="#8a2f00" stroke-width="3" stroke-linecap="round"/></g></g></g></svg>