<svg version="1.1" xmlns="http://www.w3.org/2000/svg" xmlns:xlink="http://www.w3.org/1999/xlink" width="627.49218" height="473.93658" viewBox="0,0,627.49218,473.93658"><g transform="translate(36.40706,33.62177)"><g data-paper-data="{&quot;isPaintingLayer&quot;:true}" fill-rule="nonzero" stroke-linejoin="miter" stroke-miterlimit="10" stroke-dasharray="" stroke-dashoffset="0" style="mix-blend-mode: normal"><g data-paper-data="{&quot;index&quot;:null}"><path d="M459.49757,382.53503l7.89209,-38.05949l74.58361,7.93204l-7.89207,38.05955z" fill="#453d34" stroke="none" stroke-width="0" stroke-linecap="butt"/><path d="M494.22249,375.88688l-6.37789,6.36992l-4.5828,1.03805" fill="none" stroke="#8a2f00" stroke-width="3" stroke-linecap="round"/><path d="M492.81077,360.22805l20.07467,5.69433l7.92056,-4.49672l15.70052,8.53427" fill="none" stroke="#8a2f00" stroke-width="3" stroke-linecap="round"/><path d="M490.56341,366.8535l14.49991,-2.52576" fill="none" stroke="#8a2f00" stroke-width="3" stroke-linecap="round"/><path d="M524.94589,387.79848l-10.54326,-3.91788l5.76685,-9.55635" fill="none" stroke="#8a2f00" stroke-width="3" stroke-linecap="round"/><path d="M478.28154,358.68286l-10.36623,-8.98396" fill="none" stroke="#8a2f00" stroke-width="3" stroke-linecap="round"/><path d="M462.31741,375.29036l13.30642,-5.19507" fill="none" stroke="#8a2f00" stroke-width="3" stroke-linecap="round"/><path d="M467.25416,364.12032l3.55356,6.73396" fill="none" stroke="#8a2f00" stroke-width="3" stroke-linecap="round"/><path d="M476.25796,354.39977l13.41193,-2.89569" fill="none" stroke="#8a2f00" stroke-width="3" stroke-linecap="round"/><path d="M525.85065,355.35191l7.69196,0.81804l5.43989,1.8498" fill="none" stroke="#8a2f00" stroke-width="3" stroke-linecap="round"/></g><g data-paper-data="{&quot;index&quot;:null}"><path d="M460.05912,240.07794l-28.69254,-22.64414l43.8393,-58.57995l28.69259,22.64414z" fill="#453d34" stroke="none" stroke-width="0" stroke-linecap="butt"/><path d="M471.60888,208.43205l2.29061,7.98917l-1.38661,4.24437" fill="none" stroke="#8a2f00" stroke-width="3" stroke-linecap="round"/><path d="M457.49009,202.98414l14.84956,-14.26237l0.08068,-8.47826l15.11059,-9.42946" fill="none" stroke="#8a2f00" stroke-width="3" stroke-linecap="round"/><path d="M462.0511,207.65143l5.03724,-13.1084" fill="none" stroke="#8a2f00" stroke-width="3" stroke-linecap="round"/><path d="M497.07466,187.9556l-8.59354,7.09862l-5.32445,-8.82893" fill="none" stroke="#8a2f00" stroke-width="3" stroke-linecap="round"/><path d="M436.10343,219.20563l12.84658,-4.80981" fill="none" stroke="#8a2f00" stroke-width="3" stroke-linecap="round"/><path d="M455.25183,234.6735l2.15721,-13.24586" fill="none" stroke="#8a2f00" stroke-width="3" stroke-linecap="round"/><path d="M448.13239,225.85162l7.53507,-0.10387" fill="none" stroke="#8a2f00" stroke-width="3" stroke-linecap="round"/><path d="M444.27491,214.26539l4.17988,-12.36135" fill="none" stroke="#8a2f00" stroke-width="3" stroke-linecap="round"/><path d="M469.72137,173.48669l4.52125,-6.04148l4.28681,-3.73517" fill="none" stroke="#8a2f00" stroke-width="3" stroke-linecap="round"/></g><g data-paper-data="{&quot;index&quot;:null}"><path d="M391.78989,386.8752l2.76468,-38.77069l74.97622,-2.04912l-2.76465,38.77075z" fill="#453d34" stroke="none" stroke-width="0" stroke-linecap="butt"/><path d="M425.32345,375.67167l-5.47488,7.16094l-4.40422,1.63782" fill="none" stroke="#8a2f00" stroke-width="3" stroke-linecap="round"/><path d="M421.84347,360.33932l20.65332,2.97627l7.25279,-5.50934l16.69534,6.37227" fill="none" stroke="#8a2f00" stroke-width="3" stroke-linecap="round"/><path d="M420.49645,367.20467l14.03569,-4.43014" fill="none" stroke="#8a2f00" stroke-width="3" stroke-linecap="round"/><path d="M457.35724,383.39507l-10.97038,-2.48213l4.44584,-10.23791" fill="none" stroke="#8a2f00" stroke-width="3" stroke-linecap="round"/><path d="M407.23776,360.73851l-11.46811,-7.5268" fill="none" stroke="#8a2f00" stroke-width="3" stroke-linecap="round"/><path d="M406.12013,372.40289l-12.49809,6.91718" fill="none" stroke="#8a2f00" stroke-width="3" stroke-linecap="round"/><path d="M397.03071,367.59308l4.41687,6.20204" fill="none" stroke="#8a2f00" stroke-width="3" stroke-linecap="round"/><path d="M417.57118,352.11008l-12.90821,4.65221" fill="none" stroke="#8a2f00" stroke-width="3" stroke-linecap="round"/><path d="M453.94239,351.11601l7.73245,-0.21134l5.63745,1.11053" fill="none" stroke="#8a2f00" stroke-width="3" stroke-linecap="round"/></g><path d="M249.42535,436.13759l-12.19455,-32.46421c0,0 66.03497,-24.80475 98.99136,-37.18418c32.87512,-12.3489 98.50372,-37.00101 98.50372,-37.00101l12.19455,32.46421z" fill="#676767" stroke="none" stroke-width="0" stroke-linecap="butt"/><path d="M250.37294,428.69658l190.6671,-71.62039" fill="none" stroke="#444444" stroke-width="2" stroke-linecap="round"/><path d="M247.89614,422.10288l190.6671,-71.62039" fill="none" stroke="#444444" stroke-width="2" stroke-linecap="round"/><path d="M435.94565,343.51396l-190.6671,71.62039" fill="none" stroke="#444444" stroke-width="2" stroke-linecap="round"/><path d="M240.20566,410.63838l-2.65003,-7.05489l196.8397,-73.93901l2.65003,7.05489z" fill="#c6c6c6" stroke="none" stroke-width="0" stroke-linecap="butt"/><path d="M238.56584,440.31481l-2.65003,-7.05488l215.5624,-80.97183l2.65003,7.05488z" fill="#c6c6c6" stroke="none" stroke-width="0" stroke-linecap="butt"/><path d="M379.97879,255.08l-0.26156,-34.678c0,0 70.538,-0.53203 105.74174,-0.79755c35.11693,-0.26487 105.22085,-0.79362 105.22085,-0.79362l0.26156,34.678z" fill="#676767" stroke="none" stroke-width="0" stroke-linecap="butt"/><path d="M587.10128,246.88503l-203.669,1.53616" fill="none" stroke="#444444" stroke-width="2" stroke-linecap="round"/><path d="M383.37917,241.37785l203.669,-1.53616" fill="none" stroke="#444444" stroke-width="2" stroke-linecap="round"/><path d="M586.99204,232.39796l-203.669,1.53616" fill="none" stroke="#444444" stroke-width="2" stroke-linecap="round"/><path d="M380.10998,227.96552l-0.05684,-7.53597l210.26253,-1.58589l0.05684,7.53597z" fill="#c6c6c6" stroke="none" stroke-width="0" stroke-linecap="butt"/><path d="M380.59753,255.28565l-0.0127,-7.53617l210.48759,-0.42449l0.0127,7.53617z" fill="#c6c6c6" stroke="none" stroke-width="0" stroke-linecap="butt"/><path d="M387.72116,253.77724l-7.53616,0.00196l-0.42448,-32.46286l7.53616,-0.00196z" fill="#c6c6c6" stroke="none" stroke-width="0" stroke-linecap="butt"/><g data-paper-data="{&quot;index&quot;:null}"><path d="M505.0132,218.49327l-36.45123,2.70682l-7.28914,-72.80359l36.45127,-2.70686z" fill="#453d34" stroke="none" stroke-width="0" stroke-linecap="butt"/><path d="M492.13403,187.36473l7.0883,4.33933l1.84708,4.06517" fill="none" stroke="#8a2f00" stroke-width="3" stroke-linecap="round"/><path d="M478.04665,192.89336l1.3029,-20.54816l-5.67136,-6.30262l4.76204,-17.16297" fill="none" stroke="#8a2f00" stroke-width="3" stroke-linecap="round"/><path d="M484.56273,193.24996l-5.14831,-13.06518" fill="none" stroke="#8a2f00" stroke-width="3" stroke-linecap="round"/><path d="M497.06023,155.06111l-1.53478,11.0401l-9.89173,-2.90749" fill="none" stroke="#8a2f00" stroke-width="3" stroke-linecap="round"/><path d="M479.46665,207.07585l-6.21618,12.22816" fill="none" stroke="#8a2f00" stroke-width="3" stroke-linecap="round"/><path d="M490.45367,206.54016l7.36368,11.21974" fill="none" stroke="#8a2f00" stroke-width="3" stroke-linecap="round"/><path d="M486.60757,216.07091l5.48279,-5.16982" fill="none" stroke="#8a2f00" stroke-width="3" stroke-linecap="round"/><path d="M470.65796,198.20472l5.27519,11.93511" fill="none" stroke="#8a2f00" stroke-width="3" stroke-linecap="round"/><path d="M467.12196,162.88745l-0.75174,-7.5084l0.63442,-5.65029" fill="none" stroke="#8a2f00" stroke-width="3" stroke-linecap="round"/></g><g data-paper-data="{&quot;index&quot;:null}"><path d="M502.53229,142.15654l-31.23856,18.97818l-39.58203,-61.53663l31.23858,-18.97824z" fill="#453d34" stroke="none" stroke-width="0" stroke-linecap="butt"/><path d="M476.91228,120.28249l8.28611,0.64361l3.4929,2.78154" fill="none" stroke="#8a2f00" stroke-width="3" stroke-linecap="round"/><path d="M466.87676,131.60982l-8.17859,-18.89537l-7.91629,-3.0364l-3.5588,-17.45221" fill="none" stroke="#8a2f00" stroke-width="3" stroke-linecap="round"/><path d="M472.84301,128.9659l-10.52397,-9.29786" fill="none" stroke="#8a2f00" stroke-width="3" stroke-linecap="round"/><path d="M466.61828,89.26919l3.65063,10.53149l-10.13248,1.90596" fill="none" stroke="#8a2f00" stroke-width="3" stroke-linecap="round"/><path d="M474.58757,143.59743l0.02066,13.71745" fill="none" stroke="#8a2f00" stroke-width="3" stroke-linecap="round"/><path d="M484.13075,138.12666l11.65855,6.64715" fill="none" stroke="#8a2f00" stroke-width="3" stroke-linecap="round"/><path d="M485.03658,148.3642l2.53409,-7.09693" fill="none" stroke="#8a2f00" stroke-width="3" stroke-linecap="round"/><path d="M472.8327,147.93264l-10.12337,-8.23358" fill="none" stroke="#8a2f00" stroke-width="3" stroke-linecap="round"/><path d="M443.50794,109.84743l-4.08218,-6.34642l-2.00295,-5.32132" fill="none" stroke="#8a2f00" stroke-width="3" stroke-linecap="round"/></g><g data-paper-data="{&quot;index&quot;:null}"><path d="M471.10245,90.63251l-35.4608,8.86289l-19.55718,-70.5054l35.46083,-8.86293z" fill="#453d34" stroke="none" stroke-width="0" stroke-linecap="butt"/><path d="M453.1199,62.1459l7.7227,3.07143l2.51114,3.69208" fill="none" stroke="#8a2f00" stroke-width="3" stroke-linecap="round"/><path d="M440.17717,69.98846l-2.20854,-20.47063l-6.66007,-5.24698l1.77564,-17.72263" fill="none" stroke="#8a2f00" stroke-width="3" stroke-linecap="round"/><path d="M439.36502,57.23231l7.29403,12.00005" fill="none" stroke="#8a2f00" stroke-width="3" stroke-linecap="round"/><path d="M452.48392,29.47501l0.36399,11.14033l-10.24198,-1.18393" fill="none" stroke="#8a2f00" stroke-width="3" stroke-linecap="round"/><path d="M443.98704,83.72324l-4.04737,13.10678" fill="none" stroke="#8a2f00" stroke-width="3" stroke-linecap="round"/><path d="M463.88665,91.13286l-9.1635,-9.80492" fill="none" stroke="#8a2f00" stroke-width="3" stroke-linecap="round"/><path d="M452.5529,91.37372l4.52433,-6.02648" fill="none" stroke="#8a2f00" stroke-width="3" stroke-linecap="round"/><path d="M433.79872,76.47836l7.227,10.86485" fill="none" stroke="#8a2f00" stroke-width="3" stroke-linecap="round"/><path d="M424.31146,42.27596l-2.01697,-7.27138l-0.33517,-5.67591" fill="none" stroke="#8a2f00" stroke-width="3" stroke-linecap="round"/></g><g data-paper-data="{&quot;index&quot;:null}"><path d="M444.91636,4.42829l-7.92034,35.68315l-71.81251,-14.01635l7.92031,-35.6832z" fill="#453d34" stroke="none" stroke-width="0" stroke-linecap="butt"/><path d="M411.39616,7.78312l6.19916,-5.53572l4.42513,-0.59625" fill="none" stroke="#8a2f00" stroke-width="3" stroke-linecap="round"/><path d="M412.62724,22.86637l-19.2994,-7.17342l-7.6704,3.61279l-15.06045,-9.50934" fill="none" stroke="#8a2f00" stroke-width="3" stroke-linecap="round"/><path d="M400.85306,17.8917l13.9948,-1.16172" fill="none" stroke="#8a2f00" stroke-width="3" stroke-linecap="round"/><path d="M381.88568,-6.24981l10.12842,4.65342l-5.63663,8.63297" fill="none" stroke="#8a2f00" stroke-width="3" stroke-linecap="round"/><path d="M426.61668,25.59678l9.91594,9.47855" fill="none" stroke="#8a2f00" stroke-width="3" stroke-linecap="round"/><path d="M429.27229,14.92208l12.86665,-3.81516" fill="none" stroke="#8a2f00" stroke-width="3" stroke-linecap="round"/><path d="M437.28893,21.35334l-3.36899,-6.74077" fill="none" stroke="#8a2f00" stroke-width="3" stroke-linecap="round"/><path d="M428.53145,29.86378l-12.94934,1.6091" fill="none" stroke="#8a2f00" stroke-width="3" stroke-linecap="round"/><path d="M380.74562,24.67351l-7.40618,-1.44554l-5.22728,-2.23695" fill="none" stroke="#8a2f00" stroke-width="3" stroke-linecap="round"/></g><g data-paper-data="{&quot;index&quot;:null}"><path d="M370.06889,-13.5472l2.63063,36.4568l-72.81867,7.13696l-2.63067,-36.45685z" fill="#453d34" stroke="none" stroke-width="0" stroke-linecap="butt"/><path d="M338.9135,-0.73312l4.35414,-7.07921l4.06902,-1.83858" fill="none" stroke="#8a2f00" stroke-width="3" stroke-linecap="round"/><path d="M344.41267,13.36578l-20.54539,-1.34584l-6.31446,5.65817l-17.15298,-4.7979" fill="none" stroke="#8a2f00" stroke-width="3" stroke-linecap="round"/><path d="M344.78289,6.85046l-13.07591,5.12099" fill="none" stroke="#8a2f00" stroke-width="3" stroke-linecap="round"/><path d="M306.62025,-5.72683l11.03687,1.55785l-2.92816,9.88563" fill="none" stroke="#8a2f00" stroke-width="3" stroke-linecap="round"/><path d="M370.81324,18.21715l-12.21514,-6.24173" fill="none" stroke="#8a2f00" stroke-width="3" stroke-linecap="round"/><path d="M358.08538,0.98731l11.23511,-7.34021" fill="none" stroke="#8a2f00" stroke-width="3" stroke-linecap="round"/><path d="M367.60807,4.85332l-5.15835,-5.49358" fill="none" stroke="#8a2f00" stroke-width="3" stroke-linecap="round"/><path d="M349.70858,20.76556l11.94611,-5.25024" fill="none" stroke="#8a2f00" stroke-width="3" stroke-linecap="round"/><path d="M314.384,24.22773l-7.50995,0.73605l-5.64896,-0.64622" fill="none" stroke="#8a2f00" stroke-width="3" stroke-linecap="round"/></g><g data-paper-data="{&quot;index&quot;:null}"><path d="M308.15166,-5.07185l-9.26892,35.35683l-71.22881,-16.73177l9.2689,-35.35689z" fill="#453d34" stroke="none" stroke-width="0" stroke-linecap="butt"/><path d="M274.52828,-2.99165l6.40479,-5.29646l4.44457,-0.42788" fill="none" stroke="#8a2f00" stroke-width="3" stroke-linecap="round"/><path d="M275.18602,12.12746l-19.01324,-7.90072l-7.80199,3.31907l-14.68869,-10.07408" fill="none" stroke="#8a2f00" stroke-width="3" stroke-linecap="round"/><path d="M263.60912,6.7095l14.02881,-0.62973" fill="none" stroke="#8a2f00" stroke-width="3" stroke-linecap="round"/><path d="M245.57166,-18.13449l9.94451,5.03447l-5.96022,8.41283" fill="none" stroke="#8a2f00" stroke-width="3" stroke-linecap="round"/><path d="M298.6108,25.23491l-9.54905,-9.84806" fill="none" stroke="#8a2f00" stroke-width="3" stroke-linecap="round"/><path d="M305.12276,1.49654l-13.00218,3.32408" fill="none" stroke="#8a2f00" stroke-width="3" stroke-linecap="round"/><path d="M299.88737,11.55151l-3.11074,-6.86377" fill="none" stroke="#8a2f00" stroke-width="3" stroke-linecap="round"/><path d="M277.81212,20.83992l13.00108,-1.11648" fill="none" stroke="#8a2f00" stroke-width="3" stroke-linecap="round"/><path d="M243.25878,12.72329l-7.34598,-1.72559l-5.13861,-2.43373" fill="none" stroke="#8a2f00" stroke-width="3" stroke-linecap="round"/></g><g data-paper-data="{&quot;index&quot;:null}"><path d="M238.62576,-24.00796l0.52216,36.54786l-73.10919,2.92239l-0.5222,-36.54791z" fill="#453d34" stroke="none" stroke-width="0" stroke-linecap="butt"/><path d="M206.78274,-13.01335l4.75545,-6.81612l4.16835,-1.60068" fill="none" stroke="#8a2f00" stroke-width="3" stroke-linecap="round"/><path d="M211.45904,1.37943l-20.43347,-2.52936l-6.63049,5.28431l-16.84748,-5.77988" fill="none" stroke="#8a2f00" stroke-width="3" stroke-linecap="round"/><path d="M198.85499,-0.74587l13.34967,-4.35779" fill="none" stroke="#8a2f00" stroke-width="3" stroke-linecap="round"/><path d="M174.83152,-19.86251l10.92856,2.19224l-3.49382,9.70016" fill="none" stroke="#8a2f00" stroke-width="3" stroke-linecap="round"/><path d="M225.70107,0.8101l11.83454,6.93631" fill="none" stroke="#8a2f00" stroke-width="3" stroke-linecap="round"/><path d="M225.82336,-10.18929l11.64001,-6.67955" fill="none" stroke="#8a2f00" stroke-width="3" stroke-linecap="round"/><path d="M230.27436,-11.56227l4.8327,5.78214" fill="none" stroke="#8a2f00" stroke-width="3" stroke-linecap="round"/><path d="M228.54825,4.5205l-12.22921,4.55203" fill="none" stroke="#8a2f00" stroke-width="3" stroke-linecap="round"/><path d="M180.85352,10.49019l-7.5399,0.30139l-5.60225,-0.97118" fill="none" stroke="#8a2f00" stroke-width="3" stroke-linecap="round"/></g><g data-paper-data="{&quot;index&quot;:null}"><path d="M165.32987,-21.41329l7.87752,35.69262l-71.01993,17.59729l-7.87757,-35.69266z" fill="#453d34" stroke="none" stroke-width="0" stroke-linecap="butt"/><path d="M136.35622,-4.22646l3.2841,-7.63469l3.7602,-2.40795" fill="none" stroke="#8a2f00" stroke-width="3" stroke-linecap="round"/><path d="M143.83737,8.92848l-20.52394,1.64083l-5.4294,6.51222l-17.66667,-2.26573" fill="none" stroke="#8a2f00" stroke-width="3" stroke-linecap="round"/><path d="M131.06362,9.38707l12.19743,-6.95893" fill="none" stroke="#8a2f00" stroke-width="3" stroke-linecap="round"/><path d="M103.68025,-4.49544l11.14613,-0.05535l-1.4671,10.20527" fill="none" stroke="#8a2f00" stroke-width="3" stroke-linecap="round"/><path d="M157.67239,5.5004l12.98967,4.40877" fill="none" stroke="#8a2f00" stroke-width="3" stroke-linecap="round"/><path d="M155.57529,-5.29792l10.05491,-8.88848" fill="none" stroke="#8a2f00" stroke-width="3" stroke-linecap="round"/><path d="M165.55713,-2.85034l-5.89889,-4.68947" fill="none" stroke="#8a2f00" stroke-width="3" stroke-linecap="round"/><path d="M161.20896,8.56081l-11.06081,6.92337" fill="none" stroke="#8a2f00" stroke-width="3" stroke-linecap="round"/><path d="M115.69614,24.02069l-7.32444,1.81484l-5.68303,0.17786" fill="none" stroke="#8a2f00" stroke-width="3" stroke-linecap="round"/></g><g data-paper-data="{&quot;index&quot;:null}"><path d="M91.97426,-7.86831l25.17811,26.49681l-51.72943,51.74515l-25.17818,-26.49682z" fill="#453d34" stroke="none" stroke-width="0" stroke-linecap="butt"/><path d="M76.03864,21.81191l-1.13039,-8.23383l1.97649,-4.00385" fill="none" stroke="#8a2f00" stroke-width="3" stroke-linecap="round"/><path d="M89.23847,29.21357l-16.72806,12.00403l-1.28637,8.38049l-16.29868,7.18315" fill="none" stroke="#8a2f00" stroke-width="3" stroke-linecap="round"/><path d="M85.38805,23.94471l-6.85139,12.25816" fill="none" stroke="#8a2f00" stroke-width="3" stroke-linecap="round"/><path d="M47.9181,38.45602l9.51626,-5.80346l4.01385,9.49678" fill="none" stroke="#8a2f00" stroke-width="3" stroke-linecap="round"/><path d="M99.31558,19.13333l13.4003,-2.9327" fill="none" stroke="#8a2f00" stroke-width="3" stroke-linecap="round"/><path d="M91.94331,10.96931l4.02023,-12.80406" fill="none" stroke="#8a2f00" stroke-width="3" stroke-linecap="round"/><path d="M101.75511,7.91047l-7.47317,-0.96947" fill="none" stroke="#8a2f00" stroke-width="3" stroke-linecap="round"/><path d="M103.92454,19.92773l-5.89644,11.64073" fill="none" stroke="#8a2f00" stroke-width="3" stroke-linecap="round"/><path d="M72.93399,56.67022l-5.33497,5.33658l-4.77474,3.08713" fill="none" stroke="#8a2f00" stroke-width="3" stroke-linecap="round"/></g><g data-paper-data="{&quot;index&quot;:null}"><path d="M35.36402,40.72742l34.98369,10.59054l-19.39561,70.55001l-34.98376,-10.59051z" fill="#453d34" stroke="none" stroke-width="0" stroke-linecap="butt"/><path d="M36.17973,74.40522l-5.05213,-6.59922l-0.26062,-4.45751" fill="none" stroke="#8a2f00" stroke-width="3" stroke-linecap="round"/><path d="M51.31286,74.31588l-8.60936,18.70304l3.02364,7.92117l-10.61874,14.29989" fill="none" stroke="#8a2f00" stroke-width="3" stroke-linecap="round"/><path d="M45.36154,71.63852l0.1023,14.04257" fill="none" stroke="#8a2f00" stroke-width="3" stroke-linecap="round"/><path d="M19.95983,102.77257l5.40448,-9.74838l8.18299,6.27204" fill="none" stroke="#8a2f00" stroke-width="3" stroke-linecap="round"/><path d="M55.09118,60.57238l10.19982,-9.17237" fill="none" stroke="#8a2f00" stroke-width="3" stroke-linecap="round"/><path d="M41.81401,44.00092l2.83331,13.11788" fill="none" stroke="#8a2f00" stroke-width="3" stroke-linecap="round"/><path d="M44.68942,52.46104l6.97578,-2.85071" fill="none" stroke="#8a2f00" stroke-width="3" stroke-linecap="round"/><path d="M59.4905,58.98507l0.62732,13.03385" fill="none" stroke="#8a2f00" stroke-width="3" stroke-linecap="round"/><path d="M50.70894,106.24297l-2.00031,7.27597l-2.62505,5.04357" fill="none" stroke="#8a2f00" stroke-width="3" stroke-linecap="round"/></g><g><path d="M-22.482,215.34571l44.42321,-7.18184l12.28891,76.01304l-44.42322,7.18184z" fill="#453d34" stroke="none" stroke-width="0" stroke-linecap="butt"/><path d="M-12.03095,267.17826l1.038,-4.63686l7.23395,-6.34402" fill="none" stroke="#8a2f00" stroke-width="3" stroke-linecap="round"/><path d="M1.52671,213.33381l10.6558,16.15348l-4.97074,7.9541l7.49149,20.53822" fill="none" stroke="#8a2f00" stroke-width="3" stroke-linecap="round"/><path d="M7.00468,260.11804l2.39245,-14.68773" fill="none" stroke="#8a2f00" stroke-width="3" stroke-linecap="round"/><path d="M-2.95383,229.84879l-11.00369,5.65213l-5.02447,-10.80723" fill="none" stroke="#8a2f00" stroke-width="3" stroke-linecap="round"/><path d="M28.06946,283.52681l-10.97228,-10.73947" fill="none" stroke="#8a2f00" stroke-width="3" stroke-linecap="round"/><path d="M3.78814,275.23694l-5.57755,13.41505" fill="none" stroke="#8a2f00" stroke-width="3" stroke-linecap="round"/><path d="M3.08743,280.11717l8.05668,3.76242" fill="none" stroke="#8a2f00" stroke-width="3" stroke-linecap="round"/><path d="M25.08269,261.36652l-2.87054,13.57327" fill="none" stroke="#8a2f00" stroke-width="3" stroke-linecap="round"/><path d="M15.46339,211.08069l2.39054,5.57225l1.26738,7.83938" fill="none" stroke="#8a2f00" stroke-width="3" stroke-linecap="round"/></g><g data-paper-data="{&quot;index&quot;:null}"><path d="M20.30504,129.19237l-44.4232,7.18183l-12.2889,-76.01304l44.42322,-7.18183z" fill="#453d34" stroke="none" stroke-width="0" stroke-linecap="butt"/><path d="M9.85399,77.35981l-1.03799,4.63687l-7.23395,6.34403" fill="none" stroke="#8a2f00" stroke-width="3" stroke-linecap="round"/><path d="M-3.70367,131.20427l-10.6558,-16.15348l4.97074,-7.9541l-7.49149,-20.53822" fill="none" stroke="#8a2f00" stroke-width="3" stroke-linecap="round"/><path d="M-9.18164,84.42004l-2.39245,14.68774" fill="none" stroke="#8a2f00" stroke-width="3" stroke-linecap="round"/><path d="M0.77687,114.68929l11.00369,-5.65213l5.02447,10.80723" fill="none" stroke="#8a2f00" stroke-width="3" stroke-linecap="round"/><path d="M-30.24642,61.01127l10.97228,10.73947" fill="none" stroke="#8a2f00" stroke-width="3" stroke-linecap="round"/><path d="M-0.38755,55.8861l-5.57755,13.41504" fill="none" stroke="#8a2f00" stroke-width="3" stroke-linecap="round"/><path d="M-13.32107,60.65848l8.05668,3.76242" fill="none" stroke="#8a2f00" stroke-width="3" stroke-linecap="round"/><path d="M-27.25965,83.17156l2.87054,-13.57327" fill="none" stroke="#8a2f00" stroke-width="3" stroke-linecap="round"/><path d="M-17.64035,133.45739l-2.39054,-5.57225l-1.26738,-7.83939" fill="none" stroke="#8a2f00" stroke-width="3" stroke-linecap="round"/></g><g data-paper-data="{&quot;index&quot;:null}"><path d="M51.55735,122.25733l-44.01988,9.34076l-15.98307,-75.32291l44.0199,-9.34076z" fill="#453d34" stroke="none" stroke-width="0" stroke-linecap="butt"/><path d="M38.58975,70.99642l-0.81051,4.68199l-6.9158,6.68943" fill="none" stroke="#8a2f00" stroke-width="3" stroke-linecap="round"/><path d="M27.6754,125.43825l-11.43126,-15.61433l4.57673,-8.18716l-8.48466,-20.14824" fill="none" stroke="#8a2f00" stroke-width="3" stroke-linecap="round"/><path d="M19.92127,78.97702l-1.67296,14.78698" fill="none" stroke="#8a2f00" stroke-width="3" stroke-linecap="round"/><path d="M31.34481,108.72433l10.71481,-6.18229l5.54579,10.54921" fill="none" stroke="#8a2f00" stroke-width="3" stroke-linecap="round"/><path d="M9.22264,66.81524l-11.48321,-10.19132" fill="none" stroke="#8a2f00" stroke-width="3" stroke-linecap="round"/><path d="M22.3963,63.71919l4.91637,-13.6712" fill="none" stroke="#8a2f00" stroke-width="3" stroke-linecap="round"/><path d="M22.85807,58.81058l-8.23066,-3.36484" fill="none" stroke="#8a2f00" stroke-width="3" stroke-linecap="round"/><path d="M4.00874,64.91493l-2.20486,13.69716" fill="none" stroke="#8a2f00" stroke-width="3" stroke-linecap="round"/><path d="M13.86525,128.36868l-2.65957,-5.44897l-1.64837,-7.76822" fill="none" stroke="#8a2f00" stroke-width="3" stroke-linecap="round"/></g><g data-paper-data="{&quot;index&quot;:null}"><path d="M27.67212,62.6034l-43.59414,-11.16024l19.09642,-74.59441l43.59415,11.16025z" fill="#453d34" stroke="none" stroke-width="0" stroke-linecap="butt"/><path d="M38.79483,10.91081l-2.80373,3.83629l-9.16584,2.92645" fill="none" stroke="#8a2f00" stroke-width="3" stroke-linecap="round"/><path d="M4.85824,54.85787l-3.31652,-19.06519l7.73414,-5.30651l1.33582,-21.82101" fill="none" stroke="#8a2f00" stroke-width="3" stroke-linecap="round"/><path d="M18.5236,9.77982l-8.06013,12.50951" fill="none" stroke="#8a2f00" stroke-width="3" stroke-linecap="round"/><path d="M15.56252,41.50727l12.34542,-0.78637l0.28943,11.9146" fill="none" stroke="#8a2f00" stroke-width="3" stroke-linecap="round"/><path d="M8.56255,-20.09447l5.76922,14.22826" fill="none" stroke="#8a2f00" stroke-width="3" stroke-linecap="round"/><path d="M37.98318,-12.86629l-10.47174,10.0705" fill="none" stroke="#8a2f00" stroke-width="3" stroke-linecap="round"/><path d="M24.21997,-13.65729l5.8832,6.66737" fill="none" stroke="#8a2f00" stroke-width="3" stroke-linecap="round"/><path d="M10.50234,-9.8826l-8.05326,11.29684" fill="none" stroke="#8a2f00" stroke-width="3" stroke-linecap="round"/><path d="M-8.81833,51.35662l0.03421,-6.06329l1.96946,-7.69308" fill="none" stroke="#8a2f00" stroke-width="3" stroke-linecap="round"/></g><g data-paper-data="{&quot;index&quot;:null}"><path d="M36.18394,52.09618l-31.07185,-32.55057l55.69765,-53.16738l31.07186,32.55059z" fill="#453d34" stroke="none" stroke-width="0" stroke-linecap="butt"/><path d="M72.99083,14.13448l-4.40975,1.76977l-9.32502,-2.37082" fill="none" stroke="#8a2f00" stroke-width="3" stroke-linecap="round"/><path d="M20.93204,33.44556l7.28165,-17.92926l9.37075,-0.4063l12.68749,-17.80361" fill="none" stroke="#8a2f00" stroke-width="3" stroke-linecap="round"/><path d="M42.93215,8.78541l13.4613,-6.34405" fill="none" stroke="#8a2f00" stroke-width="3" stroke-linecap="round"/><path d="M37.08174,27.7881l10.8891,5.86986l-6.06329,10.2605" fill="none" stroke="#8a2f00" stroke-width="3" stroke-linecap="round"/><path d="M63.76197,-28.17564l-2.63985,15.12476" fill="none" stroke="#8a2f00" stroke-width="3" stroke-linecap="round"/><path d="M70.67674,-3.46753l14.21563,-2.99806" fill="none" stroke="#8a2f00" stroke-width="3" stroke-linecap="round"/><path d="M75.09613,-5.65311l-1.46037,-8.77116" fill="none" stroke="#8a2f00" stroke-width="3" stroke-linecap="round"/><path d="M47.18692,-13.16674l12.81336,-5.31897" fill="none" stroke="#8a2f00" stroke-width="3" stroke-linecap="round"/><path d="M11.18401,23.23362l3.23955,-5.12542l5.74422,-5.48327" fill="none" stroke="#8a2f00" stroke-width="3" stroke-linecap="round"/></g><g><path d="M-10.71981,284.18305l44.99457,-0.69907l1.19617,76.99071l-44.99458,0.69907z" fill="#453d34" stroke="none" stroke-width="0" stroke-linecap="butt"/><path d="M-7.85445,336.98104l1.69597,-4.43865l8.07337,-5.23424" fill="none" stroke="#8a2f00" stroke-width="3" stroke-linecap="round"/><path d="M13.32803,285.65524l8.21437,17.52156l-6.06607,7.15393l4.45068,21.40403" fill="none" stroke="#8a2f00" stroke-width="3" stroke-linecap="round"/><path d="M12.00049,332.74038l4.48601,-14.18904" fill="none" stroke="#8a2f00" stroke-width="3" stroke-linecap="round"/><path d="M6.5122,301.35124l-11.70389,4.00583l-3.41308,-11.41895" fill="none" stroke="#8a2f00" stroke-width="3" stroke-linecap="round"/><path d="M20.16001,346.73295l9.30846,12.20982" fill="none" stroke="#8a2f00" stroke-width="3" stroke-linecap="round"/><path d="M6.63681,347.23722l-7.45423,12.47025" fill="none" stroke="#8a2f00" stroke-width="3" stroke-linecap="round"/><path d="M5.2395,351.96535l7.42973,4.88518" fill="none" stroke="#8a2f00" stroke-width="3" stroke-linecap="round"/><path d="M29.70937,336.5834l-4.79835,13.01728" fill="none" stroke="#8a2f00" stroke-width="3" stroke-linecap="round"/><path d="M27.44396,285.43593l1.56179,5.85879l0.12336,7.94021" fill="none" stroke="#8a2f00" stroke-width="3" stroke-linecap="round"/></g><g><path d="M101.85419,397.26623l-8.24634,-44.22691l54.98104,-7.92169l8.24635,44.22692z" fill="#453d34" stroke="none" stroke-width="0" stroke-linecap="butt"/><path d="M139.20654,389.8208l-3.47357,-1.28051l-5.14163,-7.48811" fill="none" stroke="#8a2f00" stroke-width="3" stroke-linecap="round"/><path d="M98.76992,373.46698l11.14546,-9.62027l6.17212,5.34415l14.57629,-6.25579" fill="none" stroke="#8a2f00" stroke-width="3" stroke-linecap="round"/><path d="M121.80613,367.47643l10.94293,3.17263" fill="none" stroke="#8a2f00" stroke-width="3" stroke-linecap="round"/><path d="M111.19406,378.80084l4.88605,11.16922l-7.59757,4.3598" fill="none" stroke="#8a2f00" stroke-width="3" stroke-linecap="round"/><path d="M148.52404,351.16004l-7.14966,10.23188" fill="none" stroke="#8a2f00" stroke-width="3" stroke-linecap="round"/><path d="M154.28549,380.90344l-10.22181,-6.24481" fill="none" stroke="#8a2f00" stroke-width="3" stroke-linecap="round"/><path d="M147.69333,375.61983l2.22277,-7.74102" fill="none" stroke="#8a2f00" stroke-width="3" stroke-linecap="round"/><path d="M142.61214,356.46429l-10.15677,-3.58272" fill="none" stroke="#8a2f00" stroke-width="3" stroke-linecap="round"/><path d="M96.18283,359.59189l3.93075,-2.0505l5.67032,-0.81699" fill="none" stroke="#8a2f00" stroke-width="3" stroke-linecap="round"/></g><g><path d="M91.7668,367.25746l0.41008,-44.98726l55.47837,2.79614l-0.41007,44.98727z" fill="#453d34" stroke="none" stroke-width="0" stroke-linecap="butt"/><path d="M129.85376,367.13187l-3.1626,-1.92441l-3.60614,-8.3369" fill="none" stroke="#8a2f00" stroke-width="3" stroke-linecap="round"/><path d="M93.31545,343.30921l12.78704,-7.29811l5.02958,6.43105l15.50706,-3.33681" fill="none" stroke="#8a2f00" stroke-width="3" stroke-linecap="round"/><path d="M127.2025,347.07632l-10.12887,-5.21722" fill="none" stroke="#8a2f00" stroke-width="3" stroke-linecap="round"/><path d="M104.4824,350.9321l2.64763,11.90021l-8.29401,2.81785" fill="none" stroke="#8a2f00" stroke-width="3" stroke-linecap="round"/><path d="M146.42996,330.98357l-8.98336,8.6665" fill="none" stroke="#8a2f00" stroke-width="3" stroke-linecap="round"/><path d="M146.36579,361.27977l-8.83057,-8.09346" fill="none" stroke="#8a2f00" stroke-width="3" stroke-linecap="round"/><path d="M144.58189,347.6581l-3.66951,7.16929" fill="none" stroke="#8a2f00" stroke-width="3" stroke-linecap="round"/><path d="M139.6086,335.05232l-9.27853,-5.46852" fill="none" stroke="#8a2f00" stroke-width="3" stroke-linecap="round"/><path d="M93.4441,329.19557l4.25163,-1.25657l5.72161,0.28836" fill="none" stroke="#8a2f00" stroke-width="3" stroke-linecap="round"/></g><g><path d="M41.21124,366.25145l0.41008,-44.98726l55.47837,2.79615l-0.41007,44.98727z" fill="#453d34" stroke="none" stroke-width="0" stroke-linecap="butt"/><path d="M79.29821,366.12587l-3.1626,-1.92441l-3.60613,-8.33691" fill="none" stroke="#8a2f00" stroke-width="3" stroke-linecap="round"/><path d="M42.7599,342.3032l12.78704,-7.29811l5.02958,6.43104l15.50706,-3.33682" fill="none" stroke="#8a2f00" stroke-width="3" stroke-linecap="round"/><path d="M66.51807,340.85309l10.12887,5.21722" fill="none" stroke="#8a2f00" stroke-width="3" stroke-linecap="round"/><path d="M53.92685,349.92609l2.64763,11.90021l-8.29402,2.81784" fill="none" stroke="#8a2f00" stroke-width="3" stroke-linecap="round"/><path d="M95.8744,329.97756l-8.98336,8.6665" fill="none" stroke="#8a2f00" stroke-width="3" stroke-linecap="round"/><path d="M95.81023,360.27377l-8.83058,-8.09345" fill="none" stroke="#8a2f00" stroke-width="3" stroke-linecap="round"/><path d="M90.35682,353.82138l3.66951,-7.16929" fill="none" stroke="#8a2f00" stroke-width="3" stroke-linecap="round"/><path d="M89.05304,334.04631l-9.27853,-5.46852" fill="none" stroke="#8a2f00" stroke-width="3" stroke-linecap="round"/><path d="M42.88854,328.18957l4.25163,-1.25657l5.72162,0.28836" fill="none" stroke="#8a2f00" stroke-width="3" stroke-linecap="round"/></g><g><path d="M-12.68578,305.82114l36.78071,-25.92643l44.36298,62.93589l-36.78072,25.92643z" fill="#453d34" stroke="none" stroke-width="0" stroke-linecap="butt"/><path d="M19.4267,347.8286l-1.09942,-4.62268l3.72138,-8.87287" fill="none" stroke="#8a2f00" stroke-width="3" stroke-linecap="round"/><path d="M8.01196,293.48949l16.65794,9.84855l-0.98144,9.32806l15.73567,15.17662" fill="none" stroke="#8a2f00" stroke-width="3" stroke-linecap="round"/><path d="M33.44178,333.13917l-4.28742,-14.2503" fill="none" stroke="#8a2f00" stroke-width="3" stroke-linecap="round"/><path d="M11.22347,310.29741l-7.41297,9.90331l-9.25305,-7.5115" fill="none" stroke="#8a2f00" stroke-width="3" stroke-linecap="round"/><path d="M48.06626,340.10296l14.56937,4.8436" fill="none" stroke="#8a2f00" stroke-width="3" stroke-linecap="round"/><path d="M37.17747,348.13824l0.86675,14.50246" fill="none" stroke="#8a2f00" stroke-width="3" stroke-linecap="round"/><path d="M38.68673,352.83183l8.89064,-0.14959" fill="none" stroke="#8a2f00" stroke-width="3" stroke-linecap="round"/><path d="M50.23794,326.33752l3.36922,13.45816" fill="none" stroke="#8a2f00" stroke-width="3" stroke-linecap="round"/><path d="M19.551,285.35572l4.59105,3.96066l4.57524,6.49071" fill="none" stroke="#8a2f00" stroke-width="3" stroke-linecap="round"/></g><g><path d="M7.33822,209.71775l44.98661,1.09804l-1.87889,76.97707l-44.98662,-1.09804z" fill="#453d34" stroke="none" stroke-width="0" stroke-linecap="butt"/><path d="M8.09316,262.58804l1.87185,-4.36739l8.27593,-4.90771" fill="none" stroke="#8a2f00" stroke-width="3" stroke-linecap="round"/><path d="M31.3081,212.14895l7.50821,17.83558l-6.34688,6.90602l3.59251,21.56466" fill="none" stroke="#8a2f00" stroke-width="3" stroke-linecap="round"/><path d="M28.10159,259.14353l5.04898,-13.99861" fill="none" stroke="#8a2f00" stroke-width="3" stroke-linecap="round"/><path d="M23.87099,227.56029l-11.8545,3.53532l-2.95442,-11.54612" fill="none" stroke="#8a2f00" stroke-width="3" stroke-linecap="round"/><path d="M44.50943,286.02249l-8.81352,-12.57175" fill="none" stroke="#8a2f00" stroke-width="3" stroke-linecap="round"/><path d="M22.16336,273.41464l-7.9462,12.16267" fill="none" stroke="#8a2f00" stroke-width="3" stroke-linecap="round"/><path d="M20.57838,278.08321l7.22875,5.17794" fill="none" stroke="#8a2f00" stroke-width="3" stroke-linecap="round"/><path d="M45.6429,263.69057l-5.31428,12.81531" fill="none" stroke="#8a2f00" stroke-width="3" stroke-linecap="round"/><path d="M45.42153,212.49344l1.32662,5.91648l-0.19377,7.9388" fill="none" stroke="#8a2f00" stroke-width="3" stroke-linecap="round"/></g><g><path d="M1.77316,287.68251l39.56447,-21.43952l36.68538,67.69921l-39.56448,21.43952z" fill="#453d34" stroke="none" stroke-width="0" stroke-linecap="butt"/><path d="M28.74388,333.16238l-0.55035,-4.71964l4.73511,-8.37588" fill="none" stroke="#8a2f00" stroke-width="3" stroke-linecap="round"/><path d="M23.77291,277.86025l15.38962,11.73203l-2.06735,9.14888l13.84958,16.91538" fill="none" stroke="#8a2f00" stroke-width="3" stroke-linecap="round"/><path d="M44.38317,320.21577l-2.58865,-14.65442" fill="none" stroke="#8a2f00" stroke-width="3" stroke-linecap="round"/><path d="M24.99345,294.92865l-8.52199,8.96679l-8.30947,-8.54367" fill="none" stroke="#8a2f00" stroke-width="3" stroke-linecap="round"/><path d="M58.09124,328.8447l13.9017,6.51689" fill="none" stroke="#8a2f00" stroke-width="3" stroke-linecap="round"/><path d="M46.33618,335.54916l-0.83801,14.50415" fill="none" stroke="#8a2f00" stroke-width="3" stroke-linecap="round"/><path d="M47.28524,340.38723l8.84696,0.89287" fill="none" stroke="#8a2f00" stroke-width="3" stroke-linecap="round"/><path d="M63.62998,329.18859l-1.76956,-13.76017" fill="none" stroke="#8a2f00" stroke-width="3" stroke-linecap="round"/><path d="M36.18528,271.13414l4.0955,4.47118l3.78344,6.98196" fill="none" stroke="#8a2f00" stroke-width="3" stroke-linecap="round"/></g><g data-paper-data="{&quot;index&quot;:null}"><path d="M479.56665,60.99048l-35.4608,8.86289l-19.55718,-70.5054l35.46083,-8.86293z" fill="#453d34" stroke="none" stroke-width="0" stroke-linecap="butt"/><path d="M461.5841,32.50387l7.7227,3.07143l2.51114,3.69208" fill="none" stroke="#8a2f00" stroke-width="3" stroke-linecap="round"/><path d="M448.64137,40.34643l-2.20854,-20.47063l-6.66007,-5.24698l1.77564,-17.72263" fill="none" stroke="#8a2f00" stroke-width="3" stroke-linecap="round"/><path d="M447.82922,27.59028l7.29403,12.00005" fill="none" stroke="#8a2f00" stroke-width="3" stroke-linecap="round"/><path d="M460.94812,-0.16702l0.36399,11.14033l-10.24198,-1.18393" fill="none" stroke="#8a2f00" stroke-width="3" stroke-linecap="round"/><path d="M452.45124,54.08121l-4.04737,13.10678" fill="none" stroke="#8a2f00" stroke-width="3" stroke-linecap="round"/><path d="M472.35085,61.49083l-9.1635,-9.80492" fill="none" stroke="#8a2f00" stroke-width="3" stroke-linecap="round"/><path d="M461.0171,61.73169l4.52433,-6.02648" fill="none" stroke="#8a2f00" stroke-width="3" stroke-linecap="round"/><path d="M442.26292,46.83633l7.227,10.86485" fill="none" stroke="#8a2f00" stroke-width="3" stroke-linecap="round"/><path d="M432.77566,12.63393l-2.01697,-7.27138l-0.33517,-5.67591" fill="none" stroke="#8a2f00" stroke-width="3" stroke-linecap="round"/></g><g data-paper-data="{&quot;index&quot;:null}"><path d="M496.00881,72.16245l-36.40423,-3.27889l4.6913,-73.01703l36.40427,3.27886z" fill="#453d34" stroke="none" stroke-width="0" stroke-linecap="butt"/><path d="M488.38302,39.34924l6.285,5.43807l1.15881,4.31213" fill="none" stroke="#8a2f00" stroke-width="3" stroke-linecap="round"/><path d="M473.58219,42.50446l4.63921,-20.05996l-4.56662,-7.14376l7.49945,-16.15558" fill="none" stroke="#8a2f00" stroke-width="3" stroke-linecap="round"/><path d="M477.00586,30.18953l2.94683,13.73027" fill="none" stroke="#8a2f00" stroke-width="3" stroke-linecap="round"/><path d="M498.51562,8.28283l-3.31612,10.64156l-9.28454,-4.48299" fill="none" stroke="#8a2f00" stroke-width="3" stroke-linecap="round"/><path d="M472.66834,56.72853l-8.12865,11.04961" fill="none" stroke="#8a2f00" stroke-width="3" stroke-linecap="round"/><path d="M489.02915,70.26444l-5.43369,-12.27115" fill="none" stroke="#8a2f00" stroke-width="3" stroke-linecap="round"/><path d="M478.24536,66.76848l6.25307,-4.20561" fill="none" stroke="#8a2f00" stroke-width="3" stroke-linecap="round"/><path d="M465.42567,46.53864l3.25646,12.63606" fill="none" stroke="#8a2f00" stroke-width="3" stroke-linecap="round"/><path d="M467.70143,11.11784l0.48383,-7.53041l1.54813,-5.47098" fill="none" stroke="#8a2f00" stroke-width="3" stroke-linecap="round"/></g><g data-paper-data="{&quot;index&quot;:null}"><path d="M497.54461,124.50656l-36.40423,-3.27889l4.6913,-73.01703l36.40427,3.27886z" fill="#453d34" stroke="none" stroke-width="0" stroke-linecap="butt"/><path d="M489.91882,91.69336l6.285,5.43806l1.15881,4.31213" fill="none" stroke="#8a2f00" stroke-width="3" stroke-linecap="round"/><path d="M475.11799,94.84857l4.6392,-20.05997l-4.56662,-7.14375l7.49945,-16.15558" fill="none" stroke="#8a2f00" stroke-width="3" stroke-linecap="round"/><path d="M478.54166,82.53364l2.94683,13.73027" fill="none" stroke="#8a2f00" stroke-width="3" stroke-linecap="round"/><path d="M500.05142,60.62694l-3.31612,10.64157l-9.28454,-4.48298" fill="none" stroke="#8a2f00" stroke-width="3" stroke-linecap="round"/><path d="M474.20414,109.07264l-8.12865,11.04961" fill="none" stroke="#8a2f00" stroke-width="3" stroke-linecap="round"/><path d="M490.56495,122.60855l-5.43369,-12.27115" fill="none" stroke="#8a2f00" stroke-width="3" stroke-linecap="round"/><path d="M479.78115,119.1126l6.25307,-4.20561" fill="none" stroke="#8a2f00" stroke-width="3" stroke-linecap="round"/><path d="M466.96147,98.88275l3.25646,12.63606" fill="none" stroke="#8a2f00" stroke-width="3" stroke-linecap="round"/><path d="M469.23722,63.46195l0.48383,-7.5304l1.54813,-5.47098" fill="none" stroke="#8a2f00" stroke-width="3" stroke-linecap="round"/></g></g></g></svg>