<svg version="1.1" xmlns="http://www.w3.org/2000/svg" xmlns:xlink="http://www.w3.org/1999/xlink" width="40.16667" height="20.5" viewBox="0,0,40.16667,20.5"><g transform="translate(-90.08333,-99.80334)"><g data-paper-data="{&quot;isPaintingLayer&quot;:true}" fill-rule="nonzero" stroke-linecap="butt" stroke-linejoin="miter" stroke-miterlimit="10" stroke-dasharray="" stroke-dashoffset="0" style="mix-blend-mode: normal"><path d="M98,118.50011v-15.92079h21v15.92079z" fill="#988282" stroke="none" stroke-width="0"/><path d="M106.08333,110.56257c0,4.38376 -3.58172,7.9375 -8,7.9375c-4.41828,0 -8,-3.55374 -8,-7.9375c0,-4.38376 3.58172,-7.9375 8,-7.9375c4.41828,0 8,3.55374 8,7.9375z" fill="#988282" stroke="none" stroke-width="0"/><path d="M110,110.05335c0,-5.52285 4.47716,-10 10,-10c5.52284,0 10,4.47715 10,10c0,5.52285 -4.47716,10 -10,10c-5.52284,0 -10,-4.47715 -10,-10z" fill="#04ff00" stroke="#000000" stroke-width="0.5"/></g></g></svg>