<svg version="1.1" xmlns="http://www.w3.org/2000/svg" xmlns:xlink="http://www.w3.org/1999/xlink" width="31.97646" height="31.97646" viewBox="0,0,31.97646,31.97646"><g transform="translate(-224.01177,-164.01177)"><g data-paper-data="{&quot;isPaintingLayer&quot;:true}" fill-rule="nonzero" stroke-linecap="butt" stroke-linejoin="miter" stroke-miterlimit="10" stroke-dasharray="" stroke-dashoffset="0" style="mix-blend-mode: normal"><path d="M224.01177,190.29884l26.28707,-26.28707l5.68938,5.68938l-26.28707,26.28707z" fill="#444444" stroke="none" stroke-width="0"/><path d="M229.70116,164.01178l26.28707,26.28707l-5.68938,5.68938l-26.28707,-26.28707z" fill="#444444" stroke="none" stroke-width="0"/><path d="M231.25,180c0,-4.83249 3.91751,-8.75 8.75,-8.75c4.83249,0 8.75,3.91751 8.75,8.75c0,4.83249 -3.91751,8.75 -8.75,8.75c-4.83249,0 -8.75,-3.91751 -8.75,-8.75z" fill="#c6c6c6" stroke="#444444" stroke-width="2"/><path d="M234.14285,180c0,-3.23481 2.62233,-5.85714 5.85714,-5.85714c3.23481,0 5.85714,2.62233 5.85714,5.85714c0,3.23481 -2.62233,5.85714 -5.85714,5.85714c-3.23481,0 -5.85714,-2.62233 -5.85714,-5.85714z" fill="#9800ff" stroke="none" stroke-width="0"/></g></g></svg>