<svg version="1.1" xmlns="http://www.w3.org/2000/svg" xmlns:xlink="http://www.w3.org/1999/xlink" width="156.33763" height="218.21707" viewBox="0,0,156.33763,218.21707"><g transform="translate(-36.86656,-106.82175)"><g data-paper-data="{&quot;isPaintingLayer&quot;:true}" fill-rule="nonzero" stroke-linejoin="miter" stroke-miterlimit="10" stroke-dasharray="" stroke-dashoffset="0" style="mix-blend-mode: normal"><g><path d="M139.21984,237.07771v-52c0,0 18.04009,0 27.04344,0c8.98115,0 26.91022,0 26.91022,0v52z" fill="#676767" stroke="none" stroke-width="0" stroke-linecap="butt"/><path d="M140.11586,227.13235h52.08833" fill="none" stroke="#444444" stroke-width="2" stroke-linecap="round"/><path d="M140.11586,216.57081h52.08833" fill="none" stroke="#444444" stroke-width="2" stroke-linecap="round"/><path d="M140.11586,205.40888h52.08833" fill="none" stroke="#444444" stroke-width="2" stroke-linecap="round"/><path d="M139.9331,195.40615h52.08833" fill="none" stroke="#444444" stroke-width="2" stroke-linecap="round"/></g><g><path d="M106.43681,158.82175v-52c0,0 18.04009,0 27.04344,0c8.98115,0 26.91022,0 26.91022,0v52z" fill="#676767" stroke="none" stroke-width="0" stroke-linecap="butt"/><path d="M107.33284,148.8764h52.08833" fill="none" stroke="#444444" stroke-width="2" stroke-linecap="round"/><path d="M107.33284,138.31485h52.08833" fill="none" stroke="#444444" stroke-width="2" stroke-linecap="round"/><path d="M159.42117,127.15292h-52.08833" fill="none" stroke="#444444" stroke-width="2" stroke-linecap="round"/><path d="M106.52266,118.16711v-11.30026h53.77462v11.30026z" fill="#c6c6c6" stroke="none" stroke-width="0" stroke-linecap="butt"/></g><g><path d="M36.86656,218.98477l52,0c0,0 0,35.46051 0,53.15795c0,17.6538 0,52.89609 0,52.89609h-52z" fill="#676767" stroke="none" stroke-width="0" stroke-linecap="butt"/><path d="M88.64494,325.02152l0,-52c0,0 18.04009,0 27.04344,0c8.98115,0 26.91022,0 26.91022,0v52z" fill="#676767" stroke="none" stroke-width="0" stroke-linecap="butt"/><path d="M47.92269,315.99845h93.7066" fill="none" stroke="#444444" stroke-width="2" stroke-linecap="round"/><path d="M57.93177,305.13007h83.69753" fill="none" stroke="#444444" stroke-width="2" stroke-linecap="round"/><path d="M141.6293,294.02394h-71.99465" fill="none" stroke="#444444" stroke-width="2" stroke-linecap="round"/><path d="M88.73079,284.36688v-11.30026h53.77462v11.30026z" fill="#c6c6c6" stroke="none" stroke-width="0" stroke-linecap="butt"/><path d="M47.77192,219.8808l0,95.83591" fill="none" stroke="#444444" stroke-width="2" stroke-linecap="round"/><path d="M57.9957,219.8808l0,85.04979" fill="none" stroke="#444444" stroke-width="2" stroke-linecap="round"/><path d="M69.27138,294.17205l0,-74.29125" fill="none" stroke="#444444" stroke-width="2" stroke-linecap="round"/><path d="M77.5212,219.07062l11.30026,0v65.23125h-11.30026z" fill="#c6c6c6" stroke="none" stroke-width="0" stroke-linecap="butt"/></g></g></g></svg>