<svg version="1.1" xmlns="http://www.w3.org/2000/svg" xmlns:xlink="http://www.w3.org/1999/xlink" width="535.60077" height="382.33448" viewBox="0,0,535.60077,382.33448"><g transform="translate(53.55222,16.11136)"><g data-paper-data="{&quot;isPaintingLayer&quot;:true}" fill-rule="nonzero" stroke-linejoin="miter" stroke-miterlimit="10" stroke-dasharray="" stroke-dashoffset="0" style="mix-blend-mode: normal"><path d="M29.91303,88.34383l-36.87822,36.87822v-36.87822z" data-paper-data="{&quot;index&quot;:null}" fill="#444444" stroke="none" stroke-width="none" stroke-linecap="butt"/><path d="M-43.26399,296.64632l-10.28823,-20.83525l151.49648,-62.15051l10.28823,20.83525z" fill="#c6c6c6" stroke="none" stroke-width="none" stroke-linecap="butt"/><g><path d="M-8.486,233.43581v-52c0,0 42.98098,0 64.43169,0c21.39782,0 64.1143,0 64.1143,0v52z" fill="#676767" stroke="none" stroke-width="0" stroke-linecap="butt"/><path d="M117.75061,223.49046h-124.10179" fill="none" stroke="#444444" stroke-width="2" stroke-linecap="round"/><path d="M-6.35119,212.92891h124.1018" fill="none" stroke="#444444" stroke-width="2" stroke-linecap="round"/><path d="M117.75061,201.76698h-124.10179" fill="none" stroke="#444444" stroke-width="2" stroke-linecap="round"/><path d="M-8.28146,192.78117v-11.30026h128.11942v11.30026z" fill="#c6c6c6" stroke="none" stroke-width="0" stroke-linecap="butt"/></g><g><path d="M118.65693,233.43581v-52c0,0 42.98098,0 64.4317,0c21.39782,0 64.1143,0 64.1143,0v52z" fill="#676767" stroke="none" stroke-width="0" stroke-linecap="butt"/><path d="M244.89354,223.49046h-124.10179" fill="none" stroke="#444444" stroke-width="2" stroke-linecap="round"/><path d="M120.79175,212.92891h124.1018" fill="none" stroke="#444444" stroke-width="2" stroke-linecap="round"/><path d="M244.89354,201.76698h-124.10179" fill="none" stroke="#444444" stroke-width="2" stroke-linecap="round"/><path d="M118.86147,192.78117v-11.30026h128.11942v11.30026z" fill="#c6c6c6" stroke="none" stroke-width="0" stroke-linecap="butt"/></g><g><path d="M-2.62837,366.22312v-52c0,0 81.47357,0 122.13496,0c40.56112,0 121.5333,0 121.5333,0v52z" fill="#676767" stroke="none" stroke-width="0" stroke-linecap="butt"/><path d="M236.66229,356.27777h-235.24396" fill="none" stroke="#444444" stroke-width="2" stroke-linecap="round"/><path d="M1.41833,345.71622h235.24396" fill="none" stroke="#444444" stroke-width="2" stroke-linecap="round"/><path d="M236.66229,334.55429h-235.24396" fill="none" stroke="#444444" stroke-width="2" stroke-linecap="round"/><path d="M-2.24065,325.56848v-11.30026h242.85966v11.30026z" fill="#c6c6c6" stroke="none" stroke-width="0" stroke-linecap="butt"/></g><g><path d="M238.38029,366.22312v-52c0,0 81.47357,0 122.13496,0c40.56112,0 121.5333,0 121.5333,0v52z" fill="#676767" stroke="none" stroke-width="0" stroke-linecap="butt"/><path d="M477.67095,356.27777h-235.24396" fill="none" stroke="#444444" stroke-width="2" stroke-linecap="round"/><path d="M242.42699,345.71622h235.24396" fill="none" stroke="#444444" stroke-width="2" stroke-linecap="round"/><path d="M477.67095,334.55429h-235.24396" fill="none" stroke="#444444" stroke-width="2" stroke-linecap="round"/><path d="M238.76801,325.56848v-11.30026h242.85967v11.30026z" fill="#c6c6c6" stroke="none" stroke-width="0" stroke-linecap="butt"/></g><g data-paper-data="{&quot;index&quot;:null}"><path d="M240.03645,-16.11136v52c0,0 -80.97218,0 -121.5333,0c-40.66139,0 -122.13495,0 -122.13495,0v-52z" fill="#676767" stroke="none" stroke-width="0" stroke-linecap="butt"/><path d="M0.41489,-6.16601h235.24396" fill="none" stroke="#444444" stroke-width="2" stroke-linecap="round"/><path d="M0.41489,4.39554h235.24396" fill="none" stroke="#444444" stroke-width="2" stroke-linecap="round"/><path d="M235.65885,15.55747h-235.24396" fill="none" stroke="#444444" stroke-width="2" stroke-linecap="round"/><path d="M239.61558,24.54328v11.30026h-242.85966v-11.30026z" fill="#c6c6c6" stroke="none" stroke-width="0" stroke-linecap="butt"/></g><g data-paper-data="{&quot;index&quot;:null}"><path d="M481.04512,-16.11136v52c0,0 -80.97218,0 -121.5333,0c-40.66139,0 -122.13495,0 -122.13495,0v-52z" fill="#676767" stroke="none" stroke-width="0" stroke-linecap="butt"/><path d="M476.66752,-6.16601h-235.24396" fill="none" stroke="#444444" stroke-width="2" stroke-linecap="round"/><path d="M241.42356,4.39554h235.24396" fill="none" stroke="#444444" stroke-width="2" stroke-linecap="round"/><path d="M476.66752,15.55747h-235.24396" fill="none" stroke="#444444" stroke-width="2" stroke-linecap="round"/><path d="M480.62425,24.54328v11.30026h-242.85967v-11.30026z" fill="#c6c6c6" stroke="none" stroke-width="0" stroke-linecap="butt"/></g><g><path d="M-4.98801,88.35005v-52c0,0 25.20183,0 37.77943,0c12.54658,0 37.59332,0 37.59332,0v52z" fill="#676767" stroke="none" stroke-width="0" stroke-linecap="butt"/><path d="M69.03064,78.4047h-72.7669" fill="none" stroke="#444444" stroke-width="2" stroke-linecap="round"/><path d="M-3.73627,67.84315h72.7669" fill="none" stroke="#444444" stroke-width="2" stroke-linecap="round"/><path d="M69.03064,56.68122h-72.7669" fill="none" stroke="#444444" stroke-width="2" stroke-linecap="round"/><path d="M-4.86808,47.69541v-11.30026h75.12263v11.30026z" fill="#c6c6c6" stroke="none" stroke-width="0" stroke-linecap="butt"/></g></g></g></svg>