<svg version="1.1" xmlns="http://www.w3.org/2000/svg" xmlns:xlink="http://www.w3.org/1999/xlink" width="336.11515" height="398.66668" viewBox="0,0,336.11515,398.66668"><defs><linearGradient x1="147.49146" y1="159.7956" x2="147.49146" y2="179.12894" gradientUnits="userSpaceOnUse" id="color-1"><stop offset="0" stop-color="#1b1b1b"/><stop offset="1" stop-color="#b1b1b1"/></linearGradient><linearGradient x1="147.49146" y1="172.46226" x2="147.49146" y2="191.7956" gradientUnits="userSpaceOnUse" id="color-2"><stop offset="0" stop-color="#1b1b1b"/><stop offset="1" stop-color="#b1b1b1"/></linearGradient><linearGradient x1="147.49146" y1="183.12893" x2="147.49146" y2="202.46227" gradientUnits="userSpaceOnUse" id="color-3"><stop offset="0" stop-color="#1b1b1b"/><stop offset="1" stop-color="#b1b1b1"/></linearGradient><linearGradient x1="147.49146" y1="193.12893" x2="147.49146" y2="212.46227" gradientUnits="userSpaceOnUse" id="color-4"><stop offset="0" stop-color="#1b1b1b"/><stop offset="1" stop-color="#b1b1b1"/></linearGradient><linearGradient x1="252.49143" y1="81.46226" x2="252.49143" y2="100.7956" gradientUnits="userSpaceOnUse" id="color-5"><stop offset="0" stop-color="#1b1b1b"/><stop offset="1" stop-color="#b1b1b1"/></linearGradient><linearGradient x1="252.49143" y1="94.12892" x2="252.49143" y2="113.46226" gradientUnits="userSpaceOnUse" id="color-6"><stop offset="0" stop-color="#1b1b1b"/><stop offset="1" stop-color="#b1b1b1"/></linearGradient><linearGradient x1="252.49143" y1="104.79559" x2="252.49143" y2="124.12893" gradientUnits="userSpaceOnUse" id="color-7"><stop offset="0" stop-color="#1b1b1b"/><stop offset="1" stop-color="#b1b1b1"/></linearGradient><linearGradient x1="252.49143" y1="114.79559" x2="252.49143" y2="134.12893" gradientUnits="userSpaceOnUse" id="color-8"><stop offset="0" stop-color="#1b1b1b"/><stop offset="1" stop-color="#b1b1b1"/></linearGradient><linearGradient x1="468.49146" y1="168.79559" x2="468.49146" y2="188.12893" gradientUnits="userSpaceOnUse" id="color-9"><stop offset="0" stop-color="#1b1b1b"/><stop offset="1" stop-color="#b1b1b1"/></linearGradient><linearGradient x1="468.49146" y1="37.46227" x2="468.49146" y2="56.7956" gradientUnits="userSpaceOnUse" id="color-10"><stop offset="0" stop-color="#1b1b1b"/><stop offset="1" stop-color="#b1b1b1"/></linearGradient><linearGradient x1="468.49146" y1="-91.20441" x2="468.49146" y2="-71.87107" gradientUnits="userSpaceOnUse" id="color-11"><stop offset="0" stop-color="#000000"/><stop offset="1" stop-color="#bfbfbf"/></linearGradient><linearGradient x1="468.49146" y1="212.12894" x2="468.49146" y2="231.46227" gradientUnits="userSpaceOnUse" id="color-12"><stop offset="0" stop-color="#1b1b1b"/><stop offset="1" stop-color="#b1b1b1"/></linearGradient><linearGradient x1="468.49146" y1="80.7956" x2="468.49146" y2="100.12893" gradientUnits="userSpaceOnUse" id="color-13"><stop offset="0" stop-color="#1b1b1b"/><stop offset="1" stop-color="#b1b1b1"/></linearGradient><linearGradient x1="468.49147" y1="-47.87107" x2="468.49147" y2="-28.53774" gradientUnits="userSpaceOnUse" id="color-14"><stop offset="0" stop-color="#333333"/><stop offset="1" stop-color="#ffffff"/></linearGradient><linearGradient x1="468.49146" y1="254.7956" x2="468.49146" y2="274.12893" gradientUnits="userSpaceOnUse" id="color-15"><stop offset="0" stop-color="#1b1b1b"/><stop offset="1" stop-color="#b1b1b1"/></linearGradient><linearGradient x1="468.49146" y1="123.46226" x2="468.49146" y2="142.7956" gradientUnits="userSpaceOnUse" id="color-16"><stop offset="0" stop-color="#1b1b1b"/><stop offset="1" stop-color="#b1b1b1"/></linearGradient><linearGradient x1="468.49146" y1="-5.20441" x2="468.49146" y2="14.12893" gradientUnits="userSpaceOnUse" id="color-17"><stop offset="0" stop-color="#1b1b1b"/><stop offset="1" stop-color="#b1b1b1"/></linearGradient><linearGradient x1="468.49146" y1="181.46226" x2="468.49146" y2="200.7956" gradientUnits="userSpaceOnUse" id="color-18"><stop offset="0" stop-color="#1b1b1b"/><stop offset="1" stop-color="#b1b1b1"/></linearGradient><linearGradient x1="468.49146" y1="50.12893" x2="468.49146" y2="69.46226" gradientUnits="userSpaceOnUse" id="color-19"><stop offset="0" stop-color="#1b1b1b"/><stop offset="1" stop-color="#b1b1b1"/></linearGradient><linearGradient x1="468.49146" y1="-78.53775" x2="468.49146" y2="-59.20441" gradientUnits="userSpaceOnUse" id="color-20"><stop offset="0" stop-color="#000000"/><stop offset="1" stop-color="#bfbfbf"/></linearGradient><linearGradient x1="468.49146" y1="224.79559" x2="468.49146" y2="244.12893" gradientUnits="userSpaceOnUse" id="color-21"><stop offset="0" stop-color="#1b1b1b"/><stop offset="1" stop-color="#b1b1b1"/></linearGradient><linearGradient x1="468.49146" y1="93.46226" x2="468.49146" y2="112.7956" gradientUnits="userSpaceOnUse" id="color-22"><stop offset="0" stop-color="#1b1b1b"/><stop offset="1" stop-color="#b1b1b1"/></linearGradient><linearGradient x1="468.49147" y1="-35.20441" x2="468.49147" y2="-15.87107" gradientUnits="userSpaceOnUse" id="color-23"><stop offset="0" stop-color="#333333"/><stop offset="1" stop-color="#ffffff"/></linearGradient><linearGradient x1="468.49146" y1="267.46227" x2="468.49146" y2="286.7956" gradientUnits="userSpaceOnUse" id="color-24"><stop offset="0" stop-color="#1b1b1b"/><stop offset="1" stop-color="#b1b1b1"/></linearGradient><linearGradient x1="468.49146" y1="136.12893" x2="468.49146" y2="155.46226" gradientUnits="userSpaceOnUse" id="color-25"><stop offset="0" stop-color="#1b1b1b"/><stop offset="1" stop-color="#b1b1b1"/></linearGradient><linearGradient x1="468.49146" y1="7.46226" x2="468.49146" y2="26.79559" gradientUnits="userSpaceOnUse" id="color-26"><stop offset="0" stop-color="#1b1b1b"/><stop offset="1" stop-color="#b1b1b1"/></linearGradient><linearGradient x1="468.49146" y1="192.12893" x2="468.49146" y2="211.46227" gradientUnits="userSpaceOnUse" id="color-27"><stop offset="0" stop-color="#1b1b1b"/><stop offset="1" stop-color="#b1b1b1"/></linearGradient><linearGradient x1="468.49146" y1="60.79559" x2="468.49146" y2="80.12893" gradientUnits="userSpaceOnUse" id="color-28"><stop offset="0" stop-color="#1b1b1b"/><stop offset="1" stop-color="#b1b1b1"/></linearGradient><linearGradient x1="468.49147" y1="-67.87108" x2="468.49147" y2="-48.53774" gradientUnits="userSpaceOnUse" id="color-29"><stop offset="0" stop-color="#333333"/><stop offset="1" stop-color="#ffffff"/></linearGradient><linearGradient x1="468.49146" y1="235.46226" x2="468.49146" y2="254.7956" gradientUnits="userSpaceOnUse" id="color-30"><stop offset="0" stop-color="#1b1b1b"/><stop offset="1" stop-color="#b1b1b1"/></linearGradient><linearGradient x1="468.49146" y1="104.12893" x2="468.49146" y2="123.46227" gradientUnits="userSpaceOnUse" id="color-31"><stop offset="0" stop-color="#1b1b1b"/><stop offset="1" stop-color="#b1b1b1"/></linearGradient><linearGradient x1="468.49146" y1="-24.53774" x2="468.49146" y2="-5.2044" gradientUnits="userSpaceOnUse" id="color-32"><stop offset="0" stop-color="#1b1b1b"/><stop offset="1" stop-color="#b1b1b1"/></linearGradient><linearGradient x1="468.49146" y1="278.12893" x2="468.49146" y2="297.46227" gradientUnits="userSpaceOnUse" id="color-33"><stop offset="0" stop-color="#1b1b1b"/><stop offset="1" stop-color="#b1b1b1"/></linearGradient><linearGradient x1="468.49146" y1="146.79559" x2="468.49146" y2="166.12893" gradientUnits="userSpaceOnUse" id="color-34"><stop offset="0" stop-color="#1b1b1b"/><stop offset="1" stop-color="#b1b1b1"/></linearGradient><linearGradient x1="468.49146" y1="18.12892" x2="468.49146" y2="37.46226" gradientUnits="userSpaceOnUse" id="color-35"><stop offset="0" stop-color="#1b1b1b"/><stop offset="1" stop-color="#b1b1b1"/></linearGradient><linearGradient x1="468.49146" y1="202.12893" x2="468.49146" y2="221.46227" gradientUnits="userSpaceOnUse" id="color-36"><stop offset="0" stop-color="#1b1b1b"/><stop offset="1" stop-color="#b1b1b1"/></linearGradient><linearGradient x1="468.49146" y1="70.79559" x2="468.49146" y2="90.12893" gradientUnits="userSpaceOnUse" id="color-37"><stop offset="0" stop-color="#1b1b1b"/><stop offset="1" stop-color="#b1b1b1"/></linearGradient><linearGradient x1="468.49146" y1="-57.87108" x2="468.49146" y2="-38.53774" gradientUnits="userSpaceOnUse" id="color-38"><stop offset="0" stop-color="#000000"/><stop offset="1" stop-color="#bfbfbf"/></linearGradient><linearGradient x1="468.49146" y1="245.46226" x2="468.49146" y2="264.7956" gradientUnits="userSpaceOnUse" id="color-39"><stop offset="0" stop-color="#1b1b1b"/><stop offset="1" stop-color="#b1b1b1"/></linearGradient><linearGradient x1="468.49146" y1="114.12893" x2="468.49146" y2="133.46227" gradientUnits="userSpaceOnUse" id="color-40"><stop offset="0" stop-color="#1b1b1b"/><stop offset="1" stop-color="#b1b1b1"/></linearGradient><linearGradient x1="468.49146" y1="-14.53774" x2="468.49146" y2="4.7956" gradientUnits="userSpaceOnUse" id="color-41"><stop offset="0" stop-color="#1b1b1b"/><stop offset="1" stop-color="#b1b1b1"/></linearGradient><linearGradient x1="468.49146" y1="288.12893" x2="468.49146" y2="307.46227" gradientUnits="userSpaceOnUse" id="color-42"><stop offset="0" stop-color="#1b1b1b"/><stop offset="1" stop-color="#b1b1b1"/></linearGradient><linearGradient x1="468.49146" y1="156.79559" x2="468.49146" y2="176.12893" gradientUnits="userSpaceOnUse" id="color-43"><stop offset="0" stop-color="#1b1b1b"/><stop offset="1" stop-color="#b1b1b1"/></linearGradient><linearGradient x1="468.49146" y1="28.12892" x2="468.49146" y2="47.46226" gradientUnits="userSpaceOnUse" id="color-44"><stop offset="0" stop-color="#1b1b1b"/><stop offset="1" stop-color="#b1b1b1"/></linearGradient></defs><g transform="translate(-139.93388,91.20441)"><g data-paper-data="{&quot;isPaintingLayer&quot;:true}" fill-rule="nonzero" stroke="none" stroke-linecap="butt" stroke-linejoin="miter" stroke-miterlimit="10" stroke-dasharray="" stroke-dashoffset="0" style="mix-blend-mode: normal"><path d="M139.93388,159.7956l15.11515,9.84243l-15.11515,9.49091z" fill="url(#color-1)" stroke-width="NaN"/><path d="M139.93388,172.46226l15.11515,9.84243l-15.11515,9.49091z" fill="url(#color-2)" stroke-width="NaN"/><path d="M139.93388,183.12893l15.11515,9.84243l-15.11515,9.49091z" fill="url(#color-3)" stroke-width="NaN"/><path d="M139.93388,193.12893l15.11515,9.84243l-15.11515,9.49091z" fill="url(#color-4)" stroke-width="NaN"/><path d="M260.049,100.7956l-15.11515,-9.49091l15.11515,-9.84243z" data-paper-data="{&quot;index&quot;:null}" fill="url(#color-5)" stroke-width="NaN"/><path d="M260.049,113.46226l-15.11515,-9.49091l15.11515,-9.84243z" data-paper-data="{&quot;index&quot;:null}" fill="url(#color-6)" stroke-width="NaN"/><path d="M260.049,124.12893l-15.11515,-9.49091l15.11515,-9.84243z" data-paper-data="{&quot;index&quot;:null}" fill="url(#color-7)" stroke-width="NaN"/><path d="M260.049,134.12893l-15.11515,-9.49091l15.11515,-9.84243z" data-paper-data="{&quot;index&quot;:null}" fill="url(#color-8)" stroke-width="NaN"/><g><path d="M476.04904,188.12893l-15.11515,-9.49091l15.11515,-9.84243z" data-paper-data="{&quot;index&quot;:null}" fill="url(#color-9)" stroke-width="NaN"/><path d="M476.04904,56.7956l-15.11515,-9.49091l15.11515,-9.84242z" data-paper-data="{&quot;index&quot;:null}" fill="#9966ff" stroke-width="NaN"/><path d="M476.04904,56.7956l-15.11515,-9.49091l15.11515,-9.84242z" data-paper-data="{&quot;index&quot;:null}" fill="url(#color-10)" stroke-width="NaN"/><path d="M476.04904,-71.87107l-15.11515,-9.49091l15.11515,-9.84243z" data-paper-data="{&quot;index&quot;:null}" fill="url(#color-11)" stroke-width="NaN"/><path d="M476.04904,231.46227l-15.11515,-9.49091l15.11515,-9.84242z" data-paper-data="{&quot;index&quot;:null}" fill="url(#color-12)" stroke-width="NaN"/><path d="M476.04904,100.12893l-15.11515,-9.49091l15.11515,-9.84242z" data-paper-data="{&quot;index&quot;:null}" fill="#9966ff" stroke-width="NaN"/><path d="M476.04904,100.12893l-15.11515,-9.49091l15.11515,-9.84242z" data-paper-data="{&quot;index&quot;:null}" fill="url(#color-13)" stroke-width="NaN"/><path d="M476.04904,-28.53774l-15.11515,-9.49091l15.11515,-9.84242z" data-paper-data="{&quot;index&quot;:null}" fill="url(#color-14)" stroke-width="NaN"/><path d="M476.04904,274.12893l-15.11515,-9.49091l15.11515,-9.84242z" data-paper-data="{&quot;index&quot;:null}" fill="url(#color-15)" stroke-width="NaN"/><path d="M476.04904,142.7956l-15.11515,-9.49091l15.11515,-9.84243z" data-paper-data="{&quot;index&quot;:null}" fill="#9966ff" stroke-width="NaN"/><path d="M476.04904,142.7956l-15.11515,-9.49091l15.11515,-9.84243z" data-paper-data="{&quot;index&quot;:null}" fill="url(#color-16)" stroke-width="NaN"/><path d="M476.04904,14.12893l-15.11515,-9.49091l15.11515,-9.84243z" data-paper-data="{&quot;index&quot;:null}" fill="url(#color-17)" stroke-width="NaN"/><path d="M476.04904,200.7956l-15.11515,-9.49091l15.11515,-9.84243z" data-paper-data="{&quot;index&quot;:null}" fill="url(#color-18)" stroke-width="NaN"/><path d="M476.04904,69.46226l-15.11515,-9.49091l15.11515,-9.84242z" data-paper-data="{&quot;index&quot;:null}" fill="#9966ff" stroke-width="NaN"/><path d="M476.04904,69.46226l-15.11515,-9.49091l15.11515,-9.84242z" data-paper-data="{&quot;index&quot;:null}" fill="url(#color-19)" stroke-width="NaN"/><path d="M476.04904,-59.20441l-15.11515,-9.49091l15.11515,-9.84243z" data-paper-data="{&quot;index&quot;:null}" fill="url(#color-20)" stroke-width="NaN"/><path d="M476.04904,244.12893l-15.11515,-9.49091l15.11515,-9.84243z" data-paper-data="{&quot;index&quot;:null}" fill="url(#color-21)" stroke-width="NaN"/><path d="M476.04904,112.7956l-15.11515,-9.49091l15.11515,-9.84243z" data-paper-data="{&quot;index&quot;:null}" fill="#9966ff" stroke-width="NaN"/><path d="M476.04904,112.7956l-15.11515,-9.49091l15.11515,-9.84243z" data-paper-data="{&quot;index&quot;:null}" fill="url(#color-22)" stroke-width="NaN"/><path d="M476.04904,-15.87107l-15.11515,-9.49091l15.11515,-9.84243z" data-paper-data="{&quot;index&quot;:null}" fill="url(#color-23)" stroke-width="NaN"/><path d="M476.04904,286.7956l-15.11515,-9.49091l15.11515,-9.84242z" data-paper-data="{&quot;index&quot;:null}" fill="url(#color-24)" stroke-width="NaN"/><path d="M476.04904,155.46226l-15.11515,-9.49091l15.11515,-9.84242z" data-paper-data="{&quot;index&quot;:null}" fill="#9966ff" stroke-width="NaN"/><path d="M476.04904,155.46226l-15.11515,-9.49091l15.11515,-9.84242z" data-paper-data="{&quot;index&quot;:null}" fill="url(#color-25)" stroke-width="NaN"/><path d="M476.04904,26.79559l-15.11515,-9.49091l15.11515,-9.84242z" data-paper-data="{&quot;index&quot;:null}" fill="url(#color-26)" stroke-width="NaN"/><path d="M476.04904,211.46227l-15.11515,-9.49091l15.11515,-9.84243z" data-paper-data="{&quot;index&quot;:null}" fill="url(#color-27)" stroke-width="NaN"/><path d="M476.04904,80.12893l-15.11515,-9.49091l15.11515,-9.84243z" data-paper-data="{&quot;index&quot;:null}" fill="#9966ff" stroke-width="NaN"/><path d="M476.04904,80.12893l-15.11515,-9.49091l15.11515,-9.84243z" data-paper-data="{&quot;index&quot;:null}" fill="url(#color-28)" stroke-width="NaN"/><path d="M476.04904,-48.53774l-15.11515,-9.49091l15.11515,-9.84243z" data-paper-data="{&quot;index&quot;:null}" fill="url(#color-29)" stroke-width="NaN"/><path d="M476.04904,254.7956l-15.11515,-9.49091l15.11515,-9.84243z" data-paper-data="{&quot;index&quot;:null}" fill="url(#color-30)" stroke-width="NaN"/><path d="M476.04904,123.46227l-15.11515,-9.49091l15.11515,-9.84243z" data-paper-data="{&quot;index&quot;:null}" fill="#9966ff" stroke-width="NaN"/><path d="M476.04904,123.46227l-15.11515,-9.49091l15.11515,-9.84243z" data-paper-data="{&quot;index&quot;:null}" fill="url(#color-31)" stroke-width="NaN"/><path d="M476.04904,-5.2044l-15.11515,-9.49091l15.11515,-9.84243z" data-paper-data="{&quot;index&quot;:null}" fill="url(#color-32)" stroke-width="NaN"/><path d="M476.04904,297.46227l-15.11515,-9.49091l15.11515,-9.84243z" data-paper-data="{&quot;index&quot;:null}" fill="url(#color-33)" stroke-width="NaN"/><path d="M476.04904,166.12893l-15.11515,-9.49091l15.11515,-9.84243z" data-paper-data="{&quot;index&quot;:null}" fill="#9966ff" stroke-width="NaN"/><path d="M476.04904,166.12893l-15.11515,-9.49091l15.11515,-9.84243z" data-paper-data="{&quot;index&quot;:null}" fill="url(#color-34)" stroke-width="NaN"/><path d="M476.04904,37.46226l-15.11515,-9.49091l15.11515,-9.84243z" data-paper-data="{&quot;index&quot;:null}" fill="url(#color-35)" stroke-width="NaN"/><path d="M476.04904,221.46227l-15.11515,-9.49091l15.11515,-9.84243z" data-paper-data="{&quot;index&quot;:null}" fill="url(#color-36)" stroke-width="NaN"/><path d="M476.04904,90.12893l-15.11515,-9.49091l15.11515,-9.84243z" data-paper-data="{&quot;index&quot;:null}" fill="#9966ff" stroke-width="NaN"/><path d="M476.04904,90.12893l-15.11515,-9.49091l15.11515,-9.84243z" data-paper-data="{&quot;index&quot;:null}" fill="url(#color-37)" stroke-width="NaN"/><path d="M476.04904,-38.53774l-15.11515,-9.49091l15.11515,-9.84243z" data-paper-data="{&quot;index&quot;:null}" fill="url(#color-38)" stroke-width="NaN"/><path d="M476.04904,264.7956l-15.11515,-9.49091l15.11515,-9.84243z" data-paper-data="{&quot;index&quot;:null}" fill="url(#color-39)" stroke-width="NaN"/><path d="M476.04904,133.46227l-15.11515,-9.49091l15.11515,-9.84243z" data-paper-data="{&quot;index&quot;:null}" fill="#9966ff" stroke-width="NaN"/><path d="M476.04904,133.46227l-15.11515,-9.49091l15.11515,-9.84243z" data-paper-data="{&quot;index&quot;:null}" fill="url(#color-40)" stroke-width="NaN"/><path d="M476.04904,4.7956l-15.11515,-9.49091l15.11515,-9.84243z" data-paper-data="{&quot;index&quot;:null}" fill="url(#color-41)" stroke-width="NaN"/><path d="M476.04904,307.46227l-15.11515,-9.49091l15.11515,-9.84243z" data-paper-data="{&quot;index&quot;:null}" fill="url(#color-42)" stroke-width="NaN"/><path d="M476.04904,176.12893l-15.11515,-9.49091l15.11515,-9.84243z" data-paper-data="{&quot;index&quot;:null}" fill="#9966ff" stroke-width="NaN"/><path d="M476.04904,176.12893l-15.11515,-9.49091l15.11515,-9.84243z" data-paper-data="{&quot;index&quot;:null}" fill="url(#color-43)" stroke-width="NaN"/><path d="M476.04904,47.46226l-15.11515,-9.49091l15.11515,-9.84243z" data-paper-data="{&quot;index&quot;:null}" fill="url(#color-44)" stroke-width="NaN"/></g></g></g></svg>