<svg version="1.1" xmlns="http://www.w3.org/2000/svg" xmlns:xlink="http://www.w3.org/1999/xlink" width="138.08415" height="258.25282" viewBox="0,0,138.08415,258.25282"><g transform="translate(-374.59747,-157.86998)"><g data-paper-data="{&quot;isPaintingLayer&quot;:true}" fill-rule="nonzero" stroke-linejoin="miter" stroke-miterlimit="10" stroke-dasharray="" stroke-dashoffset="0" style="mix-blend-mode: normal"><g data-paper-data="{&quot;index&quot;:null}"><path d="M489.28879,416.1228l-44.61228,-5.89446l10.0861,-76.33656l44.61228,5.89447z" fill="#453d34" stroke="none" stroke-width="0" stroke-linecap="butt"/><path d="M494.1825,363.47406l-2.3274,4.14261l-8.75257,3.99614" fill="none" stroke="#8a2f00" stroke-width="3" stroke-linecap="round"/><path d="M465.71545,411.1465l-5.5612,-18.53521l7.04787,-6.18897l-1.26977,-21.82495" fill="none" stroke="#8a2f00" stroke-width="3" stroke-linecap="round"/><path d="M467.4061,378.14241l6.51459,-13.37959" fill="none" stroke="#8a2f00" stroke-width="3" stroke-linecap="round"/><path d="M474.75534,396.61722l12.16418,-2.24956l1.7049,11.79555" fill="none" stroke="#8a2f00" stroke-width="3" stroke-linecap="round"/><path d="M460.47618,336.28581l7.42101,13.44082" fill="none" stroke="#8a2f00" stroke-width="3" stroke-linecap="round"/><path d="M490.5478,339.96239l-9.19925,11.24484" fill="none" stroke="#8a2f00" stroke-width="3" stroke-linecap="round"/><path d="M476.78823,340.81446l6.63465,5.92008" fill="none" stroke="#8a2f00" stroke-width="3" stroke-linecap="round"/><path d="M463.61712,346.19437l-6.65206,12.17472" fill="none" stroke="#8a2f00" stroke-width="3" stroke-linecap="round"/><path d="M451.71946,409.29727l-0.6874,-6.0243l1.0402,-7.87276" fill="none" stroke="#8a2f00" stroke-width="3" stroke-linecap="round"/></g><g data-paper-data="{&quot;index&quot;:null}"><path d="M455.8947,406.3308l-44.999,-0.30134l0.51564,-76.99827l44.99899,0.30134z" fill="#453d34" stroke="none" stroke-width="0" stroke-linecap="butt"/><path d="M454.20374,353.48215l-1.79422,4.39986l-8.18773,5.05348" fill="none" stroke="#8a2f00" stroke-width="3" stroke-linecap="round"/><path d="M431.88553,404.32439l-7.82283,-17.69983l6.22359,-7.01732l-3.97377,-21.49767" fill="none" stroke="#8a2f00" stroke-width="3" stroke-linecap="round"/><path d="M429.45912,371.36622l4.80032,-14.08582" fill="none" stroke="#8a2f00" stroke-width="3" stroke-linecap="round"/><path d="M439.0486,388.78378l11.79004,-3.74467l3.15841,11.492" fill="none" stroke="#8a2f00" stroke-width="3" stroke-linecap="round"/><path d="M426.41299,343.10991l-9.03473,-12.41373" fill="none" stroke="#8a2f00" stroke-width="3" stroke-linecap="round"/><path d="M439.94405,342.90638l7.7296,-12.30146" fill="none" stroke="#8a2f00" stroke-width="3" stroke-linecap="round"/><path d="M441.44612,338.21047l-7.31929,-5.04913" fill="none" stroke="#8a2f00" stroke-width="3" stroke-linecap="round"/><path d="M421.72691,340.13726l-5.08654,12.90739" fill="none" stroke="#8a2f00" stroke-width="3" stroke-linecap="round"/><path d="M417.76822,404.22985l-1.43117,-5.89207l0.05317,-7.941" fill="none" stroke="#8a2f00" stroke-width="3" stroke-linecap="round"/></g><g data-paper-data="{&quot;index&quot;:null}"><path d="M419.57421,406.08803l-44.97674,-1.44692l2.47586,-76.96018l44.97674,1.44692z" fill="#453d34" stroke="none" stroke-width="0" stroke-linecap="butt"/><path d="M419.22934,353.21346l-1.90565,4.35275l-8.31375,4.84338" fill="none" stroke="#8a2f00" stroke-width="3" stroke-linecap="round"/><path d="M395.62391,403.47099l-7.36966,-17.89327l6.40024,-6.85659l-3.42516,-21.59188" fill="none" stroke="#8a2f00" stroke-width="3" stroke-linecap="round"/><path d="M399.1948,356.50269l-5.1574,13.95904" fill="none" stroke="#8a2f00" stroke-width="3" stroke-linecap="round"/><path d="M403.18032,388.1178l11.88156,-3.44328l2.86479,11.56869" fill="none" stroke="#8a2f00" stroke-width="3" stroke-linecap="round"/><path d="M382.99593,329.49728l8.71575,12.63973" fill="none" stroke="#8a2f00" stroke-width="3" stroke-linecap="round"/><path d="M413.28382,330.17739l-8.04029,12.10067" fill="none" stroke="#8a2f00" stroke-width="3" stroke-linecap="round"/><path d="M406.86467,337.62192l-7.18836,-5.23385" fill="none" stroke="#8a2f00" stroke-width="3" stroke-linecap="round"/><path d="M387.1028,339.04604l-5.41352,12.7737" fill="none" stroke="#8a2f00" stroke-width="3" stroke-linecap="round"/><path d="M381.51358,403.01706l-1.28069,-5.9266l0.25534,-7.93707" fill="none" stroke="#8a2f00" stroke-width="3" stroke-linecap="round"/></g><g data-paper-data="{&quot;index&quot;:null}"><path d="M420.44511,346.08437l-44.34359,-7.65812l13.10392,-75.87679l44.34359,7.65812z" fill="#453d34" stroke="none" stroke-width="0" stroke-linecap="butt"/><path d="M427.42181,293.67097l-2.48976,4.0471l-8.90409,3.64608" fill="none" stroke="#8a2f00" stroke-width="3" stroke-linecap="round"/><path d="M397.08754,340.17761l-4.82216,-18.74107l7.28765,-5.90475l-0.40371,-21.85813" fill="none" stroke="#8a2f00" stroke-width="3" stroke-linecap="round"/><path d="M407.12484,294.1556l-7.0398,13.11086" fill="none" stroke="#8a2f00" stroke-width="3" stroke-linecap="round"/><path d="M406.69622,326.01806l12.24378,-1.76564l1.23602,11.85385" fill="none" stroke="#8a2f00" stroke-width="3" stroke-linecap="round"/><path d="M394.81963,265.16807l6.88243,13.7244" fill="none" stroke="#8a2f00" stroke-width="3" stroke-linecap="round"/><path d="M424.72188,270.03371l-9.63773,10.87137" fill="none" stroke="#8a2f00" stroke-width="3" stroke-linecap="round"/><path d="M410.93936,270.33973l6.39477,6.1784" fill="none" stroke="#8a2f00" stroke-width="3" stroke-linecap="round"/><path d="M390.43596,287.09482l7.1294,-11.90148" fill="none" stroke="#8a2f00" stroke-width="3" stroke-linecap="round"/><path d="M383.17584,337.77507l-0.44808,-6.04682l1.35143,-7.82534" fill="none" stroke="#8a2f00" stroke-width="3" stroke-linecap="round"/></g><g data-paper-data="{&quot;index&quot;:null}"><path d="M468.40221,348.26774l-44.999,-0.30134l0.51564,-76.99827l44.99899,0.30134z" fill="#453d34" stroke="none" stroke-width="0" stroke-linecap="butt"/><path d="M466.71125,295.41909l-1.79422,4.39986l-8.18773,5.05348" fill="none" stroke="#8a2f00" stroke-width="3" stroke-linecap="round"/><path d="M444.39304,346.26133l-7.82283,-17.69983l6.22359,-7.01732l-3.97377,-21.49767" fill="none" stroke="#8a2f00" stroke-width="3" stroke-linecap="round"/><path d="M446.76695,299.21734l-4.80032,14.08582" fill="none" stroke="#8a2f00" stroke-width="3" stroke-linecap="round"/><path d="M451.55611,330.72072l11.79004,-3.74467l3.15841,11.492" fill="none" stroke="#8a2f00" stroke-width="3" stroke-linecap="round"/><path d="M429.88577,272.63311l9.03473,12.41373" fill="none" stroke="#8a2f00" stroke-width="3" stroke-linecap="round"/><path d="M452.45156,284.84332l7.7296,-12.30146" fill="none" stroke="#8a2f00" stroke-width="3" stroke-linecap="round"/><path d="M446.63434,275.09828l7.31929,5.04913" fill="none" stroke="#8a2f00" stroke-width="3" stroke-linecap="round"/><path d="M429.14788,294.98159l5.08654,-12.90739" fill="none" stroke="#8a2f00" stroke-width="3" stroke-linecap="round"/><path d="M430.27573,346.16679l-1.43117,-5.89207l0.05317,-7.941" fill="none" stroke="#8a2f00" stroke-width="3" stroke-linecap="round"/></g><g data-paper-data="{&quot;index&quot;:null}"><path d="M512.68162,343.69052l-44.72018,5.01059l-8.57365,-76.52119l44.72018,-5.01058z" fill="#453d34" stroke="none" stroke-width="0" stroke-linecap="butt"/><path d="M504.76642,291.41062l-1.26251,4.58084l-7.53423,5.98431" fill="none" stroke="#8a2f00" stroke-width="3" stroke-linecap="round"/><path d="M488.60343,344.53117l-9.85673,-16.6531l5.35208,-7.70267l-6.4827,-20.87858" fill="none" stroke="#8a2f00" stroke-width="3" stroke-linecap="round"/><path d="M482.30495,312.08957l3.10468,-14.55384" fill="none" stroke="#8a2f00" stroke-width="3" stroke-linecap="round"/><path d="M493.88269,328.2539l11.26581,-5.10972l4.49238,11.03903" fill="none" stroke="#8a2f00" stroke-width="3" stroke-linecap="round"/><path d="M465.50949,273.12919l10.43642,11.26092" fill="none" stroke="#8a2f00" stroke-width="3" stroke-linecap="round"/><path d="M495.58247,269.46376l-6.22404,13.1276" fill="none" stroke="#8a2f00" stroke-width="3" stroke-linecap="round"/><path d="M482.43193,273.6008l7.86396,4.1502" fill="none" stroke="#8a2f00" stroke-width="3" stroke-linecap="round"/><path d="M470.9418,281.99119l-3.52796,13.41742" fill="none" stroke="#8a2f00" stroke-width="3" stroke-linecap="round"/><path d="M474.5736,346.10313l-2.11642,-5.68203l-0.88422,-7.8918" fill="none" stroke="#8a2f00" stroke-width="3" stroke-linecap="round"/></g><g><path d="M509.41567,257.74378v32.48048c0,0 -36.88941,0 -55.36831,0c-18.52457,0 -55.64241,0 -55.64241,0v-32.48048z" data-paper-data="{&quot;index&quot;:null}" fill="#676767" stroke="none" stroke-width="0" stroke-linecap="butt"/><path d="M507.42132,263.95589h-107.17277" data-paper-data="{&quot;index&quot;:null}" fill="none" stroke="#444444" stroke-width="2" stroke-linecap="round"/><path d="M400.24855,270.55289h107.17277" data-paper-data="{&quot;index&quot;:null}" fill="none" stroke="#444444" stroke-width="2" stroke-linecap="round"/><path d="M507.42131,277.52491h-107.17277" data-paper-data="{&quot;index&quot;:null}" fill="none" stroke="#444444" stroke-width="2" stroke-linecap="round"/><path d="M509.22392,283.13767v7.05842h-110.64233v-7.05842z" data-paper-data="{&quot;index&quot;:null}" fill="#c6c6c6" stroke="none" stroke-width="0" stroke-linecap="butt"/><path d="M405.40915,285.96764h-7.05842v-28.40944h7.05842z" data-paper-data="{&quot;index&quot;:null}" fill="#c6c6c6" stroke="none" stroke-width="0" stroke-linecap="butt"/></g><g><path d="M398.02389,190.35046v-32.48048c0,0 37.11784,0 55.64241,0c18.4789,0 55.36831,0 55.36831,0v32.48048z" fill="#676767" stroke="none" stroke-width="0" stroke-linecap="butt"/><path d="M507.04026,184.13835h-107.17277" fill="none" stroke="#444444" stroke-width="2" stroke-linecap="round"/><path d="M399.86749,177.54135h107.17277" fill="none" stroke="#444444" stroke-width="2" stroke-linecap="round"/><path d="M399.86748,170.56933h107.17277" fill="none" stroke="#444444" stroke-width="2" stroke-linecap="round"/><path d="M398.20053,164.95657v-7.05842h110.64233v7.05842z" fill="#c6c6c6" stroke="none" stroke-width="0" stroke-linecap="butt"/><path d="M405.02809,190.53604h-7.05842v-28.40944h7.05842z" fill="#c6c6c6" stroke="none" stroke-width="0" stroke-linecap="butt"/></g></g></g></svg>