<svg version="1.1" xmlns="http://www.w3.org/2000/svg" xmlns:xlink="http://www.w3.org/1999/xlink" width="21.3947" height="32.3849" viewBox="0,0,21.3947,32.3849"><g transform="translate(-229.27759,-163.80757)"><g data-paper-data="{&quot;isPaintingLayer&quot;:true}" fill="#000000" fill-rule="nonzero" stroke-linecap="butt" stroke-linejoin="miter" stroke-miterlimit="10" stroke-dasharray="" stroke-dashoffset="0" style="mix-blend-mode: normal"><path d="M231.79596,173.62436c0,-4.59324 3.72355,-8.31679 8.31679,-8.31679c4.59324,0 8.31679,3.72355 8.31679,8.31679c0,4.59324 -3.72355,8.31679 -8.31679,8.31679c-4.59324,0 -8.31679,-3.72355 -8.31679,-8.31679z" stroke="#8b3700" stroke-width="3"/><path d="M231.3163,194.69247l5.87067,-18.83507h6.11528l5.38145,18.83507z" stroke="#8b3700" stroke-width="3"/><path d="M246.3018,173.75438c0.70968,1.06452 0.44189,2.1389 -0.24236,3.01999c0.00495,0.03093 0.009,0.0628 0.01212,0.09565c0.03546,0.37319 -0.01877,0.7249 -0.1413,1.04377c-0.03481,0.46164 -0.27268,0.81844 -0.27268,0.81844l-0.22891,-0.02353c-0.44177,0.4741 -1.06059,0.78941 -1.70699,0.8664c-0.21785,0.11944 -0.46795,0.18736 -0.73393,0.18736c-0.77724,0 -1.41901,-0.58 -1.51612,-1.3308c-0.10798,-0.06247 -0.21086,-0.13278 -0.30785,-0.21016c-0.19424,1.21894 -0.76562,2.17148 -1.61396,2.17148c-0.46727,0 -0.85048,-0.34186 -1.1478,-0.86609c-0.109,0.175 -0.27169,0.34623 -0.5068,0.50297c-0.88029,0.58686 -1.55753,0.15842 -1.89117,-0.16115c-0.39909,-0.08683 -0.79112,-0.37808 -1.11167,-0.93904v-0.00001c-0.23339,-0.40843 -0.23829,-0.80414 -0.14643,-1.18231c-0.02918,-0.11798 -0.04467,-0.24136 -0.04467,-0.36835c0,-0.53266 0.27241,-1.0017 0.68552,-1.2754c0.03923,-0.17823 0.04169,-0.34816 -0.01751,-0.50888c-0.23065,-0.62613 -0.70671,-1.29993 -0.21482,-2.03777c0.20783,-0.31174 0.95738,-0.78554 1.33772,-0.76441c0.72687,0.04038 1.28462,0.90764 1.98701,1.09869c0.22184,-0.12118 0.44726,-0.22929 0.67925,-0.31343l0.30402,-0.17373c0.03185,0.0182 0.06324,0.03703 0.09417,0.05646c0.1167,-0.02609 0.23535,-0.04507 0.35628,-0.05571c0.25132,-0.0221 0.38072,0.20791 0.50084,0.47658c0.19179,0.00078 0.38647,0.00581 0.57817,0.01741c0.15762,-0.63231 0.35699,-1.2536 0.53461,-1.88063c0,0 0.4496,-1.46122 1.91082,-1.01161c1.08865,0.33497 1.11666,1.23145 1.06017,1.66683c0.68072,0.03431 1.31905,0.35317 1.80426,1.08099z" stroke="none" stroke-width="0.5"/></g></g></svg>