<svg version="1.1" xmlns="http://www.w3.org/2000/svg" xmlns:xlink="http://www.w3.org/1999/xlink" width="157.38147" height="218.21706" viewBox="0,0,157.38147,218.21706"><g transform="translate(-35.82272,-106.82174)"><g data-paper-data="{&quot;isPaintingLayer&quot;:true}" fill-rule="nonzero" stroke-linejoin="miter" stroke-miterlimit="10" stroke-dasharray="" stroke-dashoffset="0" style="mix-blend-mode: normal"><g><path d="M139.21984,237.07771v-52c0,0 18.04009,0 27.04344,0c8.98115,0 26.91022,0 26.91022,0v52z" fill="#676767" stroke="none" stroke-width="0" stroke-linecap="butt"/><path d="M140.11586,227.13235h52.08833" fill="none" stroke="#444444" stroke-width="2" stroke-linecap="round"/><path d="M140.11586,216.57081h52.08833" fill="none" stroke="#444444" stroke-width="2" stroke-linecap="round"/><path d="M140.11586,205.40888h52.08833" fill="none" stroke="#444444" stroke-width="2" stroke-linecap="round"/><path d="M139.9331,195.40615h52.08833" fill="none" stroke="#444444" stroke-width="2" stroke-linecap="round"/></g><g><path d="M35.82272,218.98477h52c0,0 0,35.46051 0,53.15795c0,17.6538 0,52.89609 0,52.89609h-52z" fill="#676767" stroke="none" stroke-width="0" stroke-linecap="butt"/><path d="M87.6011,325.02152v-52c0,0 18.04009,0 27.04344,0c8.98115,0 26.91022,0 26.91022,0v52z" fill="#676767" stroke="none" stroke-width="0" stroke-linecap="butt"/><path d="M46.87885,315.99845h93.7066" fill="none" stroke="#444444" stroke-width="2" stroke-linecap="round"/><path d="M56.88793,305.13007h83.69753" fill="none" stroke="#444444" stroke-width="2" stroke-linecap="round"/><path d="M140.58546,294.02394h-71.99465" fill="none" stroke="#444444" stroke-width="2" stroke-linecap="round"/><path d="M87.68695,284.36688v-11.30026h53.77462v11.30026z" fill="#c6c6c6" stroke="none" stroke-width="0" stroke-linecap="butt"/><path d="M46.72808,219.8808v95.83591" fill="none" stroke="#444444" stroke-width="2" stroke-linecap="round"/><path d="M56.95186,304.93059v-85.04979" fill="none" stroke="#444444" stroke-width="2" stroke-linecap="round"/><path d="M68.22754,219.8808v74.29125" fill="none" stroke="#444444" stroke-width="2" stroke-linecap="round"/><path d="M76.47736,219.07062h11.30026v65.23125h-11.30026z" fill="#c6c6c6" stroke="none" stroke-width="0" stroke-linecap="butt"/></g><g><path d="M106.43681,158.82175v-52c0,0 18.04009,0 27.04344,0c8.98115,0 26.91022,0 26.91022,0v52z" fill="#676767" stroke="none" stroke-width="0" stroke-linecap="butt"/><path d="M107.33284,148.8764h52.08833" fill="none" stroke="#444444" stroke-width="2" stroke-linecap="round"/><path d="M107.33284,138.31485h52.08833" fill="none" stroke="#444444" stroke-width="2" stroke-linecap="round"/><path d="M159.42117,127.15292h-52.08833" fill="none" stroke="#444444" stroke-width="2" stroke-linecap="round"/><path d="M106.52266,118.16711v-11.30026h53.77462v11.30026z" fill="#c6c6c6" stroke="none" stroke-width="0" stroke-linecap="butt"/></g></g></g></svg>