<svg version="1.1" xmlns="http://www.w3.org/2000/svg" xmlns:xlink="http://www.w3.org/1999/xlink" width="556.86429" height="382.33448" viewBox="0,0,556.86429,382.33448"><g transform="translate(3.6318,16.11136)"><g data-paper-data="{&quot;isPaintingLayer&quot;:true}" fill-rule="nonzero" stroke-linejoin="miter" stroke-miterlimit="10" stroke-dasharray="" stroke-dashoffset="0" style="mix-blend-mode: normal"><g><path d="M525.09616,326.28197l-51.99803,-0.45293c0,0 0.26697,-30.64928 0.40021,-45.94556c0.13291,-15.25856 0.39824,-45.71923 0.39824,-45.71923l51.99803,0.45293z" fill="#676767" stroke="none" stroke-width="0" stroke-linecap="butt"/><path d="M515.16445,324.67303l0.77085,-88.49567" fill="none" stroke="#444444" stroke-width="2" stroke-linecap="round"/><path d="M504.6033,324.58104l0.77085,-88.49567" fill="none" stroke="#444444" stroke-width="2" stroke-linecap="round"/><path d="M494.21264,235.98814l-0.77085,88.49567" fill="none" stroke="#444444" stroke-width="2" stroke-linecap="round"/><path d="M484.44434,325.78201l-11.29983,-0.09843l0.7958,-91.36059l11.29983,0.09843z" fill="#c6c6c6" stroke="none" stroke-width="0" stroke-linecap="butt"/></g><path d="M391.44778,205.49581l10.28823,-20.83525l151.49648,62.15051l-10.28823,20.83525z" data-paper-data="{&quot;index&quot;:null}" fill="#c6c6c6" stroke="none" stroke-width="NaN" stroke-linecap="butt"/><g><path d="M-2.62837,366.22312v-52c0,0 30.65044,0 45.9473,0c15.25914,0 45.72096,0 45.72096,0v52z" fill="#676767" stroke="none" stroke-width="0" stroke-linecap="butt"/><path d="M-1.106,356.27777h88.49903" fill="none" stroke="#444444" stroke-width="2" stroke-linecap="round"/><path d="M-1.106,345.71622h88.49903" fill="none" stroke="#444444" stroke-width="2" stroke-linecap="round"/><path d="M87.39303,334.55429h-88.49903" fill="none" stroke="#444444" stroke-width="2" stroke-linecap="round"/><path d="M-2.48251,325.56848v-11.30026h91.36406v11.30026z" fill="#c6c6c6" stroke="none" stroke-width="0" stroke-linecap="butt"/></g><g><path d="M392.94796,366.22312v-52c0,0 30.65044,0 45.9473,0c15.25914,0 45.72096,0 45.72096,0v52z" fill="#676767" stroke="none" stroke-width="0" stroke-linecap="butt"/><path d="M394.47033,356.27777h88.49903" fill="none" stroke="#444444" stroke-width="2" stroke-linecap="round"/><path d="M394.47033,345.71622h88.49903" fill="none" stroke="#444444" stroke-width="2" stroke-linecap="round"/><path d="M482.96936,334.55429h-88.49903" fill="none" stroke="#444444" stroke-width="2" stroke-linecap="round"/><path d="M393.09382,325.56848v-11.30026h91.36406v11.30026z" fill="#c6c6c6" stroke="none" stroke-width="0" stroke-linecap="butt"/></g><g data-paper-data="{&quot;index&quot;:null}"><path d="M240.03645,-16.11136v52c0,0 -80.97218,0 -121.5333,0c-40.66139,0 -122.13495,0 -122.13495,0v-52z" fill="#676767" stroke="none" stroke-width="0" stroke-linecap="butt"/><path d="M0.41489,-6.16601h235.24396" fill="none" stroke="#444444" stroke-width="2" stroke-linecap="round"/><path d="M0.41489,4.39554h235.24396" fill="none" stroke="#444444" stroke-width="2" stroke-linecap="round"/><path d="M0.41489,15.55747h235.24396" fill="none" stroke="#444444" stroke-width="2" stroke-linecap="round"/><path d="M239.61558,24.54328v11.30026h-242.85966v-11.30026z" fill="#c6c6c6" stroke="none" stroke-width="0" stroke-linecap="butt"/></g><g data-paper-data="{&quot;index&quot;:null}"><path d="M481.04512,-16.11136v52c0,0 -80.97218,0 -121.5333,0c-40.66139,0 -122.13495,0 -122.13495,0v-52z" fill="#676767" stroke="none" stroke-width="0" stroke-linecap="butt"/><path d="M476.66752,-6.16601h-235.24396" fill="none" stroke="#444444" stroke-width="2" stroke-linecap="round"/><path d="M241.42356,4.39554h235.24396" fill="none" stroke="#444444" stroke-width="2" stroke-linecap="round"/><path d="M476.66752,15.55747h-235.24396" fill="none" stroke="#444444" stroke-width="2" stroke-linecap="round"/><path d="M480.62425,24.54328v11.30026h-242.85967v-11.30026z" fill="#c6c6c6" stroke="none" stroke-width="0" stroke-linecap="butt"/></g><g><path d="M380.37163,206.22312v-52c0,0 33.99407,0 50.95965,0c16.92374,0 50.70861,0 50.70861,0v52z" fill="#676767" stroke="none" stroke-width="0" stroke-linecap="butt"/><path d="M382.06007,196.27776h98.1533" fill="none" stroke="#444444" stroke-width="2" stroke-linecap="round"/><path d="M382.06007,185.71621h98.1533" fill="none" stroke="#444444" stroke-width="2" stroke-linecap="round"/><path d="M480.21338,174.55428h-98.1533" fill="none" stroke="#444444" stroke-width="2" stroke-linecap="round"/><path d="M380.5334,165.56847v-11.30026h101.33088v11.30026z" fill="#c6c6c6" stroke="none" stroke-width="0" stroke-linecap="butt"/></g></g></g></svg>