<svg version="1.1" xmlns="http://www.w3.org/2000/svg" xmlns:xlink="http://www.w3.org/1999/xlink" width="40.58333" height="20.5" viewBox="0,0,40.58333,20.5"><g transform="translate(-89.25,-102.30334)"><g data-paper-data="{&quot;isPaintingLayer&quot;:true}" fill-rule="nonzero" stroke-linecap="butt" stroke-linejoin="miter" stroke-miterlimit="10" stroke-dasharray="" stroke-dashoffset="0" style="mix-blend-mode: normal"><path d="M100,120.50007v-15.92079h21v15.92079z" fill="#988282" stroke="none" stroke-width="0"/><path d="M89.5,112.55335c0,-5.52285 4.47715,-10 10,-10c5.52285,0 10,4.47715 10,10c0,5.52285 -4.47715,10 -10,10c-5.52285,0 -10,-4.47715 -10,-10z" fill="#ff0000" stroke="#000000" stroke-width="0.5"/><path d="M129.83333,112.50003c0,4.41828 -3.58172,8 -8,8c-4.41828,0 -8,-3.58172 -8,-8c0,-4.41828 3.58172,-8 8,-8c4.41828,0 8,3.58172 8,8z" fill="#988282" stroke="none" stroke-width="0"/></g></g></svg>