<svg version="1.1" xmlns="http://www.w3.org/2000/svg" xmlns:xlink="http://www.w3.org/1999/xlink" width="30.58496" height="20.4823" viewBox="0,0,30.58496,20.4823"><g transform="translate(-224.70686,-170.76314)"><g data-paper-data="{&quot;isPaintingLayer&quot;:true}" fill-rule="nonzero" stroke-linecap="butt" stroke-linejoin="miter" stroke-miterlimit="10" stroke-dasharray="" stroke-dashoffset="0" style="mix-blend-mode: normal"><path d="M225.47863,190.29986c-0.34254,-0.46072 -0.488,-1.19254 -0.4969,-2.43711c-0.03024,-4.22545 0.06502,-12.41182 0.06502,-12.41182h29.97313c0,0 0,10.84947 0,13.42993c0,1.05965 -0.46377,1.52914 -0.46377,1.52914c0,0 -0.60864,0.57999 -1.34889,0.58044c-4.61726,0.00282 -20.69921,0.0125 -25.89231,0.00501c-0.92166,-0.00133 -1.49374,-0.23488 -1.83628,-0.6956z" fill="#444444" stroke="#000000" stroke-width="0.5"/><path d="M224.95819,176.69865c0,0 0.02938,-5.53742 3.57373,-5.57755c1.89278,-0.02143 22.50055,-0.13407 23.62948,-0.10802c2.89496,0.06681 2.88042,5.68557 2.88042,5.68557z" fill="#c6c6c6" stroke="#000000" stroke-width="0.5"/><path d="M226.61834,180.45441v-2.34976h9.92962v2.34976z" fill="#007eb3" stroke="none" stroke-width="0"/></g></g></svg>