<svg version="1.1" xmlns="http://www.w3.org/2000/svg" xmlns:xlink="http://www.w3.org/1999/xlink" width="336.11515" height="398.66667" viewBox="0,0,336.11515,398.66667"><g transform="translate(-139.93384,91.20441)"><g data-paper-data="{&quot;isPaintingLayer&quot;:true}" fill="#9966ff" fill-rule="nonzero" stroke="none" stroke-linecap="butt" stroke-linejoin="miter" stroke-miterlimit="10" stroke-dasharray="" stroke-dashoffset="0" style="mix-blend-mode: normal"><path d="M139.93385,159.7956l15.11515,9.84243l-15.11515,9.49091z" stroke-width="NaN"/><path d="M139.93385,172.46226l15.11515,9.84243l-15.11515,9.49091z" stroke-width="NaN"/><path d="M139.93385,183.12893l15.11515,9.84243l-15.11515,9.49091z" stroke-width="NaN"/><path d="M139.93385,193.12893l15.11515,9.84243l-15.11515,9.49091z" stroke-width="NaN"/><path d="M260.049,100.7956l-15.11515,-9.49091l15.11515,-9.84243z" data-paper-data="{&quot;index&quot;:null}" stroke-width="NaN"/><path d="M476.049,188.12893l-15.11515,-9.49091l15.11515,-9.84243z" data-paper-data="{&quot;index&quot;:null}" stroke-width="NaN"/><path d="M476.049,56.7956l-15.11515,-9.49091l15.11515,-9.84242z" data-paper-data="{&quot;index&quot;:null}" stroke-width="NaN"/><path d="M476.049,56.7956l-15.11515,-9.49091l15.11515,-9.84242z" data-paper-data="{&quot;index&quot;:null}" stroke-width="NaN"/><path d="M476.049,-71.87107l-15.11515,-9.49091l15.11515,-9.84243z" data-paper-data="{&quot;index&quot;:null}" stroke-width="NaN"/><path d="M476.049,231.46227l-15.11515,-9.49091l15.11515,-9.84242z" data-paper-data="{&quot;index&quot;:null}" stroke-width="NaN"/><path d="M476.049,100.12893l-15.11515,-9.49091l15.11515,-9.84242z" data-paper-data="{&quot;index&quot;:null}" stroke-width="NaN"/><path d="M476.049,100.12893l-15.11515,-9.49091l15.11515,-9.84242z" data-paper-data="{&quot;index&quot;:null}" stroke-width="NaN"/><path d="M476.049,-28.53774l-15.11515,-9.49091l15.11515,-9.84242z" data-paper-data="{&quot;index&quot;:null}" stroke-width="NaN"/><path d="M476.049,274.12893l-15.11515,-9.49091l15.11515,-9.84242z" data-paper-data="{&quot;index&quot;:null}" stroke-width="NaN"/><path d="M476.049,142.7956l-15.11515,-9.49091l15.11515,-9.84243z" data-paper-data="{&quot;index&quot;:null}" stroke-width="NaN"/><path d="M476.049,142.7956l-15.11515,-9.49091l15.11515,-9.84243z" data-paper-data="{&quot;index&quot;:null}" stroke-width="NaN"/><path d="M476.049,14.12893l-15.11515,-9.49091l15.11515,-9.84243z" data-paper-data="{&quot;index&quot;:null}" stroke-width="NaN"/><path d="M260.049,113.46226l-15.11515,-9.49091l15.11515,-9.84243z" data-paper-data="{&quot;index&quot;:null}" stroke-width="NaN"/><path d="M476.049,200.7956l-15.11515,-9.49091l15.11515,-9.84243z" data-paper-data="{&quot;index&quot;:null}" stroke-width="NaN"/><path d="M476.049,69.46226l-15.11515,-9.49091l15.11515,-9.84242z" data-paper-data="{&quot;index&quot;:null}" stroke-width="NaN"/><path d="M476.049,69.46226l-15.11515,-9.49091l15.11515,-9.84242z" data-paper-data="{&quot;index&quot;:null}" stroke-width="NaN"/><path d="M476.049,-59.20441l-15.11515,-9.49091l15.11515,-9.84243z" data-paper-data="{&quot;index&quot;:null}" stroke-width="NaN"/><path d="M476.049,244.12893l-15.11515,-9.49091l15.11515,-9.84243z" data-paper-data="{&quot;index&quot;:null}" stroke-width="NaN"/><path d="M476.049,112.7956l-15.11515,-9.49091l15.11515,-9.84243z" data-paper-data="{&quot;index&quot;:null}" stroke-width="NaN"/><path d="M476.049,112.7956l-15.11515,-9.49091l15.11515,-9.84243z" data-paper-data="{&quot;index&quot;:null}" stroke-width="NaN"/><path d="M476.049,-15.87107l-15.11515,-9.49091l15.11515,-9.84243z" data-paper-data="{&quot;index&quot;:null}" stroke-width="NaN"/><path d="M476.049,286.7956l-15.11515,-9.49091l15.11515,-9.84242z" data-paper-data="{&quot;index&quot;:null}" stroke-width="NaN"/><path d="M476.049,155.46226l-15.11515,-9.49091l15.11515,-9.84242z" data-paper-data="{&quot;index&quot;:null}" stroke-width="NaN"/><path d="M476.049,155.46226l-15.11515,-9.49091l15.11515,-9.84242z" data-paper-data="{&quot;index&quot;:null}" stroke-width="NaN"/><path d="M476.049,26.79559l-15.11515,-9.49091l15.11515,-9.84242z" data-paper-data="{&quot;index&quot;:null}" stroke-width="NaN"/><path d="M260.049,124.12893l-15.11515,-9.49091l15.11515,-9.84243z" data-paper-data="{&quot;index&quot;:null}" stroke-width="NaN"/><path d="M476.049,211.46227l-15.11515,-9.49091l15.11515,-9.84243z" data-paper-data="{&quot;index&quot;:null}" stroke-width="NaN"/><path d="M476.049,80.12893l-15.11515,-9.49091l15.11515,-9.84243z" data-paper-data="{&quot;index&quot;:null}" stroke-width="NaN"/><path d="M476.049,80.12893l-15.11515,-9.49091l15.11515,-9.84243z" data-paper-data="{&quot;index&quot;:null}" stroke-width="NaN"/><path d="M476.049,-48.53774l-15.11515,-9.49091l15.11515,-9.84243z" data-paper-data="{&quot;index&quot;:null}" stroke-width="NaN"/><path d="M476.049,254.7956l-15.11515,-9.49091l15.11515,-9.84243z" data-paper-data="{&quot;index&quot;:null}" stroke-width="NaN"/><path d="M476.049,123.46227l-15.11515,-9.49091l15.11515,-9.84243z" data-paper-data="{&quot;index&quot;:null}" stroke-width="NaN"/><path d="M476.049,123.46227l-15.11515,-9.49091l15.11515,-9.84243z" data-paper-data="{&quot;index&quot;:null}" stroke-width="NaN"/><path d="M476.049,-5.2044l-15.11515,-9.49091l15.11515,-9.84243z" data-paper-data="{&quot;index&quot;:null}" stroke-width="NaN"/><path d="M476.049,297.46227l-15.11515,-9.49091l15.11515,-9.84243z" data-paper-data="{&quot;index&quot;:null}" stroke-width="NaN"/><path d="M476.049,166.12893l-15.11515,-9.49091l15.11515,-9.84243z" data-paper-data="{&quot;index&quot;:null}" stroke-width="NaN"/><path d="M476.049,166.12893l-15.11515,-9.49091l15.11515,-9.84243z" data-paper-data="{&quot;index&quot;:null}" stroke-width="NaN"/><path d="M476.049,37.46226l-15.11515,-9.49091l15.11515,-9.84243z" data-paper-data="{&quot;index&quot;:null}" stroke-width="NaN"/><path d="M260.049,134.12893l-15.11515,-9.49091l15.11515,-9.84243z" data-paper-data="{&quot;index&quot;:null}" stroke-width="NaN"/><path d="M476.049,221.46227l-15.11515,-9.49091l15.11515,-9.84243z" data-paper-data="{&quot;index&quot;:null}" stroke-width="NaN"/><path d="M476.049,90.12893l-15.11515,-9.49091l15.11515,-9.84243z" data-paper-data="{&quot;index&quot;:null}" stroke-width="NaN"/><path d="M476.049,90.12893l-15.11515,-9.49091l15.11515,-9.84243z" data-paper-data="{&quot;index&quot;:null}" stroke-width="NaN"/><path d="M476.049,-38.53774l-15.11515,-9.49091l15.11515,-9.84243z" data-paper-data="{&quot;index&quot;:null}" stroke-width="NaN"/><path d="M476.049,264.7956l-15.11515,-9.49091l15.11515,-9.84243z" data-paper-data="{&quot;index&quot;:null}" stroke-width="NaN"/><path d="M476.049,133.46227l-15.11515,-9.49091l15.11515,-9.84243z" data-paper-data="{&quot;index&quot;:null}" stroke-width="NaN"/><path d="M476.049,133.46227l-15.11515,-9.49091l15.11515,-9.84243z" data-paper-data="{&quot;index&quot;:null}" stroke-width="NaN"/><path d="M476.049,4.7956l-15.11515,-9.49091l15.11515,-9.84243z" data-paper-data="{&quot;index&quot;:null}" stroke-width="NaN"/><path d="M476.049,307.46227l-15.11515,-9.49091l15.11515,-9.84243z" data-paper-data="{&quot;index&quot;:null}" stroke-width="NaN"/><path d="M476.049,176.12893l-15.11515,-9.49091l15.11515,-9.84243z" data-paper-data="{&quot;index&quot;:null}" stroke-width="NaN"/><path d="M476.049,176.12893l-15.11515,-9.49091l15.11515,-9.84243z" data-paper-data="{&quot;index&quot;:null}" stroke-width="NaN"/><path d="M476.049,47.46226l-15.11515,-9.49091l15.11515,-9.84243z" data-paper-data="{&quot;index&quot;:null}" stroke-width="NaN"/></g></g></svg>