<svg version="1.1" xmlns="http://www.w3.org/2000/svg" xmlns:xlink="http://www.w3.org/1999/xlink" width="21.3947" height="32.3849" viewBox="0,0,21.3947,32.3849"><g transform="translate(-229.27759,-163.80755)"><g data-paper-data="{&quot;isPaintingLayer&quot;:true}" fill="#000000" fill-rule="nonzero" stroke-linecap="butt" stroke-linejoin="miter" stroke-miterlimit="10" stroke-dasharray="" stroke-dashoffset="0" style="mix-blend-mode: normal"><path d="M231.79596,173.62434c0,-4.59324 3.72355,-8.31679 8.31679,-8.31679c4.59324,0 8.31679,3.72355 8.31679,8.31679c0,4.59324 -3.72355,8.31679 -8.31679,8.31679c-4.59324,0 -8.31679,-3.72355 -8.31679,-8.31679z" stroke="#1eb300" stroke-width="3"/><path d="M231.3163,194.69245l5.87067,-18.83507h6.11528l5.38145,18.83507z" stroke="#1eb300" stroke-width="3"/><path d="M234.89239,178.92964c-0.23339,-0.40843 -0.23829,-0.80414 -0.14643,-1.18231c-0.02918,-0.11798 -0.04467,-0.24136 -0.04467,-0.36835c0,-0.53266 0.27241,-1.0017 0.68552,-1.2754c0.03923,-0.17823 0.04169,-0.34816 -0.01751,-0.50888c-0.23065,-0.62613 -0.70671,-1.29993 -0.21482,-2.03777c0.20783,-0.31174 0.95738,-0.78554 1.33772,-0.76441c0.72687,0.04038 1.28462,0.90764 1.98701,1.09869c0.22184,-0.12118 0.44726,-0.22929 0.67925,-0.31343l0.30402,-0.17373c0.03185,0.0182 0.06324,0.03703 0.09417,0.05646c0.1167,-0.02609 0.23535,-0.04507 0.35628,-0.05571c0.25132,-0.0221 0.38072,0.20791 0.50084,0.47658c0.0122,0.00005 0.02442,0.00012 0.03664,0.0002c0.17303,-0.42175 0.46091,-0.78855 0.84176,-1.0624c0.0788,-0.26683 0.15857,-0.5334 0.23438,-0.80102c0,0 0.4496,-1.46122 1.91082,-1.01161c1.02452,0.31523 1.10968,1.12777 1.06908,1.58529c1.12264,0.44317 1.57614,2.23925 1.15731,3.49311c0.21883,0.16834 0.37261,0.41459 0.40782,0.78506c0.03546,0.37319 -0.01877,0.7249 -0.1413,1.04377c-0.03481,0.46164 -0.27268,0.81844 -0.27268,0.81844l-0.22891,-0.02353c-0.44177,0.4741 -1.06059,0.78941 -1.70699,0.8664c-0.21785,0.11944 -0.46795,0.18736 -0.73393,0.18736c-0.78939,0 -1.43905,-0.59828 -1.52027,-1.36615c-0.10809,-0.05053 -0.2093,-0.11333 -0.30183,-0.18662c-0.19242,1.22459 -0.76475,2.18329 -1.61583,2.18329c-0.46727,0 -0.85048,-0.34186 -1.1478,-0.86609c-0.109,0.175 -0.27169,0.34623 -0.5068,0.50297c-0.88029,0.58686 -1.55753,0.15842 -1.89117,-0.16115c-0.39909,-0.08683 -0.79112,-0.37808 -1.11167,-0.93904z" stroke="none" stroke-width="0.5"/></g></g></svg>