<svg version="1.1" xmlns="http://www.w3.org/2000/svg" xmlns:xlink="http://www.w3.org/1999/xlink" width="94.15172" height="71.35342" viewBox="0,0,94.15172,71.35342"><g transform="translate(-192.92414,-142.93029)"><g data-paper-data="{&quot;isPaintingLayer&quot;:true}" fill-rule="nonzero" stroke="#000000" stroke-linecap="butt" stroke-linejoin="miter" stroke-miterlimit="10" stroke-dasharray="" stroke-dashoffset="0" style="mix-blend-mode: normal"><path d="M199.57849,150.20086h5.96554v58.16391h-5.96554z" fill="#32557d" stroke-width="0.5"/><path d="M222.15765,149.85968h5.96554v58.16391h-5.96554z" fill="#32557d" stroke-width="0.5"/><path d="M249.5398,149.82801h5.96554v58.16391h-5.96554z" fill="#32557d" stroke-width="0.5"/><path d="M275.63899,150.20086h5.96554v58.16391h-5.96554z" fill="#32557d" stroke-width="0.5"/><path d="M193.17414,214.03371v-5.96553h93.21139v5.96553z" fill="#32557d" stroke-width="0.5"/><path d="M193.61447,151.93182v-5.96554h93.21139v5.96554z" fill="#32557d" stroke-width="0.5"/><path d="M245.51114,149.13677c0,3.1516 -2.55488,5.70648 -5.70648,5.70648c-3.1516,0 -5.70648,-2.55488 -5.70648,-5.70648c0,-3.1516 2.55488,-5.70648 5.70648,-5.70648c3.1516,0 5.70648,2.55488 5.70648,5.70648z" fill="#1eb300" stroke-width="1"/></g></g></svg>