<svg version="1.1" xmlns="http://www.w3.org/2000/svg" xmlns:xlink="http://www.w3.org/1999/xlink" width="545.7892" height="450.56995" viewBox="0,0,545.7892,450.56995"><g transform="translate(33.35309,32.83381)"><g data-paper-data="{&quot;isPaintingLayer&quot;:true}" fill-rule="nonzero" stroke-linejoin="miter" stroke-miterlimit="10" stroke-dasharray="" stroke-dashoffset="0" style="mix-blend-mode: normal"><g data-paper-data="{&quot;index&quot;:null}"><path d="M11.39859,417.54785l-36.55079,-0.24377l-1.38976,-73.1544l36.55082,0.24376z" fill="#453d34" stroke="none" stroke-width="0" stroke-linecap="butt"/><path d="M1.07364,385.48144l6.71498,4.89725l1.51298,4.20098" fill="none" stroke="#8a2f00" stroke-width="3" stroke-linecap="round"/><path d="M-13.41396,389.85514l2.957,-20.37598l-5.14421,-6.73975l6.13163,-16.7227" fill="none" stroke="#8a2f00" stroke-width="3" stroke-linecap="round"/><path d="M-11.02502,377.29838l4.07711,13.43805" fill="none" stroke="#8a2f00" stroke-width="3" stroke-linecap="round"/><path d="M8.59084,353.68077l-2.42078,10.8802l-9.6248,-3.6963" fill="none" stroke="#8a2f00" stroke-width="3" stroke-linecap="round"/><path d="M-13.14322,404.10595l-7.18277,11.68661" fill="none" stroke="#8a2f00" stroke-width="3" stroke-linecap="round"/><path d="M4.28539,416.23613l-6.43418,-11.77743" fill="none" stroke="#8a2f00" stroke-width="3" stroke-linecap="round"/><path d="M-6.7515,413.64798l5.88212,-4.71047" fill="none" stroke="#8a2f00" stroke-width="3" stroke-linecap="round"/><path d="M-16.91246,406.87478l-4.29474,-12.32191" fill="none" stroke="#8a2f00" stroke-width="3" stroke-linecap="round"/><path d="M-21.88141,359.06542l-0.14333,-7.54456l1.08832,-5.58065" fill="none" stroke="#8a2f00" stroke-width="3" stroke-linecap="round"/></g><g data-paper-data="{&quot;index&quot;:null}"><path d="M6.66849,351.35456l-34.96924,-10.63824l19.49189,-70.5235l34.96927,10.63824z" fill="#453d34" stroke="none" stroke-width="0" stroke-linecap="butt"/><path d="M5.89873,317.67568l5.04312,6.60613l0.25453,4.45786" fill="none" stroke="#8a2f00" stroke-width="3" stroke-linecap="round"/><path d="M-9.23451,317.74439l8.6349,-18.69125l-3.01285,-7.92527l10.63824,-14.28542" fill="none" stroke="#8a2f00" stroke-width="3" stroke-linecap="round"/><path d="M-3.37,306.38716l0.08315,14.04269" fill="none" stroke="#8a2f00" stroke-width="3" stroke-linecap="round"/><path d="M22.15732,289.33051l-5.41779,9.74097l-8.17442,-6.28318" fill="none" stroke="#8a2f00" stroke-width="3" stroke-linecap="round"/><path d="M-13.03161,331.48269l-10.21232,9.15847" fill="none" stroke="#8a2f00" stroke-width="3" stroke-linecap="round"/><path d="M-2.59245,334.95053l2.81542,13.12174" fill="none" stroke="#8a2f00" stroke-width="3" stroke-linecap="round"/><path d="M-9.62056,342.44943l6.97965,-2.84118" fill="none" stroke="#8a2f00" stroke-width="3" stroke-linecap="round"/><path d="M-18.04259,320.02934l0.6095,13.03468" fill="none" stroke="#8a2f00" stroke-width="3" stroke-linecap="round"/><path d="M-8.58704,285.81815l2.01024,-7.27323l2.63188,-5.03997" fill="none" stroke="#8a2f00" stroke-width="3" stroke-linecap="round"/></g><g data-paper-data="{&quot;index&quot;:null}"><path d="M26.66346,286.78043l-36.53851,-0.97805l0.08024,-73.16756l36.53855,0.97804z" fill="#453d34" stroke="none" stroke-width="0" stroke-linecap="butt"/><path d="M16.98483,254.51306l6.61523,5.03117l1.42828,4.23053" fill="none" stroke="#8a2f00" stroke-width="3" stroke-linecap="round"/><path d="M2.41228,258.59481l3.36577,-20.31246l-5.00777,-6.84174l6.46637,-16.59614" fill="none" stroke="#8a2f00" stroke-width="3" stroke-linecap="round"/><path d="M8.85932,259.60583l-3.80631,-13.51725" fill="none" stroke="#8a2f00" stroke-width="3" stroke-linecap="round"/><path d="M25.13941,222.86983l-2.63888,10.82937l-9.54859,-3.88892" fill="none" stroke="#8a2f00" stroke-width="3" stroke-linecap="round"/><path d="M2.39666,272.84818l-7.41612,11.53995" fill="none" stroke="#8a2f00" stroke-width="3" stroke-linecap="round"/><path d="M13.38178,273.42175l6.19626,11.90432" fill="none" stroke="#8a2f00" stroke-width="3" stroke-linecap="round"/><path d="M8.59538,282.5167l5.97557,-4.59134" fill="none" stroke="#8a2f00" stroke-width="3" stroke-linecap="round"/><path d="M-5.47377,263.13502l4.04632,12.40571" fill="none" stroke="#8a2f00" stroke-width="3" stroke-linecap="round"/><path d="M-5.43487,227.64119l0.00827,-7.54592l1.20022,-5.55766" fill="none" stroke="#8a2f00" stroke-width="3" stroke-linecap="round"/></g><g data-paper-data="{&quot;index&quot;:null}"><path d="M23.64117,221.16547l-35.55456,-8.47896l15.14087,-71.58388l35.55459,8.47895z" fill="#453d34" stroke="none" stroke-width="0" stroke-linecap="butt"/><path d="M20.81244,187.59677l5.43782,6.28523l0.52678,4.43394" fill="none" stroke="#8a2f00" stroke-width="3" stroke-linecap="round"/><path d="M5.71175,188.59118l7.47522,-19.18451l-3.49206,-7.7261l9.74436,-14.90949" fill="none" stroke="#8a2f00" stroke-width="3" stroke-linecap="round"/><path d="M10.87046,176.89644l0.9421,14.0113" fill="none" stroke="#8a2f00" stroke-width="3" stroke-linecap="round"/><path d="M35.30646,158.31002l-4.8117,10.05418l-8.5435,-5.77131" fill="none" stroke="#8a2f00" stroke-width="3" stroke-linecap="round"/><path d="M2.76224,202.53604l-9.6329,9.76609" fill="none" stroke="#8a2f00" stroke-width="3" stroke-linecap="round"/><path d="M13.394,205.35874l3.61291,12.92491" fill="none" stroke="#8a2f00" stroke-width="3" stroke-linecap="round"/><path d="M6.83782,213.27355l6.79276,-3.26286" fill="none" stroke="#8a2f00" stroke-width="3" stroke-linecap="round"/><path d="M-1.53425,204.38368l-1.4058,-12.97297" fill="none" stroke="#8a2f00" stroke-width="3" stroke-linecap="round"/><path d="M4.40481,156.68512l1.5615,-7.38259l2.31862,-5.19154" fill="none" stroke="#8a2f00" stroke-width="3" stroke-linecap="round"/></g><g data-paper-data="{&quot;index&quot;:null}"><path d="M4.87174,171.19446l-3.46812,-36.3867l72.63536,-8.80922l3.46814,36.38672z" fill="#453d34" stroke="none" stroke-width="0" stroke-linecap="butt"/><path d="M35.72429,157.66747l-4.19025,7.17745l-4.02568,1.93164" fill="none" stroke="#8a2f00" stroke-width="3" stroke-linecap="round"/><path d="M29.9024,143.69874l20.5709,0.87315l6.18269,-5.80185l17.25878,4.40226" fill="none" stroke="#8a2f00" stroke-width="3" stroke-linecap="round"/><path d="M42.63681,144.80057l-12.95472,5.42027" fill="none" stroke="#8a2f00" stroke-width="3" stroke-linecap="round"/><path d="M68.1238,161.91742l-11.06975,-1.30371l2.70009,-9.95032" fill="none" stroke="#8a2f00" stroke-width="3" stroke-linecap="round"/><path d="M15.75271,145.41482l-12.35543,-5.95924" fill="none" stroke="#8a2f00" stroke-width="3" stroke-linecap="round"/><path d="M16.51793,156.38826l-11.06338,7.59658" fill="none" stroke="#8a2f00" stroke-width="3" stroke-linecap="round"/><path d="M6.90886,152.74222l5.28328,5.37353" fill="none" stroke="#8a2f00" stroke-width="3" stroke-linecap="round"/><path d="M12.61553,141.94614l11.82224,-5.52347" fill="none" stroke="#8a2f00" stroke-width="3" stroke-linecap="round"/><path d="M59.67343,132.14926l7.49103,-0.90852l5.6623,0.51615" fill="none" stroke="#8a2f00" stroke-width="3" stroke-linecap="round"/></g><g data-paper-data="{&quot;index&quot;:null}"><path d="M67.32556,160.56908l4.58052,-36.26346l72.8022,7.30328l-4.58051,36.26349z" fill="#453d34" stroke="none" stroke-width="0" stroke-linecap="butt"/><path d="M100.39082,154.12331l-5.65968,6.08621l-4.35087,1.00364" fill="none" stroke="#8a2f00" stroke-width="3" stroke-linecap="round"/><path d="M97.76767,139.21899l19.88094,5.35466l7.3027,-4.30785l15.87667,8.07322" fill="none" stroke="#8a2f00" stroke-width="3" stroke-linecap="round"/><path d="M109.9521,143.08149l-13.827,2.45323" fill="none" stroke="#8a2f00" stroke-width="3" stroke-linecap="round"/><path d="M131.0744,165.36202l-10.51595,-3.69511l4.81261,-9.11802" fill="none" stroke="#8a2f00" stroke-width="3" stroke-linecap="round"/><path d="M83.58548,137.79628l-10.75142,-8.51917" fill="none" stroke="#8a2f00" stroke-width="3" stroke-linecap="round"/><path d="M81.9302,148.67112l-12.45788,4.99074" fill="none" stroke="#8a2f00" stroke-width="3" stroke-linecap="round"/><path d="M73.35222,143.0102l3.97898,6.39966" fill="none" stroke="#8a2f00" stroke-width="3" stroke-linecap="round"/><path d="M81.28362,133.72503l12.74457,-2.8018" fill="none" stroke="#8a2f00" stroke-width="3" stroke-linecap="round"/><path d="M129.34479,134.46605l7.50823,0.75319l5.41202,1.74303" fill="none" stroke="#8a2f00" stroke-width="3" stroke-linecap="round"/></g><g data-paper-data="{&quot;index&quot;:null}"><path d="M166.82494,283.81698l29.94877,20.95449l-40.39365,61.00697l-29.9488,-20.9545z" fill="#453d34" stroke="none" stroke-width="0" stroke-linecap="butt"/><path d="M157.11646,316.07539l-2.74681,-7.84404l1.13992,-4.31717" fill="none" stroke="#8a2f00" stroke-width="3" stroke-linecap="round"/><path d="M171.52551,320.70131l-14.00373,15.09371l0.40763,8.46883l-14.54261,10.28389" fill="none" stroke="#8a2f00" stroke-width="3" stroke-linecap="round"/><path d="M162.4292,329.68107l4.27411,-13.37669" fill="none" stroke="#8a2f00" stroke-width="3" stroke-linecap="round"/><path d="M132.87192,337.98414l8.17056,-7.58162l5.82397,8.50769" fill="none" stroke="#8a2f00" stroke-width="3" stroke-linecap="round"/><path d="M191.9427,303.27534l-12.54833,5.54152" fill="none" stroke="#8a2f00" stroke-width="3" stroke-linecap="round"/><path d="M171.93543,288.93567l-1.39095,13.3481" fill="none" stroke="#8a2f00" stroke-width="3" stroke-linecap="round"/><path d="M172.03443,297.87053l7.51657,-0.53756" fill="none" stroke="#8a2f00" stroke-width="3" stroke-linecap="round"/><path d="M184.06923,308.67787l-3.46122,12.58151" fill="none" stroke="#8a2f00" stroke-width="3" stroke-linecap="round"/><path d="M161.01293,350.85409l-4.16588,6.29177l-4.06461,3.97581" fill="none" stroke="#8a2f00" stroke-width="3" stroke-linecap="round"/></g><g data-paper-data="{&quot;index&quot;:null}"><path d="M142.16235,325.01896l36.14508,-5.43623l12.73519,72.05076l-36.14511,5.43624z" fill="#453d34" stroke="none" stroke-width="0" stroke-linecap="butt"/><path d="M157.34253,355.09257l-7.39412,-3.79485l-2.14712,-3.915" fill="none" stroke="#8a2f00" stroke-width="3" stroke-linecap="round"/><path d="M170.975,348.52175l0.24367,20.58798l6.1286,5.85896l-3.45987,17.47212" fill="none" stroke="#8a2f00" stroke-width="3" stroke-linecap="round"/><path d="M170.56535,361.29716l-6.11482,-12.64171" fill="none" stroke="#8a2f00" stroke-width="3" stroke-linecap="round"/><path d="M154.85582,387.67488l0.7015,-11.12416l10.08211,2.15652" fill="none" stroke="#8a2f00" stroke-width="3" stroke-linecap="round"/><path d="M173.77456,321.82552l-5.28045,12.6604" fill="none" stroke="#8a2f00" stroke-width="3" stroke-linecap="round"/><path d="M149.39296,325.20995l8.18536,10.63515" fill="none" stroke="#8a2f00" stroke-width="3" stroke-linecap="round"/><path d="M155.6188,331.61935l5.07911,-5.56691" fill="none" stroke="#8a2f00" stroke-width="3" stroke-linecap="round"/><path d="M171.78756,331.16526l6.15645,11.50533" fill="none" stroke="#8a2f00" stroke-width="3" stroke-linecap="round"/><path d="M184.12192,377.62265l1.31341,7.43074l-0.20834,5.68196" fill="none" stroke="#8a2f00" stroke-width="3" stroke-linecap="round"/></g><g data-paper-data="{&quot;index&quot;:null}"><path d="M447.46266,268.4574l36.14509,-5.43623l12.73519,72.05076l-36.14511,5.43625z" fill="#453d34" stroke="none" stroke-width="0" stroke-linecap="butt"/><path d="M462.64283,298.53101l-7.39413,-3.79485l-2.14712,-3.915" fill="none" stroke="#8a2f00" stroke-width="3" stroke-linecap="round"/><path d="M476.2753,291.96018l0.24366,20.58799l6.1286,5.85896l-3.45987,17.47213" fill="none" stroke="#8a2f00" stroke-width="3" stroke-linecap="round"/><path d="M475.86566,304.73559l-6.11482,-12.64171" fill="none" stroke="#8a2f00" stroke-width="3" stroke-linecap="round"/><path d="M460.15612,331.11332l0.70149,-11.12416l10.08211,2.15652" fill="none" stroke="#8a2f00" stroke-width="3" stroke-linecap="round"/><path d="M479.07486,265.26396l-5.28045,12.6604" fill="none" stroke="#8a2f00" stroke-width="3" stroke-linecap="round"/><path d="M454.69326,268.64839l8.18536,10.63515" fill="none" stroke="#8a2f00" stroke-width="3" stroke-linecap="round"/><path d="M460.9191,275.05779l5.07911,-5.56691" fill="none" stroke="#8a2f00" stroke-width="3" stroke-linecap="round"/><path d="M477.08787,274.60369l6.15645,11.50532" fill="none" stroke="#8a2f00" stroke-width="3" stroke-linecap="round"/><path d="M489.42223,321.06109l1.31341,7.43075l-0.20834,5.68196" fill="none" stroke="#8a2f00" stroke-width="3" stroke-linecap="round"/></g><g data-paper-data="{&quot;index&quot;:null}"><path d="M459.22096,306.96527l36.52018,1.51542l-1.1565,73.15846l-36.52021,-1.51541z" fill="#453d34" stroke="none" stroke-width="0" stroke-linecap="butt"/><path d="M468.42389,339.37153l-6.54051,-5.12793l-1.3659,-4.25108" fill="none" stroke="#8a2f00" stroke-width="3" stroke-linecap="round"/><path d="M483.0549,335.50458l-3.6642,20.26075l4.90659,6.91466l-6.7098,16.49923" fill="none" stroke="#8a2f00" stroke-width="3" stroke-linecap="round"/><path d="M480.23049,347.9706l-3.60706,-13.57177" fill="none" stroke="#8a2f00" stroke-width="3" stroke-linecap="round"/><path d="M459.80473,370.89138l2.79789,-10.78939l9.49036,4.02896" fill="none" stroke="#8a2f00" stroke-width="3" stroke-linecap="round"/><path d="M490.86524,309.82337l-7.58506,11.4296" fill="none" stroke="#8a2f00" stroke-width="3" stroke-linecap="round"/><path d="M466.2842,308.5237l6.02048,11.99418" fill="none" stroke="#8a2f00" stroke-width="3" stroke-linecap="round"/><path d="M471.1819,315.99726l6.04246,-4.50295" fill="none" stroke="#8a2f00" stroke-width="3" stroke-linecap="round"/><path d="M487.14349,318.61697l3.86339,12.46389" fill="none" stroke="#8a2f00" stroke-width="3" stroke-linecap="round"/><path d="M490.44589,366.57028l-0.11927,7.54498l-1.28185,5.5394" fill="none" stroke="#8a2f00" stroke-width="3" stroke-linecap="round"/></g><g data-paper-data="{&quot;index&quot;:null}"><path d="M450.70744,197.85116l36.52017,1.51542l-1.1565,73.15845l-36.5202,-1.51541z" fill="#453d34" stroke="none" stroke-width="0" stroke-linecap="butt"/><path d="M459.91037,230.25742l-6.54051,-5.12793l-1.3659,-4.25108" fill="none" stroke="#8a2f00" stroke-width="3" stroke-linecap="round"/><path d="M474.54139,226.39047l-3.6642,20.26075l4.90659,6.91466l-6.7098,16.49922" fill="none" stroke="#8a2f00" stroke-width="3" stroke-linecap="round"/><path d="M471.71698,238.85648l-3.60706,-13.57177" fill="none" stroke="#8a2f00" stroke-width="3" stroke-linecap="round"/><path d="M451.29122,261.77727l2.79789,-10.78939l9.49036,4.02896" fill="none" stroke="#8a2f00" stroke-width="3" stroke-linecap="round"/><path d="M482.35173,200.70926l-7.58506,11.4296" fill="none" stroke="#8a2f00" stroke-width="3" stroke-linecap="round"/><path d="M457.77069,199.40959l6.02048,11.99418" fill="none" stroke="#8a2f00" stroke-width="3" stroke-linecap="round"/><path d="M462.66838,206.88315l6.04246,-4.50295" fill="none" stroke="#8a2f00" stroke-width="3" stroke-linecap="round"/><path d="M478.62998,209.50285l3.86339,12.46389" fill="none" stroke="#8a2f00" stroke-width="3" stroke-linecap="round"/><path d="M481.93238,257.45617l-0.11928,7.54498l-1.28184,5.5394" fill="none" stroke="#8a2f00" stroke-width="3" stroke-linecap="round"/></g><g data-paper-data="{&quot;index&quot;:null}"><path d="M442.80128,130.84955l36.33451,-3.97781l9.82648,72.50474l-36.33454,3.97782z" fill="#453d34" stroke="none" stroke-width="0" stroke-linecap="butt"/><path d="M456.75938,161.50947l-7.23548,-4.08923l-1.98789,-3.9982" fill="none" stroke="#8a2f00" stroke-width="3" stroke-linecap="round"/><path d="M470.64515,155.49236l-0.58473,20.58112l5.88795,6.10076l-4.15993,17.3188" fill="none" stroke="#8a2f00" stroke-width="3" stroke-linecap="round"/><path d="M469.72191,168.24095l-5.60133,-12.87746" fill="none" stroke="#8a2f00" stroke-width="3" stroke-linecap="round"/><path d="M452.96399,193.96538l1.14842,-11.08694l9.9872,2.56036" fill="none" stroke="#8a2f00" stroke-width="3" stroke-linecap="round"/><path d="M474.51636,128.93037l-5.78547,12.43773" fill="none" stroke="#8a2f00" stroke-width="3" stroke-linecap="round"/><path d="M450.01835,131.33125l7.75091,10.95582" fill="none" stroke="#8a2f00" stroke-width="3" stroke-linecap="round"/><path d="M455.98131,137.98592l5.29895,-5.35809" fill="none" stroke="#8a2f00" stroke-width="3" stroke-linecap="round"/><path d="M472.15526,138.18261l5.68864,11.74367" fill="none" stroke="#8a2f00" stroke-width="3" stroke-linecap="round"/><path d="M482.61078,185.09858l1.01342,7.47756l-0.43674,5.66898" fill="none" stroke="#8a2f00" stroke-width="3" stroke-linecap="round"/></g><g data-paper-data="{&quot;index&quot;:null}"><path d="M448.15432,55.75963l36.46949,2.44865l-3.02659,73.10497l-36.46952,-2.44864z" fill="#453d34" stroke="none" stroke-width="0" stroke-linecap="butt"/><path d="M456.5257,88.39059l-6.40727,-5.29348l-1.25676,-4.28461" fill="none" stroke="#8a2f00" stroke-width="3" stroke-linecap="round"/><path d="M471.2508,84.89898l-4.18102,20.16044l4.7282,7.03785l-7.12945,16.32228" fill="none" stroke="#8a2f00" stroke-width="3" stroke-linecap="round"/><path d="M468.10859,97.28871l-3.25889,-13.65956" fill="none" stroke="#8a2f00" stroke-width="3" stroke-linecap="round"/><path d="M447.10348,119.67977l3.07283,-10.71432l9.38425,4.27029" fill="none" stroke="#8a2f00" stroke-width="3" stroke-linecap="round"/><path d="M479.71518,59.42586l-7.87481,11.23193" fill="none" stroke="#8a2f00" stroke-width="3" stroke-linecap="round"/><path d="M455.17541,57.49814l5.71185,12.14419" fill="none" stroke="#8a2f00" stroke-width="3" stroke-linecap="round"/><path d="M459.88042,65.09447l6.15562,-4.34698" fill="none" stroke="#8a2f00" stroke-width="3" stroke-linecap="round"/><path d="M475.76982,68.12142l3.54346,12.55859" fill="none" stroke="#8a2f00" stroke-width="3" stroke-linecap="round"/><path d="M477.8451,116.14349l-0.31214,7.53947l-1.42305,5.50482" fill="none" stroke="#8a2f00" stroke-width="3" stroke-linecap="round"/></g><g data-paper-data="{&quot;index&quot;:null}"><path d="M417.30039,10.80817l30.62936,-19.94647l41.48835,60.26785l-30.62938,19.9465z" fill="#453d34" stroke="none" stroke-width="0" stroke-linecap="butt"/><path d="M443.59237,31.86978l-8.3022,-0.384l-3.57824,-2.67086" fill="none" stroke="#8a2f00" stroke-width="3" stroke-linecap="round"/><path d="M453.26849,20.23394l8.76587,18.63019l8.00743,2.78717l4.10322,17.33232" fill="none" stroke="#8a2f00" stroke-width="3" stroke-linecap="round"/><path d="M458.19769,32.02724l-10.80979,-8.96395" fill="none" stroke="#8a2f00" stroke-width="3" stroke-linecap="round"/><path d="M454.85184,62.54575l-3.97838,-10.41208l10.06785,-2.22211" fill="none" stroke="#8a2f00" stroke-width="3" stroke-linecap="round"/><path d="M444.73644,-5.21659l0.44992,13.71009" fill="none" stroke="#8a2f00" stroke-width="3" stroke-linecap="round"/><path d="M423.95819,7.98117l11.86085,6.27906" fill="none" stroke="#8a2f00" stroke-width="3" stroke-linecap="round"/><path d="M432.28251,11.2288l2.31076,-7.17275" fill="none" stroke="#8a2f00" stroke-width="3" stroke-linecap="round"/><path d="M446.80469,4.10547l10.37605,7.91278" fill="none" stroke="#8a2f00" stroke-width="3" stroke-linecap="round"/><path d="M477.30691,41.25438l4.27877,6.21555l2.16851,5.25601" fill="none" stroke="#8a2f00" stroke-width="3" stroke-linecap="round"/></g><g data-paper-data="{&quot;index&quot;:null}"><path d="M440.31841,0.79315l30.62937,-19.94647l41.48835,60.26785l-30.62939,19.94651z" fill="#453d34" stroke="none" stroke-width="0" stroke-linecap="butt"/><path d="M466.61039,21.85476l-8.3022,-0.384l-3.57824,-2.67087" fill="none" stroke="#8a2f00" stroke-width="3" stroke-linecap="round"/><path d="M476.28651,10.21892l8.76587,18.63019l8.00743,2.78717l4.10322,17.33232" fill="none" stroke="#8a2f00" stroke-width="3" stroke-linecap="round"/><path d="M481.21571,22.01222l-10.80979,-8.96395" fill="none" stroke="#8a2f00" stroke-width="3" stroke-linecap="round"/><path d="M477.86986,52.53073l-3.97838,-10.41208l10.06785,-2.22211" fill="none" stroke="#8a2f00" stroke-width="3" stroke-linecap="round"/><path d="M467.75446,-15.23161l0.44991,13.71008" fill="none" stroke="#8a2f00" stroke-width="3" stroke-linecap="round"/><path d="M446.9762,-2.03385l11.86085,6.27907" fill="none" stroke="#8a2f00" stroke-width="3" stroke-linecap="round"/><path d="M455.30053,1.21378l2.31076,-7.17275" fill="none" stroke="#8a2f00" stroke-width="3" stroke-linecap="round"/><path d="M469.82271,-5.90954l10.37605,7.91278" fill="none" stroke="#8a2f00" stroke-width="3" stroke-linecap="round"/><path d="M500.32493,31.23936l4.27877,6.21555l2.16851,5.25601" fill="none" stroke="#8a2f00" stroke-width="3" stroke-linecap="round"/></g><g data-paper-data="{&quot;index&quot;:null}"><path d="M443.91175,74.32875l36.53,1.25657l-0.63799,73.16481l-36.53003,-1.25655z" fill="#453d34" stroke="none" stroke-width="0" stroke-linecap="butt"/><path d="M453.34412,106.66897l-6.57669,-5.08145l-1.39598,-4.24129" fill="none" stroke="#8a2f00" stroke-width="3" stroke-linecap="round"/><path d="M467.94736,102.69842l-3.52052,20.28621l4.95547,6.87972l-6.5927,16.54636" fill="none" stroke="#8a2f00" stroke-width="3" stroke-linecap="round"/><path d="M465.21138,115.18415l-3.70316,-13.54587" fill="none" stroke="#8a2f00" stroke-width="3" stroke-linecap="round"/><path d="M444.94857,138.24911l2.72136,-10.80894l9.51868,3.9616" fill="none" stroke="#8a2f00" stroke-width="3" stroke-linecap="round"/><path d="M475.5755,76.96251l-7.50387,11.48306" fill="none" stroke="#8a2f00" stroke-width="3" stroke-linecap="round"/><path d="M450.98586,75.83708l6.10533,11.95121" fill="none" stroke="#8a2f00" stroke-width="3" stroke-linecap="round"/><path d="M455.9364,83.27574l6.0104,-4.54566" fill="none" stroke="#8a2f00" stroke-width="3" stroke-linecap="round"/><path d="M471.91616,85.78226l3.95163,12.4362" fill="none" stroke="#8a2f00" stroke-width="3" stroke-linecap="round"/><path d="M475.55833,133.71097l-0.0658,7.54564l-1.24256,5.54834" fill="none" stroke="#8a2f00" stroke-width="3" stroke-linecap="round"/></g><g data-paper-data="{&quot;index&quot;:null}"><path d="M360.74015,20.1409l1.98024,-36.49792l73.1378,2.08779l-1.98023,36.49796z" fill="#453d34" stroke="none" stroke-width="0" stroke-linecap="butt"/><path d="M393.26094,11.35128l-5.21078,6.4747l-4.26812,1.31166" fill="none" stroke="#8a2f00" stroke-width="3" stroke-linecap="round"/><path d="M389.58058,-3.32778l20.21246,3.92184l6.97657,-4.81816l16.41246,6.91931" fill="none" stroke="#8a2f00" stroke-width="3" stroke-linecap="round"/><path d="M402.00963,-0.3449l-13.6166,3.43399" fill="none" stroke="#8a2f00" stroke-width="3" stroke-linecap="round"/><path d="M424.66851,20.37102l-10.75289,-2.93503l4.14946,-9.4383" fill="none" stroke="#8a2f00" stroke-width="3" stroke-linecap="round"/><path d="M364.00089,-11.46444l11.3321,7.72996" fill="none" stroke="#8a2f00" stroke-width="3" stroke-linecap="round"/><path d="M362.38838,13.09807l12.06986,-5.86729" fill="none" stroke="#8a2f00" stroke-width="3" stroke-linecap="round"/><path d="M369.92368,8.29592l-4.42566,-6.0993" fill="none" stroke="#8a2f00" stroke-width="3" stroke-linecap="round"/><path d="M372.74638,-7.63103l12.51207,-3.7044" fill="none" stroke="#8a2f00" stroke-width="3" stroke-linecap="round"/><path d="M420.73786,-10.32267l7.54285,0.21532l5.52263,1.35227" fill="none" stroke="#8a2f00" stroke-width="3" stroke-linecap="round"/></g><g data-paper-data="{&quot;index&quot;:null}"><path d="M289.80109,20.46349l0.67729,-36.54533l73.16573,-0.52201l-0.67726,36.54536z" fill="#453d34" stroke="none" stroke-width="0" stroke-linecap="butt"/><path d="M321.98771,10.51961l-4.97654,6.65642l-4.21862,1.46305" fill="none" stroke="#8a2f00" stroke-width="3" stroke-linecap="round"/><path d="M317.78615,-4.01885l20.33948,3.19847l6.80029,-5.06391l16.6488,6.32955" fill="none" stroke="#8a2f00" stroke-width="3" stroke-linecap="round"/><path d="M330.31368,-1.48115l-13.48546,3.91744" fill="none" stroke="#8a2f00" stroke-width="3" stroke-linecap="round"/><path d="M353.69698,18.41345l-10.85072,-2.54966l3.8102,-9.58029" fill="none" stroke="#8a2f00" stroke-width="3" stroke-linecap="round"/><path d="M291.93255,-11.23804l11.60059,7.32089" fill="none" stroke="#8a2f00" stroke-width="3" stroke-linecap="round"/><path d="M291.19708,13.36635l11.85292,-6.29403" fill="none" stroke="#8a2f00" stroke-width="3" stroke-linecap="round"/><path d="M298.55633,8.29851l-4.64037,-5.93758" fill="none" stroke="#8a2f00" stroke-width="3" stroke-linecap="round"/><path d="M300.8092,-7.71898l12.37199,-4.14829" fill="none" stroke="#8a2f00" stroke-width="3" stroke-linecap="round"/><path d="M348.67414,-12.12052l7.54574,-0.05383l5.56735,1.15444" fill="none" stroke="#8a2f00" stroke-width="3" stroke-linecap="round"/></g><g data-paper-data="{&quot;index&quot;:null}"><path d="M220.44164,1.94342l11.25006,-34.77723l70.1707,20.72602l-11.25005,34.77727z" fill="#453d34" stroke="none" stroke-width="0" stroke-linecap="butt"/><path d="M254.12884,1.76459l-6.69358,4.92645l-4.46164,0.1763" fill="none" stroke="#8a2f00" stroke-width="3" stroke-linecap="round"/><path d="M254.32561,-13.36753l18.53691,8.96146l7.97691,-2.87335l14.09661,10.88721" fill="none" stroke="#8a2f00" stroke-width="3" stroke-linecap="round"/><path d="M265.57821,-7.30469l-14.04198,-0.1632" fill="none" stroke="#8a2f00" stroke-width="3" stroke-linecap="round"/><path d="M282.18445,18.51792l-9.64443,-5.58783l6.42561,-8.06294" fill="none" stroke="#8a2f00" stroke-width="3" stroke-linecap="round"/><path d="M231.67814,-27.77646l8.9779,10.37142" fill="none" stroke="#8a2f00" stroke-width="3" stroke-linecap="round"/><path d="M223.8365,-4.44353l13.16911,-2.58479" fill="none" stroke="#8a2f00" stroke-width="3" stroke-linecap="round"/><path d="M232.34946,-7.15849l-2.71831,-7.02842" fill="none" stroke="#8a2f00" stroke-width="3" stroke-linecap="round"/><path d="M239.15216,-21.83359l13.04337,-0.38074" fill="none" stroke="#8a2f00" stroke-width="3" stroke-linecap="round"/><path d="M286.23559,-12.1601l7.23686,2.13752l4.99302,2.7199" fill="none" stroke="#8a2f00" stroke-width="3" stroke-linecap="round"/></g><g data-paper-data="{&quot;index&quot;:null}"><path d="M156.74972,17.4935l-6.13805,-36.03254l71.78948,-14.13385l6.13808,36.03258z" fill="#453d34" stroke="none" stroke-width="0" stroke-linecap="butt"/><path d="M186.52245,1.7314l-3.65035,7.46652l-3.87251,2.22284" fill="none" stroke="#8a2f00" stroke-width="3" stroke-linecap="round"/><path d="M179.68778,-11.77071l20.57935,-0.64397l5.73869,-6.24137l17.5361,3.11946" fill="none" stroke="#8a2f00" stroke-width="3" stroke-linecap="round"/><path d="M192.46874,-11.60958l-12.52042,6.35949" fill="none" stroke="#8a2f00" stroke-width="3" stroke-linecap="round"/><path d="M219.14696,3.58406l-11.1357,-0.48505l1.96007,-10.12214" fill="none" stroke="#8a2f00" stroke-width="3" stroke-linecap="round"/><path d="M152.94217,-14.05063l12.76069,5.03327" fill="none" stroke="#8a2f00" stroke-width="3" stroke-linecap="round"/><path d="M156.80006,10.26055l10.47398,-8.39061" fill="none" stroke="#8a2f00" stroke-width="3" stroke-linecap="round"/><path d="M163.0872,3.91126l-5.66463,-4.9699" fill="none" stroke="#8a2f00" stroke-width="3" stroke-linecap="round"/><path d="M162.31877,-12.24562l11.38344,-6.37902" fill="none" stroke="#8a2f00" stroke-width="3" stroke-linecap="round"/><path d="M208.52753,-25.48104l7.40381,-1.45765l5.68494,0.09781" fill="none" stroke="#8a2f00" stroke-width="3" stroke-linecap="round"/></g><g data-paper-data="{&quot;index&quot;:null}"><path d="M86.10721,18.45699l-0.33116,-36.5501l73.12348,-2.54027l0.33119,36.55014z" fill="#453d34" stroke="none" stroke-width="0" stroke-linecap="butt"/><path d="M118.00725,7.62895l-4.79101,6.79117l-4.17666,1.57888" fill="none" stroke="#8a2f00" stroke-width="3" stroke-linecap="round"/><path d="M113.40621,-6.78807l20.41997,2.63613l6.658,-5.24959l16.81708,5.86784" fill="none" stroke="#8a2f00" stroke-width="3" stroke-linecap="round"/><path d="M125.99899,-4.59694l-13.37225,4.28798" fill="none" stroke="#8a2f00" stroke-width="3" stroke-linecap="round"/><path d="M149.92223,14.64501l-10.91693,-2.24934l3.54445,-9.68175" fill="none" stroke="#8a2f00" stroke-width="3" stroke-linecap="round"/><path d="M87.36328,-13.29127l11.79814,6.99807" fill="none" stroke="#8a2f00" stroke-width="3" stroke-linecap="round"/><path d="M87.30687,11.32405l11.67478,-6.61863" fill="none" stroke="#8a2f00" stroke-width="3" stroke-linecap="round"/><path d="M94.52351,6.0551l-4.80241,-5.8073" fill="none" stroke="#8a2f00" stroke-width="3" stroke-linecap="round"/><path d="M96.33364,-10.01844l12.25285,-4.48802" fill="none" stroke="#8a2f00" stroke-width="3" stroke-linecap="round"/><path d="M144.05894,-15.73878l7.54138,-0.26198l5.59707,1.00042" fill="none" stroke="#8a2f00" stroke-width="3" stroke-linecap="round"/></g><g data-paper-data="{&quot;index&quot;:null}"><path d="M14.53063,20.45399l-0.33116,-36.55009l73.12347,-2.54028l0.33119,36.55014z" fill="#453d34" stroke="none" stroke-width="0" stroke-linecap="butt"/><path d="M46.43067,9.62594l-4.79101,6.79117l-4.17666,1.57888" fill="none" stroke="#8a2f00" stroke-width="3" stroke-linecap="round"/><path d="M41.82963,-4.79107l20.41998,2.63614l6.658,-5.24959l16.81709,5.86784" fill="none" stroke="#8a2f00" stroke-width="3" stroke-linecap="round"/><path d="M54.42241,-2.59994l-13.37225,4.28798" fill="none" stroke="#8a2f00" stroke-width="3" stroke-linecap="round"/><path d="M78.34565,16.64201l-10.91693,-2.24934l3.54445,-9.68175" fill="none" stroke="#8a2f00" stroke-width="3" stroke-linecap="round"/><path d="M15.78671,-11.29427l11.79814,6.99806" fill="none" stroke="#8a2f00" stroke-width="3" stroke-linecap="round"/><path d="M15.73029,13.32104l11.67478,-6.61862" fill="none" stroke="#8a2f00" stroke-width="3" stroke-linecap="round"/><path d="M22.94694,8.0521l-4.80241,-5.8073" fill="none" stroke="#8a2f00" stroke-width="3" stroke-linecap="round"/><path d="M24.75706,-8.02144l12.25284,-4.48803" fill="none" stroke="#8a2f00" stroke-width="3" stroke-linecap="round"/><path d="M72.48236,-13.74178l7.54138,-0.26198l5.59708,1.00042" fill="none" stroke="#8a2f00" stroke-width="3" stroke-linecap="round"/></g><g data-paper-data="{&quot;index&quot;:null}"><path d="M-33.02193,20.94948l-0.33116,-36.55009l73.12347,-2.54028l0.33119,36.55014z" fill="#453d34" stroke="none" stroke-width="0" stroke-linecap="butt"/><path d="M-1.12189,10.12144l-4.79101,6.79117l-4.17666,1.57888" fill="none" stroke="#8a2f00" stroke-width="3" stroke-linecap="round"/><path d="M-5.72292,-4.29558l20.41998,2.63613l6.65801,-5.24959l16.81708,5.86784" fill="none" stroke="#8a2f00" stroke-width="3" stroke-linecap="round"/><path d="M6.86985,-2.10445l-13.37225,4.28798" fill="none" stroke="#8a2f00" stroke-width="3" stroke-linecap="round"/><path d="M30.7931,17.1375l-10.91693,-2.24934l3.54445,-9.68175" fill="none" stroke="#8a2f00" stroke-width="3" stroke-linecap="round"/><path d="M-31.76585,-10.79878l11.79814,6.99807" fill="none" stroke="#8a2f00" stroke-width="3" stroke-linecap="round"/><path d="M-31.82226,13.81654l11.67478,-6.61863" fill="none" stroke="#8a2f00" stroke-width="3" stroke-linecap="round"/><path d="M-24.60562,8.5476l-4.80241,-5.8073" fill="none" stroke="#8a2f00" stroke-width="3" stroke-linecap="round"/><path d="M-22.79549,-7.52594l12.25285,-4.48803" fill="none" stroke="#8a2f00" stroke-width="3" stroke-linecap="round"/><path d="M24.92981,-13.24628l7.54138,-0.26198l5.59707,1.00042" fill="none" stroke="#8a2f00" stroke-width="3" stroke-linecap="round"/></g><g data-paper-data="{&quot;index&quot;:null}"><path d="M137.66292,167.1646l-2.92711,-36.43421l72.75823,-7.72903l2.92713,36.43423z" fill="#453d34" stroke="none" stroke-width="0" stroke-linecap="butt"/><path d="M168.71305,154.09752l-4.29643,7.1144l-4.05394,1.87162" fill="none" stroke="#8a2f00" stroke-width="3" stroke-linecap="round"/><path d="M163.09935,140.04383l20.55566,1.17869l6.2682,-5.70934l17.19146,4.65821" fill="none" stroke="#8a2f00" stroke-width="3" stroke-linecap="round"/><path d="M175.81598,141.33474l-13.03382,5.2272" fill="none" stroke="#8a2f00" stroke-width="3" stroke-linecap="round"/><path d="M201.04583,158.8284l-11.04915,-1.46804l2.84764,-9.9091" fill="none" stroke="#8a2f00" stroke-width="3" stroke-linecap="round"/><path d="M148.92572,141.54947l-12.26553,-6.14216" fill="none" stroke="#8a2f00" stroke-width="3" stroke-linecap="round"/><path d="M149.52781,152.53308l-11.17503,7.43136" fill="none" stroke="#8a2f00" stroke-width="3" stroke-linecap="round"/><path d="M139.97398,148.74467l5.20286,5.45143" fill="none" stroke="#8a2f00" stroke-width="3" stroke-linecap="round"/><path d="M145.84042,138.03457l11.90301,-5.3472" fill="none" stroke="#8a2f00" stroke-width="3" stroke-linecap="round"/><path d="M193.0387,128.93796l7.5037,-0.79712l5.65401,0.60023" fill="none" stroke="#8a2f00" stroke-width="3" stroke-linecap="round"/></g><g data-paper-data="{&quot;index&quot;:null}"><path d="M204.18402,158.87906l2.85092,-36.44025l73.06713,3.83308l-2.8509,36.44028z" fill="#453d34" stroke="none" stroke-width="0" stroke-linecap="butt"/><path d="M236.90536,150.86825l-5.36386,6.34846l-4.29823,1.2094" fill="none" stroke="#8a2f00" stroke-width="3" stroke-linecap="round"/><path d="M233.57644,136.10552l20.11308,4.40321l7.08959,-4.65024l16.24261,7.30911" fill="none" stroke="#8a2f00" stroke-width="3" stroke-linecap="round"/><path d="M245.93076,139.38424l-13.69469,3.10797" fill="none" stroke="#8a2f00" stroke-width="3" stroke-linecap="round"/><path d="M268.08865,160.63515l-10.67976,-3.19087l4.37358,-9.33655" fill="none" stroke="#8a2f00" stroke-width="3" stroke-linecap="round"/><path d="M219.34264,135.35882l-11.14437,-7.99827" fill="none" stroke="#8a2f00" stroke-width="3" stroke-linecap="round"/><path d="M218.20636,146.30007l-12.20647,5.5775" fill="none" stroke="#8a2f00" stroke-width="3" stroke-linecap="round"/><path d="M209.36889,141.05346l4.2788,6.20321" fill="none" stroke="#8a2f00" stroke-width="3" stroke-linecap="round"/><path d="M216.84978,131.40163l12.59692,-3.40467" fill="none" stroke="#8a2f00" stroke-width="3" stroke-linecap="round"/><path d="M264.89182,129.85638l7.53555,0.3953l5.48878,1.48371" fill="none" stroke="#8a2f00" stroke-width="3" stroke-linecap="round"/></g><g data-paper-data="{&quot;index&quot;:null}"><path d="M272.80385,162.11571l1.65084,-36.5143l73.15367,1.42781l-1.65083,36.51433z" fill="#453d34" stroke="none" stroke-width="0" stroke-linecap="butt"/><path d="M305.24401,153.03302l-5.15216,6.52144l-4.25612,1.35012" fill="none" stroke="#8a2f00" stroke-width="3" stroke-linecap="round"/><path d="M301.43134,138.38778l20.24702,3.7393l6.93281,-4.8809l16.47422,6.77093" fill="none" stroke="#8a2f00" stroke-width="3" stroke-linecap="round"/><path d="M313.88681,141.25839l-13.58506,3.55671" fill="none" stroke="#8a2f00" stroke-width="3" stroke-linecap="round"/><path d="M336.73167,161.76902l-10.77894,-2.83788l4.06413,-9.47535" fill="none" stroke="#8a2f00" stroke-width="3" stroke-linecap="round"/><path d="M287.18068,138.10963l-11.40141,-7.6274" fill="none" stroke="#8a2f00" stroke-width="3" stroke-linecap="round"/><path d="M286.40488,149.08233l-12.01642,5.97596" fill="none" stroke="#8a2f00" stroke-width="3" stroke-linecap="round"/><path d="M277.39963,144.12923l4.48051,6.05912" fill="none" stroke="#8a2f00" stroke-width="3" stroke-linecap="round"/><path d="M284.55902,134.23658l12.47813,-3.81714" fill="none" stroke="#8a2f00" stroke-width="3" stroke-linecap="round"/><path d="M332.52425,131.11205l7.54447,0.14724l5.53461,1.30238" fill="none" stroke="#8a2f00" stroke-width="3" stroke-linecap="round"/></g><g data-paper-data="{&quot;index&quot;:null}"><path d="M259.35564,158.21868l36.16459,-5.30487l12.47331,72.09656l-36.16462,5.30489z" fill="#453d34" stroke="none" stroke-width="0" stroke-linecap="butt"/><path d="M274.42644,188.34724l-7.38029,-3.8217l-2.13287,-3.92278" fill="none" stroke="#8a2f00" stroke-width="3" stroke-linecap="round"/><path d="M288.08269,181.82599l0.16887,20.58873l6.10726,5.88119l-3.52332,17.45942" fill="none" stroke="#8a2f00" stroke-width="3" stroke-linecap="round"/><path d="M287.62664,194.59983l-6.06885,-12.66385" fill="none" stroke="#8a2f00" stroke-width="3" stroke-linecap="round"/><path d="M271.82136,220.92029l0.74191,-11.12154l10.0742,2.19315" fill="none" stroke="#8a2f00" stroke-width="3" stroke-linecap="round"/><path d="M285.65283,167.78125l5.32642,-12.64115" fill="none" stroke="#8a2f00" stroke-width="3" stroke-linecap="round"/><path d="M274.73217,169.10074l-8.14666,-10.66482" fill="none" stroke="#8a2f00" stroke-width="3" stroke-linecap="round"/><path d="M277.88731,159.3195l-5.0993,5.54842" fill="none" stroke="#8a2f00" stroke-width="3" stroke-linecap="round"/><path d="M288.95832,164.47257l6.11461,11.52761" fill="none" stroke="#8a2f00" stroke-width="3" stroke-linecap="round"/><path d="M301.1238,210.97447l1.28641,7.43545l-0.22898,5.68117" fill="none" stroke="#8a2f00" stroke-width="3" stroke-linecap="round"/></g><g data-paper-data="{&quot;index&quot;:null}"><path d="M272.62414,186.24338l36.51468,1.64234l-1.41079,73.154l-36.51471,-1.64233z" fill="#453d34" stroke="none" stroke-width="0" stroke-linecap="butt"/><path d="M281.71438,218.68143l-6.52264,-5.15064l-1.35111,-4.25581" fill="none" stroke="#8a2f00" stroke-width="3" stroke-linecap="round"/><path d="M296.35874,214.86535l-3.73459,20.24789l4.88251,6.93167l-6.76709,16.47579" fill="none" stroke="#8a2f00" stroke-width="3" stroke-linecap="round"/><path d="M293.49103,227.32149l-3.55987,-13.58424" fill="none" stroke="#8a2f00" stroke-width="3" stroke-linecap="round"/><path d="M272.98572,250.17112l2.83537,-10.7796l9.47629,4.06193" fill="none" stroke="#8a2f00" stroke-width="3" stroke-linecap="round"/><path d="M296.63358,200.61463l7.62475,-11.40318" fill="none" stroke="#8a2f00" stroke-width="3" stroke-linecap="round"/><path d="M285.66069,199.84138l-5.97876,-12.01503" fill="none" stroke="#8a2f00" stroke-width="3" stroke-linecap="round"/><path d="M290.6117,190.83498l-6.05808,4.48192" fill="none" stroke="#8a2f00" stroke-width="3" stroke-linecap="round"/><path d="M300.50601,197.99206l3.82005,12.47724" fill="none" stroke="#8a2f00" stroke-width="3" stroke-linecap="round"/><path d="M303.64171,245.95656l-0.14548,7.54451l-1.30109,5.53491" fill="none" stroke="#8a2f00" stroke-width="3" stroke-linecap="round"/></g><g data-paper-data="{&quot;index&quot;:null}"><path d="M289.09673,149.3011l35.3033,9.4708l-17.13857,71.13205l-35.30334,-9.4708z" fill="#453d34" stroke="none" stroke-width="0" stroke-linecap="butt"/><path d="M290.98476,182.93582l-5.25977,-6.43497l-0.40247,-4.44696" fill="none" stroke="#8a2f00" stroke-width="3" stroke-linecap="round"/><path d="M306.10736,182.36447l-8.00926,18.96776l3.27443,7.82081l-10.15785,14.6309" fill="none" stroke="#8a2f00" stroke-width="3" stroke-linecap="round"/><path d="M300.62335,193.91023l-0.54956,-14.03218" fill="none" stroke="#8a2f00" stroke-width="3" stroke-linecap="round"/><path d="M275.67668,211.8054l5.09123,-9.91556l8.37861,6.00818" fill="none" stroke="#8a2f00" stroke-width="3" stroke-linecap="round"/><path d="M309.44604,168.50763l9.90248,-9.49264" fill="none" stroke="#8a2f00" stroke-width="3" stroke-linecap="round"/><path d="M298.89745,165.38845l-3.24973,-13.02097" fill="none" stroke="#8a2f00" stroke-width="3" stroke-linecap="round"/><path d="M305.67259,157.66025l-6.88142,3.07146" fill="none" stroke="#8a2f00" stroke-width="3" stroke-linecap="round"/><path d="M313.79256,166.78096l1.04214,13.00724" fill="none" stroke="#8a2f00" stroke-width="3" stroke-linecap="round"/><path d="M306.52074,214.29461l-1.76752,7.33598l-2.46302,5.12461" fill="none" stroke="#8a2f00" stroke-width="3" stroke-linecap="round"/></g><g data-paper-data="{&quot;index&quot;:null}"><path d="M141.87888,329.25866l11.89908,34.56055l-68.54795,25.58663l-11.8991,-34.56057z" fill="#453d34" stroke="none" stroke-width="0" stroke-linecap="butt"/><path d="M115.05573,349.63949l2.39144,-7.95959l3.46087,-2.82131" fill="none" stroke="#8a2f00" stroke-width="3" stroke-linecap="round"/><path d="M123.98918,361.85479l-20.20264,3.97214l-4.65079,7.08924l-17.80984,-0.23491" fill="none" stroke="#8a2f00" stroke-width="3" stroke-linecap="round"/><path d="M111.3512,363.76806l11.32363,-8.30537" fill="none" stroke="#8a2f00" stroke-width="3" stroke-linecap="round"/><path d="M82.56252,353.10101l11.06699,-1.32688l-0.29295,10.306" fill="none" stroke="#8a2f00" stroke-width="3" stroke-linecap="round"/><path d="M150.75056,359.76805l-13.40792,-2.89767" fill="none" stroke="#8a2f00" stroke-width="3" stroke-linecap="round"/><path d="M143.00194,336.40407l-8.97494,9.97782" fill="none" stroke="#8a2f00" stroke-width="3" stroke-linecap="round"/><path d="M137.82746,343.68873l6.39548,3.98568" fill="none" stroke="#8a2f00" stroke-width="3" stroke-linecap="round"/><path d="M141.20536,359.50723l-10.19853,8.14029" fill="none" stroke="#8a2f00" stroke-width="3" stroke-linecap="round"/><path d="M97.75399,380.05972l-7.06949,2.6388l-5.62558,0.82523" fill="none" stroke="#8a2f00" stroke-width="3" stroke-linecap="round"/></g></g></g></svg>