<svg version="1.1" xmlns="http://www.w3.org/2000/svg" xmlns:xlink="http://www.w3.org/1999/xlink" width="695.23907" height="728.98103" viewBox="0,0,695.23907,728.98103"><g transform="translate(129.13588,273.63315)"><g data-paper-data="{&quot;isPaintingLayer&quot;:true}" fill-rule="nonzero" stroke-linejoin="miter" stroke-miterlimit="10" stroke-dasharray="" stroke-dashoffset="0" style="mix-blend-mode: normal"><g><path d="M308.01861,322.52247h-27.00209c0,0 0,-12.20847 0,-18.30141c0,-6.07791 0,-18.21125 0,-18.21125h27.00209z" fill="#676767" stroke="none" stroke-width="0" stroke-linecap="butt"/><path d="M302.85428,286.66578v35.25031" fill="none" stroke="#444444" stroke-width="2" stroke-linecap="round"/><path d="M297.36997,286.66578v35.25031" fill="none" stroke="#444444" stroke-width="2" stroke-linecap="round"/><path d="M291.5739,286.66578v35.25031" fill="none" stroke="#444444" stroke-width="2" stroke-linecap="round"/><path d="M286.90784,322.47477h-5.86789v-36.42472h5.8679z" fill="#c6c6c6" stroke="none" stroke-width="0" stroke-linecap="butt"/></g><g data-paper-data="{&quot;index&quot;:null}"><path d="M-25.41488,-0.65357h52c0,0 0,42.39343 0,63.62944c0,21.2885 0,63.94444 0,63.94444h-52z" fill="#676767" stroke="none" stroke-width="0" stroke-linecap="butt"/><path d="M-15.46953,124.80165v-123.16329" fill="none" stroke="#444444" stroke-width="2" stroke-linecap="round"/><path d="M-4.90798,124.80165v-123.16329" fill="none" stroke="#444444" stroke-width="2" stroke-linecap="round"/><path d="M6.25395,124.80165v-123.16329" fill="none" stroke="#444444" stroke-width="2" stroke-linecap="round"/><path d="M15.23976,-0.43321h11.30026v127.15054h-11.30026z" fill="#c6c6c6" stroke="none" stroke-width="0" stroke-linecap="butt"/></g><g><path d="M485.6753,208.82545h-27.00209c0,0 0,-161.31614 0,-241.82496c0,-80.31023 0,-240.63364 0,-240.63364h27.00209z" fill="#676767" stroke="none" stroke-width="0" stroke-linecap="butt"/><path d="M480.51097,-264.96552v465.77859" fill="none" stroke="#444444" stroke-width="2" stroke-linecap="round"/><path d="M475.02666,-264.96552v465.77859" fill="none" stroke="#444444" stroke-width="2" stroke-linecap="round"/><path d="M469.23059,200.81307v-465.77859" fill="none" stroke="#444444" stroke-width="2" stroke-linecap="round"/><path d="M464.56453,208.19517h-5.86789v-481.29661h5.8679z" fill="#c6c6c6" stroke="none" stroke-width="0" stroke-linecap="butt"/></g><g><path d="M215.86222,201.14016h-27.00209c0,0 0,-12.20847 0,-18.30141c0,-6.07791 0,-18.21125 0,-18.21125h27.00209z" fill="#676767" stroke="none" stroke-width="0" stroke-linecap="butt"/><path d="M210.69789,165.28347v35.25031" fill="none" stroke="#444444" stroke-width="2" stroke-linecap="round"/><path d="M205.21358,200.53378v-35.25031" fill="none" stroke="#444444" stroke-width="2" stroke-linecap="round"/><path d="M199.41751,200.53378v-35.25031" fill="none" stroke="#444444" stroke-width="2" stroke-linecap="round"/><path d="M194.75145,201.09246h-5.86789v-36.42472h5.8679z" fill="#c6c6c6" stroke="none" stroke-width="0" stroke-linecap="butt"/></g><g><path d="M398.32667,269.07065h-27.00209c0,0 0,-12.20847 0,-18.30141c0,-6.07791 0,-18.21125 0,-18.21125h27.00209z" fill="#676767" stroke="none" stroke-width="0" stroke-linecap="butt"/><path d="M393.16234,268.46427v-35.25031" fill="none" stroke="#444444" stroke-width="2" stroke-linecap="round"/><path d="M387.67803,233.21396v35.25031" fill="none" stroke="#444444" stroke-width="2" stroke-linecap="round"/><path d="M381.88196,233.21396v35.25031" fill="none" stroke="#444444" stroke-width="2" stroke-linecap="round"/><path d="M377.2159,269.02295h-5.86789v-36.42472h5.8679z" fill="#c6c6c6" stroke="none" stroke-width="0" stroke-linecap="butt"/></g><g><path d="M299.85116,154.00746h-27.00209c0,0 0,-12.20847 0,-18.30141c0,-6.07791 0,-18.21125 0,-18.21125h27.00209z" fill="#676767" stroke="none" stroke-width="0" stroke-linecap="butt"/><path d="M294.68683,118.15077v35.25031" fill="none" stroke="#444444" stroke-width="2" stroke-linecap="round"/><path d="M289.20252,118.15077v35.25031" fill="none" stroke="#444444" stroke-width="2" stroke-linecap="round"/><path d="M283.40645,153.40108v-35.25031" fill="none" stroke="#444444" stroke-width="2" stroke-linecap="round"/><path d="M278.74039,153.95976h-5.86789v-36.42472h5.8679z" fill="#c6c6c6" stroke="none" stroke-width="0" stroke-linecap="butt"/></g><g><path d="M397.99742,203.24127h-27.00209c0,0 0,-12.20847 0,-18.30141c0,-6.07791 0,-18.21125 0,-18.21125h27.00209z" fill="#676767" stroke="none" stroke-width="0" stroke-linecap="butt"/><path d="M392.83309,202.63489v-35.25031" fill="none" stroke="#444444" stroke-width="2" stroke-linecap="round"/><path d="M387.34878,167.38458v35.25031" fill="none" stroke="#444444" stroke-width="2" stroke-linecap="round"/><path d="M381.55271,202.63489v-35.25031" fill="none" stroke="#444444" stroke-width="2" stroke-linecap="round"/><path d="M376.88665,203.19357h-5.86789v-36.42472h5.8679z" fill="#c6c6c6" stroke="none" stroke-width="0" stroke-linecap="butt"/></g><path d="M126.45592,212.44089h-36.38295c0,0 0,-34.10557 0,-51.12679c0,-16.97925 0,-50.87493 0,-50.87493h36.38295z" fill="#676767" stroke="none" stroke-width="0" stroke-linecap="butt"/><path d="M119.49743,112.27168v98.47523" fill="none" stroke="#444444" stroke-width="2" stroke-linecap="round"/><path d="M112.10781,210.7469v-98.47523" fill="none" stroke="#444444" stroke-width="2" stroke-linecap="round"/><path d="M104.29811,112.27168v98.47523" fill="none" stroke="#444444" stroke-width="2" stroke-linecap="round"/><path d="M74.10137,211.67962h52c0,0 0,81.47357 0,122.13496c0,40.56112 0,121.5333 0,121.5333h-52z" fill="#676767" stroke="none" stroke-width="0" stroke-linecap="butt"/><path d="M114.75601,212.06734h11.30026v242.85966h-11.30026z" fill="#c6c6c6" stroke="none" stroke-width="0" stroke-linecap="butt"/><path d="M566.10319,233.41474c0,0 -125.46921,0 -188.32012,0c-63.00622,0 -189.25239,0 -189.25239,0v-27h304.51092z" data-paper-data="{&quot;index&quot;:null}" fill="#676767" stroke="none" stroke-width="0" stroke-linecap="butt"/><path d="M193.63772,211.57867h296.88407" data-paper-data="{&quot;index&quot;:null}" fill="none" stroke="#444444" stroke-width="2" stroke-linecap="round"/><path d="M193.63772,217.06255h296.88407" data-paper-data="{&quot;index&quot;:null}" fill="none" stroke="#444444" stroke-width="2" stroke-linecap="round"/><path d="M193.63775,222.85818h291.75303" data-paper-data="{&quot;index&quot;:null}" fill="none" stroke="#444444" stroke-width="2" stroke-linecap="round"/><path d="M502.70068,233.39131h-313.68066v-5.86744h295.93599z" data-paper-data="{&quot;index&quot;:null}" fill="#c6c6c6" stroke="none" stroke-width="0" stroke-linecap="butt"/><path d="M495.51537,201.02387v5.86744h-306.49536v-5.86744z" data-paper-data="{&quot;index&quot;:null}" fill="#c6c6c6" stroke="none" stroke-width="0" stroke-linecap="butt"/><path d="M-129.13588,263.22318v-52c0,0 81.47357,0 122.13496,0c40.56112,0 121.5333,0 121.5333,0v52z" fill="#676767" stroke="none" stroke-width="0" stroke-linecap="butt"/><path d="M-125.08918,253.27782h209.43364" fill="none" stroke="#444444" stroke-width="2" stroke-linecap="round"/><path d="M-125.08918,242.71627h218.43724" fill="none" stroke="#444444" stroke-width="2" stroke-linecap="round"/><path d="M105.35286,231.55434h-230.44204" fill="none" stroke="#444444" stroke-width="2" stroke-linecap="round"/><path d="M-128.74816,222.56853v-11.30026h254.86446v11.30026z" fill="#c6c6c6" stroke="none" stroke-width="0" stroke-linecap="butt"/><path d="M84.04672,450.97027v-197.42883" fill="none" stroke="#444444" stroke-width="2" stroke-linecap="round"/><path d="M94.60827,450.97028v-208.23316" fill="none" stroke="#444444" stroke-width="2" stroke-linecap="round"/><path d="M105.7702,450.97028v-219.63772" fill="none" stroke="#444444" stroke-width="2" stroke-linecap="round"/><g><path d="M-5.28896,358.8207v-44.28184c0,0 163.63345,0 245.29874,0c81.46392,0 244.09036,0 244.09036,0v44.28184z" fill="#676767" stroke="none" stroke-width="0" stroke-linecap="butt"/><path d="M2.83852,350.35149h472.46954" fill="none" stroke="#444444" stroke-width="2" stroke-linecap="round"/><path d="M2.83852,341.35756h472.46954" fill="none" stroke="#444444" stroke-width="2" stroke-linecap="round"/><path d="M475.30806,331.85234h-472.46954" fill="none" stroke="#444444" stroke-width="2" stroke-linecap="round"/><path d="M-4.51025,324.20026v-9.623h487.76511v9.62301z" fill="#c6c6c6" stroke="none" stroke-width="0" stroke-linecap="butt"/></g><g><path d="M89.80113,119.07595v-36.38295c0,0 107.40429,0 161.00704,0c53.47057,0 160.21389,0 160.21389,0v36.38295z" fill="#676767" stroke="none" stroke-width="0" stroke-linecap="butt"/><path d="M95.13577,112.11746h310.11542" fill="none" stroke="#444444" stroke-width="2" stroke-linecap="round"/><path d="M405.25119,104.72784h-310.11542" fill="none" stroke="#444444" stroke-width="2" stroke-linecap="round"/><path d="M95.13577,96.91814h310.11542" fill="none" stroke="#444444" stroke-width="2" stroke-linecap="round"/><path d="M90.31225,90.63103v-7.90647h320.15499v7.90648z" fill="#c6c6c6" stroke="none" stroke-width="0" stroke-linecap="butt"/></g><path d="M97.63591,211.90349h-7.90647v-129.22369h7.90648z" fill="#c6c6c6" stroke="none" stroke-width="0" stroke-linecap="butt"/><path d="M215.60985,265.84731h-27.00209c0,0 0,-19.60354 0,-29.38716c0,-9.7595 0,-29.2424 0,-29.2424h27.00209z" fill="#676767" stroke="none" stroke-width="0" stroke-linecap="butt"/><path d="M210.44552,208.27107v56.60257" fill="none" stroke="#444444" stroke-width="2" stroke-linecap="round"/><path d="M204.96121,264.87363v-56.60257" fill="none" stroke="#444444" stroke-width="2" stroke-linecap="round"/><path d="M199.16514,208.27107v56.60257" fill="none" stroke="#444444" stroke-width="2" stroke-linecap="round"/><path d="M194.49908,265.77073h-5.86789v-64.35921h5.8679z" fill="#c6c6c6" stroke="none" stroke-width="0" stroke-linecap="butt"/><g><path d="M480.17533,-10.36436v27.00209c0,0 -161.31614,0 -241.82497,0c-80.31023,0 -240.63364,0 -240.63364,0v-27.00209z" fill="#676767" stroke="none" stroke-width="0" stroke-linecap="butt"/><path d="M6.38436,-5.20003h465.77859" fill="none" stroke="#444444" stroke-width="2" stroke-linecap="round"/><path d="M6.38436,0.28428h465.77859" fill="none" stroke="#444444" stroke-width="2" stroke-linecap="round"/><path d="M6.38436,6.08035h465.77859" fill="none" stroke="#444444" stroke-width="2" stroke-linecap="round"/><path d="M479.54505,10.74641v5.86789h-481.29661v-5.8679z" fill="#c6c6c6" stroke="none" stroke-width="0" stroke-linecap="butt"/></g><path d="M24.56948,115.69683v11.30026h-51.7168v-11.30026z" data-paper-data="{&quot;index&quot;:null}" fill="#c6c6c6" stroke="none" stroke-width="0" stroke-linecap="butt"/><path d="M41.49096,262.7768h-11.30026v-46.28823h11.30026z" fill="#c6c6c6" stroke="none" stroke-width="0" stroke-linecap="butt"/></g></g></svg>