<svg version="1.1" xmlns="http://www.w3.org/2000/svg" xmlns:xlink="http://www.w3.org/1999/xlink" width="655.07966" height="507.59868" viewBox="0,0,655.07966,507.59868"><g transform="translate(90.95645,11.11135)"><g data-paper-data="{&quot;isPaintingLayer&quot;:true}" fill-rule="nonzero" stroke-linejoin="miter" stroke-miterlimit="10" stroke-dasharray="" stroke-dashoffset="0" style="mix-blend-mode: normal"><path d="M2.26391,273.08426h27c0,0 0,74.05826 0,111.15603c0,37.18944 0,111.70629 0,111.70629h-27z" data-paper-data="{&quot;index&quot;:null}" fill="#676767" stroke="none" stroke-width="0" stroke-linecap="butt"/><path d="M7.42783,495.12301v-218.02093" data-paper-data="{&quot;index&quot;:null}" fill="none" stroke="#444444" stroke-width="2" stroke-linecap="round"/><path d="M12.91171,495.31609v-218.21402" data-paper-data="{&quot;index&quot;:null}" fill="none" stroke="#444444" stroke-width="2" stroke-linecap="round"/><path d="M18.70734,495.48734v-218.38526" data-paper-data="{&quot;index&quot;:null}" fill="none" stroke="#444444" stroke-width="2" stroke-linecap="round"/><path d="M23.37303,273.47053h5.86744v222.90086h-5.86744z" data-paper-data="{&quot;index&quot;:null}" fill="#c6c6c6" stroke="none" stroke-width="0" stroke-linecap="butt"/><path d="M-3.12697,273.47053h5.86744v222.90086h-5.86744z" data-paper-data="{&quot;index&quot;:null}" fill="#c6c6c6" stroke="none" stroke-width="0" stroke-linecap="butt"/><g><path d="M89.0073,38.67824v39.94603c0,0 -17.60471,0 -26.42338,0c-8.84047,0 -26.55419,0 -26.55419,0v-39.94603z" fill="#676767" stroke="none" stroke-width="0" stroke-linecap="butt"/><path d="M88.05553,46.31819h-51.14598" fill="none" stroke="#444444" stroke-width="2" stroke-linecap="round"/><path d="M88.05553,54.4315h-51.14598" fill="none" stroke="#444444" stroke-width="2" stroke-linecap="round"/><path d="M88.05553,63.00603h-51.14598" fill="none" stroke="#444444" stroke-width="2" stroke-linecap="round"/><path d="M88.91579,69.90886v8.68078h-52.80176v-8.68078z" fill="#c6c6c6" stroke="none" stroke-width="0" stroke-linecap="butt"/><path d="M36.00517,38.45371h7.05842v38.00714h-7.05842z" fill="#c6c6c6" stroke="none" stroke-width="0" stroke-linecap="butt"/><path d="M81.96218,38.61828h7.05842v38.00714h-7.05842z" fill="#c6c6c6" stroke="none" stroke-width="0" stroke-linecap="butt"/></g><g><path d="M214.69347,38.67824v39.94603c0,0 -17.60471,0 -26.42338,0c-8.84047,0 -26.55419,0 -26.55419,0v-39.94603z" fill="#676767" stroke="none" stroke-width="0" stroke-linecap="butt"/><path d="M162.59572,46.31819h51.14598" fill="none" stroke="#444444" stroke-width="2" stroke-linecap="round"/><path d="M213.7417,54.4315h-51.14598" fill="none" stroke="#444444" stroke-width="2" stroke-linecap="round"/><path d="M162.59572,63.00602h51.14598" fill="none" stroke="#444444" stroke-width="2" stroke-linecap="round"/><path d="M214.60195,69.90886v8.68078h-52.80176v-8.68078z" fill="#c6c6c6" stroke="none" stroke-width="0" stroke-linecap="butt"/><path d="M161.69134,38.45371h7.05842v38.00714h-7.05842z" fill="#c6c6c6" stroke="none" stroke-width="0" stroke-linecap="butt"/><path d="M207.64835,38.61828h7.05842v38.00714h-7.05842z" fill="#c6c6c6" stroke="none" stroke-width="0" stroke-linecap="butt"/></g><g><path d="M346.16396,38.67824v39.94603c0,0 -17.60471,0 -26.42338,0c-8.84047,0 -26.55419,0 -26.55419,0v-39.94603z" fill="#676767" stroke="none" stroke-width="0" stroke-linecap="butt"/><path d="M345.21219,46.31819h-51.14598" fill="none" stroke="#444444" stroke-width="2" stroke-linecap="round"/><path d="M345.21219,54.4315h-51.14598" fill="none" stroke="#444444" stroke-width="2" stroke-linecap="round"/><path d="M345.21219,63.00602h-51.14598" fill="none" stroke="#444444" stroke-width="2" stroke-linecap="round"/><path d="M346.07245,69.90886v8.68078h-52.80176v-8.68078z" fill="#c6c6c6" stroke="none" stroke-width="0" stroke-linecap="butt"/><path d="M293.16183,38.45371h7.05842v38.00714h-7.05842z" fill="#c6c6c6" stroke="none" stroke-width="0" stroke-linecap="butt"/><path d="M339.11884,38.61828h7.05842v38.00714h-7.05842z" fill="#c6c6c6" stroke="none" stroke-width="0" stroke-linecap="butt"/></g><g data-paper-data="{&quot;index&quot;:null}"><path d="M564.12321,-11.11135v52c0,0 -217.68626,0 -326.73109,0c-109.3144,0 -328.34857,0 -328.34857,0v-52z" fill="#676767" stroke="none" stroke-width="0" stroke-linecap="butt"/><path d="M552.35444,-1.166h-632.43173" fill="none" stroke="#444444" stroke-width="2" stroke-linecap="round"/><path d="M-80.0773,9.39555h632.43173" fill="none" stroke="#444444" stroke-width="2" stroke-linecap="round"/><path d="M552.35444,20.55749h-632.43173" fill="none" stroke="#444444" stroke-width="2" stroke-linecap="round"/><path d="M562.99173,29.54329v11.30026h-652.90586v-11.30026z" fill="#c6c6c6" stroke="none" stroke-width="0" stroke-linecap="butt"/></g><g><path d="M-12.85509,274.69406v-52c0,0 131.75353,0 197.50838,0c65.59269,0 196.5354,0 196.5354,0v52z" fill="#676767" stroke="none" stroke-width="0" stroke-linecap="butt"/><path d="M374.1095,264.7487h-380.42057" fill="none" stroke="#444444" stroke-width="2" stroke-linecap="round"/><path d="M374.1095,254.18716h-380.42057" fill="none" stroke="#444444" stroke-width="2" stroke-linecap="round"/><path d="M374.10954,243.02522h-380.42057" fill="none" stroke="#444444" stroke-width="2" stroke-linecap="round"/></g><g><path d="M-16.06426,243.42763v-52c0,0 132.71086,0 198.94348,0c66.06929,0 197.96344,0 197.96344,0v52z" fill="#676767" stroke="none" stroke-width="0" stroke-linecap="butt"/><path d="M-9.47268,233.4823h383.18472" fill="none" stroke="#444444" stroke-width="2" stroke-linecap="round"/><path d="M-9.47268,222.92073h383.18472" fill="none" stroke="#444444" stroke-width="2" stroke-linecap="round"/><path d="M373.71209,211.75882h-383.18472" fill="none" stroke="#444444" stroke-width="2" stroke-linecap="round"/></g><g><path d="M-18.53226,211.22316v-52c0,0 133.55549,0 200.20965,0c66.48978,0 199.22337,0 199.22337,0v52z" fill="#676767" stroke="none" stroke-width="0" stroke-linecap="butt"/><path d="M-11.89874,201.2778h385.62348" fill="none" stroke="#444444" stroke-width="2" stroke-linecap="round"/><path d="M-11.89874,190.71622h385.62348" fill="none" stroke="#444444" stroke-width="2" stroke-linecap="round"/><path d="M373.72478,179.55431h-385.62348" fill="none" stroke="#444444" stroke-width="2" stroke-linecap="round"/><path d="M-17.89671,170.56848v-11.30026h398.10753v11.30026z" fill="#c6c6c6" stroke="none" stroke-width="0" stroke-linecap="butt"/></g><path d="M468.22487,39.34553h27c0,0 0,112.40481 0,168.7114c0,56.44572 0,169.54658 0,169.54658h-27z" data-paper-data="{&quot;index&quot;:null}" fill="#676767" stroke="none" stroke-width="0" stroke-linecap="butt"/><path d="M473.38879,376.35349v-330.90977" data-paper-data="{&quot;index&quot;:null}" fill="none" stroke="#444444" stroke-width="2" stroke-linecap="round"/><path d="M478.87267,376.64656v-331.20284" data-paper-data="{&quot;index&quot;:null}" fill="none" stroke="#444444" stroke-width="2" stroke-linecap="round"/><path d="M484.6683,376.90647v-331.46275" data-paper-data="{&quot;index&quot;:null}" fill="none" stroke="#444444" stroke-width="2" stroke-linecap="round"/><path d="M489.33399,39.93179h5.86744v338.31647h-5.86744z" data-paper-data="{&quot;index&quot;:null}" fill="#c6c6c6" stroke="none" stroke-width="0" stroke-linecap="butt"/><path d="M462.83399,39.93179h5.86744v338.31647h-5.86744z" data-paper-data="{&quot;index&quot;:null}" fill="#c6c6c6" stroke="none" stroke-width="0" stroke-linecap="butt"/><g><path d="M116.04482,369.43141v-41.19568c0,0 129.26107,0 193.772,0c64.35184,0 192.81743,0 192.81743,0v41.19568z" fill="#676767" stroke="none" stroke-width="0" stroke-linecap="butt"/><path d="M122.46505,359.48605h373.22394" fill="none" stroke="#444444" stroke-width="2" stroke-linecap="round"/><path d="M495.68899,348.9245h-373.22394" fill="none" stroke="#444444" stroke-width="2" stroke-linecap="round"/><path d="M495.68903,337.76257h-373.22394" fill="none" stroke="#444444" stroke-width="2" stroke-linecap="round"/></g></g></g></svg>