<svg version="1.1" xmlns="http://www.w3.org/2000/svg" xmlns:xlink="http://www.w3.org/1999/xlink" width="567.57095" height="421.31961" viewBox="0,0,567.57095,421.31961"><g transform="translate(71.41016,10.58535)"><g data-paper-data="{&quot;isPaintingLayer&quot;:true}" fill-rule="nonzero" stroke-linejoin="miter" stroke-miterlimit="10" stroke-dasharray="" stroke-dashoffset="0" style="mix-blend-mode: normal"><path d="M437.92164,320.7012v-111.48557h47.09966v111.48557z" fill="#c6c6c6" stroke="none" stroke-width="0" stroke-linecap="butt"/><path d="M453.76179,320.78567v-112.05669h15.41936v112.05669z" fill="#444444" stroke="none" stroke-width="0" stroke-linecap="butt"/><path d="M444.23808,265.81161c0,-6.32181 7.71566,-11.44665 17.23339,-11.44665c9.51775,0 17.23339,5.12484 17.23339,11.44665c0,6.32181 -7.71566,11.44665 -17.23339,11.44665c-9.51775,0 -17.23339,-5.12484 -17.23339,-11.44665z" fill="#444444" stroke="none" stroke-width="0" stroke-linecap="butt"/><path d="M450.81398,265.81161c0,-3.90954 4.77153,-7.07885 10.65749,-7.07885c5.88598,0 10.65749,3.16931 10.65749,7.07885c0,3.90954 -4.77153,7.07885 -10.65749,7.07885c-5.88598,0 -10.65749,-3.16931 -10.65749,-7.07885z" fill="#ff0000" stroke="none" stroke-width="0" stroke-linecap="butt"/><path d="M434.69604,283.0928l44.05101,-44.05101l9.53408,9.53408l-44.05101,44.05101z" fill="#444444" stroke="none" stroke-width="0" stroke-linecap="butt"/><path d="M444.23014,239.04181l44.05101,44.05101l-9.53408,9.53408l-44.05101,-44.05101z" fill="#444444" stroke="none" stroke-width="0" stroke-linecap="butt"/><path d="M446.82563,265.83433c0,-8.09813 6.56483,-14.66296 14.66296,-14.66296c8.09813,0 14.66296,6.56483 14.66296,14.66296c0,8.09813 -6.56483,14.66296 -14.66296,14.66296c-8.09813,0 -14.66296,-6.56483 -14.66296,-14.66296z" fill="#c6c6c6" stroke="#444444" stroke-width="2" stroke-linecap="butt"/><path d="M451.67338,265.83433c0,-5.42079 4.39441,-9.8152 9.8152,-9.8152c5.42079,0 9.8152,4.39441 9.8152,9.8152c0,5.42079 -4.39441,9.8152 -9.8152,9.8152c-5.42079,0 -9.8152,-4.39441 -9.8152,-9.8152z" fill="#ff0000" stroke="none" stroke-width="0" stroke-linecap="butt"/><g><path d="M218.87225,351.95681l-1.31168,42.80879l-73.1076,-2.8869l1.31167,-42.80879z" fill="#453d34" stroke="none" stroke-width="0" stroke-linecap="butt"/><path d="M168.64743,351.92109l4.13731,1.84419l4.61232,7.9482" fill="none" stroke="#8a2f00" stroke-width="3" stroke-linecap="round"/><path d="M216.41976,374.73993l-16.98646,6.89287l-6.52197,-6.14037l-20.50525,3.11215" fill="none" stroke="#8a2f00" stroke-width="3" stroke-linecap="round"/><path d="M171.7998,371.01704l13.26681,5.00603" fill="none" stroke="#8a2f00" stroke-width="3" stroke-linecap="round"/><path d="M201.82529,367.44038l-3.28732,-11.33516l10.98505,-2.6477" fill="none" stroke="#8a2f00" stroke-width="3" stroke-linecap="round"/><path d="M146.17011,386.25274l11.99427,-8.21054" fill="none" stroke="#8a2f00" stroke-width="3" stroke-linecap="round"/><path d="M158.27945,365.16054l-11.5056,-7.73781" fill="none" stroke="#8a2f00" stroke-width="3" stroke-linecap="round"/><path d="M153.85433,363.58514l-4.96159,6.80744" fill="none" stroke="#8a2f00" stroke-width="3" stroke-linecap="round"/><path d="M155.23467,382.40868l12.14123,5.24171" fill="none" stroke="#8a2f00" stroke-width="3" stroke-linecap="round"/><path d="M216.00827,388.17012l-5.62786,1.17845l-7.53975,-0.29773" fill="none" stroke="#8a2f00" stroke-width="3" stroke-linecap="round"/></g><g><path d="M286.56877,347.80398l2.39983,48.31874l-73.083,3.9028l-2.39984,-48.31873z" fill="#453d34" stroke="none" stroke-width="0" stroke-linecap="butt"/><path d="M236.52947,352.67762l4.28145,1.67125l5.28319,8.49614" fill="none" stroke="#8a2f00" stroke-width="3" stroke-linecap="round"/><path d="M286.09815,373.69118l-16.32585,9.4213l-7.02914,-6.27421l-20.15878,5.50956" fill="none" stroke="#8a2f00" stroke-width="3" stroke-linecap="round"/><path d="M241.32342,373.86576l13.65043,4.33737" fill="none" stroke="#8a2f00" stroke-width="3" stroke-linecap="round"/><path d="M270.92646,366.90186l-4.25643,-12.43852l10.71454,-4.05529" fill="none" stroke="#8a2f00" stroke-width="3" stroke-linecap="round"/><path d="M228.34747,383.10811l-11.23832,10.41619" fill="none" stroke="#8a2f00" stroke-width="3" stroke-linecap="round"/><path d="M227.34676,368.59581l-12.13237,-7.58488" fill="none" stroke="#8a2f00" stroke-width="3" stroke-linecap="round"/><path d="M218.44831,375.40395l4.35354,-8.14865" fill="none" stroke="#8a2f00" stroke-width="3" stroke-linecap="round"/><path d="M238.35633,393.02295l-12.54949,-4.7128" fill="none" stroke="#8a2f00" stroke-width="3" stroke-linecap="round"/><path d="M286.85106,388.84998l-5.50469,1.87721l-7.53721,0.40251" fill="none" stroke="#8a2f00" stroke-width="3" stroke-linecap="round"/></g><g><path d="M356.13333,346.79798l2.39983,48.31874l-73.08301,3.9028l-2.39984,-48.31873z" fill="#453d34" stroke="none" stroke-width="0" stroke-linecap="butt"/><path d="M306.09404,351.67161l4.28146,1.67124l5.28319,8.49614" fill="none" stroke="#8a2f00" stroke-width="3" stroke-linecap="round"/><path d="M355.66272,372.68518l-16.32585,9.42129l-7.02913,-6.27421l-20.15879,5.50957" fill="none" stroke="#8a2f00" stroke-width="3" stroke-linecap="round"/><path d="M324.53842,377.19712l-13.65044,-4.33737" fill="none" stroke="#8a2f00" stroke-width="3" stroke-linecap="round"/><path d="M340.49102,365.89585l-4.25643,-12.43851l10.71455,-4.0553" fill="none" stroke="#8a2f00" stroke-width="3" stroke-linecap="round"/><path d="M297.91204,382.1021l-11.23833,10.41619" fill="none" stroke="#8a2f00" stroke-width="3" stroke-linecap="round"/><path d="M284.77896,360.00492l12.13236,7.58489" fill="none" stroke="#8a2f00" stroke-width="3" stroke-linecap="round"/><path d="M292.36642,366.24929l-4.35354,8.14865" fill="none" stroke="#8a2f00" stroke-width="3" stroke-linecap="round"/><path d="M307.92089,392.01694l-12.54949,-4.7128" fill="none" stroke="#8a2f00" stroke-width="3" stroke-linecap="round"/><path d="M356.41562,387.84397l-5.50469,1.87721l-7.53722,0.40251" fill="none" stroke="#8a2f00" stroke-width="3" stroke-linecap="round"/></g><g><path d="M425.6979,347.29347l2.39983,48.31874l-73.083,3.9028l-2.39984,-48.31873z" fill="#453d34" stroke="none" stroke-width="0" stroke-linecap="butt"/><path d="M375.6586,352.16711l4.28145,1.67124l5.28318,8.49614" fill="none" stroke="#8a2f00" stroke-width="3" stroke-linecap="round"/><path d="M425.22728,373.18067l-16.32585,9.42129l-7.02913,-6.27421l-20.15879,5.50957" fill="none" stroke="#8a2f00" stroke-width="3" stroke-linecap="round"/><path d="M394.10299,377.69261l-13.65044,-4.33737" fill="none" stroke="#8a2f00" stroke-width="3" stroke-linecap="round"/><path d="M410.05559,366.39135l-4.25643,-12.43851l10.71455,-4.0553" fill="none" stroke="#8a2f00" stroke-width="3" stroke-linecap="round"/><path d="M367.47661,382.5976l-11.23832,10.41619" fill="none" stroke="#8a2f00" stroke-width="3" stroke-linecap="round"/><path d="M366.47589,368.0853l-12.13236,-7.58489" fill="none" stroke="#8a2f00" stroke-width="3" stroke-linecap="round"/><path d="M357.57744,374.89343l4.35354,-8.14865" fill="none" stroke="#8a2f00" stroke-width="3" stroke-linecap="round"/><path d="M377.48546,392.51244l-12.54949,-4.7128" fill="none" stroke="#8a2f00" stroke-width="3" stroke-linecap="round"/><path d="M425.98019,388.33947l-5.50469,1.87721l-7.53722,0.40251" fill="none" stroke="#8a2f00" stroke-width="3" stroke-linecap="round"/></g><g><path d="M493.76096,349.29047l2.39983,48.31874l-73.08301,3.9028l-2.39984,-48.31873z" fill="#453d34" stroke="none" stroke-width="0" stroke-linecap="butt"/><path d="M443.72166,354.1641l4.28146,1.67124l5.28319,8.49614" fill="none" stroke="#8a2f00" stroke-width="3" stroke-linecap="round"/><path d="M493.29034,375.17767l-16.32585,9.42129l-7.02913,-6.27421l-20.15879,5.50957" fill="none" stroke="#8a2f00" stroke-width="3" stroke-linecap="round"/><path d="M448.51561,375.35224l13.65044,4.33737" fill="none" stroke="#8a2f00" stroke-width="3" stroke-linecap="round"/><path d="M478.11865,368.38834l-4.25643,-12.43851l10.71455,-4.0553" fill="none" stroke="#8a2f00" stroke-width="3" stroke-linecap="round"/><path d="M435.53967,384.59459l-11.23833,10.41619" fill="none" stroke="#8a2f00" stroke-width="3" stroke-linecap="round"/><path d="M422.40659,362.49741l12.13236,7.58489" fill="none" stroke="#8a2f00" stroke-width="3" stroke-linecap="round"/><path d="M429.99404,368.74177l-4.35354,8.14865" fill="none" stroke="#8a2f00" stroke-width="3" stroke-linecap="round"/><path d="M432.99903,389.79662l12.54949,4.7128" fill="none" stroke="#8a2f00" stroke-width="3" stroke-linecap="round"/><path d="M494.04325,390.33646l-5.50469,1.87721l-7.53722,0.40251" fill="none" stroke="#8a2f00" stroke-width="3" stroke-linecap="round"/></g><g><path d="M99.23753,306.13428l42.35207,6.373l-11.52592,72.25101l-42.35207,-6.37299z" fill="#453d34" stroke="none" stroke-width="0" stroke-linecap="butt"/><path d="M93.25311,356.00131l2.32126,-3.88975l8.43856,-3.63841" fill="none" stroke="#8a2f00" stroke-width="3" stroke-linecap="round"/><path d="M121.56978,311.26809l4.83236,17.68332l-6.86965,5.74875l0.66147,20.72953" fill="none" stroke="#8a2f00" stroke-width="3" stroke-linecap="round"/><path d="M112.58802,355.13298l6.5422,-12.58047" fill="none" stroke="#8a2f00" stroke-width="3" stroke-linecap="round"/><path d="M112.59295,324.89522l-11.64474,1.92157l-1.32792,-11.22133" fill="none" stroke="#8a2f00" stroke-width="3" stroke-linecap="round"/><path d="M117.94865,369.50452l6.73206,12.88235" fill="none" stroke="#8a2f00" stroke-width="3" stroke-linecap="round"/><path d="M105.17131,367.86447l-9.04614,10.50809" fill="none" stroke="#8a2f00" stroke-width="3" stroke-linecap="round"/><path d="M103.08286,372.07184l6.17184,5.73298" fill="none" stroke="#8a2f00" stroke-width="3" stroke-linecap="round"/><path d="M128.58028,361.4959l-6.6429,11.4349" fill="none" stroke="#8a2f00" stroke-width="3" stroke-linecap="round"/><path d="M134.85669,313.26743l0.50355,5.72783l-1.18869,7.45141" fill="none" stroke="#8a2f00" stroke-width="3" stroke-linecap="round"/></g><g><path d="M71.69999,197.51566l42.35207,6.373l-11.52592,72.25101l-42.35207,-6.37299z" fill="#453d34" stroke="none" stroke-width="0" stroke-linecap="butt"/><path d="M65.71557,247.38269l2.32126,-3.88975l8.43856,-3.63841" fill="none" stroke="#8a2f00" stroke-width="3" stroke-linecap="round"/><path d="M94.03224,202.64947l4.83236,17.68332l-6.86965,5.74875l0.66147,20.72953" fill="none" stroke="#8a2f00" stroke-width="3" stroke-linecap="round"/><path d="M85.05048,246.51436l6.5422,-12.58047" fill="none" stroke="#8a2f00" stroke-width="3" stroke-linecap="round"/><path d="M85.05541,216.2766l-11.64474,1.92157l-1.32792,-11.22133" fill="none" stroke="#8a2f00" stroke-width="3" stroke-linecap="round"/><path d="M90.41111,260.8859l6.73206,12.88235" fill="none" stroke="#8a2f00" stroke-width="3" stroke-linecap="round"/><path d="M77.63377,259.24585l-9.04614,10.50809" fill="none" stroke="#8a2f00" stroke-width="3" stroke-linecap="round"/><path d="M75.54532,263.45322l6.17184,5.73298" fill="none" stroke="#8a2f00" stroke-width="3" stroke-linecap="round"/><path d="M101.04274,252.87728l-6.6429,11.4349" fill="none" stroke="#8a2f00" stroke-width="3" stroke-linecap="round"/><path d="M107.31915,204.64882l0.50355,5.72783l-1.18869,7.45141" fill="none" stroke="#8a2f00" stroke-width="3" stroke-linecap="round"/></g><g><path d="M75.16846,315.09824l42.35207,6.373l-11.52592,72.25101l-42.35207,-6.37299z" fill="#453d34" stroke="none" stroke-width="0" stroke-linecap="butt"/><path d="M69.18404,364.96527l2.32126,-3.88975l8.43856,-3.63841" fill="none" stroke="#8a2f00" stroke-width="3" stroke-linecap="round"/><path d="M97.50071,320.23204l4.83236,17.68332l-6.86965,5.74875l0.66147,20.72953" fill="none" stroke="#8a2f00" stroke-width="3" stroke-linecap="round"/><path d="M88.51895,364.09694l6.5422,-12.58047" fill="none" stroke="#8a2f00" stroke-width="3" stroke-linecap="round"/><path d="M88.52388,333.85918l-11.64474,1.92157l-1.32792,-11.22133" fill="none" stroke="#8a2f00" stroke-width="3" stroke-linecap="round"/><path d="M100.61164,391.35083l-6.73206,-12.88235" fill="none" stroke="#8a2f00" stroke-width="3" stroke-linecap="round"/><path d="M72.0561,387.33652l9.04614,-10.50809" fill="none" stroke="#8a2f00" stroke-width="3" stroke-linecap="round"/><path d="M79.01379,381.0358l6.17184,5.73298" fill="none" stroke="#8a2f00" stroke-width="3" stroke-linecap="round"/><path d="M97.86831,381.89476l6.6429,-11.4349" fill="none" stroke="#8a2f00" stroke-width="3" stroke-linecap="round"/><path d="M110.78762,322.2314l0.50355,5.72783l-1.18869,7.45141" fill="none" stroke="#8a2f00" stroke-width="3" stroke-linecap="round"/></g><g><path d="M85.24354,129.97812l42.35207,6.373l-11.52592,72.25101l-42.35207,-6.37299z" fill="#453d34" stroke="none" stroke-width="0" stroke-linecap="butt"/><path d="M79.25911,179.84515l2.32126,-3.88975l8.43856,-3.63841" fill="none" stroke="#8a2f00" stroke-width="3" stroke-linecap="round"/><path d="M107.57579,135.11193l4.83236,17.68332l-6.86965,5.74875l0.66147,20.72953" fill="none" stroke="#8a2f00" stroke-width="3" stroke-linecap="round"/><path d="M98.59403,178.97682l6.5422,-12.58047" fill="none" stroke="#8a2f00" stroke-width="3" stroke-linecap="round"/><path d="M98.59896,148.73906l-11.64474,1.92157l-1.32792,-11.22133" fill="none" stroke="#8a2f00" stroke-width="3" stroke-linecap="round"/><path d="M103.95466,193.34836l6.73206,12.88235" fill="none" stroke="#8a2f00" stroke-width="3" stroke-linecap="round"/><path d="M82.13118,202.2164l9.04614,-10.50809" fill="none" stroke="#8a2f00" stroke-width="3" stroke-linecap="round"/><path d="M89.08887,195.91568l6.17184,5.73298" fill="none" stroke="#8a2f00" stroke-width="3" stroke-linecap="round"/><path d="M107.94339,196.77464l6.6429,-11.4349" fill="none" stroke="#8a2f00" stroke-width="3" stroke-linecap="round"/><path d="M120.8627,137.11128l0.50355,5.72783l-1.18869,7.45141" fill="none" stroke="#8a2f00" stroke-width="3" stroke-linecap="round"/></g><g><path d="M102.25555,155.99914l42.35207,6.373l-11.52592,72.25101l-42.35207,-6.37299z" fill="#453d34" stroke="none" stroke-width="0" stroke-linecap="butt"/><path d="M96.27113,205.86617l2.32126,-3.88975l8.43856,-3.63841" fill="none" stroke="#8a2f00" stroke-width="3" stroke-linecap="round"/><path d="M124.5878,161.13295l4.83236,17.68332l-6.86965,5.74875l0.66147,20.72953" fill="none" stroke="#8a2f00" stroke-width="3" stroke-linecap="round"/><path d="M122.14824,192.41737l-6.5422,12.58047" fill="none" stroke="#8a2f00" stroke-width="3" stroke-linecap="round"/><path d="M115.61097,174.76008l-11.64474,1.92157l-1.32792,-11.22133" fill="none" stroke="#8a2f00" stroke-width="3" stroke-linecap="round"/><path d="M120.96667,219.36938l6.73206,12.88235" fill="none" stroke="#8a2f00" stroke-width="3" stroke-linecap="round"/><path d="M99.14319,228.23742l9.04614,-10.50809" fill="none" stroke="#8a2f00" stroke-width="3" stroke-linecap="round"/><path d="M106.10088,221.9367l6.17184,5.73298" fill="none" stroke="#8a2f00" stroke-width="3" stroke-linecap="round"/><path d="M124.9554,222.79566l6.6429,-11.4349" fill="none" stroke="#8a2f00" stroke-width="3" stroke-linecap="round"/><path d="M137.87471,163.1323l0.50355,5.72783l-1.18869,7.45141" fill="none" stroke="#8a2f00" stroke-width="3" stroke-linecap="round"/></g><g><path d="M102.75104,203.04118l42.35207,6.373l-11.52592,72.25101l-42.35207,-6.37299z" fill="#453d34" stroke="none" stroke-width="0" stroke-linecap="butt"/><path d="M96.76662,252.9082l2.32126,-3.88975l8.43856,-3.63841" fill="none" stroke="#8a2f00" stroke-width="3" stroke-linecap="round"/><path d="M125.08329,208.17499l4.83236,17.68332l-6.86965,5.74875l0.66147,20.72953" fill="none" stroke="#8a2f00" stroke-width="3" stroke-linecap="round"/><path d="M116.10153,252.03988l6.5422,-12.58047" fill="none" stroke="#8a2f00" stroke-width="3" stroke-linecap="round"/><path d="M116.10646,221.80212l-11.64474,1.92157l-1.32792,-11.22133" fill="none" stroke="#8a2f00" stroke-width="3" stroke-linecap="round"/><path d="M128.19422,279.29377l-6.73206,-12.88235" fill="none" stroke="#8a2f00" stroke-width="3" stroke-linecap="round"/><path d="M99.63868,275.27946l9.04614,-10.50809" fill="none" stroke="#8a2f00" stroke-width="3" stroke-linecap="round"/><path d="M106.59637,268.97874l6.17184,5.73298" fill="none" stroke="#8a2f00" stroke-width="3" stroke-linecap="round"/><path d="M132.09379,258.40279l-6.6429,11.4349" fill="none" stroke="#8a2f00" stroke-width="3" stroke-linecap="round"/><path d="M138.3702,210.17434l0.50355,5.72783l-1.18869,7.45141" fill="none" stroke="#8a2f00" stroke-width="3" stroke-linecap="round"/></g><g><path d="M100.24354,260.59374l42.35207,6.373l-11.52592,72.25101l-42.35207,-6.37299z" fill="#453d34" stroke="none" stroke-width="0" stroke-linecap="butt"/><path d="M94.25912,310.46077l2.32126,-3.88975l8.43856,-3.63841" fill="none" stroke="#8a2f00" stroke-width="3" stroke-linecap="round"/><path d="M122.57579,265.72754l4.83236,17.68332l-6.86965,5.74875l0.66147,20.72953" fill="none" stroke="#8a2f00" stroke-width="3" stroke-linecap="round"/><path d="M120.13623,297.01197l-6.5422,12.58047" fill="none" stroke="#8a2f00" stroke-width="3" stroke-linecap="round"/><path d="M113.59896,279.35468l-11.64474,1.92157l-1.32792,-11.22133" fill="none" stroke="#8a2f00" stroke-width="3" stroke-linecap="round"/><path d="M118.95466,323.96397l6.73206,12.88235" fill="none" stroke="#8a2f00" stroke-width="3" stroke-linecap="round"/><path d="M97.13118,332.832l9.04614,-10.50809" fill="none" stroke="#8a2f00" stroke-width="3" stroke-linecap="round"/><path d="M104.08887,326.5313l6.17184,5.73298" fill="none" stroke="#8a2f00" stroke-width="3" stroke-linecap="round"/><path d="M122.94339,327.39026l6.6429,-11.4349" fill="none" stroke="#8a2f00" stroke-width="3" stroke-linecap="round"/><path d="M135.8627,267.7269l0.50355,5.72783l-1.18869,7.45141" fill="none" stroke="#8a2f00" stroke-width="3" stroke-linecap="round"/></g><g><path d="M82.19548,262.06521l42.35207,6.373l-11.52592,72.25101l-42.35207,-6.37299z" fill="#453d34" stroke="none" stroke-width="0" stroke-linecap="butt"/><path d="M76.21106,311.93224l2.32126,-3.88975l8.43856,-3.63841" fill="none" stroke="#8a2f00" stroke-width="3" stroke-linecap="round"/><path d="M104.52773,267.19902l4.83236,17.68332l-6.86965,5.74875l0.66147,20.72953" fill="none" stroke="#8a2f00" stroke-width="3" stroke-linecap="round"/><path d="M102.08817,298.48344l-6.5422,12.58047" fill="none" stroke="#8a2f00" stroke-width="3" stroke-linecap="round"/><path d="M95.5509,280.82615l-11.64474,1.92157l-1.32792,-11.22133" fill="none" stroke="#8a2f00" stroke-width="3" stroke-linecap="round"/><path d="M100.9066,325.43545l6.73206,12.88235" fill="none" stroke="#8a2f00" stroke-width="3" stroke-linecap="round"/><path d="M79.08312,334.30349l9.04614,-10.50809" fill="none" stroke="#8a2f00" stroke-width="3" stroke-linecap="round"/><path d="M86.04081,328.00277l6.17184,5.73298" fill="none" stroke="#8a2f00" stroke-width="3" stroke-linecap="round"/><path d="M104.89533,328.86173l6.6429,-11.4349" fill="none" stroke="#8a2f00" stroke-width="3" stroke-linecap="round"/><path d="M117.81464,269.19836l0.50355,5.72783l-1.18869,7.45141" fill="none" stroke="#8a2f00" stroke-width="3" stroke-linecap="round"/></g><g><path d="M108.69699,332.11024l42.35207,6.373l-11.52592,72.25101l-42.35207,-6.37299z" fill="#453d34" stroke="none" stroke-width="0" stroke-linecap="butt"/><path d="M102.71257,381.97728l2.32126,-3.88975l8.43856,-3.63841" fill="none" stroke="#8a2f00" stroke-width="3" stroke-linecap="round"/><path d="M131.02924,337.24406l4.83236,17.68332l-6.86965,5.74875l0.66147,20.72953" fill="none" stroke="#8a2f00" stroke-width="3" stroke-linecap="round"/><path d="M122.04748,381.10895l6.5422,-12.58047" fill="none" stroke="#8a2f00" stroke-width="3" stroke-linecap="round"/><path d="M122.05241,350.87119l-11.64474,1.92157l-1.32792,-11.22133" fill="none" stroke="#8a2f00" stroke-width="3" stroke-linecap="round"/><path d="M127.40811,395.48049l6.73206,12.88235" fill="none" stroke="#8a2f00" stroke-width="3" stroke-linecap="round"/><path d="M114.63077,393.84044l-9.04614,10.50809" fill="none" stroke="#8a2f00" stroke-width="3" stroke-linecap="round"/><path d="M112.54232,398.04781l6.17184,5.73298" fill="none" stroke="#8a2f00" stroke-width="3" stroke-linecap="round"/><path d="M138.03974,387.47187l-6.6429,11.4349" fill="none" stroke="#8a2f00" stroke-width="3" stroke-linecap="round"/><path d="M144.31615,339.24341l0.50355,5.72783l-1.18869,7.45141" fill="none" stroke="#8a2f00" stroke-width="3" stroke-linecap="round"/></g><g><path d="M-0.32704,104.46761l42.35207,6.373l-11.52592,72.25101l-42.35207,-6.37299z" fill="#453d34" stroke="none" stroke-width="0" stroke-linecap="butt"/><path d="M-6.31146,154.33464l2.32126,-3.88975l8.43856,-3.63841" fill="none" stroke="#8a2f00" stroke-width="3" stroke-linecap="round"/><path d="M22.00521,109.60142l4.83236,17.68332l-6.86965,5.74875l0.66147,20.72953" fill="none" stroke="#8a2f00" stroke-width="3" stroke-linecap="round"/><path d="M13.02345,153.46631l6.5422,-12.58047" fill="none" stroke="#8a2f00" stroke-width="3" stroke-linecap="round"/><path d="M13.02838,123.22855l-11.64474,1.92157l-1.32792,-11.22133" fill="none" stroke="#8a2f00" stroke-width="3" stroke-linecap="round"/><path d="M18.38408,167.83785l6.73206,12.88235" fill="none" stroke="#8a2f00" stroke-width="3" stroke-linecap="round"/><path d="M-3.4394,176.70589l9.04614,-10.50809" fill="none" stroke="#8a2f00" stroke-width="3" stroke-linecap="round"/><path d="M3.51829,170.40517l6.17184,5.73298" fill="none" stroke="#8a2f00" stroke-width="3" stroke-linecap="round"/><path d="M22.37281,171.26413l6.6429,-11.4349" fill="none" stroke="#8a2f00" stroke-width="3" stroke-linecap="round"/><path d="M35.29212,111.60077l0.50355,5.72783l-1.18869,7.45141" fill="none" stroke="#8a2f00" stroke-width="3" stroke-linecap="round"/></g><g><path d="M24.19248,107.96611l42.35207,6.373l-11.52592,72.25101l-42.35207,-6.37299z" fill="#453d34" stroke="none" stroke-width="0" stroke-linecap="butt"/><path d="M18.20806,157.83314l2.32126,-3.88975l8.43856,-3.63841" fill="none" stroke="#8a2f00" stroke-width="3" stroke-linecap="round"/><path d="M46.52473,113.09992l4.83236,17.68332l-6.86965,5.74875l0.66147,20.72953" fill="none" stroke="#8a2f00" stroke-width="3" stroke-linecap="round"/><path d="M37.54297,156.96481l6.5422,-12.58047" fill="none" stroke="#8a2f00" stroke-width="3" stroke-linecap="round"/><path d="M37.5479,126.72705l-11.64474,1.92157l-1.32792,-11.22133" fill="none" stroke="#8a2f00" stroke-width="3" stroke-linecap="round"/><path d="M42.9036,171.33635l6.73206,12.88235" fill="none" stroke="#8a2f00" stroke-width="3" stroke-linecap="round"/><path d="M30.12626,169.6963l-9.04614,10.50809" fill="none" stroke="#8a2f00" stroke-width="3" stroke-linecap="round"/><path d="M28.03781,173.90367l6.17184,5.73298" fill="none" stroke="#8a2f00" stroke-width="3" stroke-linecap="round"/><path d="M53.53523,163.32773l-6.6429,11.4349" fill="none" stroke="#8a2f00" stroke-width="3" stroke-linecap="round"/><path d="M59.81164,115.09927l0.50355,5.72783l-1.18869,7.45141" fill="none" stroke="#8a2f00" stroke-width="3" stroke-linecap="round"/></g><g><path d="M47.2105,118.97212l42.35207,6.373l-11.52592,72.25101l-42.35207,-6.37299z" fill="#453d34" stroke="none" stroke-width="0" stroke-linecap="butt"/><path d="M41.22608,168.83915l2.32126,-3.88975l8.43856,-3.63841" fill="none" stroke="#8a2f00" stroke-width="3" stroke-linecap="round"/><path d="M69.54275,124.10593l4.83236,17.68332l-6.86965,5.74875l0.66147,20.72953" fill="none" stroke="#8a2f00" stroke-width="3" stroke-linecap="round"/><path d="M60.56099,167.97082l6.5422,-12.58047" fill="none" stroke="#8a2f00" stroke-width="3" stroke-linecap="round"/><path d="M60.56592,137.73306l-11.64474,1.92157l-1.32792,-11.22133" fill="none" stroke="#8a2f00" stroke-width="3" stroke-linecap="round"/><path d="M65.92162,182.34236l6.73206,12.88235" fill="none" stroke="#8a2f00" stroke-width="3" stroke-linecap="round"/><path d="M44.09814,191.2104l9.04614,-10.50809" fill="none" stroke="#8a2f00" stroke-width="3" stroke-linecap="round"/><path d="M51.05583,184.90968l6.17184,5.73298" fill="none" stroke="#8a2f00" stroke-width="3" stroke-linecap="round"/><path d="M76.55325,174.33374l-6.6429,11.4349" fill="none" stroke="#8a2f00" stroke-width="3" stroke-linecap="round"/><path d="M82.82966,126.10528l0.50355,5.72783l-1.18869,7.45141" fill="none" stroke="#8a2f00" stroke-width="3" stroke-linecap="round"/></g><g><path d="M0.13843,172.50064l42.35207,6.373l-11.52592,72.25101l-42.35207,-6.37299z" fill="#453d34" stroke="none" stroke-width="0" stroke-linecap="butt"/><path d="M-5.84599,222.36767l2.32126,-3.88975l8.43856,-3.63841" fill="none" stroke="#8a2f00" stroke-width="3" stroke-linecap="round"/><path d="M22.47068,177.63445l4.83236,17.68332l-6.86965,5.74875l0.66147,20.72953" fill="none" stroke="#8a2f00" stroke-width="3" stroke-linecap="round"/><path d="M13.48892,221.49934l6.5422,-12.58047" fill="none" stroke="#8a2f00" stroke-width="3" stroke-linecap="round"/><path d="M13.49385,191.26158l-11.64474,1.92157l-1.32792,-11.22133" fill="none" stroke="#8a2f00" stroke-width="3" stroke-linecap="round"/><path d="M25.58161,248.75323l-6.73206,-12.88235" fill="none" stroke="#8a2f00" stroke-width="3" stroke-linecap="round"/><path d="M-2.97393,244.73892l9.04614,-10.50809" fill="none" stroke="#8a2f00" stroke-width="3" stroke-linecap="round"/><path d="M3.98376,238.4382l6.17184,5.73298" fill="none" stroke="#8a2f00" stroke-width="3" stroke-linecap="round"/><path d="M22.83828,239.29716l6.6429,-11.4349" fill="none" stroke="#8a2f00" stroke-width="3" stroke-linecap="round"/><path d="M35.75759,179.6338l0.50355,5.72783l-1.18869,7.45141" fill="none" stroke="#8a2f00" stroke-width="3" stroke-linecap="round"/></g><g><path d="M41.17447,180.50365l42.35207,6.373l-11.52592,72.25101l-42.35207,-6.37299z" fill="#453d34" stroke="none" stroke-width="0" stroke-linecap="butt"/><path d="M35.19005,230.37068l2.32126,-3.88975l8.43856,-3.63841" fill="none" stroke="#8a2f00" stroke-width="3" stroke-linecap="round"/><path d="M63.50672,185.63746l4.83236,17.68332l-6.86965,5.74875l0.66147,20.72953" fill="none" stroke="#8a2f00" stroke-width="3" stroke-linecap="round"/><path d="M61.06716,216.92188l-6.5422,12.58047" fill="none" stroke="#8a2f00" stroke-width="3" stroke-linecap="round"/><path d="M54.52989,199.26459l-11.64474,1.92157l-1.32792,-11.22133" fill="none" stroke="#8a2f00" stroke-width="3" stroke-linecap="round"/><path d="M59.88559,243.87389l6.73206,12.88235" fill="none" stroke="#8a2f00" stroke-width="3" stroke-linecap="round"/><path d="M47.10825,242.23384l-9.04614,10.50809" fill="none" stroke="#8a2f00" stroke-width="3" stroke-linecap="round"/><path d="M45.0198,246.44121l6.17184,5.73298" fill="none" stroke="#8a2f00" stroke-width="3" stroke-linecap="round"/><path d="M63.87431,247.30017l6.6429,-11.4349" fill="none" stroke="#8a2f00" stroke-width="3" stroke-linecap="round"/><path d="M76.79363,187.63681l0.50355,5.72783l-1.18869,7.45141" fill="none" stroke="#8a2f00" stroke-width="3" stroke-linecap="round"/></g><g><path d="M6.12942,240.05319l42.35207,6.373l-11.52592,72.25101l-42.35207,-6.37299z" fill="#453d34" stroke="none" stroke-width="0" stroke-linecap="butt"/><path d="M0.145,289.92022l2.32126,-3.88975l8.43856,-3.63841" fill="none" stroke="#8a2f00" stroke-width="3" stroke-linecap="round"/><path d="M28.46167,245.187l4.83236,17.68332l-6.86965,5.74875l0.66147,20.72953" fill="none" stroke="#8a2f00" stroke-width="3" stroke-linecap="round"/><path d="M19.47991,289.05188l6.5422,-12.58047" fill="none" stroke="#8a2f00" stroke-width="3" stroke-linecap="round"/><path d="M19.48484,258.81413l-11.64474,1.92157l-1.32792,-11.22133" fill="none" stroke="#8a2f00" stroke-width="3" stroke-linecap="round"/><path d="M31.5726,316.30578l-6.73206,-12.88235" fill="none" stroke="#8a2f00" stroke-width="3" stroke-linecap="round"/><path d="M3.01706,312.29147l9.04614,-10.50809" fill="none" stroke="#8a2f00" stroke-width="3" stroke-linecap="round"/><path d="M9.97475,305.99075l6.17184,5.73298" fill="none" stroke="#8a2f00" stroke-width="3" stroke-linecap="round"/><path d="M35.47217,295.41481l-6.6429,11.4349" fill="none" stroke="#8a2f00" stroke-width="3" stroke-linecap="round"/><path d="M41.74858,247.18635l0.50355,5.72783l-1.18869,7.45141" fill="none" stroke="#8a2f00" stroke-width="3" stroke-linecap="round"/></g><g><path d="M47.16545,245.0532l42.35207,6.373l-11.52592,72.25101l-42.35207,-6.37299z" fill="#453d34" stroke="none" stroke-width="0" stroke-linecap="butt"/><path d="M41.18103,294.92022l2.32126,-3.88975l8.43856,-3.63841" fill="none" stroke="#8a2f00" stroke-width="3" stroke-linecap="round"/><path d="M69.4977,250.18701l4.83236,17.68332l-6.86965,5.74875l0.66147,20.72953" fill="none" stroke="#8a2f00" stroke-width="3" stroke-linecap="round"/><path d="M60.51594,294.0519l6.5422,-12.58047" fill="none" stroke="#8a2f00" stroke-width="3" stroke-linecap="round"/><path d="M60.52087,263.81413l-11.64474,1.92157l-1.32792,-11.22133" fill="none" stroke="#8a2f00" stroke-width="3" stroke-linecap="round"/><path d="M65.87657,308.42344l6.73206,12.88235" fill="none" stroke="#8a2f00" stroke-width="3" stroke-linecap="round"/><path d="M44.05309,317.29148l9.04614,-10.50809" fill="none" stroke="#8a2f00" stroke-width="3" stroke-linecap="round"/><path d="M51.01078,310.99076l6.17184,5.73298" fill="none" stroke="#8a2f00" stroke-width="3" stroke-linecap="round"/><path d="M76.5082,300.41481l-6.6429,11.4349" fill="none" stroke="#8a2f00" stroke-width="3" stroke-linecap="round"/><path d="M82.78461,252.18635l0.50355,5.72783l-1.18869,7.45141" fill="none" stroke="#8a2f00" stroke-width="3" stroke-linecap="round"/></g><g><path d="M0.1084,292.59073l42.35207,6.373l-11.52592,72.25101l-42.35207,-6.37299z" fill="#453d34" stroke="none" stroke-width="0" stroke-linecap="butt"/><path d="M-5.87602,342.45776l2.32126,-3.88975l8.43856,-3.63841" fill="none" stroke="#8a2f00" stroke-width="3" stroke-linecap="round"/><path d="M22.44065,297.72454l4.83236,17.68332l-6.86965,5.74875l0.66147,20.72953" fill="none" stroke="#8a2f00" stroke-width="3" stroke-linecap="round"/><path d="M13.45889,341.58943l6.5422,-12.58047" fill="none" stroke="#8a2f00" stroke-width="3" stroke-linecap="round"/><path d="M13.46382,311.35167l-11.64474,1.92157l-1.32792,-11.22133" fill="none" stroke="#8a2f00" stroke-width="3" stroke-linecap="round"/><path d="M18.81952,355.96097l6.73206,12.88235" fill="none" stroke="#8a2f00" stroke-width="3" stroke-linecap="round"/><path d="M-3.00396,364.82901l9.04614,-10.50809" fill="none" stroke="#8a2f00" stroke-width="3" stroke-linecap="round"/><path d="M3.95373,358.52829l6.17184,5.73298" fill="none" stroke="#8a2f00" stroke-width="3" stroke-linecap="round"/><path d="M29.45115,347.95235l-6.6429,11.4349" fill="none" stroke="#8a2f00" stroke-width="3" stroke-linecap="round"/><path d="M35.72756,299.72389l0.50355,5.72783l-1.18869,7.45141" fill="none" stroke="#8a2f00" stroke-width="3" stroke-linecap="round"/></g><g><path d="M-33.93064,239.03217l42.35207,6.373l-11.52592,72.25101l-42.35207,-6.37299z" fill="#453d34" stroke="none" stroke-width="0" stroke-linecap="butt"/><path d="M-39.91506,288.89919l2.32126,-3.88975l8.43856,-3.63841" fill="none" stroke="#8a2f00" stroke-width="3" stroke-linecap="round"/><path d="M-11.59839,244.16598l4.83236,17.68332l-6.86965,5.74875l0.66147,20.72953" fill="none" stroke="#8a2f00" stroke-width="3" stroke-linecap="round"/><path d="M-20.58015,288.03087l6.5422,-12.58047" fill="none" stroke="#8a2f00" stroke-width="3" stroke-linecap="round"/><path d="M-20.57522,257.7931l-11.64474,1.92157l-1.32792,-11.22133" fill="none" stroke="#8a2f00" stroke-width="3" stroke-linecap="round"/><path d="M-15.21952,302.40241l6.73206,12.88235" fill="none" stroke="#8a2f00" stroke-width="3" stroke-linecap="round"/><path d="M-27.99686,300.76236l-9.04614,10.50809" fill="none" stroke="#8a2f00" stroke-width="3" stroke-linecap="round"/><path d="M-30.08531,304.96973l6.17184,5.73298" fill="none" stroke="#8a2f00" stroke-width="3" stroke-linecap="round"/><path d="M-4.58789,294.39378l-6.6429,11.4349" fill="none" stroke="#8a2f00" stroke-width="3" stroke-linecap="round"/><path d="M1.68852,246.16533l0.50355,5.72783l-1.18869,7.45141" fill="none" stroke="#8a2f00" stroke-width="3" stroke-linecap="round"/></g><g><path d="M35.63392,304.09223l42.35207,6.373l-11.52592,72.25101l-42.35207,-6.37299z" fill="#453d34" stroke="none" stroke-width="0" stroke-linecap="butt"/><path d="M29.6495,353.95926l2.32126,-3.88975l8.43856,-3.63841" fill="none" stroke="#8a2f00" stroke-width="3" stroke-linecap="round"/><path d="M57.96617,309.22604l4.83236,17.68332l-6.86965,5.74875l0.66147,20.72953" fill="none" stroke="#8a2f00" stroke-width="3" stroke-linecap="round"/><path d="M55.52661,340.51046l-6.5422,12.58047" fill="none" stroke="#8a2f00" stroke-width="3" stroke-linecap="round"/><path d="M48.98934,322.85317l-11.64474,1.92157l-1.32792,-11.22133" fill="none" stroke="#8a2f00" stroke-width="3" stroke-linecap="round"/><path d="M61.0771,380.34482l-6.73206,-12.88235" fill="none" stroke="#8a2f00" stroke-width="3" stroke-linecap="round"/><path d="M41.5677,365.82242l-9.04614,10.50809" fill="none" stroke="#8a2f00" stroke-width="3" stroke-linecap="round"/><path d="M45.65109,375.76277l-6.17184,-5.73298" fill="none" stroke="#8a2f00" stroke-width="3" stroke-linecap="round"/><path d="M64.97667,359.45385l-6.6429,11.4349" fill="none" stroke="#8a2f00" stroke-width="3" stroke-linecap="round"/><path d="M71.25308,311.22538l0.50355,5.72783l-1.18869,7.45141" fill="none" stroke="#8a2f00" stroke-width="3" stroke-linecap="round"/></g><path d="M141.0166,345.92667v-29.47748c0,0 63.72629,0 95.53045,0c31.72575,0 95.05985,0 95.05985,0v29.47748z" fill="#676767" stroke="none" stroke-width="0" stroke-linecap="butt"/><path d="M330.16562,345.88163v-29.47748c0,0 50.05253,0 75.03246,0c24.91836,0 74.66283,0 74.66283,0v29.47748z" fill="#676767" stroke="none" stroke-width="0" stroke-linecap="butt"/><path d="M330.80559,339.99793h146.36598" fill="none" stroke="#444444" stroke-width="2" stroke-linecap="round"/><path d="M330.92159,334.01084c0,0 99.68731,0 124.04926,0c10.37883,0 22.20072,0 22.20072,0" fill="none" stroke="#444444" stroke-width="2" stroke-linecap="round"/><path d="M477.17159,327.68343h-146.4458" fill="none" stroke="#444444" stroke-width="2" stroke-linecap="round"/><path d="M141.46836,155.12062l29.47689,0.18591c0,0 -0.39944,63.33284 -0.59952,95.05796c-0.20058,31.80352 -0.6025,95.52855 -0.6025,95.52855l-29.47689,-0.18591z" fill="#676767" stroke="none" stroke-width="0" stroke-linecap="butt"/><path d="M45.29748,101.29643l17.32067,-23.85197c0,0 36.12775,26.23502 54.1582,39.32826c17.98599,13.06095 53.89141,39.13451 53.89141,39.13451l-17.32066,23.85197z" fill="#676767" stroke="none" stroke-width="0" stroke-linecap="butt"/><g><path d="M-71.41016,105.30081v-29.47748c0,0 44.64853,0 66.93148,0c22.228,0 66.60176,0 66.60176,0v29.47748z" fill="#676767" stroke="none" stroke-width="0" stroke-linecap="butt"/><path d="M53.98712,99.66305h-123.17964" fill="none" stroke="#444444" stroke-width="2" stroke-linecap="round"/><path d="M-69.19252,93.67597h123.17964" fill="none" stroke="#444444" stroke-width="2" stroke-linecap="round"/><path d="M-69.19252,87.34856h125.85807" fill="none" stroke="#444444" stroke-width="2" stroke-linecap="round"/><path d="M-71.19769,82.25473v-6.40583h133.09012v6.40583z" fill="#c6c6c6" stroke="none" stroke-width="0" stroke-linecap="butt"/></g><path d="M54.55899,99.90947l92.13452,68.29555" fill="none" stroke="#444444" stroke-width="2" stroke-linecap="round"/><path d="M54.69854,93.71047l97.95535,71.39466" fill="none" stroke="#444444" stroke-width="2" stroke-linecap="round"/><path d="M57.12313,87.55593l102.04002,74.17391" fill="none" stroke="#444444" stroke-width="2" stroke-linecap="round"/><path d="M58.09426,80.75589l3.83501,-5.28113l109.72281,79.6778l-3.83501,5.28113z" fill="#c6c6c6" stroke="none" stroke-width="0" stroke-linecap="butt"/><path d="M145.92396,340.11813l1.16046,-171.76826" fill="none" stroke="#444444" stroke-width="2" stroke-linecap="round"/><path d="M153.07136,165.24736l-0.91452,169.25186" fill="none" stroke="#444444" stroke-width="2" stroke-linecap="round"/><path d="M159.39866,162.14699l-1.16046,165.64872" fill="none" stroke="#444444" stroke-width="2" stroke-linecap="round"/><path d="M331.85708,340.04297h-185.95367" fill="none" stroke="#444444" stroke-width="2" stroke-linecap="round"/><path d="M331.24471,334.05589c0,0 -18.11334,0 -31.32755,0c-31.01735,0 -147.86521,0 -147.86521,0" fill="none" stroke="#444444" stroke-width="2" stroke-linecap="round"/><path d="M332.16328,327.72846h-173.71682" fill="none" stroke="#444444" stroke-width="2" stroke-linecap="round"/><path d="M163.45559,322.63464v-6.40583h167.28622v6.40583z" fill="#c6c6c6" stroke="none" stroke-width="0" stroke-linecap="butt"/><path d="M164.61469,154.94284l6.95524,0.03557l-1.30081,167.24672l-6.95524,-0.03557z" fill="#c6c6c6" stroke="none" stroke-width="0" stroke-linecap="butt"/><path d="M484.39547,-10.58535v29.68336c0,0 -164.1972,0 -246.44797,0c-82.45406,0 -247.66803,0 -247.66803,0v-29.68336z" fill="#676767" stroke="none" stroke-width="0" stroke-linecap="butt"/><path d="M475.51845,-4.66055h-483.12659" fill="none" stroke="#444444" stroke-width="2" stroke-linecap="round"/><path d="M470.64224,1.36834h-477.86749" fill="none" stroke="#444444" stroke-width="2" stroke-linecap="round"/><path d="M-7.87158,7.73995h472.51234" fill="none" stroke="#444444" stroke-width="2" stroke-linecap="round"/><path d="M458.76882,12.86936v6.45057h-468.89774v-6.45057z" fill="#c6c6c6" stroke="none" stroke-width="0" stroke-linecap="butt"/><path d="M482.55496,205.21246h-29.47748c0,0 0,-63.72629 0,-95.53045c0,-31.72575 0,-95.05985 0,-95.05985h29.47748z" fill="#676767" stroke="none" stroke-width="0" stroke-linecap="butt"/><path d="M458.91401,205.36997h-6.40583v-190.76755h6.40583z" fill="#c6c6c6" stroke="none" stroke-width="0" stroke-linecap="butt"/><path d="M330.82145,317.29702h-12.81166v-15.20542h12.81166z" fill="#c6c6c6" stroke="none" stroke-width="0" stroke-linecap="butt"/><path d="M44.94018,108.02295l3.8449,-5.2739l94.351,69.11444l-3.8449,5.2739z" fill="#c6c6c6" stroke="none" stroke-width="0" stroke-linecap="butt"/><path d="M-68.18015,108.28362l0.01273,-6.52665l116.95586,0.49351l-0.01273,6.52664z" fill="#c6c6c6" stroke="none" stroke-width="0" stroke-linecap="butt"/><path d="M142.4825,350.09511l-6.52665,-0.01944l0.49351,-178.59299l6.52665,0.01944z" fill="#c6c6c6" stroke="none" stroke-width="0" stroke-linecap="butt"/><path d="M481.97827,343.98562l-0.03701,6.52665l-340.02356,-0.49351l0.03701,-6.52664z" fill="#c6c6c6" stroke="none" stroke-width="0" stroke-linecap="butt"/><g><path d="M371.9769,206.72138v-29.47748c0,0 37.02967,0 55.51023,0c18.435,0 55.23678,0 55.23678,0v29.47748z" fill="#676767" stroke="none" stroke-width="0" stroke-linecap="butt"/><path d="M373.36015,200.83767h103.45432" fill="none" stroke="#444444" stroke-width="2" stroke-linecap="round"/><path d="M470.63351,194.8506h-97.39432" fill="none" stroke="#444444" stroke-width="2" stroke-linecap="round"/><path d="M464.87584,188.08187l-91.11971,1.32392" fill="none" stroke="#444444" stroke-width="2" stroke-linecap="round"/><path d="M371.88537,183.08043v-6.40583h87.02396v6.40583z" fill="#c6c6c6" stroke="none" stroke-width="0" stroke-linecap="butt"/><path d="M371.73606,212.19619v-6.40583h110.60381v6.40583z" fill="#c6c6c6" stroke="none" stroke-width="0" stroke-linecap="butt"/><path d="M378.16325,206.67287h-6.40583v-23.84582h6.40583z" fill="#c6c6c6" stroke="none" stroke-width="0" stroke-linecap="butt"/></g><path d="M463.91545,7.47735l1.32392,180.58863" fill="none" stroke="#444444" stroke-width="2" stroke-linecap="round"/><path d="M476.67125,-4.45942v205.45426" fill="none" stroke="#444444" stroke-width="2" stroke-linecap="round"/><path d="M470.68418,1.54208l-0.15309,192.77177" fill="none" stroke="#444444" stroke-width="2" stroke-linecap="round"/></g></g></svg>