<svg version="1.1" xmlns="http://www.w3.org/2000/svg" xmlns:xlink="http://www.w3.org/1999/xlink" width="511.40043" height="217.98823" viewBox="0,0,511.40043,217.98823"><g transform="translate(17.94625,-157.60931)"><g data-paper-data="{&quot;isPaintingLayer&quot;:true}" fill-rule="nonzero" stroke-linejoin="miter" stroke-miterlimit="10" stroke-dasharray="" stroke-dashoffset="0" style="mix-blend-mode: normal"><g data-paper-data="{&quot;index&quot;:null}"><path d="M47.21615,360.20704l-44.72018,5.01059l-8.57365,-76.52119l44.72018,-5.01058z" fill="#453d34" stroke="none" stroke-width="0" stroke-linecap="butt"/><path d="M39.30095,307.92714l-1.26251,4.58084l-7.53423,5.98431" fill="none" stroke="#8a2f00" stroke-width="3" stroke-linecap="round"/><path d="M23.13796,361.04769l-9.85673,-16.6531l5.35208,-7.70267l-6.4827,-20.87858" fill="none" stroke="#8a2f00" stroke-width="3" stroke-linecap="round"/><path d="M16.83948,328.60609l3.10468,-14.55384" fill="none" stroke="#8a2f00" stroke-width="3" stroke-linecap="round"/><path d="M28.41722,344.77042l11.26581,-5.10972l4.49238,11.03903" fill="none" stroke="#8a2f00" stroke-width="3" stroke-linecap="round"/><path d="M0.04402,289.64571l10.43642,11.26092" fill="none" stroke="#8a2f00" stroke-width="3" stroke-linecap="round"/><path d="M30.117,285.98028l-6.22404,13.1276" fill="none" stroke="#8a2f00" stroke-width="3" stroke-linecap="round"/><path d="M16.96646,290.11732l7.86396,4.1502" fill="none" stroke="#8a2f00" stroke-width="3" stroke-linecap="round"/><path d="M1.94837,311.92513l3.52796,-13.41742" fill="none" stroke="#8a2f00" stroke-width="3" stroke-linecap="round"/><path d="M9.10813,362.61965l-2.11642,-5.68203l-0.88422,-7.8918" fill="none" stroke="#8a2f00" stroke-width="3" stroke-linecap="round"/></g><g data-paper-data="{&quot;index&quot;:null}"><path d="M91.25519,356.19803l-44.72018,5.01059l-8.57365,-76.52119l44.72018,-5.01058z" fill="#453d34" stroke="none" stroke-width="0" stroke-linecap="butt"/><path d="M83.33999,303.91813l-1.26251,4.58084l-7.53423,5.98431" fill="none" stroke="#8a2f00" stroke-width="3" stroke-linecap="round"/><path d="M67.177,357.03868l-9.85673,-16.6531l5.35208,-7.70267l-6.4827,-20.87858" fill="none" stroke="#8a2f00" stroke-width="3" stroke-linecap="round"/><path d="M60.87852,324.59708l3.10468,-14.55384" fill="none" stroke="#8a2f00" stroke-width="3" stroke-linecap="round"/><path d="M72.45626,340.76141l11.26581,-5.10972l4.49238,11.03903" fill="none" stroke="#8a2f00" stroke-width="3" stroke-linecap="round"/><path d="M44.08306,285.6367l10.43642,11.26092" fill="none" stroke="#8a2f00" stroke-width="3" stroke-linecap="round"/><path d="M74.15604,281.97127l-6.22404,13.1276" fill="none" stroke="#8a2f00" stroke-width="3" stroke-linecap="round"/><path d="M61.0055,286.10831l7.86396,4.1502" fill="none" stroke="#8a2f00" stroke-width="3" stroke-linecap="round"/><path d="M45.98741,307.91612l3.52796,-13.41742" fill="none" stroke="#8a2f00" stroke-width="3" stroke-linecap="round"/><path d="M53.14717,358.61064l-2.11642,-5.68203l-0.88422,-7.8918" fill="none" stroke="#8a2f00" stroke-width="3" stroke-linecap="round"/></g><g data-paper-data="{&quot;index&quot;:null}"><path d="M120.27922,359.69652l-44.72018,5.01059l-8.57365,-76.52119l44.72018,-5.01058z" fill="#453d34" stroke="none" stroke-width="0" stroke-linecap="butt"/><path d="M112.36402,307.41662l-1.26251,4.58084l-7.53423,5.98431" fill="none" stroke="#8a2f00" stroke-width="3" stroke-linecap="round"/><path d="M96.20103,360.53717l-9.85673,-16.6531l5.35208,-7.70267l-6.4827,-20.87858" fill="none" stroke="#8a2f00" stroke-width="3" stroke-linecap="round"/><path d="M89.90255,328.09557l3.10468,-14.55384" fill="none" stroke="#8a2f00" stroke-width="3" stroke-linecap="round"/><path d="M101.48029,344.2599l11.26581,-5.10972l4.49238,11.03903" fill="none" stroke="#8a2f00" stroke-width="3" stroke-linecap="round"/><path d="M73.10709,289.13519l10.43642,11.26092" fill="none" stroke="#8a2f00" stroke-width="3" stroke-linecap="round"/><path d="M103.18007,285.46976l-6.22404,13.1276" fill="none" stroke="#8a2f00" stroke-width="3" stroke-linecap="round"/><path d="M90.02953,289.6068l7.86396,4.1502" fill="none" stroke="#8a2f00" stroke-width="3" stroke-linecap="round"/><path d="M75.01144,311.41461l3.52796,-13.41742" fill="none" stroke="#8a2f00" stroke-width="3" stroke-linecap="round"/><path d="M82.1712,362.10913l-2.11642,-5.68203l-0.88422,-7.8918" fill="none" stroke="#8a2f00" stroke-width="3" stroke-linecap="round"/></g><g data-paper-data="{&quot;index&quot;:null}"><path d="M164.31826,357.18902l-44.72018,5.01059l-8.57365,-76.52119l44.72018,-5.01058z" fill="#453d34" stroke="none" stroke-width="0" stroke-linecap="butt"/><path d="M156.40306,304.90912l-1.26251,4.58084l-7.53423,5.98431" fill="none" stroke="#8a2f00" stroke-width="3" stroke-linecap="round"/><path d="M140.24007,358.02967l-9.85673,-16.6531l5.35208,-7.70267l-6.4827,-20.87858" fill="none" stroke="#8a2f00" stroke-width="3" stroke-linecap="round"/><path d="M133.94159,325.58807l3.10468,-14.55384" fill="none" stroke="#8a2f00" stroke-width="3" stroke-linecap="round"/><path d="M145.51933,341.7524l11.26581,-5.10972l4.49238,11.03903" fill="none" stroke="#8a2f00" stroke-width="3" stroke-linecap="round"/><path d="M117.14613,286.62769l10.43642,11.26092" fill="none" stroke="#8a2f00" stroke-width="3" stroke-linecap="round"/><path d="M147.21911,282.96226l-6.22404,13.1276" fill="none" stroke="#8a2f00" stroke-width="3" stroke-linecap="round"/><path d="M134.06857,287.0993l7.86396,4.1502" fill="none" stroke="#8a2f00" stroke-width="3" stroke-linecap="round"/><path d="M119.05048,308.90711l3.52796,-13.41742" fill="none" stroke="#8a2f00" stroke-width="3" stroke-linecap="round"/><path d="M126.21024,359.60163l-2.11642,-5.68203l-0.88422,-7.8918" fill="none" stroke="#8a2f00" stroke-width="3" stroke-linecap="round"/></g><g data-paper-data="{&quot;index&quot;:null}"><path d="M160.22578,276.85284l42.78828,13.93427l-23.84311,73.21548l-42.78827,-13.93428z" fill="#453d34" stroke="none" stroke-width="0" stroke-linecap="butt"/><path d="M145.80935,327.72528l3.04409,-3.6485l9.33471,-2.33232" fill="none" stroke="#8a2f00" stroke-width="3" stroke-linecap="round"/><path d="M182.49569,286.04618l2.08645,19.2387l-8.05867,4.79935l-2.73312,21.69033" fill="none" stroke="#8a2f00" stroke-width="3" stroke-linecap="round"/><path d="M174.81239,318.18797l-8.84613,11.96659" fill="none" stroke="#8a2f00" stroke-width="3" stroke-linecap="round"/><path d="M170.95688,298.68247l-12.37043,-0.00733l0.4756,-11.90863" fill="none" stroke="#8a2f00" stroke-width="3" stroke-linecap="round"/><path d="M173.99001,360.60639l-4.84443,-14.5691" fill="none" stroke="#8a2f00" stroke-width="3" stroke-linecap="round"/><path d="M145.09377,351.50547l11.09629,-9.37789" fill="none" stroke="#8a2f00" stroke-width="3" stroke-linecap="round"/><path d="M158.77788,353.17791l-5.4433,-7.03111" fill="none" stroke="#8a2f00" stroke-width="3" stroke-linecap="round"/><path d="M181.47092,339.53425l-8.76149,10.75685" fill="none" stroke="#8a2f00" stroke-width="3" stroke-linecap="round"/><path d="M195.91944,290.41769l-0.42317,6.04861l-2.45899,7.55087" fill="none" stroke="#8a2f00" stroke-width="3" stroke-linecap="round"/></g><g data-paper-data="{&quot;index&quot;:null}"><path d="M175.11327,285.57426l44.8921,-3.11446l5.32916,76.81536l-44.8921,3.11445z" fill="#453d34" stroke="none" stroke-width="0" stroke-linecap="butt"/><path d="M180.80996,338.14218l1.45515,-4.52334l7.78062,-5.66026" fill="none" stroke="#8a2f00" stroke-width="3" stroke-linecap="round"/><path d="M199.20546,285.75287l9.14349,17.05513l-5.67311,7.46939l5.59374,21.13411" fill="none" stroke="#8a2f00" stroke-width="3" stroke-linecap="round"/><path d="M204.12604,318.43185l-3.71752,14.40948" fill="none" stroke="#8a2f00" stroke-width="3" stroke-linecap="round"/><path d="M193.24241,301.79225l-11.47187,4.62861l-4.02141,-11.21918" fill="none" stroke="#8a2f00" stroke-width="3" stroke-linecap="round"/><path d="M219.25845,358.06781l-9.95074,-11.6923" fill="none" stroke="#8a2f00" stroke-width="3" stroke-linecap="round"/><path d="M189.05734,360.45788l6.77376,-12.85258" fill="none" stroke="#8a2f00" stroke-width="3" stroke-linecap="round"/><path d="M202.37111,356.8808l-7.68137,-4.47913" fill="none" stroke="#8a2f00" stroke-width="3" stroke-linecap="round"/><path d="M218.29822,335.72777l-4.09236,13.25618" fill="none" stroke="#8a2f00" stroke-width="3" stroke-linecap="round"/><path d="M213.28923,284.77577l1.87418,5.76647l0.54961,7.92214" fill="none" stroke="#8a2f00" stroke-width="3" stroke-linecap="round"/></g><g data-paper-data="{&quot;index&quot;:null}"><path d="M219.15231,286.06976l44.8921,-3.11445l5.32916,76.81536l-44.8921,3.11444z" fill="#453d34" stroke="none" stroke-width="0" stroke-linecap="butt"/><path d="M224.849,338.63767l1.45515,-4.52334l7.78061,-5.66026" fill="none" stroke="#8a2f00" stroke-width="3" stroke-linecap="round"/><path d="M243.2445,286.24836l9.14349,17.05513l-5.67312,7.46939l5.59374,21.13411" fill="none" stroke="#8a2f00" stroke-width="3" stroke-linecap="round"/><path d="M248.16507,318.92735l-3.71752,14.40949" fill="none" stroke="#8a2f00" stroke-width="3" stroke-linecap="round"/><path d="M237.28145,302.28775l-11.47187,4.62861l-4.02141,-11.21918" fill="none" stroke="#8a2f00" stroke-width="3" stroke-linecap="round"/><path d="M263.29749,358.5633l-9.95074,-11.6923" fill="none" stroke="#8a2f00" stroke-width="3" stroke-linecap="round"/><path d="M233.09638,360.95337l6.77376,-12.85258" fill="none" stroke="#8a2f00" stroke-width="3" stroke-linecap="round"/><path d="M246.41015,357.3763l-7.68137,-4.47913" fill="none" stroke="#8a2f00" stroke-width="3" stroke-linecap="round"/><path d="M262.33726,336.22327l-4.09236,13.25618" fill="none" stroke="#8a2f00" stroke-width="3" stroke-linecap="round"/><path d="M257.32827,285.27126l1.87418,5.76647l0.54961,7.92213" fill="none" stroke="#8a2f00" stroke-width="3" stroke-linecap="round"/></g><g data-paper-data="{&quot;index&quot;:null}"><path d="M262.69585,287.57126l44.8921,-3.11446l5.32916,76.81536l-44.89211,3.11445z" fill="#453d34" stroke="none" stroke-width="0" stroke-linecap="butt"/><path d="M268.39254,340.13918l1.45515,-4.52333l7.78062,-5.66026" fill="none" stroke="#8a2f00" stroke-width="3" stroke-linecap="round"/><path d="M286.78805,287.74986l9.14349,17.05513l-5.67311,7.46938l5.59374,21.13412" fill="none" stroke="#8a2f00" stroke-width="3" stroke-linecap="round"/><path d="M291.70862,320.42885l-3.71752,14.40948" fill="none" stroke="#8a2f00" stroke-width="3" stroke-linecap="round"/><path d="M280.82499,303.78925l-11.47187,4.6286l-4.02141,-11.21918" fill="none" stroke="#8a2f00" stroke-width="3" stroke-linecap="round"/><path d="M306.84104,360.0648l-9.95074,-11.6923" fill="none" stroke="#8a2f00" stroke-width="3" stroke-linecap="round"/><path d="M276.63993,362.45488l6.77376,-12.85258" fill="none" stroke="#8a2f00" stroke-width="3" stroke-linecap="round"/><path d="M289.95369,358.8778l-7.68137,-4.47913" fill="none" stroke="#8a2f00" stroke-width="3" stroke-linecap="round"/><path d="M305.88081,337.72477l-4.09236,13.25618" fill="none" stroke="#8a2f00" stroke-width="3" stroke-linecap="round"/><path d="M300.87181,286.77277l1.87418,5.76647l0.54961,7.92214" fill="none" stroke="#8a2f00" stroke-width="3" stroke-linecap="round"/></g><g data-paper-data="{&quot;index&quot;:null}"><path d="M306.73489,285.06375l44.89209,-3.11446l5.32916,76.81536l-44.8921,3.11445z" fill="#453d34" stroke="none" stroke-width="0" stroke-linecap="butt"/><path d="M312.43158,337.63167l1.45515,-4.52334l7.78062,-5.66026" fill="none" stroke="#8a2f00" stroke-width="3" stroke-linecap="round"/><path d="M330.82709,285.24235l9.14349,17.05513l-5.67311,7.46939l5.59374,21.13411" fill="none" stroke="#8a2f00" stroke-width="3" stroke-linecap="round"/><path d="M335.74766,317.92134l-3.71752,14.40948" fill="none" stroke="#8a2f00" stroke-width="3" stroke-linecap="round"/><path d="M324.86403,301.28174l-11.47186,4.6286l-4.02142,-11.21917" fill="none" stroke="#8a2f00" stroke-width="3" stroke-linecap="round"/><path d="M350.88008,357.55729l-9.95075,-11.6923" fill="none" stroke="#8a2f00" stroke-width="3" stroke-linecap="round"/><path d="M320.67897,359.94737l6.77376,-12.85259" fill="none" stroke="#8a2f00" stroke-width="3" stroke-linecap="round"/><path d="M333.99273,356.37029l-7.68137,-4.47913" fill="none" stroke="#8a2f00" stroke-width="3" stroke-linecap="round"/><path d="M349.91985,335.21726l-4.09236,13.25619" fill="none" stroke="#8a2f00" stroke-width="3" stroke-linecap="round"/><path d="M344.91085,284.26526l1.87418,5.76647l0.54961,7.92213" fill="none" stroke="#8a2f00" stroke-width="3" stroke-linecap="round"/></g><g data-paper-data="{&quot;index&quot;:null}"><path d="M358.03176,260.84279l44.19539,8.47155l-14.4958,75.62322l-44.1954,-8.47157z" fill="#453d34" stroke="none" stroke-width="0" stroke-linecap="butt"/><path d="M350.09322,313.11915l2.56372,-4.00067l8.96957,-3.48186" fill="none" stroke="#8a2f00" stroke-width="3" stroke-linecap="round"/><path d="M381.27686,267.17771l4.47701,18.8265l-7.39491,5.76986l0.00202,21.86186" fill="none" stroke="#8a2f00" stroke-width="3" stroke-linecap="round"/><path d="M377.67518,300.02822l-7.27949,12.9793" fill="none" stroke="#8a2f00" stroke-width="3" stroke-linecap="round"/><path d="M371.40963,281.15834l-12.27416,1.54039l-1.01803,-11.87456" fill="none" stroke="#8a2f00" stroke-width="3" stroke-linecap="round"/><path d="M382.16622,342.21624l-6.6291,-13.84854" fill="none" stroke="#8a2f00" stroke-width="3" stroke-linecap="round"/><path d="M352.3584,336.80203l9.83584,-10.69247" fill="none" stroke="#8a2f00" stroke-width="3" stroke-linecap="round"/><path d="M366.14423,336.74932l-6.28019,-6.29486" fill="none" stroke="#8a2f00" stroke-width="3" stroke-linecap="round"/><path d="M386.95202,320.37373l-7.34687,11.76849" fill="none" stroke="#8a2f00" stroke-width="3" stroke-linecap="round"/><path d="M395.14205,269.83543l0.3369,6.05403l-1.49498,7.79919" fill="none" stroke="#8a2f00" stroke-width="3" stroke-linecap="round"/></g><g data-paper-data="{&quot;index&quot;:null}"><path d="M397.79568,270.07285l44.9803,-1.33162l2.27853,76.96628l-44.9803,1.33162z" fill="#453d34" stroke="none" stroke-width="0" stroke-linecap="butt"/><path d="M401.40309,322.82534l1.6334,-4.46207l7.99898,-5.34723" fill="none" stroke="#8a2f00" stroke-width="3" stroke-linecap="round"/><path d="M421.86184,271.20679l8.45991,17.40434l-5.96489,7.23852l4.75118,21.33934" fill="none" stroke="#8a2f00" stroke-width="3" stroke-linecap="round"/><path d="M425.48252,304.05521l-4.28606,14.25071" fill="none" stroke="#8a2f00" stroke-width="3" stroke-linecap="round"/><path d="M415.26737,286.99707l-11.64641,4.17l-3.57331,-11.36983" fill="none" stroke="#8a2f00" stroke-width="3" stroke-linecap="round"/><path d="M439.0311,344.26012l-9.47921,-12.07774" fill="none" stroke="#8a2f00" stroke-width="3" stroke-linecap="round"/><path d="M408.75896,345.45056l7.27816,-12.57383" fill="none" stroke="#8a2f00" stroke-width="3" stroke-linecap="round"/><path d="M422.20412,342.40432l-7.49769,-4.78025" fill="none" stroke="#8a2f00" stroke-width="3" stroke-linecap="round"/><path d="M438.95762,321.89958l-4.61487,13.08346" fill="none" stroke="#8a2f00" stroke-width="3" stroke-linecap="round"/><path d="M435.97328,270.78901l1.64401,5.83627l0.23499,7.9377" fill="none" stroke="#8a2f00" stroke-width="3" stroke-linecap="round"/></g><g data-paper-data="{&quot;index&quot;:null}"><path d="M437.33022,269.06684l44.9803,-1.33162l2.27853,76.96628l-44.9803,1.33161z" fill="#453d34" stroke="none" stroke-width="0" stroke-linecap="butt"/><path d="M440.93762,321.81933l1.6334,-4.46206l7.99898,-5.34723" fill="none" stroke="#8a2f00" stroke-width="3" stroke-linecap="round"/><path d="M461.39638,270.20078l8.4599,17.40434l-5.96488,7.23852l4.75117,21.33934" fill="none" stroke="#8a2f00" stroke-width="3" stroke-linecap="round"/><path d="M465.01705,303.04921l-4.28607,14.25071" fill="none" stroke="#8a2f00" stroke-width="3" stroke-linecap="round"/><path d="M454.8019,285.99106l-11.64641,4.17l-3.57331,-11.36983" fill="none" stroke="#8a2f00" stroke-width="3" stroke-linecap="round"/><path d="M478.56563,343.25412l-9.4792,-12.07774" fill="none" stroke="#8a2f00" stroke-width="3" stroke-linecap="round"/><path d="M448.2935,344.44456l7.27816,-12.57383" fill="none" stroke="#8a2f00" stroke-width="3" stroke-linecap="round"/><path d="M461.73865,341.39831l-7.49769,-4.78025" fill="none" stroke="#8a2f00" stroke-width="3" stroke-linecap="round"/><path d="M478.49215,320.89357l-4.61486,13.08346" fill="none" stroke="#8a2f00" stroke-width="3" stroke-linecap="round"/><path d="M475.50781,269.78301l1.64401,5.83626l0.23499,7.9377" fill="none" stroke="#8a2f00" stroke-width="3" stroke-linecap="round"/></g><g data-paper-data="{&quot;index&quot;:null}"><path d="M380.76866,290.58336l44.9803,-1.33163l2.27853,76.96629l-44.9803,1.33161z" fill="#453d34" stroke="none" stroke-width="0" stroke-linecap="butt"/><path d="M384.37606,343.33584l1.63339,-4.46206l7.99898,-5.34723" fill="none" stroke="#8a2f00" stroke-width="3" stroke-linecap="round"/><path d="M404.83482,291.7173l8.4599,17.40434l-5.96489,7.23852l4.75118,21.33934" fill="none" stroke="#8a2f00" stroke-width="3" stroke-linecap="round"/><path d="M408.45549,324.56572l-4.28607,14.25071" fill="none" stroke="#8a2f00" stroke-width="3" stroke-linecap="round"/><path d="M398.24034,307.50758l-11.6464,4.17l-3.57331,-11.36984" fill="none" stroke="#8a2f00" stroke-width="3" stroke-linecap="round"/><path d="M422.00407,364.77063l-9.4792,-12.07774" fill="none" stroke="#8a2f00" stroke-width="3" stroke-linecap="round"/><path d="M391.73194,365.96107l7.27816,-12.57383" fill="none" stroke="#8a2f00" stroke-width="3" stroke-linecap="round"/><path d="M405.17709,362.91483l-7.49769,-4.78025" fill="none" stroke="#8a2f00" stroke-width="3" stroke-linecap="round"/><path d="M421.93059,342.41009l-4.61487,13.08346" fill="none" stroke="#8a2f00" stroke-width="3" stroke-linecap="round"/><path d="M418.94625,291.29952l1.64401,5.83626l0.235,7.9377" fill="none" stroke="#8a2f00" stroke-width="3" stroke-linecap="round"/></g><g data-paper-data="{&quot;index&quot;:null}"><path d="M337.72061,285.07284l44.9803,-1.33162l2.27853,76.96628l-44.9803,1.33161z" fill="#453d34" stroke="none" stroke-width="0" stroke-linecap="butt"/><path d="M341.32802,337.82533l1.6334,-4.46206l7.99898,-5.34723" fill="none" stroke="#8a2f00" stroke-width="3" stroke-linecap="round"/><path d="M361.78677,286.20678l8.45991,17.40434l-5.96489,7.23852l4.75117,21.33934" fill="none" stroke="#8a2f00" stroke-width="3" stroke-linecap="round"/><path d="M365.40745,319.05521l-4.28607,14.25071" fill="none" stroke="#8a2f00" stroke-width="3" stroke-linecap="round"/><path d="M355.1923,301.99706l-11.64641,4.17l-3.5733,-11.36983" fill="none" stroke="#8a2f00" stroke-width="3" stroke-linecap="round"/><path d="M378.95603,359.26012l-9.4792,-12.07774" fill="none" stroke="#8a2f00" stroke-width="3" stroke-linecap="round"/><path d="M348.68389,360.45056l7.27815,-12.57383" fill="none" stroke="#8a2f00" stroke-width="3" stroke-linecap="round"/><path d="M362.12905,357.40431l-7.49769,-4.78025" fill="none" stroke="#8a2f00" stroke-width="3" stroke-linecap="round"/><path d="M378.88254,336.89957l-4.61487,13.08346" fill="none" stroke="#8a2f00" stroke-width="3" stroke-linecap="round"/><path d="M375.89821,285.78901l1.64401,5.83627l0.235,7.9377" fill="none" stroke="#8a2f00" stroke-width="3" stroke-linecap="round"/></g><g data-paper-data="{&quot;index&quot;:null}"><path d="M417.38211,375.59754l-6.96508,-44.45771l76.07209,-11.91799l6.96507,44.45772z" fill="#453d34" stroke="none" stroke-width="0" stroke-linecap="butt"/><path d="M469.26502,365.39944l-4.63175,-1.0606l-6.30865,-7.26481" fill="none" stroke="#8a2f00" stroke-width="3" stroke-linecap="round"/><path d="M415.48735,351.5793l16.20526,-10.57688l7.92976,5.00948l20.57452,-7.39121" fill="none" stroke="#8a2f00" stroke-width="3" stroke-linecap="round"/><path d="M447.62185,343.86553l14.67588,2.46406" fill="none" stroke="#8a2f00" stroke-width="3" stroke-linecap="round"/><path d="M431.98028,356.14035l5.59839,11.03112l-10.83161,4.97171" fill="none" stroke="#8a2f00" stroke-width="3" stroke-linecap="round"/><path d="M485.80897,325.37925l-10.79287,10.91976" fill="none" stroke="#8a2f00" stroke-width="3" stroke-linecap="round"/><path d="M490.78845,355.26276l-13.38769,-5.64291" fill="none" stroke="#8a2f00" stroke-width="3" stroke-linecap="round"/><path d="M486.07922,342.3061l-3.80168,8.03824" fill="none" stroke="#8a2f00" stroke-width="3" stroke-linecap="round"/><path d="M463.63437,328.25789l13.55911,2.93672" fill="none" stroke="#8a2f00" stroke-width="3" stroke-linecap="round"/><path d="M413.30222,337.63182l5.58385,-2.36333l7.84547,-1.22913" fill="none" stroke="#8a2f00" stroke-width="3" stroke-linecap="round"/></g><path d="M330.29044,257.74378v32.48048c0,0 -116.43735,0 -174.54827,0c-57.96765,0 -173.68842,0 -173.68842,0v-32.48048z" data-paper-data="{&quot;index&quot;:null}" fill="#676767" stroke="none" stroke-width="0" stroke-linecap="butt"/><path d="M-17.56519,190.35046v-32.48048c0,0 115.53354,0 173.40741,0c58.0169,0 174.26586,0 174.26586,0v32.48048z" fill="#676767" stroke="none" stroke-width="0" stroke-linecap="butt"/><path d="M329.73486,160.39971h32.48048c0,0 0,43.29182 0,64.89767c0,21.55258 0,64.57797 0,64.57797h-32.48048z" data-paper-data="{&quot;index&quot;:null}" fill="#676767" stroke="none" stroke-width="0" stroke-linecap="butt"/><path d="M335.94697,263.9155v-79.12933" data-paper-data="{&quot;index&quot;:null}" fill="none" stroke="#444444" stroke-width="2" stroke-linecap="round"/><path d="M342.54397,177.8194v93.59878" data-paper-data="{&quot;index&quot;:null}" fill="none" stroke="#444444" stroke-width="2" stroke-linecap="round"/><path d="M349.51599,170.85261v106.46052" data-paper-data="{&quot;index&quot;:null}" fill="none" stroke="#444444" stroke-width="2" stroke-linecap="round"/><path d="M355.12875,157.60931h7.05842v132.03722h-7.05842z" data-paper-data="{&quot;index&quot;:null}" fill="#c6c6c6" stroke="none" stroke-width="0" stroke-linecap="butt"/><path d="M-16.96465,164.95657v-7.05842h375.93128v7.05842z" fill="#c6c6c6" stroke="none" stroke-width="0" stroke-linecap="butt"/><path d="M362.14929,283.13767v7.05842h-379.49403v-7.05842z" data-paper-data="{&quot;index&quot;:null}" fill="#c6c6c6" stroke="none" stroke-width="0" stroke-linecap="butt"/><path d="M-11.31907,170.56933h359.769" fill="none" stroke="#444444" stroke-width="2" stroke-linecap="round"/><path d="M-11.3191,177.54135h352.80222" fill="none" stroke="#444444" stroke-width="2" stroke-linecap="round"/><path d="M335.05225,184.13835h-346.37135" fill="none" stroke="#444444" stroke-width="2" stroke-linecap="round"/><path d="M349.69473,277.52491h-361.38474" data-paper-data="{&quot;index&quot;:null}" fill="none" stroke="#444444" stroke-width="2" stroke-linecap="round"/><path d="M342.19202,270.55289h-353.88206" data-paper-data="{&quot;index&quot;:null}" fill="none" stroke="#444444" stroke-width="2" stroke-linecap="round"/><path d="M335.76116,263.95589h-347.4512" data-paper-data="{&quot;index&quot;:null}" fill="none" stroke="#444444" stroke-width="2" stroke-linecap="round"/></g></g></svg>