<svg version="1.1" xmlns="http://www.w3.org/2000/svg" xmlns:xlink="http://www.w3.org/1999/xlink" width="545.63789" height="469.1568" viewBox="0,0,545.63789,469.1568"><g transform="translate(18.07668,66.59602)"><g data-paper-data="{&quot;isPaintingLayer&quot;:true}" fill-rule="nonzero" stroke-linejoin="miter" stroke-miterlimit="10" stroke-dasharray="" stroke-dashoffset="0" style="mix-blend-mode: normal"><g><path d="M153.22615,325.68745l-37.5789,-24.75531l42.35912,-64.30169l37.57891,24.75533z" fill="#453d34" stroke="none" stroke-width="0" stroke-linecap="butt"/><path d="M180.58468,280.43981l-3.90068,2.71342l-9.61917,-0.2197" fill="none" stroke="#8a2f00" stroke-width="3" stroke-linecap="round"/><path d="M134.18092,310.93124l3.0764,-19.10541l9.04108,-2.49696l8.37277,-20.19499" fill="none" stroke="#8a2f00" stroke-width="3" stroke-linecap="round"/><path d="M161.78816,272.76564l-11.69621,9.20067" fill="none" stroke="#8a2f00" stroke-width="3" stroke-linecap="round"/><path d="M148.65104,301.79692l11.92795,3.27901l-3.60844,11.35872" fill="none" stroke="#8a2f00" stroke-width="3" stroke-linecap="round"/><path d="M162.92296,256.60762l-0.81845,-15.33157" fill="none" stroke="#8a2f00" stroke-width="3" stroke-linecap="round"/><path d="M187.56452,257.69577l-13.18152,6.109" fill="none" stroke="#8a2f00" stroke-width="3" stroke-linecap="round"/><path d="M178.19984,260.68394l-3.38976,-8.22042" fill="none" stroke="#8a2f00" stroke-width="3" stroke-linecap="round"/><path d="M160.61114,251.56268l-11.29461,8.0564" fill="none" stroke="#8a2f00" stroke-width="3" stroke-linecap="round"/><path d="M122.39147,303.16486l2.00791,-5.72128l4.36859,-6.63156" fill="none" stroke="#8a2f00" stroke-width="3" stroke-linecap="round"/></g><g><path d="M107.00292,36.52198l-43.89538,9.90936l-16.95601,-75.10989l43.8954,-9.90936z" fill="#453d34" stroke="none" stroke-width="0" stroke-linecap="butt"/><path d="M93.37337,-14.56689l-0.74988,4.69208l-6.82869,6.77832" fill="none" stroke="#8a2f00" stroke-width="3" stroke-linecap="round"/><path d="M83.16409,40.01156l-11.63227,-15.46517l4.47044,-8.24567l-8.74456,-20.03681" fill="none" stroke="#8a2f00" stroke-width="3" stroke-linecap="round"/><path d="M74.80967,-6.3455l-1.48156,14.80738" fill="none" stroke="#8a2f00" stroke-width="3" stroke-linecap="round"/><path d="M86.61702,23.25156l10.63395,-6.32035l5.68178,10.47658" fill="none" stroke="#8a2f00" stroke-width="3" stroke-linecap="round"/><path d="M52.34056,-28.40981l11.61406,10.04194" fill="none" stroke="#8a2f00" stroke-width="3" stroke-linecap="round"/><path d="M81.82627,-35.36772l-4.73911,13.73365" fill="none" stroke="#8a2f00" stroke-width="3" stroke-linecap="round"/><path d="M77.48536,-26.54826l-8.27349,-3.25809" fill="none" stroke="#8a2f00" stroke-width="3" stroke-linecap="round"/><path d="M56.68907,-6.47605l2.02752,-13.72454" fill="none" stroke="#8a2f00" stroke-width="3" stroke-linecap="round"/><path d="M69.393,43.12036l-2.72984,-5.41412l-1.7487,-7.74624" fill="none" stroke="#8a2f00" stroke-width="3" stroke-linecap="round"/></g><g><path d="M438.28735,-38.67639l40.537,-13.82261l23.0003,69.45532l-40.53699,13.82262z" fill="#453d34" stroke="none" stroke-width="0" stroke-linecap="butt"/><path d="M455.91178,8.35459l0.27187,-4.52155l5.8192,-7.11226" fill="none" stroke="#8a2f00" stroke-width="3" stroke-linecap="round"/><path d="M460.47823,-44.39048l12.42486,13.47866l-3.45539,8.26441l10.12264,18.10202" fill="none" stroke="#8a2f00" stroke-width="3" stroke-linecap="round"/><path d="M472.68033,-1.31021l0.02215,-14.17985" fill="none" stroke="#8a2f00" stroke-width="3" stroke-linecap="round"/><path d="M458.77576,-28.16137l-9.45578,7.06263l-6.34075,-9.35289" fill="none" stroke="#8a2f00" stroke-width="3" stroke-linecap="round"/><path d="M484.05088,8.98485l11.90328,8.34192" fill="none" stroke="#8a2f00" stroke-width="3" stroke-linecap="round"/><path d="M468.75243,26.8975l3.19873,-13.49151" fill="none" stroke="#8a2f00" stroke-width="3" stroke-linecap="round"/><path d="M472.0321,18.10249l8.11723,2.2515" fill="none" stroke="#8a2f00" stroke-width="3" stroke-linecap="round"/><path d="M489.16862,10.19237l0.63851,-13.20898" fill="none" stroke="#8a2f00" stroke-width="3" stroke-linecap="round"/><path d="M473.1957,-48.72699l3.08184,4.85426l2.37207,7.16308" fill="none" stroke="#8a2f00" stroke-width="3" stroke-linecap="round"/></g><g><path d="M84.12902,60.418l-43.68547,10.79719l-18.47518,-74.75072l43.68549,-10.79719z" fill="#453d34" stroke="none" stroke-width="0" stroke-linecap="butt"/><path d="M69.46658,9.61593l-0.65461,4.70632l-6.68987,6.91536" fill="none" stroke="#8a2f00" stroke-width="3" stroke-linecap="round"/><path d="M60.36583,64.39013l-11.9434,-15.22618l4.30236,-8.3346l-9.14896,-19.85542" fill="none" stroke="#8a2f00" stroke-width="3" stroke-linecap="round"/><path d="M51.07336,18.21196l-1.18107,14.83437" fill="none" stroke="#8a2f00" stroke-width="3" stroke-linecap="round"/><path d="M63.47829,47.56358l10.50364,-6.53463l5.893,10.35924" fill="none" stroke="#8a2f00" stroke-width="3" stroke-linecap="round"/><path d="M28.16157,-3.39231l11.81525,9.80443" fill="none" stroke="#8a2f00" stroke-width="3" stroke-linecap="round"/><path d="M57.50017,-10.94654l-4.45972,13.8269" fill="none" stroke="#8a2f00" stroke-width="3" stroke-linecap="round"/><path d="M53.33894,-2.04089l-8.33784,-3.0897" fill="none" stroke="#8a2f00" stroke-width="3" stroke-linecap="round"/><path d="M34.70271,4.68596l-1.74887,13.76282" fill="none" stroke="#8a2f00" stroke-width="3" stroke-linecap="round"/><path d="M46.66059,67.77747l-2.83904,-5.35767l-1.90538,-7.7092" fill="none" stroke="#8a2f00" stroke-width="3" stroke-linecap="round"/></g><g><path d="M44.08397,65.418l-43.68547,10.79718l-18.47518,-74.75071l43.68549,-10.79718z" fill="#453d34" stroke="none" stroke-width="0" stroke-linecap="butt"/><path d="M29.42153,14.61593l-0.65461,4.70632l-6.68988,6.91536" fill="none" stroke="#8a2f00" stroke-width="3" stroke-linecap="round"/><path d="M20.32078,69.39013l-11.9434,-15.22617l4.30236,-8.33461l-9.14896,-19.85542" fill="none" stroke="#8a2f00" stroke-width="3" stroke-linecap="round"/><path d="M11.02831,23.21196l-1.18107,14.83437" fill="none" stroke="#8a2f00" stroke-width="3" stroke-linecap="round"/><path d="M23.43324,52.56358l10.50364,-6.53462l5.893,10.35925" fill="none" stroke="#8a2f00" stroke-width="3" stroke-linecap="round"/><path d="M-11.88348,1.60769l11.81525,9.80443" fill="none" stroke="#8a2f00" stroke-width="3" stroke-linecap="round"/><path d="M17.45512,-5.94654l-4.45973,13.8269" fill="none" stroke="#8a2f00" stroke-width="3" stroke-linecap="round"/><path d="M13.29389,2.95911l-8.33784,-3.08969" fill="none" stroke="#8a2f00" stroke-width="3" stroke-linecap="round"/><path d="M-5.34234,9.68597l-1.74888,13.76282" fill="none" stroke="#8a2f00" stroke-width="3" stroke-linecap="round"/><path d="M6.61554,72.77747l-2.83904,-5.35766l-1.90537,-7.7092" fill="none" stroke="#8a2f00" stroke-width="3" stroke-linecap="round"/></g><g><path d="M36.44334,137.60125l-44.76349,-4.60759l7.8841,-76.59532l44.7635,4.60759z" fill="#453d34" stroke="none" stroke-width="0" stroke-linecap="butt"/><path d="M39.81921,84.83344l-2.20716,4.2079l-8.63389,4.24649" fill="none" stroke="#8a2f00" stroke-width="3" stroke-linecap="round"/><path d="M12.73648,133.30572l-6.09254,-18.36742l6.86676,-6.38933l-1.89761,-21.77935" fill="none" stroke="#8a2f00" stroke-width="3" stroke-linecap="round"/><path d="M19.6029,86.70502l-6.12668,13.56161" fill="none" stroke="#8a2f00" stroke-width="3" stroke-linecap="round"/><path d="M21.35432,118.52218l12.09437,-2.59883l2.0438,11.74156" fill="none" stroke="#8a2f00" stroke-width="3" stroke-linecap="round"/><path d="M5.34408,58.6269l7.80491,13.22159" fill="none" stroke="#8a2f00" stroke-width="3" stroke-linecap="round"/><path d="M35.50909,61.43616l-8.87168,11.50503" fill="none" stroke="#8a2f00" stroke-width="3" stroke-linecap="round"/><path d="M28.58209,68.41062l-6.80234,-5.7266" fill="none" stroke="#8a2f00" stroke-width="3" stroke-linecap="round"/><path d="M8.76899,68.44092l-6.29878,12.36119" fill="none" stroke="#8a2f00" stroke-width="3" stroke-linecap="round"/><path d="M-1.30696,131.86019l-0.86057,-6.00201l0.81311,-7.89943" fill="none" stroke="#8a2f00" stroke-width="3" stroke-linecap="round"/></g><g><path d="M40.25544,196.5982l-44.77148,4.5293l-7.75013,-76.60899l44.7715,-4.5293z" fill="#453d34" stroke="none" stroke-width="0" stroke-linecap="butt"/><path d="M32.903,144.2362l-1.31169,4.56699l-7.59815,5.90294" fill="none" stroke="#8a2f00" stroke-width="3" stroke-linecap="round"/><path d="M16.16958,197.17984l-9.67705,-16.75816l5.43462,-7.64466l-6.25777,-20.94711" fill="none" stroke="#8a2f00" stroke-width="3" stroke-linecap="round"/><path d="M13.48145,150.15275l-3.26104,14.51962" fill="none" stroke="#8a2f00" stroke-width="3" stroke-linecap="round"/><path d="M21.62362,180.96029l11.32012,-4.98824l4.37338,11.0867" fill="none" stroke="#8a2f00" stroke-width="3" stroke-linecap="round"/><path d="M4.15965,136.9061l-10.31469,-11.37251" fill="none" stroke="#8a2f00" stroke-width="3" stroke-linecap="round"/><path d="M23.95563,122.19182l-6.36487,13.05989" fill="none" stroke="#8a2f00" stroke-width="3" stroke-linecap="round"/><path d="M18.58021,130.42172l-7.81886,-4.23453" fill="none" stroke="#8a2f00" stroke-width="3" stroke-linecap="round"/><path d="M-0.81836,134.45351l-3.67207,13.3787" fill="none" stroke="#8a2f00" stroke-width="3" stroke-linecap="round"/><path d="M2.12364,198.60078l-2.05519,-5.70446l-0.79928,-7.90085" fill="none" stroke="#8a2f00" stroke-width="3" stroke-linecap="round"/></g><g><path d="M33.76441,361.92648l-44.8491,-3.68213l6.30055,-76.74181l44.84911,3.68214z" fill="#453d34" stroke="none" stroke-width="0" stroke-linecap="butt"/><path d="M36.04978,309.10021l-2.11978,4.25258l-8.54434,4.4239" fill="none" stroke="#8a2f00" stroke-width="3" stroke-linecap="round"/><path d="M9.97389,358.12147l-6.47057,-18.23767l6.73334,-6.52978l-2.347,-21.73552" fill="none" stroke="#8a2f00" stroke-width="3" stroke-linecap="round"/><path d="M15.87644,311.38891l-5.84529,13.68525" fill="none" stroke="#8a2f00" stroke-width="3" stroke-linecap="round"/><path d="M18.28458,343.16311l12.03812,-2.84805l2.28585,11.69685" fill="none" stroke="#8a2f00" stroke-width="3" stroke-linecap="round"/><path d="M1.04077,283.61125l8.0763,13.05757" fill="none" stroke="#8a2f00" stroke-width="3" stroke-linecap="round"/><path d="M31.25737,285.79694l-8.63218,11.68579" fill="none" stroke="#8a2f00" stroke-width="3" stroke-linecap="round"/><path d="M24.47588,292.91296l-6.91916,-5.58489" fill="none" stroke="#8a2f00" stroke-width="3" stroke-linecap="round"/><path d="M4.66764,293.35245l-6.04215,12.48865" fill="none" stroke="#8a2f00" stroke-width="3" stroke-linecap="round"/><path d="M-4.09641,356.96628l-0.98434,-5.98296l0.6498,-7.91454" fill="none" stroke="#8a2f00" stroke-width="3" stroke-linecap="round"/></g><g><path d="M138.14941,376.04687l-43.12092,-12.868l22.01859,-73.78472l43.12094,12.86801z" fill="#453d34" stroke="none" stroke-width="0" stroke-linecap="butt"/><path d="M151.29877,324.8323l-2.95259,3.72292l-9.27395,2.56331" fill="none" stroke="#8a2f00" stroke-width="3" stroke-linecap="round"/><path d="M115.65817,367.4091l-2.5633,-19.18099l7.93707,-4.99789l2.19393,-21.7515" fill="none" stroke="#8a2f00" stroke-width="3" stroke-linecap="round"/><path d="M131.08779,322.90405l-8.54641,12.18247" fill="none" stroke="#8a2f00" stroke-width="3" stroke-linecap="round"/><path d="M126.87981,354.49031l12.36681,-0.29968l-0.17989,11.91675" fill="none" stroke="#8a2f00" stroke-width="3" stroke-linecap="round"/><path d="M122.3107,292.66074l5.20454,14.44437" fill="none" stroke="#8a2f00" stroke-width="3" stroke-linecap="round"/><path d="M151.42392,301.04167l-10.86011,9.6504" fill="none" stroke="#8a2f00" stroke-width="3" stroke-linecap="round"/><path d="M143.31864,306.60322l-5.61613,-6.89383" fill="none" stroke="#8a2f00" stroke-width="3" stroke-linecap="round"/><path d="M123.84691,302.94107l-8.49182,10.971" fill="none" stroke="#8a2f00" stroke-width="3" stroke-linecap="round"/><path d="M102.13005,363.37207l0.2729,-6.05725l2.27083,-7.60957" fill="none" stroke="#8a2f00" stroke-width="3" stroke-linecap="round"/></g><g><path d="M160.89292,314.78168l-44.99931,-0.24659l0.42197,-76.99886l44.99934,0.2466z" fill="#453d34" stroke="none" stroke-width="0" stroke-linecap="butt"/><path d="M159.13768,261.93514l-1.78885,4.40203l-8.18157,5.06345" fill="none" stroke="#8a2f00" stroke-width="3" stroke-linecap="round"/><path d="M136.88131,312.80448l-7.84435,-17.69031l6.21506,-7.02489l-3.99992,-21.49282" fill="none" stroke="#8a2f00" stroke-width="3" stroke-linecap="round"/><path d="M139.19802,265.75764l-4.78319,14.09166" fill="none" stroke="#8a2f00" stroke-width="3" stroke-linecap="round"/><path d="M144.02548,297.25517l11.78549,-3.759l3.17237,11.48814" fill="none" stroke="#8a2f00" stroke-width="3" stroke-linecap="round"/><path d="M122.2845,239.19398l9.04983,12.40273" fill="none" stroke="#8a2f00" stroke-width="3" stroke-linecap="round"/><path d="M152.57978,239.06588l-7.71462,12.31084" fill="none" stroke="#8a2f00" stroke-width="3" stroke-linecap="round"/><path d="M146.36149,246.67897l-7.32544,-5.04022" fill="none" stroke="#8a2f00" stroke-width="3" stroke-linecap="round"/><path d="M126.64464,248.62978l-5.07084,12.91357" fill="none" stroke="#8a2f00" stroke-width="3" stroke-linecap="round"/><path d="M122.76389,312.72711l-1.43834,-5.89032l0.04353,-7.94105" fill="none" stroke="#8a2f00" stroke-width="3" stroke-linecap="round"/></g><g><path d="M196.07275,365.42101l-40.15669,20.3086l-34.75027,-68.7126l40.15671,-20.3086z" fill="#453d34" stroke="none" stroke-width="0" stroke-linecap="butt"/><path d="M170.40295,319.19441l0.41627,4.73335l-4.97078,8.2382" fill="none" stroke="#8a2f00" stroke-width="3" stroke-linecap="round"/><path d="M173.80321,374.61529l-15.05063,-12.16385l2.32603,-9.08656l-13.36419,-17.30143" fill="none" stroke="#8a2f00" stroke-width="3" stroke-linecap="round"/><path d="M154.40272,331.69218l2.17192,14.72197" fill="none" stroke="#8a2f00" stroke-width="3" stroke-linecap="round"/><path d="M173.06733,357.51913l8.77292,-8.72145l8.06377,8.77593" fill="none" stroke="#8a2f00" stroke-width="3" stroke-linecap="round"/><path d="M127.23368,315.76929l13.71125,6.90859" fill="none" stroke="#8a2f00" stroke-width="3" stroke-linecap="round"/><path d="M154.13454,301.83502l-1.24909,14.47453" fill="none" stroke="#8a2f00" stroke-width="3" stroke-linecap="round"/><path d="M152.07396,311.44649l-8.81807,-1.14345" fill="none" stroke="#8a2f00" stroke-width="3" stroke-linecap="round"/><path d="M135.41818,322.17703l1.37852,13.80483" fill="none" stroke="#8a2f00" stroke-width="3" stroke-linecap="round"/><path d="M161.20504,380.9866l-3.96704,-4.58556l-3.58386,-7.08648" fill="none" stroke="#8a2f00" stroke-width="3" stroke-linecap="round"/></g><g data-paper-data="{&quot;index&quot;:null}"><path d="M274.66425,290.05898l43.88024,-11.38509l17.07049,85.68715l-43.88022,11.38507z" fill="#453d34" stroke="none" stroke-width="0" stroke-linecap="butt"/><path d="M293.79733,324.51633l-9.08327,-3.62162l-2.69886,-4.46303" fill="none" stroke="#8a2f00" stroke-width="3" stroke-linecap="round"/><path d="M310.24883,314.74033l0.74473,24.93466l7.58768,6.29256l-3.83131,21.64713" fill="none" stroke="#8a2f00" stroke-width="3" stroke-linecap="round"/><path d="M302.30962,315.76757l7.7186,14.51981" fill="none" stroke="#8a2f00" stroke-width="3" stroke-linecap="round"/><path d="M291.47947,364.35852l0.61181,-13.58323l12.31962,1.2784" fill="none" stroke="#8a2f00" stroke-width="3" stroke-linecap="round"/><path d="M306.92338,298.04806l6.15219,-16.05339" fill="none" stroke="#8a2f00" stroke-width="3" stroke-linecap="round"/><path d="M283.47009,289.33184l10.19533,11.81187" fill="none" stroke="#8a2f00" stroke-width="3" stroke-linecap="round"/><path d="M297.24969,288.85457l-6.0615,7.42441" fill="none" stroke="#8a2f00" stroke-width="3" stroke-linecap="round"/><path d="M310.86011,293.58446l7.74457,13.13618" fill="none" stroke="#8a2f00" stroke-width="3" stroke-linecap="round"/><path d="M326.88565,348.28773l1.76053,8.83709l-0.12992,6.91806" fill="none" stroke="#8a2f00" stroke-width="3" stroke-linecap="round"/></g><g data-paper-data="{&quot;index&quot;:null}"><path d="M274.42596,206.74679l44.99933,-0.2466l0.42197,76.99886l-44.99931,0.2466z" fill="#453d34" stroke="none" stroke-width="0" stroke-linecap="butt"/><path d="M286.57361,240.36459l-8.18157,-5.06345l-1.78886,-4.40204" fill="none" stroke="#8a2f00" stroke-width="3" stroke-linecap="round"/><path d="M304.48878,235.56042l-3.99993,21.49283l6.21506,7.02488l-7.84435,17.69031" fill="none" stroke="#8a2f00" stroke-width="3" stroke-linecap="round"/><path d="M296.54285,234.7216l4.78319,14.09166" fill="none" stroke="#8a2f00" stroke-width="3" stroke-linecap="round"/><path d="M276.75752,273.94828l3.17237,-11.48815l11.78549,3.759" fill="none" stroke="#8a2f00" stroke-width="3" stroke-linecap="round"/><path d="M313.45636,208.15794l-9.04982,12.40272" fill="none" stroke="#8a2f00" stroke-width="3" stroke-linecap="round"/><path d="M290.87571,220.34068l-7.71462,-12.31084" fill="none" stroke="#8a2f00" stroke-width="3" stroke-linecap="round"/><path d="M289.37938,215.64293l7.32543,-5.04021" fill="none" stroke="#8a2f00" stroke-width="3" stroke-linecap="round"/><path d="M309.09623,217.59374l5.07084,12.91357" fill="none" stroke="#8a2f00" stroke-width="3" stroke-linecap="round"/><path d="M314.37179,267.8597l0.04353,7.94105l-1.43835,5.89032" fill="none" stroke="#8a2f00" stroke-width="3" stroke-linecap="round"/></g><g data-paper-data="{&quot;index&quot;:null}"><path d="M280.42438,258.16487l40.15671,20.30861l-34.75027,68.7126l-40.15669,-20.3086z" fill="#453d34" stroke="none" stroke-width="0" stroke-linecap="butt"/><path d="M275.89843,293.62242l-4.97078,-8.2382l0.41627,-4.73335" fill="none" stroke="#8a2f00" stroke-width="3" stroke-linecap="round"/><path d="M294.03245,297.51991l-13.36419,17.30142l2.32603,9.08656l-15.05063,12.16386" fill="none" stroke="#8a2f00" stroke-width="3" stroke-linecap="round"/><path d="M285.17223,307.8706l2.17192,-14.72197" fill="none" stroke="#8a2f00" stroke-width="3" stroke-linecap="round"/><path d="M251.84284,319.03007l8.06377,-8.77594l8.77292,8.72145" fill="none" stroke="#8a2f00" stroke-width="3" stroke-linecap="round"/><path d="M314.51319,277.22575l-13.71125,6.90859" fill="none" stroke="#8a2f00" stroke-width="3" stroke-linecap="round"/><path d="M287.61233,263.29148l1.24909,14.47453" fill="none" stroke="#8a2f00" stroke-width="3" stroke-linecap="round"/><path d="M298.49097,271.75949l-8.81806,1.14346" fill="none" stroke="#8a2f00" stroke-width="3" stroke-linecap="round"/><path d="M306.32869,283.63349l-1.37851,13.80484" fill="none" stroke="#8a2f00" stroke-width="3" stroke-linecap="round"/><path d="M288.09273,330.77103l-3.58385,7.08648l-3.96704,4.58555" fill="none" stroke="#8a2f00" stroke-width="3" stroke-linecap="round"/></g><g data-paper-data="{&quot;index&quot;:null}"><path d="M246.11195,327.2389l44.01929,-9.34363l15.98799,75.32189l-44.01927,9.34362z" fill="#453d34" stroke="none" stroke-width="0" stroke-linecap="butt"/><path d="M264.80846,357.70466l-9.03665,-3.30388l-2.64229,-3.94921" fill="none" stroke="#8a2f00" stroke-width="3" stroke-linecap="round"/><path d="M281.38156,349.37606l0.43016,21.85763l7.50753,5.62254l-4.10394,18.91134" fill="none" stroke="#8a2f00" stroke-width="3" stroke-linecap="round"/><path d="M280.96488,362.99468l-7.53467,-12.83286" fill="none" stroke="#8a2f00" stroke-width="3" stroke-linecap="round"/><path d="M261.98833,392.57968l0.78306,-11.89236l12.30222,1.29742" fill="none" stroke="#8a2f00" stroke-width="3" stroke-linecap="round"/><path d="M284.62101,320.72611l-6.35403,13.97688" fill="none" stroke="#8a2f00" stroke-width="3" stroke-linecap="round"/><path d="M254.92605,326.72855l10.0453,10.49592" fill="none" stroke="#8a2f00" stroke-width="3" stroke-linecap="round"/><path d="M262.55573,332.92649l6.15451,-6.41777" fill="none" stroke="#8a2f00" stroke-width="3" stroke-linecap="round"/><path d="M282.2596,330.8488l7.57809,11.62094" fill="none" stroke="#8a2f00" stroke-width="3" stroke-linecap="round"/><path d="M297.59353,379.00863l1.64889,7.7681l-0.21717,6.0595" fill="none" stroke="#8a2f00" stroke-width="3" stroke-linecap="round"/></g><g data-paper-data="{&quot;index&quot;:null}"><path d="M308.22626,294.49584l-36.40934,-26.44543l45.25107,-62.30043l36.40932,26.44543z" fill="#453d34" stroke="none" stroke-width="0" stroke-linecap="butt"/><path d="M318.34205,260.21185l3.59515,8.92477l-1.16488,4.60662" fill="none" stroke="#8a2f00" stroke-width="3" stroke-linecap="round"/><path d="M301.06032,253.47575l15.94932,-14.95192l-0.84904,-9.34104l16.79593,-9.61133" fill="none" stroke="#8a2f00" stroke-width="3" stroke-linecap="round"/><path d="M306.96698,258.85653l4.48909,-14.18808" fill="none" stroke="#8a2f00" stroke-width="3" stroke-linecap="round"/><path d="M346.13742,238.96009l-9.35864,7.37951l-7.27179,-10.00744" fill="none" stroke="#8a2f00" stroke-width="3" stroke-linecap="round"/><path d="M277.60862,270.2487l14.63659,-4.63649" fill="none" stroke="#8a2f00" stroke-width="3" stroke-linecap="round"/><path d="M303.01896,273.8011l-1.07233,14.4887" fill="none" stroke="#8a2f00" stroke-width="3" stroke-linecap="round"/><path d="M301.44326,278.47283l-8.88762,-0.27567" fill="none" stroke="#8a2f00" stroke-width="3" stroke-linecap="round"/><path d="M286.70925,265.22637l3.55973,-13.40903" fill="none" stroke="#8a2f00" stroke-width="3" stroke-linecap="round"/><path d="M312.22039,221.5952l4.66683,-6.42518l4.64678,-3.89515" fill="none" stroke="#8a2f00" stroke-width="3" stroke-linecap="round"/></g><g data-paper-data="{&quot;index&quot;:null}"><path d="M399.97101,228.00111l-3.84536,44.83542l-76.71837,-6.57982l3.84536,-44.83539z" fill="#453d34" stroke="none" stroke-width="0" stroke-linecap="butt"/><path d="M365.38807,237.04223l5.78628,-7.68736l4.54643,-1.38125" fill="none" stroke="#8a2f00" stroke-width="3" stroke-linecap="round"/><path d="M368.54366,255.31997l-21.04018,-5.93729l-7.56082,5.55067l-16.90392,-9.42011" fill="none" stroke="#8a2f00" stroke-width="3" stroke-linecap="round"/><path d="M370.10138,247.4832l-14.46815,3.4823" fill="none" stroke="#8a2f00" stroke-width="3" stroke-linecap="round"/><path d="M332.83584,224.21367l11.15217,4.20364l-4.81486,11.39495" fill="none" stroke="#8a2f00" stroke-width="3" stroke-linecap="round"/><path d="M383.48878,256.60172l11.52863,10.13989" fill="none" stroke="#8a2f00" stroke-width="3" stroke-linecap="round"/><path d="M384.93795,243.14692l12.96121,-6.56348" fill="none" stroke="#8a2f00" stroke-width="3" stroke-linecap="round"/><path d="M389.75228,242.08386l4.35339,7.75331" fill="none" stroke="#8a2f00" stroke-width="3" stroke-linecap="round"/><path d="M386.01707,261.54172l-13.32109,3.87586" fill="none" stroke="#8a2f00" stroke-width="3" stroke-linecap="round"/><path d="M335.47965,262.2257l-7.91212,-0.67857l-5.73517,-1.96789" fill="none" stroke="#8a2f00" stroke-width="3" stroke-linecap="round"/></g><g data-paper-data="{&quot;index&quot;:null}"><path d="M454.08534,221.01128l3.12663,44.89126l-76.81393,5.35001l-3.12662,-44.89123z" fill="#453d34" stroke="none" stroke-width="0" stroke-linecap="butt"/><path d="M421.3141,235.28598l4.52934,-8.48892l4.27849,-2.06697" fill="none" stroke="#8a2f00" stroke-width="3" stroke-linecap="round"/><path d="M427.25522,252.85688l-21.70479,-2.61591l-6.61264,6.65199l-18.15617,-6.69586" fill="none" stroke="#8a2f00" stroke-width="3" stroke-linecap="round"/><path d="M427.58367,244.87356l-13.75657,5.67543" fill="none" stroke="#8a2f00" stroke-width="3" stroke-linecap="round"/><path d="M387.17092,227.63981l11.66766,2.43048l-2.99687,12.00194" fill="none" stroke="#8a2f00" stroke-width="3" stroke-linecap="round"/><path d="M455.17553,260.05196l-12.95659,-8.23733" fill="none" stroke="#8a2f00" stroke-width="3" stroke-linecap="round"/><path d="M441.57233,238.29748l11.79176,-8.48685" fill="none" stroke="#8a2f00" stroke-width="3" stroke-linecap="round"/><path d="M446.16466,236.50351l5.4988,6.98776" fill="none" stroke="#8a2f00" stroke-width="3" stroke-linecap="round"/><path d="M445.47998,256.30479l-12.56249,5.88708" fill="none" stroke="#8a2f00" stroke-width="3" stroke-linecap="round"/><path d="M395.65482,264.7872l-7.92198,0.55177l-5.97032,-1.05834" fill="none" stroke="#8a2f00" stroke-width="3" stroke-linecap="round"/></g><g data-paper-data="{&quot;index&quot;:null}"><path d="M527.45095,220.77799l-0.30355,42.0745l-76.99783,-0.39367l0.30355,-42.07448z" fill="#453d34" stroke="none" stroke-width="0" stroke-linecap="butt"/><path d="M493.68734,231.79127l5.16307,-7.5975l4.42355,-1.62743" fill="none" stroke="#8a2f00" stroke-width="3" stroke-linecap="round"/><path d="M498.2721,248.59017l-21.4422,-3.95972l-7.10031,5.73884l-17.59298,-7.51513" fill="none" stroke="#8a2f00" stroke-width="3" stroke-linecap="round"/><path d="M499.208,241.16974l-14.14899,4.32778" fill="none" stroke="#8a2f00" stroke-width="3" stroke-linecap="round"/><path d="M460.22635,222.26998l11.44844,3.08359l-3.90278,10.98032" fill="none" stroke="#8a2f00" stroke-width="3" stroke-linecap="round"/><path d="M525.56275,257.25488l-12.29109,-8.58806" fill="none" stroke="#8a2f00" stroke-width="3" stroke-linecap="round"/><path d="M513.65704,236.01848l12.40417,-7.08674" fill="none" stroke="#8a2f00" stroke-width="3" stroke-linecap="round"/><path d="M523.32296,241.56805l-4.95025,-6.90047" fill="none" stroke="#8a2f00" stroke-width="3" stroke-linecap="round"/><path d="M503.20648,257.6906l12.97453,-4.60879" fill="none" stroke="#8a2f00" stroke-width="3" stroke-linecap="round"/><path d="M465.8546,257.49963l-7.94095,-0.04059l-5.87226,-1.40507" fill="none" stroke="#8a2f00" stroke-width="3" stroke-linecap="round"/></g><g data-paper-data="{&quot;index&quot;:null}"><path d="M523.61258,305.87237l-29.35165,30.14692l-55.28198,-53.59779l29.35164,-30.1469z" fill="#453d34" stroke="none" stroke-width="0" stroke-linecap="butt"/><path d="M491.6262,290.44043l8.98575,-1.90672l4.31847,1.88868" fill="none" stroke="#8a2f00" stroke-width="3" stroke-linecap="round"/><path d="M483.30248,305.73549l-12.72898,-17.70368l-9.09654,-0.77568l-7.48996,-17.60371" fill="none" stroke="#8a2f00" stroke-width="3" stroke-linecap="round"/><path d="M489.11569,301.0296l-13.2052,-6.67431" fill="none" stroke="#8a2f00" stroke-width="3" stroke-linecap="round"/><path d="M474.07642,260.40215l6.12505,10.15181l-10.41873,5.22008" fill="none" stroke="#8a2f00" stroke-width="3" stroke-linecap="round"/><path d="M496.99341,330.88335l-2.9217,-14.70678" fill="none" stroke="#8a2f00" stroke-width="3" stroke-linecap="round"/><path d="M503.10755,307.31753l13.85662,3.47557" fill="none" stroke="#8a2f00" stroke-width="3" stroke-linecap="round"/><path d="M507.44532,309.608l-1.20628,8.40633" fill="none" stroke="#8a2f00" stroke-width="3" stroke-linecap="round"/><path d="M480.56149,315.71811l12.55238,5.65836" fill="none" stroke="#8a2f00" stroke-width="3" stroke-linecap="round"/><path d="M453.74402,289.71767l-5.70136,-5.52765l-3.264,-5.07976" fill="none" stroke="#8a2f00" stroke-width="3" stroke-linecap="round"/></g><g data-paper-data="{&quot;index&quot;:null}"><path d="M500.73871,370.64503l-41.4932,-6.97642l12.60731,-75.9597l41.49318,6.97642z" fill="#453d34" stroke="none" stroke-width="0" stroke-linecap="butt"/><path d="M495.22286,335.56158l6.68191,6.30328l0.90485,4.62575" fill="none" stroke="#8a2f00" stroke-width="3" stroke-linecap="round"/><path d="M477.90927,337.42246l7.31217,-20.54213l-4.53938,-7.92102l10.2117,-16.1775" fill="none" stroke="#8a2f00" stroke-width="3" stroke-linecap="round"/><path d="M485.08717,339.52403l-2.02767,-14.65648" fill="none" stroke="#8a2f00" stroke-width="3" stroke-linecap="round"/><path d="M509.93337,304.03549l-4.86125,10.81405l-10.22187,-5.59577" fill="none" stroke="#8a2f00" stroke-width="3" stroke-linecap="round"/><path d="M465.02365,362.99232l10.42968,-10.77253" fill="none" stroke="#8a2f00" stroke-width="3" stroke-linecap="round"/><path d="M487.88026,354.60743l5.02856,13.37158" fill="none" stroke="#8a2f00" stroke-width="3" stroke-linecap="round"/><path d="M488.46573,359.47771l-7.59858,3.7925" fill="none" stroke="#8a2f00" stroke-width="3" stroke-linecap="round"/><path d="M470.63262,354.39167l-2.49148,-13.54148" fill="none" stroke="#8a2f00" stroke-width="3" stroke-linecap="round"/><path d="M474.25697,304.0019l1.3002,-7.83389l2.31913,-5.57488" fill="none" stroke="#8a2f00" stroke-width="3" stroke-linecap="round"/></g><g><path d="M410.25431,6.86415l40.537,-13.82261l23.0003,69.45532l-40.53699,13.82262z" fill="#453d34" stroke="none" stroke-width="0" stroke-linecap="butt"/><path d="M427.87874,53.89513l0.27187,-4.52155l5.8192,-7.11226" fill="none" stroke="#8a2f00" stroke-width="3" stroke-linecap="round"/><path d="M432.44519,1.15006l12.42486,13.47866l-3.45539,8.26441l10.12264,18.10202" fill="none" stroke="#8a2f00" stroke-width="3" stroke-linecap="round"/><path d="M444.64729,44.23033l0.02215,-14.17985" fill="none" stroke="#8a2f00" stroke-width="3" stroke-linecap="round"/><path d="M430.74272,17.37917l-9.45578,7.06263l-6.34075,-9.35289" fill="none" stroke="#8a2f00" stroke-width="3" stroke-linecap="round"/><path d="M456.01784,54.52539l11.90328,8.34192" fill="none" stroke="#8a2f00" stroke-width="3" stroke-linecap="round"/><path d="M440.71939,72.43804l3.19873,-13.49151" fill="none" stroke="#8a2f00" stroke-width="3" stroke-linecap="round"/><path d="M443.99906,63.64303l8.11723,2.2515" fill="none" stroke="#8a2f00" stroke-width="3" stroke-linecap="round"/><path d="M461.13558,55.73291l0.63851,-13.20898" fill="none" stroke="#8a2f00" stroke-width="3" stroke-linecap="round"/><path d="M445.16266,-3.18645l3.08184,4.85426l2.37207,7.16308" fill="none" stroke="#8a2f00" stroke-width="3" stroke-linecap="round"/></g><g><path d="M434.74487,66.27638l42.82826,-0.22976l-0.25405,73.16414l-42.82826,0.22977z" fill="#453d34" stroke="none" stroke-width="0" stroke-linecap="butt"/><path d="M436.51666,116.46995l1.6941,-4.201l7.77706,-4.89537" fill="none" stroke="#8a2f00" stroke-width="3" stroke-linecap="round"/><path d="M457.6015,67.90737l7.49971,16.7274l-5.90168,6.73872l3.84808,20.37997" fill="none" stroke="#8a2f00" stroke-width="3" stroke-linecap="round"/><path d="M455.48679,112.6324l4.52535,-13.43837" fill="none" stroke="#8a2f00" stroke-width="3" stroke-linecap="round"/><path d="M450.8319,82.75509l-11.20952,3.69312l-3.04131,-10.88265" fill="none" stroke="#8a2f00" stroke-width="3" stroke-linecap="round"/><path d="M462.9981,126.00618l8.63687,11.69103" fill="none" stroke="#8a2f00" stroke-width="3" stroke-linecap="round"/><path d="M442.80192,138.13137l7.31874,-11.77662" fill="none" stroke="#8a2f00" stroke-width="3" stroke-linecap="round"/><path d="M448.70553,130.83371l6.98159,4.71339" fill="none" stroke="#8a2f00" stroke-width="3" stroke-linecap="round"/><path d="M467.46719,128.77685l4.80138,-12.322" fill="none" stroke="#8a2f00" stroke-width="3" stroke-linecap="round"/><path d="M471.0378,67.83527l1.38022,5.58181l-0.0262,7.54558" fill="none" stroke="#8a2f00" stroke-width="3" stroke-linecap="round"/></g><g><path d="M451.75688,-5.3002l42.82826,-0.22976l-0.25405,73.16414l-42.82826,0.22976z" fill="#453d34" stroke="none" stroke-width="0" stroke-linecap="butt"/><path d="M453.52867,44.89337l1.6941,-4.201l7.77706,-4.89537" fill="none" stroke="#8a2f00" stroke-width="3" stroke-linecap="round"/><path d="M474.61352,-3.66921l7.49971,16.7274l-5.90167,6.73873l3.84808,20.37997" fill="none" stroke="#8a2f00" stroke-width="3" stroke-linecap="round"/><path d="M472.49881,41.05583l4.52535,-13.43838" fill="none" stroke="#8a2f00" stroke-width="3" stroke-linecap="round"/><path d="M467.84391,11.17851l-11.20953,3.69312l-3.0413,-10.88265" fill="none" stroke="#8a2f00" stroke-width="3" stroke-linecap="round"/><path d="M480.01011,54.4296l8.63688,11.69103" fill="none" stroke="#8a2f00" stroke-width="3" stroke-linecap="round"/><path d="M459.81394,66.55479l7.31874,-11.77662" fill="none" stroke="#8a2f00" stroke-width="3" stroke-linecap="round"/><path d="M465.71754,59.25713l6.98159,4.71339" fill="none" stroke="#8a2f00" stroke-width="3" stroke-linecap="round"/><path d="M484.4792,57.20027l4.80138,-12.32199" fill="none" stroke="#8a2f00" stroke-width="3" stroke-linecap="round"/><path d="M488.04982,-3.7413l1.38022,5.58181l-0.02621,7.54558" fill="none" stroke="#8a2f00" stroke-width="3" stroke-linecap="round"/></g><g><path d="M411.71183,-66.36626l42.82827,-0.22976l-0.25406,73.16414l-42.82825,0.22977z" fill="#453d34" stroke="none" stroke-width="0" stroke-linecap="butt"/><path d="M413.48362,-16.17269l1.6941,-4.201l7.77706,-4.89536" fill="none" stroke="#8a2f00" stroke-width="3" stroke-linecap="round"/><path d="M434.56847,-64.73528l7.49971,16.7274l-5.90168,6.73872l3.84809,20.37997" fill="none" stroke="#8a2f00" stroke-width="3" stroke-linecap="round"/><path d="M432.45376,-20.01024l4.52535,-13.43837" fill="none" stroke="#8a2f00" stroke-width="3" stroke-linecap="round"/><path d="M427.79886,-49.88755l-11.20952,3.69311l-3.04131,-10.88265" fill="none" stroke="#8a2f00" stroke-width="3" stroke-linecap="round"/><path d="M439.96506,-6.63646l8.63687,11.69103" fill="none" stroke="#8a2f00" stroke-width="3" stroke-linecap="round"/><path d="M419.76889,5.48873l7.31874,-11.77662" fill="none" stroke="#8a2f00" stroke-width="3" stroke-linecap="round"/><path d="M425.67249,-1.80893l6.9816,4.71339" fill="none" stroke="#8a2f00" stroke-width="3" stroke-linecap="round"/><path d="M444.43415,-3.86579l4.80138,-12.322" fill="none" stroke="#8a2f00" stroke-width="3" stroke-linecap="round"/><path d="M448.00477,-64.80737l1.38022,5.58181l-0.0262,7.54558" fill="none" stroke="#8a2f00" stroke-width="3" stroke-linecap="round"/></g><g data-paper-data="{&quot;index&quot;:null}"><path d="M479.03083,248.58604l-9.35294,41.0229l-75.1082,-16.95816l9.35294,-41.02288z" fill="#453d34" stroke="none" stroke-width="0" stroke-linecap="butt"/><path d="M443.68807,252.07356l6.6774,-6.30806l4.67017,-0.63711" fill="none" stroke="#8a2f00" stroke-width="3" stroke-linecap="round"/><path d="M444.54941,269.46555l-20.08725,-8.48232l-8.16916,4.07597l-15.56296,-11.12585" fill="none" stroke="#8a2f00" stroke-width="3" stroke-linecap="round"/><path d="M447.06061,262.42051l-14.74888,1.18078" fill="none" stroke="#8a2f00" stroke-width="3" stroke-linecap="round"/><path d="M413.06088,235.57301l10.51634,5.47558l-6.1748,9.88287" fill="none" stroke="#8a2f00" stroke-width="3" stroke-linecap="round"/><path d="M469.33526,283.80144l-10.1544,-11.0324" fill="none" stroke="#8a2f00" stroke-width="3" stroke-linecap="round"/><path d="M475.91858,256.24951l-13.63882,4.25064" fill="none" stroke="#8a2f00" stroke-width="3" stroke-linecap="round"/><path d="M470.52455,268.00022l-3.3489,-7.80426" fill="none" stroke="#8a2f00" stroke-width="3" stroke-linecap="round"/><path d="M447.40926,279.41477l13.66244,-1.708" fill="none" stroke="#8a2f00" stroke-width="3" stroke-linecap="round"/><path d="M410.97405,271.18832l-7.74608,-1.74892l-5.43217,-2.63613" fill="none" stroke="#8a2f00" stroke-width="3" stroke-linecap="round"/></g><g><path d="M430.60389,65.42856l42.35207,6.373l-11.52592,72.25101l-42.35207,-6.37299z" fill="#453d34" stroke="none" stroke-width="0" stroke-linecap="butt"/><path d="M424.61947,115.29559l2.32126,-3.88975l8.43856,-3.63841" fill="none" stroke="#8a2f00" stroke-width="3" stroke-linecap="round"/><path d="M452.93614,70.56237l4.83236,17.68332l-6.86965,5.74875l0.66147,20.72953" fill="none" stroke="#8a2f00" stroke-width="3" stroke-linecap="round"/><path d="M443.95438,114.42726l6.5422,-12.58047" fill="none" stroke="#8a2f00" stroke-width="3" stroke-linecap="round"/><path d="M443.95931,84.1895l-11.64474,1.92157l-1.32792,-11.22133" fill="none" stroke="#8a2f00" stroke-width="3" stroke-linecap="round"/><path d="M449.31501,128.7988l6.73206,12.88235" fill="none" stroke="#8a2f00" stroke-width="3" stroke-linecap="round"/><path d="M427.49153,137.66684l9.04614,-10.50809" fill="none" stroke="#8a2f00" stroke-width="3" stroke-linecap="round"/><path d="M434.44922,131.36612l6.17184,5.73298" fill="none" stroke="#8a2f00" stroke-width="3" stroke-linecap="round"/><path d="M459.94664,120.79018l-6.6429,11.4349" fill="none" stroke="#8a2f00" stroke-width="3" stroke-linecap="round"/><path d="M466.22305,72.56172l0.50355,5.72783l-1.18869,7.45141" fill="none" stroke="#8a2f00" stroke-width="3" stroke-linecap="round"/></g></g></g></svg>