<svg version="1.1" xmlns="http://www.w3.org/2000/svg" xmlns:xlink="http://www.w3.org/1999/xlink" width="551.74063" height="409.26764" viewBox="0,0,551.74063,409.26764"><defs><linearGradient x1="235.26894" y1="-4.74194" x2="235.26894" y2="76.83163" gradientUnits="userSpaceOnUse" id="color-1"><stop offset="0" stop-color="#ff0000"/><stop offset="1" stop-color="#ff8800"/></linearGradient></defs><g transform="translate(39.52661,21.29337)"><g data-paper-data="{&quot;isPaintingLayer&quot;:true}" fill-rule="nonzero" stroke-linejoin="miter" stroke-miterlimit="10" stroke-dasharray="" stroke-dashoffset="0" style="mix-blend-mode: normal"><path d="M-1.72506,76.83163v-81.57358h473.98799v81.57358z" fill="url(#color-1)" stroke="none" stroke-width="0" stroke-linecap="butt"/><g><path d="M498.2134,196.5982l-44.77148,4.5293l-7.75013,-76.60899l44.7715,-4.5293z" fill="#453d34" stroke="none" stroke-width="0" stroke-linecap="butt"/><path d="M490.86096,144.2362l-1.31169,4.56699l-7.59815,5.90294" fill="none" stroke="#8a2f00" stroke-width="3" stroke-linecap="round"/><path d="M474.12754,197.17984l-9.67705,-16.75816l5.43462,-7.64466l-6.25777,-20.94711" fill="none" stroke="#8a2f00" stroke-width="3" stroke-linecap="round"/><path d="M471.43941,150.15275l-3.26104,14.51962" fill="none" stroke="#8a2f00" stroke-width="3" stroke-linecap="round"/><path d="M479.58158,180.96029l11.32012,-4.98824l4.37338,11.0867" fill="none" stroke="#8a2f00" stroke-width="3" stroke-linecap="round"/><path d="M462.11761,136.9061l-10.31469,-11.37251" fill="none" stroke="#8a2f00" stroke-width="3" stroke-linecap="round"/><path d="M481.91359,122.19182l-6.36487,13.05989" fill="none" stroke="#8a2f00" stroke-width="3" stroke-linecap="round"/><path d="M468.71931,126.18719l7.81886,4.23453" fill="none" stroke="#8a2f00" stroke-width="3" stroke-linecap="round"/><path d="M457.1396,134.45351l-3.67207,13.3787" fill="none" stroke="#8a2f00" stroke-width="3" stroke-linecap="round"/><path d="M460.0816,198.60078l-2.05519,-5.70446l-0.79928,-7.90085" fill="none" stroke="#8a2f00" stroke-width="3" stroke-linecap="round"/></g><g><path d="M491.72237,361.92648l-44.8491,-3.68213l6.30055,-76.74181l44.84911,3.68214z" fill="#453d34" stroke="none" stroke-width="0" stroke-linecap="butt"/><path d="M494.00774,309.10021l-2.11978,4.25258l-8.54434,4.4239" fill="none" stroke="#8a2f00" stroke-width="3" stroke-linecap="round"/><path d="M467.93185,358.12147l-6.47057,-18.23767l6.73334,-6.52978l-2.347,-21.73552" fill="none" stroke="#8a2f00" stroke-width="3" stroke-linecap="round"/><path d="M467.98911,325.07416l5.84529,-13.68525" fill="none" stroke="#8a2f00" stroke-width="3" stroke-linecap="round"/><path d="M476.24254,343.16311l12.03812,-2.84805l2.28585,11.69685" fill="none" stroke="#8a2f00" stroke-width="3" stroke-linecap="round"/><path d="M467.07503,296.66882l-8.0763,-13.05757" fill="none" stroke="#8a2f00" stroke-width="3" stroke-linecap="round"/><path d="M489.21533,285.79694l-8.63218,11.68579" fill="none" stroke="#8a2f00" stroke-width="3" stroke-linecap="round"/><path d="M482.43384,292.91296l-6.91916,-5.58489" fill="none" stroke="#8a2f00" stroke-width="3" stroke-linecap="round"/><path d="M456.58345,305.8411l6.04215,-12.48865" fill="none" stroke="#8a2f00" stroke-width="3" stroke-linecap="round"/><path d="M453.86155,356.96628l-0.98434,-5.98296l0.6498,-7.91454" fill="none" stroke="#8a2f00" stroke-width="3" stroke-linecap="round"/></g><g><path d="M491.17601,115.49217l-27.31552,35.76118l-61.19135,-46.73992l27.31554,-35.76119z" fill="#453d34" stroke="none" stroke-width="0" stroke-linecap="butt"/><path d="M447.94629,85.04502l2.43482,4.08039l-0.88995,9.58042" fill="none" stroke="#8a2f00" stroke-width="3" stroke-linecap="round"/><path d="M475.12765,133.46206l-18.84438,-4.40117l-1.86042,-9.19319l-19.56198,-9.76064" fill="none" stroke="#8a2f00" stroke-width="3" stroke-linecap="round"/><path d="M438.98007,103.26064l8.36266,12.30933" fill="none" stroke="#8a2f00" stroke-width="3" stroke-linecap="round"/><path d="M467.0246,118.3902l4.10279,-11.67025l11.07945,4.39173" fill="none" stroke="#8a2f00" stroke-width="3" stroke-linecap="round"/><path d="M422.94051,101.00187l-15.35132,-0.25265" fill="none" stroke="#8a2f00" stroke-width="3" stroke-linecap="round"/><path d="M425.74433,76.49617l5.17495,13.57542" fill="none" stroke="#8a2f00" stroke-width="3" stroke-linecap="round"/><path d="M428.07221,86.04642l-8.43679,2.80827" fill="none" stroke="#8a2f00" stroke-width="3" stroke-linecap="round"/><path d="M417.74665,102.95626l7.24919,11.82891" fill="none" stroke="#8a2f00" stroke-width="3" stroke-linecap="round"/><path d="M466.55807,144.68123l-5.56733,-2.40198l-6.31079,-4.82039" fill="none" stroke="#8a2f00" stroke-width="3" stroke-linecap="round"/></g><g><path d="M471.1766,103.17425l-42.54959,-14.64692l25.06253,-72.80708l42.5496,14.64693z" fill="#453d34" stroke="none" stroke-width="0" stroke-linecap="butt"/><path d="M486.44062,52.54967l-3.10458,3.59716l-9.37236,2.17612" fill="none" stroke="#8a2f00" stroke-width="3" stroke-linecap="round"/><path d="M449.06332,93.61028l-1.76486,-19.27087l8.1377,-4.6641l3.09498,-21.64168" fill="none" stroke="#8a2f00" stroke-width="3" stroke-linecap="round"/><path d="M466.3271,49.78409l-9.04476,11.81719" fill="none" stroke="#8a2f00" stroke-width="3" stroke-linecap="round"/><path d="M460.81156,81.16845l12.36858,0.21394l-0.67442,11.89901" fill="none" stroke="#8a2f00" stroke-width="3" stroke-linecap="round"/><path d="M463.41347,33.85047l-4.60044,-14.64796" fill="none" stroke="#8a2f00" stroke-width="3" stroke-linecap="round"/><path d="M487.55325,28.78474l-11.25135,9.19126" fill="none" stroke="#8a2f00" stroke-width="3" stroke-linecap="round"/><path d="M479.22409,34.00503l-5.32511,-7.12102" fill="none" stroke="#8a2f00" stroke-width="3" stroke-linecap="round"/><path d="M459.92116,29.53774l-8.93991,10.60903" fill="none" stroke="#8a2f00" stroke-width="3" stroke-linecap="round"/><path d="M435.71444,89.01516l0.52411,-6.04069l2.58476,-7.50875" fill="none" stroke="#8a2f00" stroke-width="3" stroke-linecap="round"/></g><g><path d="M499.70651,66.99571l-44.91918,2.69572l-4.61268,-76.86172l44.9192,-2.69573z" fill="#453d34" stroke="none" stroke-width="0" stroke-linecap="butt"/><path d="M494.50022,14.37697l-1.49724,4.50957l-7.83306,5.58747" fill="none" stroke="#8a2f00" stroke-width="3" stroke-linecap="round"/><path d="M475.61701,66.59248l-8.98406,-17.13965l5.74251,-7.41616l-5.39645,-21.18536" fill="none" stroke="#8a2f00" stroke-width="3" stroke-linecap="round"/><path d="M474.85309,19.49482l-3.85172,14.37421" fill="none" stroke="#8a2f00" stroke-width="3" stroke-linecap="round"/><path d="M481.72937,50.60939l11.51453,-4.52142l3.91661,11.25617" fill="none" stroke="#8a2f00" stroke-width="3" stroke-linecap="round"/><path d="M466.08047,5.87827l-9.84129,-11.78456" fill="none" stroke="#8a2f00" stroke-width="3" stroke-linecap="round"/><path d="M486.46127,-8.01467l-6.8933,12.78885" fill="none" stroke="#8a2f00" stroke-width="3" stroke-linecap="round"/><path d="M480.75399,-0.01133l-7.63926,-4.55055" fill="none" stroke="#8a2f00" stroke-width="3" stroke-linecap="round"/><path d="M456.99107,16.44173l4.21578,-13.21745" fill="none" stroke="#8a2f00" stroke-width="3" stroke-linecap="round"/><path d="M461.52473,67.43819l-1.82033,-5.78369l-0.47571,-7.92692" fill="none" stroke="#8a2f00" stroke-width="3" stroke-linecap="round"/></g><g><path d="M512.21402,129.05277l-44.91919,2.69573l-4.61268,-76.86173l44.9192,-2.69573z" fill="#453d34" stroke="none" stroke-width="0" stroke-linecap="butt"/><path d="M507.00773,76.43402l-1.49724,4.50956l-7.83306,5.58747" fill="none" stroke="#8a2f00" stroke-width="3" stroke-linecap="round"/><path d="M488.12452,128.64953l-8.98406,-17.13965l5.74251,-7.41616l-5.39645,-21.18537" fill="none" stroke="#8a2f00" stroke-width="3" stroke-linecap="round"/><path d="M487.3606,81.55188l-3.85172,14.37421" fill="none" stroke="#8a2f00" stroke-width="3" stroke-linecap="round"/><path d="M494.23688,112.66645l11.51453,-4.52142l3.91661,11.25617" fill="none" stroke="#8a2f00" stroke-width="3" stroke-linecap="round"/><path d="M478.58798,67.93532l-9.84128,-11.78456" fill="none" stroke="#8a2f00" stroke-width="3" stroke-linecap="round"/><path d="M498.96878,54.04239l-6.8933,12.78885" fill="none" stroke="#8a2f00" stroke-width="3" stroke-linecap="round"/><path d="M493.2615,62.04572l-7.63926,-4.55055" fill="none" stroke="#8a2f00" stroke-width="3" stroke-linecap="round"/><path d="M473.71436,65.28133l-4.21578,13.21744" fill="none" stroke="#8a2f00" stroke-width="3" stroke-linecap="round"/><path d="M474.03224,129.49525l-1.82033,-5.78369l-0.47571,-7.92692" fill="none" stroke="#8a2f00" stroke-width="3" stroke-linecap="round"/></g><g><path d="M434.64417,68.76171l3.24789,44.88264l-76.79919,5.55749l-3.24789,-44.88266z" fill="#453d34" stroke="none" stroke-width="0" stroke-linecap="butt"/><path d="M382.09343,74.61465l4.52764,1.44168l5.68337,7.76375" fill="none" stroke="#8a2f00" stroke-width="3" stroke-linecap="round"/><path d="M434.5372,92.85436l-17.02788,9.19415l-7.48622,-5.65088l-21.1174,5.65654" fill="none" stroke="#8a2f00" stroke-width="3" stroke-linecap="round"/><path d="M387.4525,94.19736l14.42048,3.67468" fill="none" stroke="#8a2f00" stroke-width="3" stroke-linecap="round"/><path d="M418.48015,86.939l-4.66267,-11.45807l11.20716,-4.05473" fill="none" stroke="#8a2f00" stroke-width="3" stroke-linecap="round"/><path d="M373.94484,103.13677l-11.66265,9.98546" fill="none" stroke="#8a2f00" stroke-width="3" stroke-linecap="round"/><path d="M359.80234,82.92834l12.87264,6.73552" fill="none" stroke="#8a2f00" stroke-width="3" stroke-linecap="round"/><path d="M367.87525,88.53678l-4.45626,7.69464" fill="none" stroke="#8a2f00" stroke-width="3" stroke-linecap="round"/><path d="M384.61927,112.09559l-13.26829,-4.05294" fill="none" stroke="#8a2f00" stroke-width="3" stroke-linecap="round"/><path d="M435.55613,106.93517l-5.76087,1.89132l-7.92046,0.57314" fill="none" stroke="#8a2f00" stroke-width="3" stroke-linecap="round"/></g><g><path d="M369.80625,75.0254l-8.36893,44.21494l-75.65668,-14.32018l8.36893,-44.21497z" fill="#453d34" stroke="none" stroke-width="0" stroke-linecap="butt"/><path d="M317.5116,67.20825l4.00662,2.55441l3.50269,8.96146" fill="none" stroke="#8a2f00" stroke-width="3" stroke-linecap="round"/><path d="M363.52533,98.28516l-18.81607,4.5207l-5.78701,-7.38148l-21.8618,0.05279" fill="none" stroke="#8a2f00" stroke-width="3" stroke-linecap="round"/><path d="M330.66654,94.75975l-12.99617,-7.24935" fill="none" stroke="#8a2f00" stroke-width="3" stroke-linecap="round"/><path d="M349.52183,88.45041l-1.56886,-12.27055l11.87216,-1.04558" fill="none" stroke="#8a2f00" stroke-width="3" stroke-linecap="round"/><path d="M288.48906,99.34873l13.8331,-6.66124" fill="none" stroke="#8a2f00" stroke-width="3" stroke-linecap="round"/><path d="M293.83405,69.52841l10.71526,9.81099" fill="none" stroke="#8a2f00" stroke-width="3" stroke-linecap="round"/><path d="M293.91877,83.31409l6.28025,-6.29479" fill="none" stroke="#8a2f00" stroke-width="3" stroke-linecap="round"/><path d="M310.34262,104.0838l-11.78552,-7.31953" fill="none" stroke="#8a2f00" stroke-width="3" stroke-linecap="round"/><path d="M360.89977,112.1565l-6.05322,0.35096l-7.80264,-1.47688" fill="none" stroke="#8a2f00" stroke-width="3" stroke-linecap="round"/></g><g><path d="M296.95361,59.49606l6.68434,44.50078l-76.14579,11.43764l-6.68435,-44.50081z" fill="#453d34" stroke="none" stroke-width="0" stroke-linecap="butt"/><path d="M245.00737,69.3665l4.62497,1.08979l6.26269,7.30447" fill="none" stroke="#8a2f00" stroke-width="3" stroke-linecap="round"/><path d="M298.69676,83.52579l-16.2717,10.47439l-7.89799,-5.05942l-20.62076,7.26122" fill="none" stroke="#8a2f00" stroke-width="3" stroke-linecap="round"/><path d="M266.51422,91.03659l-14.66006,-2.55665" fill="none" stroke="#8a2f00" stroke-width="3" stroke-linecap="round"/><path d="M282.23293,78.86073l-5.52865,-11.06625l10.86277,-4.90324" fill="none" stroke="#8a2f00" stroke-width="3" stroke-linecap="round"/><path d="M228.21117,109.28148l10.86156,-10.85142" fill="none" stroke="#8a2f00" stroke-width="3" stroke-linecap="round"/><path d="M223.4204,79.36713l13.35179,5.72729" fill="none" stroke="#8a2f00" stroke-width="3" stroke-linecap="round"/><path d="M228.04776,92.35326l3.85232,-8.01408" fill="none" stroke="#8a2f00" stroke-width="3" stroke-linecap="round"/><path d="M250.40349,106.54286l-13.5403,-3.02225" fill="none" stroke="#8a2f00" stroke-width="3" stroke-linecap="round"/><path d="M300.79379,97.48681l-5.59865,2.32805l-7.85309,1.17957" fill="none" stroke="#8a2f00" stroke-width="3" stroke-linecap="round"/></g><g><path d="M240.43903,69.92779l-5.05475,44.7152l-76.51269,-8.64925l5.05476,-44.71523z" fill="#453d34" stroke="none" stroke-width="0" stroke-linecap="butt"/><path d="M187.70761,66.02468l4.18563,2.24909l4.15998,8.67589" fill="none" stroke="#8a2f00" stroke-width="3" stroke-linecap="round"/><path d="M235.90678,93.59053l-18.4274,5.90866l-6.32037,-6.93028l-21.79722,1.67984" fill="none" stroke="#8a2f00" stroke-width="3" stroke-linecap="round"/><path d="M189.37704,86.25869l13.49971,6.26193" fill="none" stroke="#8a2f00" stroke-width="3" stroke-linecap="round"/><path d="M221.21011,84.82536l-2.47782,-12.11975l11.7614,-1.92633" fill="none" stroke="#8a2f00" stroke-width="3" stroke-linecap="round"/><path d="M161.15781,100.23617l13.29893,-7.67237" fill="none" stroke="#8a2f00" stroke-width="3" stroke-linecap="round"/><path d="M164.26842,70.10074l11.41578,8.98623" fill="none" stroke="#8a2f00" stroke-width="3" stroke-linecap="round"/><path d="M171.17329,77.0971l-5.7943,6.74477" fill="none" stroke="#8a2f00" stroke-width="3" stroke-linecap="round"/><path d="M171.00557,96.90951l12.29762,6.42202" fill="none" stroke="#8a2f00" stroke-width="3" stroke-linecap="round"/><path d="M234.32096,107.61882l-6.01032,0.80053l-7.89092,-0.89203" fill="none" stroke="#8a2f00" stroke-width="3" stroke-linecap="round"/></g><g><path d="M165.9592,61.16577l3.94556,44.82669l-76.70346,6.75128l-3.94556,-44.82672z" fill="#453d34" stroke="none" stroke-width="0" stroke-linecap="butt"/><path d="M113.50584,67.83532l4.54951,1.37108l5.80343,7.67441" fill="none" stroke="#8a2f00" stroke-width="3" stroke-linecap="round"/><path d="M166.22695,85.25716l-16.88283,9.45787l-7.57319,-5.53377l-21.02686,5.98431" fill="none" stroke="#8a2f00" stroke-width="3" stroke-linecap="round"/><path d="M133.64472,90.78226l-14.47589,-3.44995" fill="none" stroke="#8a2f00" stroke-width="3" stroke-linecap="round"/><path d="M150.07985,79.59225l-4.84033,-11.38416l11.14275,-4.22854" fill="none" stroke="#8a2f00" stroke-width="3" stroke-linecap="round"/><path d="M94.2959,106.64634l11.50595,-10.16563" fill="none" stroke="#8a2f00" stroke-width="3" stroke-linecap="round"/><path d="M91.34675,76.49469l12.97585,6.5345" fill="none" stroke="#8a2f00" stroke-width="3" stroke-linecap="round"/><path d="M99.50591,81.97689l-4.33604,7.76302" fill="none" stroke="#8a2f00" stroke-width="3" stroke-linecap="round"/><path d="M103.2846,101.42635l13.32972,3.84609" fill="none" stroke="#8a2f00" stroke-width="3" stroke-linecap="round"/><path d="M167.46476,99.32043l-5.73076,1.98069l-7.9106,0.69626" fill="none" stroke="#8a2f00" stroke-width="3" stroke-linecap="round"/></g><g><path d="M99.04245,68.50402l-5.69713,44.6379l-76.38042,-9.74844l5.69714,-44.63793z" fill="#453d34" stroke="none" stroke-width="0" stroke-linecap="butt"/><path d="M46.37259,63.84316l4.15286,2.30904l4.0348,8.7348" fill="none" stroke="#8a2f00" stroke-width="3" stroke-linecap="round"/><path d="M94.17044,92.09916l-18.51045,5.6431l-6.22007,-7.02044l-21.81913,1.36627" fill="none" stroke="#8a2f00" stroke-width="3" stroke-linecap="round"/><path d="M61.15919,90.55445l-13.40827,-6.45538" fill="none" stroke="#8a2f00" stroke-width="3" stroke-linecap="round"/><path d="M79.60132,83.12358l-2.30332,-12.15412l11.78789,-1.75703" fill="none" stroke="#8a2f00" stroke-width="3" stroke-linecap="round"/><path d="M32.74152,90.18901l-13.40787,7.48037" fill="none" stroke="#8a2f00" stroke-width="3" stroke-linecap="round"/><path d="M34.16262,76.73122l-11.28541,-9.14943" fill="none" stroke="#8a2f00" stroke-width="3" stroke-linecap="round"/><path d="M29.68078,74.6767l-5.89067,6.66076" fill="none" stroke="#8a2f00" stroke-width="3" stroke-linecap="round"/><path d="M29.22822,94.48466l12.20401,6.59817" fill="none" stroke="#8a2f00" stroke-width="3" stroke-linecap="round"/><path d="M92.38309,106.10319l-6.02121,0.71403l-7.87728,-1.00539" fill="none" stroke="#8a2f00" stroke-width="3" stroke-linecap="round"/></g><g><path d="M45.34294,84.69736l-36.30884,26.5832l-45.48683,-62.12849l36.30887,-26.58322z" fill="#453d34" stroke="none" stroke-width="0" stroke-linecap="butt"/><path d="M12.48075,43.27377l1.18234,4.60218l-3.56132,8.93832" fill="none" stroke="#8a2f00" stroke-width="3" stroke-linecap="round"/><path d="M24.87013,97.39898l-16.83223,-9.54762l0.81364,-9.34418l-16.00586,-14.89138" fill="none" stroke="#8a2f00" stroke-width="3" stroke-linecap="round"/><path d="M3.27473,72.38367l-4.54282,-14.17098" fill="none" stroke="#8a2f00" stroke-width="3" stroke-linecap="round"/><path d="M21.35711,80.65148l7.23382,-10.03493l9.38654,7.344" fill="none" stroke="#8a2f00" stroke-width="3" stroke-linecap="round"/><path d="M-16.01535,51.51284l-14.65405,-4.581" fill="none" stroke="#8a2f00" stroke-width="3" stroke-linecap="round"/><path d="M-5.27272,43.28317l-1.12723,-14.48453" fill="none" stroke="#8a2f00" stroke-width="3" stroke-linecap="round"/><path d="M-15.75262,38.9268l8.88651,-0.30935" fill="none" stroke="#8a2f00" stroke-width="3" stroke-linecap="round"/><path d="M-21.54982,51.91965l3.61051,13.39545" fill="none" stroke="#8a2f00" stroke-width="3" stroke-linecap="round"/><path d="M13.47912,105.7388l-4.6615,-3.87752l-4.69114,-6.40746" fill="none" stroke="#8a2f00" stroke-width="3" stroke-linecap="round"/></g><g><path d="M13.37176,55.27398l-44.74713,4.76371l-8.15124,-76.56734l44.74717,-4.76372z" fill="#453d34" stroke="none" stroke-width="0" stroke-linecap="butt"/><path d="M5.74519,2.9512l-1.28774,4.5738l-7.56713,5.94264" fill="none" stroke="#8a2f00" stroke-width="3" stroke-linecap="round"/><path d="M-10.71072,55.98174l-9.76468,-16.70725l5.39451,-7.67301l-6.36739,-20.91404" fill="none" stroke="#8a2f00" stroke-width="3" stroke-linecap="round"/><path d="M-13.6451,8.96938l-3.18496,14.5365" fill="none" stroke="#8a2f00" stroke-width="3" stroke-linecap="round"/><path d="M-5.3417,39.73386l11.29385,-5.04746l4.43138,11.06365" fill="none" stroke="#8a2f00" stroke-width="3" stroke-linecap="round"/><path d="M-23.03614,-4.22827l-10.37411,-11.31834" fill="none" stroke="#8a2f00" stroke-width="3" stroke-linecap="round"/><path d="M-3.3175,-19.04602l-6.29639,13.09305" fill="none" stroke="#8a2f00" stroke-width="3" stroke-linecap="round"/><path d="M-8.64975,-10.78808l-7.84093,-4.19352" fill="none" stroke="#8a2f00" stroke-width="3" stroke-linecap="round"/><path d="M-28.02694,-6.65476l-3.60196,13.39775" fill="none" stroke="#8a2f00" stroke-width="3" stroke-linecap="round"/><path d="M-24.74904,57.47623l-2.08504,-5.69363l-0.84064,-7.89656" fill="none" stroke="#8a2f00" stroke-width="3" stroke-linecap="round"/></g><g><path d="M381.10675,365.42498l-44.8491,-3.68213l6.30055,-76.74181l44.84911,3.68214z" fill="#453d34" stroke="none" stroke-width="0" stroke-linecap="butt"/><path d="M383.39212,312.59871l-2.11978,4.25258l-8.54434,4.4239" fill="none" stroke="#8a2f00" stroke-width="3" stroke-linecap="round"/><path d="M357.31623,361.61997l-6.47057,-18.23767l6.73334,-6.52978l-2.347,-21.73552" fill="none" stroke="#8a2f00" stroke-width="3" stroke-linecap="round"/><path d="M363.21878,314.88741l-5.84529,13.68525" fill="none" stroke="#8a2f00" stroke-width="3" stroke-linecap="round"/><path d="M365.62692,346.66161l12.03812,-2.84805l2.28585,11.69685" fill="none" stroke="#8a2f00" stroke-width="3" stroke-linecap="round"/><path d="M348.38311,287.10975l8.0763,13.05757" fill="none" stroke="#8a2f00" stroke-width="3" stroke-linecap="round"/><path d="M378.59971,289.29544l-8.63218,11.68579" fill="none" stroke="#8a2f00" stroke-width="3" stroke-linecap="round"/><path d="M364.89906,290.82657l6.91916,5.58489" fill="none" stroke="#8a2f00" stroke-width="3" stroke-linecap="round"/><path d="M345.96783,309.3396l6.04215,-12.48865" fill="none" stroke="#8a2f00" stroke-width="3" stroke-linecap="round"/><path d="M343.24593,360.46478l-0.98434,-5.98296l0.6498,-7.91454" fill="none" stroke="#8a2f00" stroke-width="3" stroke-linecap="round"/></g><g><path d="M341.50878,375.13198l-44.26777,-8.08484l13.83409,-75.74708l44.26778,8.08486z" fill="#453d34" stroke="none" stroke-width="0" stroke-linecap="butt"/><path d="M348.98995,322.78821l-2.52862,4.02293l-8.93878,3.56017" fill="none" stroke="#8a2f00" stroke-width="3" stroke-linecap="round"/><path d="M318.20916,369.00053l-4.64143,-18.78665l7.34417,-5.8343l-0.19316,-21.86101" fill="none" stroke="#8a2f00" stroke-width="3" stroke-linecap="round"/><path d="M321.52352,336.1198l7.16574,-13.04246" fill="none" stroke="#8a2f00" stroke-width="3" stroke-linecap="round"/><path d="M327.95378,354.93417l12.26022,-1.64762l1.12179,11.8652" fill="none" stroke="#8a2f00" stroke-width="3" stroke-linecap="round"/><path d="M316.66379,293.97264l6.74993,13.79004" fill="none" stroke="#8a2f00" stroke-width="3" stroke-linecap="round"/><path d="M346.51781,299.12604l-9.74198,10.77804" fill="none" stroke="#8a2f00" stroke-width="3" stroke-linecap="round"/><path d="M339.06794,305.53898l-6.33498,-6.2397" fill="none" stroke="#8a2f00" stroke-width="3" stroke-linecap="round"/><path d="M319.31284,304.02389l-7.2437,11.83228" fill="none" stroke="#8a2f00" stroke-width="3" stroke-linecap="round"/><path d="M304.32124,366.4641l-0.38982,-6.05085l1.42675,-7.81195" fill="none" stroke="#8a2f00" stroke-width="3" stroke-linecap="round"/></g><g><path d="M270.05941,367.58406l-44.94632,2.5585l-3.7598,-89.55089l44.94633,-2.55849z" fill="#453d34" stroke="none" stroke-width="0" stroke-linecap="butt"/><path d="M265.43712,306.25199l-1.54718,5.23121l-7.89455,6.40442" fill="none" stroke="#8a2f00" stroke-width="3" stroke-linecap="round"/><path d="M245.97586,366.80343l-8.79338,-20.072l5.82442,-8.56058l-5.16111,-24.73615" fill="none" stroke="#8a2f00" stroke-width="3" stroke-linecap="round"/><path d="M245.73444,311.95703l-4.01093,16.68637" fill="none" stroke="#8a2f00" stroke-width="3" stroke-linecap="round"/><path d="M252.26514,348.27302l11.56398,-5.11564l3.79152,13.15633" fill="none" stroke="#8a2f00" stroke-width="3" stroke-linecap="round"/><path d="M227.40343,282.14168l9.70996,13.84806" fill="none" stroke="#8a2f00" stroke-width="3" stroke-linecap="round"/><path d="M257.64705,280.07723l-7.03474,14.80122" fill="none" stroke="#8a2f00" stroke-width="3" stroke-linecap="round"/><path d="M251.85134,289.32191l-7.58831,-5.39694" fill="none" stroke="#8a2f00" stroke-width="3" stroke-linecap="round"/><path d="M227.90738,308.17155l4.36214,-15.33484" fill="none" stroke="#8a2f00" stroke-width="3" stroke-linecap="round"/><path d="M231.87506,367.60608l-1.75607,-6.75756l-0.38775,-9.23557" fill="none" stroke="#8a2f00" stroke-width="3" stroke-linecap="round"/></g><g><path d="M222.743,370.98317l-43.67841,-12.60533l18.52403,-87.02471l43.67842,12.60534z" fill="#453d34" stroke="none" stroke-width="0" stroke-linecap="butt"/><path d="M233.46912,310.69547l-2.77423,4.49181l-9.14313,3.48925" fill="none" stroke="#8a2f00" stroke-width="3" stroke-linecap="round"/><path d="M199.87041,362.16828l-3.46257,-22.16902l7.69322,-6.24769l1.1685,-25.41929" fill="none" stroke="#8a2f00" stroke-width="3" stroke-linecap="round"/><path d="M213.18982,309.55954l-7.96399,14.63744" fill="none" stroke="#8a2f00" stroke-width="3" stroke-linecap="round"/><path d="M210.47204,346.52792l12.33903,-1.0258l0.38077,13.87021" fill="none" stroke="#8a2f00" stroke-width="3" stroke-linecap="round"/><path d="M203.00005,274.86423l5.87811,16.5152" fill="none" stroke="#8a2f00" stroke-width="3" stroke-linecap="round"/><path d="M232.47523,283.01777l-10.39422,11.81909" fill="none" stroke="#8a2f00" stroke-width="3" stroke-linecap="round"/><path d="M224.64048,289.93025l-5.93414,-7.71065" fill="none" stroke="#8a2f00" stroke-width="3" stroke-linecap="round"/><path d="M197.05162,299.96255l7.96644,-13.2254" fill="none" stroke="#8a2f00" stroke-width="3" stroke-linecap="round"/><path d="M186.16738,358.21365l-0.01228,-7.06012l1.91043,-8.97504" fill="none" stroke="#8a2f00" stroke-width="3" stroke-linecap="round"/></g><g><path d="M256.6239,311.71791l-44.98638,1.28868l-1.89376,-89.63072l44.9864,-1.28868z" fill="#453d34" stroke="none" stroke-width="0" stroke-linecap="butt"/><path d="M253.28024,250.27336l-1.65567,5.18599l-8.0256,6.17964" fill="none" stroke="#8a2f00" stroke-width="3" stroke-linecap="round"/><path d="M232.56369,310.25751l-8.37279,-20.31438l6.00098,-8.39361l-4.64445,-24.8746" fill="none" stroke="#8a2f00" stroke-width="3" stroke-linecap="round"/><path d="M233.46454,255.42042l-4.35725,16.56821" fill="none" stroke="#8a2f00" stroke-width="3" stroke-linecap="round"/><path d="M239.23702,291.91012l11.66712,-4.78762l3.51641,13.25952" fill="none" stroke="#8a2f00" stroke-width="3" stroke-linecap="round"/><path d="M215.75984,225.09626l9.41871,14.11814" fill="none" stroke="#8a2f00" stroke-width="3" stroke-linecap="round"/><path d="M238.69665,238.48458l7.34091,-14.59823" fill="none" stroke="#8a2f00" stroke-width="3" stroke-linecap="round"/><path d="M232.57734,227.35507l7.47369,5.6096" fill="none" stroke="#8a2f00" stroke-width="3" stroke-linecap="round"/><path d="M220.40177,235.92554l-4.68021,15.20716" fill="none" stroke="#8a2f00" stroke-width="3" stroke-linecap="round"/><path d="M218.45031,310.66179l-1.61482,-6.80515l-0.19529,-9.2438" fill="none" stroke="#8a2f00" stroke-width="3" stroke-linecap="round"/></g><g><path d="M0.2547,152.75409l-32.27436,-31.35864l53.65814,-55.22503l32.27439,31.35867z" fill="#453d34" stroke="none" stroke-width="0" stroke-linecap="butt"/><path d="M35.60747,113.43464l-4.34004,1.93442l-9.40759,-2.01834" fill="none" stroke="#8a2f00" stroke-width="3" stroke-linecap="round"/><path d="M-15.68802,134.69041l6.60204,-18.1905l9.34882,-0.75853l12.00876,-18.26829" fill="none" stroke="#8a2f00" stroke-width="3" stroke-linecap="round"/><path d="M18.58197,102.37416l-13.21313,6.84595" fill="none" stroke="#8a2f00" stroke-width="3" stroke-linecap="round"/><path d="M0.23744,128.42943l11.10221,5.45608l-5.67302,10.48133" fill="none" stroke="#8a2f00" stroke-width="3" stroke-linecap="round"/><path d="M22.7245,86.715l2.06901,-15.21335" fill="none" stroke="#8a2f00" stroke-width="3" stroke-linecap="round"/><path d="M46.72566,92.40143l-14.09278,3.53072" fill="none" stroke="#8a2f00" stroke-width="3" stroke-linecap="round"/><path d="M36.96691,93.58183l-1.7893,-8.71" fill="none" stroke="#8a2f00" stroke-width="3" stroke-linecap="round"/><path d="M21.39899,81.32623l-12.60422,5.79721" fill="none" stroke="#8a2f00" stroke-width="3" stroke-linecap="round"/><path d="M-25.8133,124.8524l3.04445,-5.24367l5.5339,-5.69546" fill="none" stroke="#8a2f00" stroke-width="3" stroke-linecap="round"/></g><g><path d="M13.68225,196.22968l-44.92614,-2.57714l4.40978,-76.87363l44.92617,2.57714z" fill="#453d34" stroke="none" stroke-width="0" stroke-linecap="butt"/><path d="M14.66671,143.36317l-2.01446,4.30347l-8.43286,4.63285" fill="none" stroke="#8a2f00" stroke-width="3" stroke-linecap="round"/><path d="M-10.19472,193.01138l-6.91749,-18.07289l6.57058,-6.69352l-2.88127,-21.67116" fill="none" stroke="#8a2f00" stroke-width="3" stroke-linecap="round"/><path d="M-5.44419,146.14769l-5.5067,13.82498" fill="none" stroke="#8a2f00" stroke-width="3" stroke-linecap="round"/><path d="M-2.25471,177.853l11.96438,-3.14349l2.57305,11.63705" fill="none" stroke="#8a2f00" stroke-width="3" stroke-linecap="round"/><path d="M-12.56381,131.59844l-8.39524,-12.85484" fill="none" stroke="#8a2f00" stroke-width="3" stroke-linecap="round"/><path d="M9.30219,120.1849l-8.34194,11.89473" fill="none" stroke="#8a2f00" stroke-width="3" stroke-linecap="round"/><path d="M2.6979,127.46569l-7.05453,-5.41289" fill="none" stroke="#8a2f00" stroke-width="3" stroke-linecap="round"/><path d="M-22.82646,141.02616l5.73294,-12.63358" fill="none" stroke="#8a2f00" stroke-width="3" stroke-linecap="round"/><path d="M-24.28918,192.20286l-1.1313,-5.95692l0.45481,-7.92814" fill="none" stroke="#8a2f00" stroke-width="3" stroke-linecap="round"/></g><g><path d="M14.56268,259.37125l-44.97969,1.35148l-2.31254,-76.96527l44.97972,-1.35148z" fill="#453d34" stroke="none" stroke-width="0" stroke-linecap="butt"/><path d="M10.93196,206.62037l-1.6314,4.46279l-7.99661,5.35077" fill="none" stroke="#8a2f00" stroke-width="3" stroke-linecap="round"/><path d="M-9.50401,258.24795l-8.46758,-17.40061l5.96168,-7.24114l-4.76061,-21.33723" fill="none" stroke="#8a2f00" stroke-width="3" stroke-linecap="round"/><path d="M-8.85939,211.14851l-4.27979,14.25262" fill="none" stroke="#8a2f00" stroke-width="3" stroke-linecap="round"/><path d="M-2.91649,242.45476l11.64458,-4.17514l3.57831,11.36826" fill="none" stroke="#8a2f00" stroke-width="3" stroke-linecap="round"/><path d="M-26.7055,185.2022l9.48453,12.07355" fill="none" stroke="#8a2f00" stroke-width="3" stroke-linecap="round"/><path d="M3.56611,183.99839l-7.2726,12.57703" fill="none" stroke="#8a2f00" stroke-width="3" stroke-linecap="round"/><path d="M-2.37792,191.8275l-7.49979,-4.77691" fill="none" stroke="#8a2f00" stroke-width="3" stroke-linecap="round"/><path d="M-22.01306,194.47722l-4.6091,13.0855" fill="none" stroke="#8a2f00" stroke-width="3" stroke-linecap="round"/><path d="M-23.61527,258.67194l-1.64659,-5.83554l-0.23848,-7.9376" fill="none" stroke="#8a2f00" stroke-width="3" stroke-linecap="round"/></g><g><path d="M15.05818,327.43431l-44.97969,1.35149l-2.31254,-76.96528l44.97973,-1.35148z" fill="#453d34" stroke="none" stroke-width="0" stroke-linecap="butt"/><path d="M11.42746,274.68343l-1.6314,4.46279l-7.9966,5.35076" fill="none" stroke="#8a2f00" stroke-width="3" stroke-linecap="round"/><path d="M-9.00851,326.31101l-8.46758,-17.40061l5.96168,-7.24114l-4.76062,-21.33724" fill="none" stroke="#8a2f00" stroke-width="3" stroke-linecap="round"/><path d="M-12.64368,293.46419l4.27979,-14.25262" fill="none" stroke="#8a2f00" stroke-width="3" stroke-linecap="round"/><path d="M-2.42099,310.51782l11.64458,-4.17514l3.57831,11.36826" fill="none" stroke="#8a2f00" stroke-width="3" stroke-linecap="round"/><path d="M-16.72548,265.33881l-9.48453,-12.07355" fill="none" stroke="#8a2f00" stroke-width="3" stroke-linecap="round"/><path d="M4.0616,252.06145l-7.27259,12.57703" fill="none" stroke="#8a2f00" stroke-width="3" stroke-linecap="round"/><path d="M-9.38221,255.11365l7.49979,4.77691" fill="none" stroke="#8a2f00" stroke-width="3" stroke-linecap="round"/><path d="M-26.12666,275.62578l4.6091,-13.0855" fill="none" stroke="#8a2f00" stroke-width="3" stroke-linecap="round"/><path d="M-23.11978,326.735l-1.64659,-5.83554l-0.23848,-7.9376" fill="none" stroke="#8a2f00" stroke-width="3" stroke-linecap="round"/></g><g><path d="M28.23635,364.79719l-42.7835,13.94888l-23.86809,-73.20735l42.78353,-13.94888z" fill="#453d34" stroke="none" stroke-width="0" stroke-linecap="butt"/><path d="M9.91437,315.19737l-0.31023,4.74149l-6.16867,7.38403" fill="none" stroke="#8a2f00" stroke-width="3" stroke-linecap="round"/><path d="M4.82539,370.48876l-13.02018,-14.31629l3.68418,-8.6257l-10.57018,-19.13668" fill="none" stroke="#8a2f00" stroke-width="3" stroke-linecap="round"/><path d="M-7.90222,339.99063l0.09799,-14.881" fill="none" stroke="#8a2f00" stroke-width="3" stroke-linecap="round"/><path d="M6.7046,353.48027l10.00004,-7.28198l6.63152,9.90276" fill="none" stroke="#8a2f00" stroke-width="3" stroke-linecap="round"/><path d="M-32.22803,305.23068l12.49766,8.91826" fill="none" stroke="#8a2f00" stroke-width="3" stroke-linecap="round"/><path d="M-3.51724,295.56062l-3.44128,14.11489" fill="none" stroke="#8a2f00" stroke-width="3" stroke-linecap="round"/><path d="M-7.01909,304.74558l-8.54064,-2.47449" fill="none" stroke="#8a2f00" stroke-width="3" stroke-linecap="round"/><path d="M-25.11615,312.81133l-0.7423,13.85363" fill="none" stroke="#8a2f00" stroke-width="3" stroke-linecap="round"/><path d="M-8.59688,374.86488l-3.22154,-5.13678l-2.46155,-7.55004" fill="none" stroke="#8a2f00" stroke-width="3" stroke-linecap="round"/></g><g><path d="M45.18652,289.90461l-44.53505,-6.45205l11.04018,-76.20444l44.53508,6.45206z" fill="#453d34" stroke="none" stroke-width="0" stroke-linecap="butt"/><path d="M50.73842,237.32121l-2.37902,4.11318l-8.80186,3.88634" fill="none" stroke="#8a2f00" stroke-width="3" stroke-linecap="round"/><path d="M21.67724,284.63383l-5.3289,-18.60333l7.12473,-6.10033l-0.99667,-21.83913" fill="none" stroke="#8a2f00" stroke-width="3" stroke-linecap="round"/><path d="M30.46208,238.35641l-6.68146,13.29707" fill="none" stroke="#8a2f00" stroke-width="3" stroke-linecap="round"/><path d="M30.89819,270.21876l12.19138,-2.09722l1.5572,11.81596" fill="none" stroke="#8a2f00" stroke-width="3" stroke-linecap="round"/><path d="M17.37484,209.71345l7.25229,13.5326" fill="none" stroke="#8a2f00" stroke-width="3" stroke-linecap="round"/><path d="M47.39811,213.76591l-9.33918,11.12889" fill="none" stroke="#8a2f00" stroke-width="3" stroke-linecap="round"/><path d="M40.18902,220.44839l-6.56008,-6.00259" fill="none" stroke="#8a2f00" stroke-width="3" stroke-linecap="round"/><path d="M20.39157,219.66053l-6.80385,12.09057" fill="none" stroke="#8a2f00" stroke-width="3" stroke-linecap="round"/><path d="M7.70547,282.60965l-0.61198,-6.03243l1.13861,-7.85913" fill="none" stroke="#8a2f00" stroke-width="3" stroke-linecap="round"/></g><g><path d="M92.60391,289.24809l-44.92872,2.53161l-4.33187,-76.87806l44.92876,-2.5316z" fill="#453d34" stroke="none" stroke-width="0" stroke-linecap="butt"/><path d="M87.58989,236.61069l-1.51371,4.50407l-7.8534,5.55881" fill="none" stroke="#8a2f00" stroke-width="3" stroke-linecap="round"/><path d="M68.51604,288.75687l-8.92138,-17.17237l5.76956,-7.39513l-5.31902,-21.20493" fill="none" stroke="#8a2f00" stroke-width="3" stroke-linecap="round"/><path d="M64.01998,256.01678l3.90422,-14.36005" fill="none" stroke="#8a2f00" stroke-width="3" stroke-linecap="round"/><path d="M74.68676,272.79621l11.53098,-4.47934l3.87546,11.27043" fill="none" stroke="#8a2f00" stroke-width="3" stroke-linecap="round"/><path d="M49.40322,216.18777l9.79816,11.82045" fill="none" stroke="#8a2f00" stroke-width="3" stroke-linecap="round"/><path d="M79.6328,214.18983l-6.93997,12.76358" fill="none" stroke="#8a2f00" stroke-width="3" stroke-linecap="round"/><path d="M73.89632,222.17226l-7.62259,-4.57842" fill="none" stroke="#8a2f00" stroke-width="3" stroke-linecap="round"/><path d="M54.33749,225.33643l-4.26405,13.20197" fill="none" stroke="#8a2f00" stroke-width="3" stroke-linecap="round"/><path d="M54.42076,289.55109l-1.79919,-5.79031l-0.44674,-7.92861" fill="none" stroke="#8a2f00" stroke-width="3" stroke-linecap="round"/></g><g><path d="M42.47222,349.26715l-43.79365,-10.34963l17.70936,-74.93584l43.79369,10.34964z" fill="#453d34" stroke="none" stroke-width="0" stroke-linecap="butt"/><path d="M52.6341,297.37714l-2.73206,3.88764l-9.10996,3.09597" fill="none" stroke="#8a2f00" stroke-width="3" stroke-linecap="round"/><path d="M19.51857,341.94616l-3.6696,-19.0004l7.63436,-5.44907l0.9308,-21.84204" fill="none" stroke="#8a2f00" stroke-width="3" stroke-linecap="round"/><path d="M32.34538,296.62237l-7.8267,12.65688" fill="none" stroke="#8a2f00" stroke-width="3" stroke-linecap="round"/><path d="M29.97336,328.39929l12.32872,-1.01525l0.5104,11.90719" fill="none" stroke="#8a2f00" stroke-width="3" stroke-linecap="round"/><path d="M27.86403,281.05679l-6.03214,-14.11879" fill="none" stroke="#8a2f00" stroke-width="3" stroke-linecap="round"/><path d="M41.09842,283.88221l10.28311,-10.26304" fill="none" stroke="#8a2f00" stroke-width="3" stroke-linecap="round"/><path d="M43.61186,279.6407l-6.00587,-6.55707" fill="none" stroke="#8a2f00" stroke-width="3" stroke-linecap="round"/><path d="M23.96076,277.11214l-7.84234,11.44429" fill="none" stroke="#8a2f00" stroke-width="3" stroke-linecap="round"/><path d="M5.77939,338.69921l-0.07827,-6.06289l1.82642,-7.7283" fill="none" stroke="#8a2f00" stroke-width="3" stroke-linecap="round"/></g><g><path d="M76.00075,360.27316l-43.79366,-10.34963l17.70936,-74.93584l43.79369,10.34964z" fill="#453d34" stroke="none" stroke-width="0" stroke-linecap="butt"/><path d="M86.16263,308.38315l-2.73206,3.88765l-9.10996,3.09596" fill="none" stroke="#8a2f00" stroke-width="3" stroke-linecap="round"/><path d="M53.0471,352.95217l-3.6696,-19.0004l7.63435,-5.44907l0.9308,-21.84204" fill="none" stroke="#8a2f00" stroke-width="3" stroke-linecap="round"/><path d="M65.87391,307.62837l-7.82669,12.65688" fill="none" stroke="#8a2f00" stroke-width="3" stroke-linecap="round"/><path d="M63.50189,339.4053l12.32872,-1.01524l0.51039,11.9072" fill="none" stroke="#8a2f00" stroke-width="3" stroke-linecap="round"/><path d="M61.39256,292.0628l-6.03214,-14.11879" fill="none" stroke="#8a2f00" stroke-width="3" stroke-linecap="round"/><path d="M84.91005,284.62518l-10.28311,10.26304" fill="none" stroke="#8a2f00" stroke-width="3" stroke-linecap="round"/><path d="M71.13452,284.08964l6.00587,6.55707" fill="none" stroke="#8a2f00" stroke-width="3" stroke-linecap="round"/><path d="M49.64693,299.56244l7.84235,-11.44429" fill="none" stroke="#8a2f00" stroke-width="3" stroke-linecap="round"/><path d="M39.30791,349.70522l-0.07827,-6.06289l1.82642,-7.7283" fill="none" stroke="#8a2f00" stroke-width="3" stroke-linecap="round"/></g><g><path d="M86.4567,361.13888l-36.12286,26.83539l-45.91836,-61.81024l36.12289,-26.8354z" fill="#453d34" stroke="none" stroke-width="0" stroke-linecap="butt"/><path d="M53.30685,319.94513l1.21436,4.59383l-3.49899,8.96289" fill="none" stroke="#8a2f00" stroke-width="3" stroke-linecap="round"/><path d="M66.07283,373.98276l-16.89831,-9.43019l0.74855,-9.34962l-16.10918,-14.77956" fill="none" stroke="#8a2f00" stroke-width="3" stroke-linecap="round"/><path d="M39.66237,334.97942l4.64139,14.139" fill="none" stroke="#8a2f00" stroke-width="3" stroke-linecap="round"/><path d="M62.44328,357.26012l7.16376,-10.08507l9.43746,7.27848" fill="none" stroke="#8a2f00" stroke-width="3" stroke-linecap="round"/><path d="M10.18321,323.90356l14.6856,4.47886" fill="none" stroke="#8a2f00" stroke-width="3" stroke-linecap="round"/><path d="M34.32582,305.60182l1.22807,14.47633" fill="none" stroke="#8a2f00" stroke-width="3" stroke-linecap="round"/><path d="M33.92805,315.42365l-8.88414,0.37122" fill="none" stroke="#8a2f00" stroke-width="3" stroke-linecap="round"/><path d="M23.04102,342.19775l-3.7037,-13.36999" fill="none" stroke="#8a2f00" stroke-width="3" stroke-linecap="round"/><path d="M54.74017,382.4017l-4.68838,-3.84498l-4.73565,-6.37464" fill="none" stroke="#8a2f00" stroke-width="3" stroke-linecap="round"/></g></g></g></svg>