<svg version="1.1" xmlns="http://www.w3.org/2000/svg" xmlns:xlink="http://www.w3.org/1999/xlink" width="120.20042" height="30.34053" viewBox="0,0,120.20042,30.34053"><g transform="translate(-208.46895,-162.78058)"><g data-paper-data="{&quot;isPaintingLayer&quot;:true}" fill-rule="nonzero" stroke-linecap="butt" stroke-linejoin="miter" stroke-miterlimit="10" stroke-dasharray="" stroke-dashoffset="0" style="mix-blend-mode: normal"><text transform="translate(242.66667,185.5) scale(0.5,0.5)" font-size="40" xml:space="preserve" fill="#ffffff" fill-rule="nonzero" stroke="#000000" stroke-width="3" stroke-linecap="butt" stroke-linejoin="miter" stroke-miterlimit="10" stroke-dasharray="" stroke-dashoffset="0" font-family="Marker" font-weight="normal" text-anchor="start" style="mix-blend-mode: normal"><tspan x="0" dy="0">x</tspan></text><text transform="translate(286.30952,187.54613) scale(0.53095,0.53095)" font-size="40" xml:space="preserve" fill="#ffffff" fill-rule="nonzero" stroke="#000000" stroke-width="3" stroke-linecap="butt" stroke-linejoin="miter" stroke-miterlimit="10" stroke-dasharray="" stroke-dashoffset="0" font-family="Marker" font-weight="normal" text-anchor="start" style="mix-blend-mode: normal"><tspan x="0" dy="0">/20</tspan></text><g stroke="none" stroke-width="1"><g><path d="M234.36307,177.85486c0,6.3667 -5.48929,11.52949 -12.26183,11.52949c-6.77254,0 -12.26139,-5.16059 -12.26139,-11.52949c0,-6.3667 5.48842,-9.32413 12.26139,-9.32413c6.7721,-0.00044 12.26183,2.95786 12.26183,9.32413z" fill="#ec1c2c"/><g fill="#231f20"><path d="M235.73616,177.7317c0,7.08064 -6.10374,12.82106 -13.63404,12.82106c-7.52899,0 -13.63317,-5.74042 -13.63317,-12.82106c0,-6.24004 4.74249,-9.04933 11.02197,-9.6296c0,0 1.98447,-0.25419 4.00401,-0.08283c6.87378,0.31993 12.24123,3.07532 12.24123,9.71243zM233.65615,177.91972c0,-5.52304 -4.38574,-8.32006 -10.05779,-8.73028c0,0 -3.59686,0.0504 -3.70598,0.06311c-5.32275,0.58772 -9.34122,3.37904 -9.34122,8.66629c0,5.99812 5.17067,10.86244 11.5514,10.86244c6.38029,0 11.55096,-4.86345 11.55359,-10.86157z"/><path d="M226.02592,172.00969c-1.56374,0.07933 -3.06173,0.11877 -4.62854,0.29452c-1.04614,0.11746 -2.05416,0.12666 -2.82901,-0.66354c-0.16829,-0.17312 0.05172,-0.47158 0.26208,-0.33878c0.51803,0.32476 1.04001,0.45624 1.56505,0.48166c0.03418,0.02805 1.87315,-0.21475 2.71287,-0.48122c1.01327,-0.27611 2.02742,-0.50401 3.03675,-0.17049c0.48253,0.15953 0.38918,0.85111 -0.11921,0.87785z"/></g><path d="M213.97139,177.79306c0,1.50369 0.81079,2.72251 -0.03681,2.72251c-0.84761,0 -1.53393,-1.21882 -1.53393,-2.72251c0,-1.50326 0.68633,-2.72208 1.53393,-2.72208c0.84761,0 0.03681,1.21926 0.03681,2.72208z" fill="#ffffff"/></g><g><path d="M219.03819,164.83132c0.44747,-0.26734 0.89363,-0.53556 1.34066,-0.80334c0.32169,0.49437 0.64513,0.9769 0.90458,1.52605c0.94753,2.00025 0.73892,4.11313 0.71175,6.22865c-0.16435,0.03901 -0.42819,0.06705 -0.59078,0.09598c0.11307,-2.69446 -0.52811,-5.16454 -2.3662,-7.04733z" fill="#99661d"/><path d="M223.06191,170.85836c0,0 -0.1008,0.82219 -0.11,0.97734c0,0 -1.6527,0.49261 -2.3009,0.24631l-0.02016,-0.70517c0.01315,-1.40903 -0.42512,-2.92236 -0.68457,-3.39613c-0.12403,-0.22615 -0.62365,-1.51903 -2.14751,-2.87372c-0.26121,-0.23097 -0.17312,-0.66397 0.10606,-0.83183c0.79195,-0.47508 1.58171,-0.95016 2.37278,-1.42524c0.25419,-0.15208 0.55441,-0.03857 0.72665,0.19065c2.42274,3.22477 2.13173,7.48428 2.05766,7.8178zM221.95047,171.17129c0.04909,-1.94678 0.21475,-3.75595 -0.66704,-5.61727c-0.25945,-0.54915 -0.58289,-1.03168 -0.90458,-1.52605c-0.44703,0.26778 -0.89319,0.536 -1.34066,0.80334c1.73641,1.77849 2.44553,3.93082 2.42362,6.43507v0.50488l0.48604,-0.0618z" fill="#231f20"/></g></g></g></g></svg>