<svg version="1.1" xmlns="http://www.w3.org/2000/svg" xmlns:xlink="http://www.w3.org/1999/xlink" width="715.76563" height="502.36815" viewBox="0,0,715.76563,502.36815"><g transform="translate(212.065,87.02603)"><g data-paper-data="{&quot;isPaintingLayer&quot;:true}" fill-rule="nonzero" stroke-linejoin="miter" stroke-miterlimit="10" stroke-dasharray="" stroke-dashoffset="0" style="mix-blend-mode: normal"><path d="M470.25295,340.96976v-31.73242h33.44768v31.73242z" fill="#5f2e00" stroke="none" stroke-width="0" stroke-linecap="butt"/><path d="M235.74406,342.68502v-30.01715h34.30532v30.01715z" fill="#5f2e00" stroke="none" stroke-width="NaN" stroke-linecap="butt"/><path d="M139.26806,-69.93429l9.84732,-17.09174l251.17436,144.7129l-9.84732,17.09174z" fill="#b99573" stroke="none" stroke-width="0" stroke-linecap="butt"/><path d="M470.3489,309.90303v-315.60892h31.73242v315.60892z" fill="#5f2e00" stroke="none" stroke-width="0" stroke-linecap="butt"/><g data-paper-data="{&quot;index&quot;:null}"><g><path d="M-0.55262,0.51031v-52c0,0 32.43318,0 48.61976,0c16.14666,0 48.38025,0 48.38025,0v52z" fill="#5f2e00" stroke="none" stroke-width="0" stroke-linecap="butt"/><path d="M89.93489,-27.47833l-3.77778,-4l-8.44444,-1.55556l-7.77778,5.11111l-6.66667,-3.33333l-4.66667,-0.88889l-8.88889,4.44445l-1.77778,-3.33333l-7.11111,-1.33333l-8.44445,5.55555l-6.88889,-3.33334l-9.11111,-1.77777l-10.22223,4l-6,-8.66667v-14.66666h95.33333v14.66666z" fill="#1c820e" stroke="#1c820e" stroke-width="2" stroke-linecap="round"/></g><g><path d="M95.92096,0.54343v-52c0,0 32.43318,0 48.61976,0c16.14666,0 48.38025,0 48.38025,0v52z" fill="#5f2e00" stroke="none" stroke-width="0" stroke-linecap="butt"/><path d="M186.40842,-27.44519l-3.77778,-4l-8.44444,-1.55556l-7.77778,5.11111l-6.66667,-3.33333l-4.66667,-0.88889l-8.88889,4.44445l-1.77778,-3.33333l-7.11111,-1.33333l-8.44445,5.55555l-6.88889,-3.33334l-9.11111,-1.77777l-10.22223,4l-6,-8.66667v-14.66666h95.33333v14.66666z" fill="#1c820e" stroke="#1c820e" stroke-width="2" stroke-linecap="round"/></g></g><g data-paper-data="{&quot;index&quot;:null}"><path d="M405.38636,0.59027v-52c0,0 32.43318,0 48.61976,0c16.14666,0 48.38025,0 48.38025,0v52z" fill="#5f2e00" stroke="none" stroke-width="0" stroke-linecap="butt"/><path d="M495.87381,-27.39833l-3.77778,-4l-8.44444,-1.55556l-7.77778,5.11111l-6.66667,-3.33333l-4.66667,-0.88889l-8.88889,4.44445l-1.77778,-3.33333l-7.11111,-1.33333l-8.44445,5.55555l-6.88889,-3.33334l-9.11111,-1.77777l-10.22223,4l-6,-8.66667v-14.66666h95.33333v14.66666z" fill="#1c820e" stroke="#1c820e" stroke-width="2" stroke-linecap="round"/></g><path d="M7.67952,415.34212v-76.41922h483.62446v76.41922z" data-paper-data="{&quot;index&quot;:null}" fill="#5f2e00" stroke="none" stroke-width="NaN" stroke-linecap="butt"/><path d="" fill="#1c820e" stroke="#1c820e" stroke-width="2" stroke-linecap="butt"/><path d="" fill="#1c820e" stroke="#1c820e" stroke-width="2" stroke-linecap="butt"/><g data-paper-data="{&quot;index&quot;:null}"><path d="M97.40801,251.18484l-18.79297,-43.05371l-1.42012,-42.42394l125.39447,104.53918l-15.20736,47.05647l-116.61674,10.43431z" fill="#5f2e00" stroke="none" stroke-width="0" stroke-linecap="butt"/><path d="M79.25383,197.8102l0.25698,-0.54699c0,-4.83745 0.83286,-10.8876 0.25395,-16.00698c0.09108,-2.50122 -0.10793,-5.20366 -0.20486,-7.62543c0.14348,-0.27876 0.167,-0.51269 -0.02422,-0.67255c-0.01541,-0.49009 -0.02486,-0.9662 -0.02486,-1.42403c0,-1.58136 0.52202,-3.25938 0.12226,-4.76672l39.20932,32.71191l-9.39572,11.26194l-10.15918,2.81109l-5.28679,-9.61998l-8.13493,-4.47165z" fill="#1c820e" stroke="#1c820e" stroke-width="2" stroke-linecap="butt"/><path d="M109.68872,211.72215l9.39572,-11.26194l73.20267,61.07219l-9.39572,11.26194l-10.15918,2.81109l-5.28678,-9.61998l-8.13493,-4.47166l-7.4251,-1.8536l-2.92517,-9.67555l-6.31451,-3.53168l-3.50047,1.42065l-3.97823,-9.1071l-4.15279,-2.307l-7.25447,-1.71126l-2.69797,-8.90719l-7.48067,-4.2152l-5.46328,0.65134z" fill="#1c820e" stroke="#1c820e" stroke-width="2" stroke-linecap="round"/></g><g data-paper-data="{&quot;index&quot;:null}"><path d="M159.42589,300.22891l29.75706,-42.64407c0,0 26.43406,18.4457 39.6756,27.68566c13.27427,9.26279 39.87201,27.82271 39.87201,27.82271l-29.75706,42.64409z" fill="#5f2e00" stroke="none" stroke-width="0" stroke-linecap="butt"/><path d="M181.44106,270.35192l8.39302,-12.02781l78.1808,54.55461l-8.39301,12.02781l-9.87998,3.67384l-6.09404,-9.12999l-8.48916,-3.75593l-7.55693,-1.20858l-3.74594,-9.38833l-6.59469,-2.97589l-3.36542,1.71625l-4.74624,-8.73148l-4.33571,-1.94154l-7.3747,-1.08142l-3.45354,-8.64235l-7.81528,-3.55666l-5.38708,1.11848z" fill="#1c820e" stroke="#1c820e" stroke-width="2" stroke-linecap="round"/></g><path d="M-0.78968,379.31592v-76.41922l209.65257,10.29159l12.39385,66.12763z" fill="#5f2e00" stroke="none" stroke-width="NaN" stroke-linecap="butt"/><path d="M299.82575,271.45534v-93.48199h33.44768v93.48199z" fill="#5f2e00" stroke="none" stroke-width="0" stroke-linecap="butt"/><path d="M383.01614,143.66804v-94.33962h31.73242v94.33962z" fill="#5f2e00" stroke="none" stroke-width="0" stroke-linecap="butt"/><path d="M255.94066,89.49137v-127.48199h33.44769v127.48199z" fill="#5f2e00" stroke="none" stroke-width="0" stroke-linecap="butt"/><g fill="#b99573" stroke="none" stroke-width="0" stroke-linecap="butt"><path d="M36.21414,184.66758l4.47611,-9.26722l42.23373,20.39911l-4.47611,9.26722z"/><path d="M-212.065,184.84541v-19.72555h289.87994v19.72555z"/></g><path d="M186.14446,0.54949v-16.24294h78.38983v16.24294z" fill="#5f2e00" stroke="none" stroke-width="NaN" stroke-linecap="butt"/></g></g></svg>