<svg version="1.1" xmlns="http://www.w3.org/2000/svg" xmlns:xlink="http://www.w3.org/1999/xlink" width="485.51973" height="432.42965" viewBox="0,0,485.51973,432.42965"><g transform="translate(2.68497,53.11373)"><g data-paper-data="{&quot;isPaintingLayer&quot;:true}" fill-rule="nonzero" stroke-linejoin="miter" stroke-miterlimit="10" stroke-dasharray="" stroke-dashoffset="0" style="mix-blend-mode: normal"><g data-paper-data="{&quot;index&quot;:null}"><g><path d="M-0.55265,-0.34732v-52c0,0 32.43318,0 48.61976,0c16.14666,0 48.38025,0 48.38025,0v52z" fill="#5f2e00" stroke="none" stroke-width="0" stroke-linecap="butt"/><path d="M89.93485,-28.33596l-3.77778,-4l-8.44444,-1.55556l-7.77778,5.11111l-6.66667,-3.33333l-4.66667,-0.88889l-8.88889,4.44445l-1.77778,-3.33333l-7.11111,-1.33333l-8.44445,5.55555l-6.88889,-3.33334l-9.11111,-1.77777l-10.22223,4l-6,-8.66667v-14.66666h95.33333v14.66666z" fill="#1c820e" stroke="#1c820e" stroke-width="2" stroke-linecap="round"/></g><g><path d="M95.92092,-0.3142v-52c0,0 32.43318,0 48.61976,0c16.14666,0 48.38025,0 48.38025,0v52z" fill="#5f2e00" stroke="none" stroke-width="0" stroke-linecap="butt"/><path d="M186.40836,-28.30282l-3.77778,-4l-8.44444,-1.55556l-7.77778,5.11111l-6.66667,-3.33333l-4.66667,-0.88889l-8.88889,4.44445l-1.77778,-3.33333l-7.11111,-1.33333l-8.44445,5.55555l-6.88889,-3.33334l-9.11111,-1.77777l-10.22223,4l-6,-8.66667v-14.66666h95.33333v14.66666z" fill="#1c820e" stroke="#1c820e" stroke-width="2" stroke-linecap="round"/></g></g><g data-paper-data="{&quot;index&quot;:null}"><g><path d="M192.61852,-0.30345v-52c0,0 32.43318,0 48.61976,0c16.14666,0 48.38025,0 48.38025,0v52z" fill="#5f2e00" stroke="none" stroke-width="0" stroke-linecap="butt"/><path d="M283.10594,-28.29208l-3.77778,-4l-8.44444,-1.55556l-7.77778,5.11111l-6.66667,-3.33333l-4.66667,-0.88889l-8.88889,4.44445l-1.77778,-3.33333l-7.11111,-1.33333l-8.44445,5.55555l-6.88889,-3.33334l-9.11111,-1.77777l-10.22223,4l-6,-8.66667v-14.66666h95.33333v14.66666z" fill="#1c820e" stroke="#1c820e" stroke-width="2" stroke-linecap="round"/></g><g><path d="M289.092,-0.27034v-52c0,0 32.43318,0 48.61976,0c16.14666,0 48.38025,0 48.38025,0v52z" fill="#5f2e00" stroke="none" stroke-width="0" stroke-linecap="butt"/><path d="M379.57947,-28.25896l-3.77778,-4l-8.44444,-1.55556l-7.77778,5.11111l-6.66667,-3.33333l-4.66667,-0.88889l-8.88889,4.44445l-1.77778,-3.33333l-7.11111,-1.33333l-8.44445,5.55555l-6.88889,-3.33334l-9.11111,-1.77777l-10.22223,4l-6,-8.66667v-14.66666h95.33333v14.66666z" fill="#1c820e" stroke="#1c820e" stroke-width="2" stroke-linecap="round"/></g></g><g data-paper-data="{&quot;index&quot;:null}"><path d="M384.9061,-0.26736v-52c0,0 32.43318,0 48.61976,0c16.14666,0 48.38025,0 48.38025,0v52z" fill="#5f2e00" stroke="none" stroke-width="0" stroke-linecap="butt"/><path d="M475.39354,-28.25596l-3.77778,-4l-8.44444,-1.55556l-7.77778,5.11111l-6.66667,-3.33333l-4.66667,-0.88889l-8.88889,4.44445l-1.77778,-3.33333l-7.11111,-1.33333l-8.44445,5.55555l-6.88889,-3.33334l-9.11111,-1.77777l-10.22223,4l-6,-8.66667v-14.66666h95.33333v14.66666z" fill="#1c820e" stroke="#1c820e" stroke-width="2" stroke-linecap="round"/></g><path d="M-0.78971,379.31592v-76.41922h483.62446v76.41922z" fill="#5f2e00" stroke="none" stroke-width="NaN" stroke-linecap="butt"/><path d="" fill="#1c820e" stroke="#1c820e" stroke-width="2" stroke-linecap="butt"/><path d="" fill="#1c820e" stroke="#1c820e" stroke-width="2" stroke-linecap="butt"/><g><path d="M210.14199,327.73715l-116.61674,-10.43431l-15.20736,-47.05647l125.39447,-104.53918l-1.42012,42.42394l-18.79297,43.05371z" fill="#5f2e00" stroke="none" stroke-width="0" stroke-linecap="butt"/><path d="M195.04148,199.46081l-8.13493,4.47165l-5.28679,9.61998l-10.15918,-2.81109l-9.39572,-11.26194l39.20932,-32.71191c-0.39976,1.50734 0.12226,3.18536 0.12226,4.76672c0,0.45783 -0.00945,0.93394 -0.02486,1.42403c-0.19122,0.15986 -0.1677,0.39379 -0.02422,0.67255c-0.09693,2.42177 -0.29594,5.12421 -0.20486,7.62543c-0.57891,5.11938 0.25395,11.16953 0.25395,16.00698l0.25698,0.54699z" fill="#1c820e" stroke="#1c820e" stroke-width="2" stroke-linecap="butt"/><path d="M172.78944,222.2772l-5.46328,-0.65134l-7.48067,4.2152l-2.69797,8.90719l-7.25447,1.71126l-4.15279,2.307l-3.97823,9.1071l-3.50047,-1.42065l-6.31451,3.53168l-2.92517,9.67555l-7.4251,1.8536l-8.13493,4.47166l-5.28678,9.61998l-10.15918,-2.81109l-9.39572,-11.26194l73.20267,-61.07219l9.39572,11.26194z" fill="#1c820e" stroke="#1c820e" stroke-width="2" stroke-linecap="round"/></g><g><path d="M-2.45806,307.46824l0.08967,-51.99993c0,0 32.43312,0.05592 48.61968,0.08383c16.14665,0.02784 48.38018,0.08342 48.38018,0.08342l-0.08966,51.99992z" fill="#5f2e00" stroke="none" stroke-width="0" stroke-linecap="butt"/><path d="M88.07753,279.63574l-3.77087,-4.00651l-8.44175,-1.57012l-7.78657,5.09769l-6.66092,-3.34482l-4.66513,-0.89694l-8.89654,4.42912l-1.77203,-3.33639l-7.10881,-1.34561l-8.45402,5.54098l-6.88313,-3.34521l-9.10803,-1.79348l-10.22912,3.98236l-5.98505,-8.677l0.02529,-14.66664l95.33318,0.16438l-0.02528,14.66664z" fill="#1c820e" stroke="#1c820e" stroke-width="2" stroke-linecap="round"/></g></g></g></svg>