<svg version="1.1" xmlns="http://www.w3.org/2000/svg" xmlns:xlink="http://www.w3.org/1999/xlink" width="270.23126" height="243.98734" viewBox="0,0,270.23126,243.98734"><defs><linearGradient x1="182.61272" y1="126.33821" x2="182.61272" y2="145.67155" gradientUnits="userSpaceOnUse" id="color-1"><stop offset="0" stop-color="#1b1b1b"/><stop offset="1" stop-color="#b1b1b1"/></linearGradient><linearGradient x1="182.61272" y1="137.00488" x2="182.61272" y2="156.33822" gradientUnits="userSpaceOnUse" id="color-2"><stop offset="0" stop-color="#1b1b1b"/><stop offset="1" stop-color="#b1b1b1"/></linearGradient><linearGradient x1="182.61272" y1="147.00488" x2="182.61272" y2="166.33822" gradientUnits="userSpaceOnUse" id="color-3"><stop offset="0" stop-color="#1b1b1b"/><stop offset="1" stop-color="#b1b1b1"/></linearGradient><linearGradient x1="310.2481" y1="61.81264" x2="310.2481" y2="81.14598" gradientUnits="userSpaceOnUse" id="color-4"><stop offset="0" stop-color="#1b1b1b"/><stop offset="1" stop-color="#b1b1b1"/></linearGradient><linearGradient x1="310.2481" y1="72.47931" x2="310.2481" y2="91.81265" gradientUnits="userSpaceOnUse" id="color-5"><stop offset="0" stop-color="#1b1b1b"/><stop offset="1" stop-color="#b1b1b1"/></linearGradient><linearGradient x1="310.2481" y1="82.47931" x2="310.2481" y2="101.81265" gradientUnits="userSpaceOnUse" id="color-6"><stop offset="0" stop-color="#1b1b1b"/><stop offset="1" stop-color="#b1b1b1"/></linearGradient><linearGradient x1="310.41993" y1="92.88473" x2="310.41993" y2="112.21807" gradientUnits="userSpaceOnUse" id="color-7"><stop offset="0" stop-color="#1b1b1b"/><stop offset="1" stop-color="#b1b1b1"/></linearGradient><linearGradient x1="310.41993" y1="103.5514" x2="310.41993" y2="122.88474" gradientUnits="userSpaceOnUse" id="color-8"><stop offset="0" stop-color="#1b1b1b"/><stop offset="1" stop-color="#b1b1b1"/></linearGradient><linearGradient x1="310.41993" y1="113.5514" x2="310.41993" y2="132.88474" gradientUnits="userSpaceOnUse" id="color-9"><stop offset="0" stop-color="#1b1b1b"/><stop offset="1" stop-color="#b1b1b1"/></linearGradient><linearGradient x1="237.20369" y1="176.89479" x2="237.20369" y2="196.22813" gradientUnits="userSpaceOnUse" id="color-10"><stop offset="0" stop-color="#1b1b1b"/><stop offset="1" stop-color="#b1b1b1"/></linearGradient><linearGradient x1="237.20369" y1="187.56146" x2="237.20369" y2="206.8948" gradientUnits="userSpaceOnUse" id="color-11"><stop offset="0" stop-color="#1b1b1b"/><stop offset="1" stop-color="#b1b1b1"/></linearGradient><linearGradient x1="237.20369" y1="197.56146" x2="237.20369" y2="216.8948" gradientUnits="userSpaceOnUse" id="color-12"><stop offset="0" stop-color="#1b1b1b"/><stop offset="1" stop-color="#b1b1b1"/></linearGradient><linearGradient x1="237.03185" y1="207.96688" x2="237.03185" y2="227.30022" gradientUnits="userSpaceOnUse" id="color-13"><stop offset="0" stop-color="#1b1b1b"/><stop offset="1" stop-color="#b1b1b1"/></linearGradient><linearGradient x1="237.03185" y1="218.63355" x2="237.03185" y2="237.96689" gradientUnits="userSpaceOnUse" id="color-14"><stop offset="0" stop-color="#1b1b1b"/><stop offset="1" stop-color="#b1b1b1"/></linearGradient><linearGradient x1="237.03185" y1="228.63355" x2="237.03185" y2="247.96689" gradientUnits="userSpaceOnUse" id="color-15"><stop offset="0" stop-color="#1b1b1b"/><stop offset="1" stop-color="#b1b1b1"/></linearGradient><linearGradient x1="360.80469" y1="159.5134" x2="360.80469" y2="178.84674" gradientUnits="userSpaceOnUse" id="color-16"><stop offset="0" stop-color="#1b1b1b"/><stop offset="1" stop-color="#b1b1b1"/></linearGradient><linearGradient x1="360.80469" y1="170.18007" x2="360.80469" y2="189.51341" gradientUnits="userSpaceOnUse" id="color-17"><stop offset="0" stop-color="#1b1b1b"/><stop offset="1" stop-color="#b1b1b1"/></linearGradient><linearGradient x1="360.80469" y1="180.18007" x2="360.80469" y2="199.51341" gradientUnits="userSpaceOnUse" id="color-18"><stop offset="0" stop-color="#1b1b1b"/><stop offset="1" stop-color="#b1b1b1"/></linearGradient><linearGradient x1="360.63286" y1="190.58549" x2="360.63286" y2="209.91883" gradientUnits="userSpaceOnUse" id="color-19"><stop offset="0" stop-color="#1b1b1b"/><stop offset="1" stop-color="#b1b1b1"/></linearGradient><linearGradient x1="360.63286" y1="201.25216" x2="360.63286" y2="220.5855" gradientUnits="userSpaceOnUse" id="color-20"><stop offset="0" stop-color="#1b1b1b"/><stop offset="1" stop-color="#b1b1b1"/></linearGradient><linearGradient x1="360.63286" y1="211.25216" x2="360.63286" y2="230.5855" gradientUnits="userSpaceOnUse" id="color-21"><stop offset="0" stop-color="#1b1b1b"/><stop offset="1" stop-color="#b1b1b1"/></linearGradient><linearGradient x1="370.7393" y1="294.59554" x2="390.07264" y2="294.59554" gradientUnits="userSpaceOnUse" id="color-22"><stop offset="0" stop-color="#1b1b1b"/><stop offset="1" stop-color="#b1b1b1"/></linearGradient><linearGradient x1="381.40597" y1="294.59554" x2="400.73931" y2="294.59554" gradientUnits="userSpaceOnUse" id="color-23"><stop offset="0" stop-color="#1b1b1b"/><stop offset="1" stop-color="#b1b1b1"/></linearGradient><linearGradient x1="391.40597" y1="294.59554" x2="410.73931" y2="294.59554" gradientUnits="userSpaceOnUse" id="color-24"><stop offset="0" stop-color="#1b1b1b"/><stop offset="1" stop-color="#b1b1b1"/></linearGradient><linearGradient x1="401.81139" y1="294.76737" x2="421.14473" y2="294.76737" gradientUnits="userSpaceOnUse" id="color-25"><stop offset="0" stop-color="#1b1b1b"/><stop offset="1" stop-color="#b1b1b1"/></linearGradient><linearGradient x1="412.47806" y1="294.76737" x2="431.8114" y2="294.76737" gradientUnits="userSpaceOnUse" id="color-26"><stop offset="0" stop-color="#1b1b1b"/><stop offset="1" stop-color="#b1b1b1"/></linearGradient><linearGradient x1="422.47806" y1="294.76737" x2="441.8114" y2="294.76737" gradientUnits="userSpaceOnUse" id="color-27"><stop offset="0" stop-color="#1b1b1b"/><stop offset="1" stop-color="#b1b1b1"/></linearGradient></defs><g transform="translate(-171.58014,-61.81264)"><g data-paper-data="{&quot;isPaintingLayer&quot;:true}" fill-rule="nonzero" stroke="none" stroke-linecap="butt" stroke-linejoin="miter" stroke-miterlimit="10" stroke-dasharray="" stroke-dashoffset="0" style="mix-blend-mode: normal"><path d="M193.64533,145.67155l-22.06519,-9.49091l22.06519,-9.84243z" data-paper-data="{&quot;index&quot;:null}" fill="url(#color-1)" stroke-width="NaN"/><path d="M193.64533,156.33822l-22.06519,-9.49091l22.06519,-9.84243z" data-paper-data="{&quot;index&quot;:null}" fill="url(#color-2)" stroke-width="NaN"/><path d="M193.64533,166.33822l-22.06519,-9.49091l22.06519,-9.84243z" data-paper-data="{&quot;index&quot;:null}" fill="url(#color-3)" stroke-width="NaN"/><path d="M321.2807,81.14598l-22.06519,-9.49091l22.06519,-9.84243z" data-paper-data="{&quot;index&quot;:null}" fill="url(#color-4)" stroke-width="NaN"/><path d="M321.2807,91.81265l-22.06519,-9.49091l22.06519,-9.84243z" data-paper-data="{&quot;index&quot;:null}" fill="url(#color-5)" stroke-width="NaN"/><path d="M321.2807,101.81265l-22.06519,-9.49091l22.06519,-9.84243z" data-paper-data="{&quot;index&quot;:null}" fill="url(#color-6)" stroke-width="NaN"/><path d="M321.45254,112.21807l-22.06519,-9.49091l22.06519,-9.84243z" data-paper-data="{&quot;index&quot;:null}" fill="url(#color-7)" stroke-width="NaN"/><path d="M321.45254,122.88474l-22.06519,-9.49091l22.06519,-9.84243z" data-paper-data="{&quot;index&quot;:null}" fill="url(#color-8)" stroke-width="NaN"/><path d="M321.45254,132.88474l-22.06519,-9.49091l22.06519,-9.84243z" data-paper-data="{&quot;index&quot;:null}" fill="url(#color-9)" stroke-width="NaN"/><path d="M226.17108,176.89479l22.06519,9.84243l-22.06519,9.49091z" data-paper-data="{&quot;index&quot;:null}" fill="url(#color-10)" stroke-width="NaN"/><path d="M226.17108,187.56146l22.06519,9.84243l-22.06519,9.49091z" data-paper-data="{&quot;index&quot;:null}" fill="url(#color-11)" stroke-width="NaN"/><path d="M226.17108,197.56146l22.06519,9.84243l-22.06519,9.49091z" data-paper-data="{&quot;index&quot;:null}" fill="url(#color-12)" stroke-width="NaN"/><path d="M225.99925,207.96688l22.06519,9.84243l-22.06519,9.49091z" data-paper-data="{&quot;index&quot;:null}" fill="url(#color-13)" stroke-width="NaN"/><path d="M225.99925,218.63355l22.06519,9.84243l-22.06519,9.49091z" data-paper-data="{&quot;index&quot;:null}" fill="url(#color-14)" stroke-width="NaN"/><path d="M225.99925,228.63355l22.06519,9.84243l-22.06519,9.49091z" data-paper-data="{&quot;index&quot;:null}" fill="url(#color-15)" stroke-width="NaN"/><path d="M349.77209,159.5134l22.06519,9.84243l-22.06519,9.49091z" data-paper-data="{&quot;index&quot;:null}" fill="url(#color-16)" stroke-width="NaN"/><path d="M349.77209,170.18007l22.06519,9.84243l-22.06519,9.49091z" data-paper-data="{&quot;index&quot;:null}" fill="url(#color-17)" stroke-width="NaN"/><path d="M349.77209,180.18007l22.06519,9.84243l-22.06519,9.49091z" data-paper-data="{&quot;index&quot;:null}" fill="url(#color-18)" stroke-width="NaN"/><path d="M349.60025,190.58549l22.06519,9.84243l-22.06519,9.49091z" data-paper-data="{&quot;index&quot;:null}" fill="url(#color-19)" stroke-width="NaN"/><path d="M349.60025,201.25216l22.06519,9.84243l-22.06519,9.49091z" data-paper-data="{&quot;index&quot;:null}" fill="url(#color-20)" stroke-width="NaN"/><path d="M349.60025,211.25216l22.06519,9.84243l-22.06519,9.49091z" data-paper-data="{&quot;index&quot;:null}" fill="url(#color-21)" stroke-width="NaN"/><path d="M370.7393,305.62814l9.84243,-22.06519l9.49091,22.06519z" data-paper-data="{&quot;index&quot;:null}" fill="url(#color-22)" stroke-width="NaN"/><path d="M381.40597,305.62814l9.84243,-22.06519l9.49091,22.06519z" data-paper-data="{&quot;index&quot;:null}" fill="url(#color-23)" stroke-width="NaN"/><path d="M391.40597,305.62814l9.84243,-22.06519l9.49091,22.06519z" data-paper-data="{&quot;index&quot;:null}" fill="url(#color-24)" stroke-width="NaN"/><path d="M401.81139,305.79998l9.84243,-22.06519l9.49091,22.06519z" data-paper-data="{&quot;index&quot;:null}" fill="url(#color-25)" stroke-width="NaN"/><path d="M412.47806,305.79998l9.84243,-22.06519l9.49091,22.06519z" data-paper-data="{&quot;index&quot;:null}" fill="url(#color-26)" stroke-width="NaN"/><path d="M422.47806,305.79998l9.84243,-22.06519l9.49091,22.06519z" data-paper-data="{&quot;index&quot;:null}" fill="url(#color-27)" stroke-width="NaN"/></g></g></svg>