<svg version="1.1" xmlns="http://www.w3.org/2000/svg" xmlns:xlink="http://www.w3.org/1999/xlink" width="348.45165" height="315.00001" viewBox="0,0,348.45165,315.00001"><defs><linearGradient x1="78.1581" y1="259.12893" x2="78.1581" y2="278.46227" gradientUnits="userSpaceOnUse" id="color-1"><stop offset="0" stop-color="#1b1b1b"/><stop offset="1" stop-color="#b1b1b1"/></linearGradient><linearGradient x1="78.1581" y1="125.7956" x2="78.1581" y2="145.12894" gradientUnits="userSpaceOnUse" id="color-2"><stop offset="0" stop-color="#1b1b1b"/><stop offset="1" stop-color="#b1b1b1"/></linearGradient><linearGradient x1="78.1581" y1="269.7956" x2="78.1581" y2="289.12894" gradientUnits="userSpaceOnUse" id="color-3"><stop offset="0" stop-color="#1b1b1b"/><stop offset="1" stop-color="#b1b1b1"/></linearGradient><linearGradient x1="78.1581" y1="136.46227" x2="78.1581" y2="155.79561" gradientUnits="userSpaceOnUse" id="color-4"><stop offset="0" stop-color="#1b1b1b"/><stop offset="1" stop-color="#b1b1b1"/></linearGradient><linearGradient x1="78.1581" y1="279.7956" x2="78.1581" y2="299.12894" gradientUnits="userSpaceOnUse" id="color-5"><stop offset="0" stop-color="#1b1b1b"/><stop offset="1" stop-color="#b1b1b1"/></linearGradient><linearGradient x1="78.1581" y1="146.46227" x2="78.1581" y2="165.79561" gradientUnits="userSpaceOnUse" id="color-6"><stop offset="0" stop-color="#1b1b1b"/><stop offset="1" stop-color="#b1b1b1"/></linearGradient><linearGradient x1="141.82477" y1="186.12893" x2="141.82477" y2="205.46227" gradientUnits="userSpaceOnUse" id="color-7"><stop offset="0" stop-color="#1b1b1b"/><stop offset="1" stop-color="#b1b1b1"/></linearGradient><linearGradient x1="141.82477" y1="196.7956" x2="141.82477" y2="216.12894" gradientUnits="userSpaceOnUse" id="color-8"><stop offset="0" stop-color="#1b1b1b"/><stop offset="1" stop-color="#b1b1b1"/></linearGradient><linearGradient x1="141.82477" y1="206.7956" x2="141.82477" y2="226.12894" gradientUnits="userSpaceOnUse" id="color-9"><stop offset="0" stop-color="#1b1b1b"/><stop offset="1" stop-color="#b1b1b1"/></linearGradient><linearGradient x1="410.16127" y1="112.7956" x2="410.16127" y2="132.12894" gradientUnits="userSpaceOnUse" id="color-10"><stop offset="0" stop-color="#1b1b1b"/><stop offset="1" stop-color="#b1b1b1"/></linearGradient><linearGradient x1="410.82794" y1="81.46227" x2="410.82794" y2="100.79561" gradientUnits="userSpaceOnUse" id="color-11"><stop offset="0" stop-color="#1b1b1b"/><stop offset="1" stop-color="#b1b1b1"/></linearGradient><linearGradient x1="411.4946" y1="48.7956" x2="411.4946" y2="68.12894" gradientUnits="userSpaceOnUse" id="color-12"><stop offset="0" stop-color="#1b1b1b"/><stop offset="1" stop-color="#b1b1b1"/></linearGradient><linearGradient x1="411.4946" y1="14.12893" x2="411.4946" y2="33.46227" gradientUnits="userSpaceOnUse" id="color-13"><stop offset="0" stop-color="#1b1b1b"/><stop offset="1" stop-color="#b1b1b1"/></linearGradient><linearGradient x1="411.4946" y1="-15.87107" x2="411.4946" y2="3.46227" gradientUnits="userSpaceOnUse" id="color-14"><stop offset="0" stop-color="#1b1b1b"/><stop offset="1" stop-color="#b1b1b1"/></linearGradient><linearGradient x1="410.16127" y1="123.46227" x2="410.16127" y2="142.79561" gradientUnits="userSpaceOnUse" id="color-15"><stop offset="0" stop-color="#1b1b1b"/><stop offset="1" stop-color="#b1b1b1"/></linearGradient><linearGradient x1="410.82794" y1="92.12894" x2="410.82794" y2="111.46228" gradientUnits="userSpaceOnUse" id="color-16"><stop offset="0" stop-color="#1b1b1b"/><stop offset="1" stop-color="#b1b1b1"/></linearGradient><linearGradient x1="411.4946" y1="59.46227" x2="411.4946" y2="78.79561" gradientUnits="userSpaceOnUse" id="color-17"><stop offset="0" stop-color="#1b1b1b"/><stop offset="1" stop-color="#b1b1b1"/></linearGradient><linearGradient x1="411.4946" y1="24.7956" x2="411.4946" y2="44.12894" gradientUnits="userSpaceOnUse" id="color-18"><stop offset="0" stop-color="#1b1b1b"/><stop offset="1" stop-color="#b1b1b1"/></linearGradient><linearGradient x1="411.4946" y1="-5.2044" x2="411.4946" y2="14.12894" gradientUnits="userSpaceOnUse" id="color-19"><stop offset="0" stop-color="#1b1b1b"/><stop offset="1" stop-color="#b1b1b1"/></linearGradient><linearGradient x1="410.16127" y1="133.46227" x2="410.16127" y2="152.79561" gradientUnits="userSpaceOnUse" id="color-20"><stop offset="0" stop-color="#1b1b1b"/><stop offset="1" stop-color="#b1b1b1"/></linearGradient><linearGradient x1="410.82794" y1="102.12894" x2="410.82794" y2="121.46228" gradientUnits="userSpaceOnUse" id="color-21"><stop offset="0" stop-color="#1b1b1b"/><stop offset="1" stop-color="#b1b1b1"/></linearGradient><linearGradient x1="411.4946" y1="69.46227" x2="411.4946" y2="88.79561" gradientUnits="userSpaceOnUse" id="color-22"><stop offset="0" stop-color="#1b1b1b"/><stop offset="1" stop-color="#b1b1b1"/></linearGradient><linearGradient x1="411.4946" y1="34.7956" x2="411.4946" y2="54.12894" gradientUnits="userSpaceOnUse" id="color-23"><stop offset="0" stop-color="#1b1b1b"/><stop offset="1" stop-color="#b1b1b1"/></linearGradient><linearGradient x1="411.4946" y1="4.7956" x2="411.4946" y2="24.12894" gradientUnits="userSpaceOnUse" id="color-24"><stop offset="0" stop-color="#1b1b1b"/><stop offset="1" stop-color="#b1b1b1"/></linearGradient></defs><g transform="translate(-70.60052,15.87107)"><g data-paper-data="{&quot;isPaintingLayer&quot;:true}" fill-rule="nonzero" stroke="none" stroke-linecap="butt" stroke-linejoin="miter" stroke-miterlimit="10" stroke-dasharray="" stroke-dashoffset="0" style="mix-blend-mode: normal"><path d="M70.60052,259.12893l15.11515,9.84243l-15.11515,9.49091z" fill="url(#color-1)" stroke-width="NaN"/><path d="M70.60052,125.7956l15.11515,9.84243l-15.11515,9.49091z" fill="url(#color-2)" stroke-width="NaN"/><path d="M70.60052,269.7956l15.11515,9.84243l-15.11515,9.49091z" fill="url(#color-3)" stroke-width="NaN"/><path d="M70.60052,136.46227l15.11515,9.84243l-15.11515,9.49091z" fill="url(#color-4)" stroke-width="NaN"/><path d="M70.60052,279.7956l15.11515,9.84243l-15.11515,9.49091z" fill="url(#color-5)" stroke-width="NaN"/><path d="M70.60052,146.46227l15.11515,9.84243l-15.11515,9.49091z" fill="url(#color-6)" stroke-width="NaN"/><path d="M149.38234,205.46227l-15.11515,-9.49091l15.11515,-9.84243z" data-paper-data="{&quot;index&quot;:null}" fill="url(#color-7)" stroke-width="NaN"/><path d="M149.38234,216.12894l-15.11515,-9.49091l15.11515,-9.84243z" data-paper-data="{&quot;index&quot;:null}" fill="url(#color-8)" stroke-width="NaN"/><path d="M149.38234,226.12894l-15.11515,-9.49091l15.11515,-9.84243z" data-paper-data="{&quot;index&quot;:null}" fill="url(#color-9)" stroke-width="NaN"/><path d="M402.60369,112.7956l15.11515,9.84243l-15.11515,9.49091z" fill="url(#color-10)" stroke-width="NaN"/><path d="M403.27036,81.46227l15.11515,9.84243l-15.11515,9.49091z" fill="url(#color-11)" stroke-width="NaN"/><path d="M403.93702,48.7956l15.11515,9.84243l-15.11515,9.49091z" fill="url(#color-12)" stroke-width="NaN"/><path d="M403.93702,14.12893l15.11515,9.84243l-15.11515,9.49091z" fill="url(#color-13)" stroke-width="NaN"/><path d="M403.93702,-15.87107l15.11515,9.84243l-15.11515,9.49091z" fill="url(#color-14)" stroke-width="NaN"/><path d="M402.60369,123.46227l15.11515,9.84243l-15.11515,9.49091z" fill="url(#color-15)" stroke-width="NaN"/><path d="M403.27036,92.12894l15.11515,9.84243l-15.11515,9.49091z" fill="url(#color-16)" stroke-width="NaN"/><path d="M403.93702,59.46227l15.11515,9.84243l-15.11515,9.49091z" fill="url(#color-17)" stroke-width="NaN"/><path d="M403.93702,24.7956l15.11515,9.84243l-15.11515,9.49091z" fill="url(#color-18)" stroke-width="NaN"/><path d="M403.93702,-5.2044l15.11515,9.84243l-15.11515,9.49091z" fill="url(#color-19)" stroke-width="NaN"/><path d="M402.60369,133.46227l15.11515,9.84243l-15.11515,9.49091z" fill="url(#color-20)" stroke-width="NaN"/><path d="M403.27036,102.12894l15.11515,9.84243l-15.11515,9.49091z" fill="url(#color-21)" stroke-width="NaN"/><path d="M403.93702,69.46227l15.11515,9.84243l-15.11515,9.49091z" fill="url(#color-22)" stroke-width="NaN"/><path d="M403.93702,34.7956l15.11515,9.84243l-15.11515,9.49091z" fill="url(#color-23)" stroke-width="NaN"/><path d="M403.93702,4.7956l15.11515,9.84243l-15.11515,9.49091z" fill="url(#color-24)" stroke-width="NaN"/></g></g></svg>