<svg version="1.1" xmlns="http://www.w3.org/2000/svg" xmlns:xlink="http://www.w3.org/1999/xlink" width="36.78237" height="36.64493" viewBox="0,0,36.78237,36.64493"><g transform="translate(-221.60882,-161.67778)"><g data-paper-data="{&quot;isPaintingLayer&quot;:true}" fill-rule="nonzero" stroke="#ffffff" stroke-linejoin="miter" stroke-miterlimit="10" stroke-dasharray="" stroke-dashoffset="0" style="mix-blend-mode: normal"><path d="M224.24303,195.26111c-1.78446,-2.03849 -1.33333,-1.94996 -1.33333,-6.26354c0,-6.62276 0,-15.34078 0,-18.66667c0,-2.11836 -0.07795,-3.80076 1.66667,-5.40313c1.74462,-1.60237 1.98744,-1.99999 4.94196,-1.99999c3.95269,0 13.20546,0 20,0c3.54511,0 3.39872,-0.08569 5.39137,2c1.99266,2.08569 2,2.97653 2,5.73645c0,3.30191 0,11.09013 0,17.33334c0,4.9509 1.05321,4.72375 -1.33334,7.26354c-2.38655,2.53979 -2.50424,1.66667 -7.05804,1.66667c-6.63709,0 -15.17038,0 -18.66666,0c-2.71287,0 -3.82417,0.37181 -5.60863,-1.66667z" fill="#ff0000" stroke-width="2.5" stroke-linecap="butt"/><path d="M248.33334,171.66667l-16.66667,16.66667" fill="none" stroke-width="5" stroke-linecap="round"/><path d="M231.66667,171.66667l16.66667,16.66667" data-paper-data="{&quot;index&quot;:null}" fill="none" stroke-width="5" stroke-linecap="round"/></g></g></svg>