<svg version="1.1" xmlns="http://www.w3.org/2000/svg" xmlns:xlink="http://www.w3.org/1999/xlink" width="658.0794" height="418.36643" viewBox="0,0,658.0794,418.36643"><g transform="translate(36.03951,52.14325)"><g data-paper-data="{&quot;isPaintingLayer&quot;:true}" fill-rule="nonzero" stroke-linejoin="miter" stroke-miterlimit="10" stroke-dasharray="" stroke-dashoffset="0" style="mix-blend-mode: normal"><path d="M488.55193,37.53177l-6.40633,14.59364l-117.86825,-51.74188l6.40632,-14.59364z" fill="#c6c6c6" stroke="none" stroke-width="0" stroke-linecap="butt"/><g><path d="M378.37163,263.22317v-52c0,0 81.47357,0 122.13496,0c40.56112,0 121.5333,0 121.5333,0v52z" fill="#676767" stroke="none" stroke-width="0" stroke-linecap="butt"/><path d="M617.66229,253.27782h-235.24396" fill="none" stroke="#444444" stroke-width="2" stroke-linecap="round"/><path d="M617.66229,242.71627h-235.24396" fill="none" stroke="#444444" stroke-width="2" stroke-linecap="round"/><path d="M382.41833,231.55434h235.24396" fill="none" stroke="#444444" stroke-width="2" stroke-linecap="round"/><path d="M378.75935,222.56853v-11.30026h242.85966v11.30026z" fill="#c6c6c6" stroke="none" stroke-width="0" stroke-linecap="butt"/></g><path d="M46.91303,3.34388l-36.87822,36.87822v-36.87822z" data-paper-data="{&quot;index&quot;:null}" fill="#444444" stroke="none" stroke-width="NaN" stroke-linecap="butt"/><g><path d="M-2.62837,366.22318v-52c0,0 81.47357,0 122.13496,0c40.56112,0 121.5333,0 121.5333,0v52z" fill="#676767" stroke="none" stroke-width="0" stroke-linecap="butt"/><path d="M236.66229,356.27783h-235.24396" fill="none" stroke="#444444" stroke-width="2" stroke-linecap="round"/><path d="M236.66229,345.71628h-235.24396" fill="none" stroke="#444444" stroke-width="2" stroke-linecap="round"/><path d="M236.66229,334.55431h-235.24396" fill="none" stroke="#444444" stroke-width="2" stroke-linecap="round"/><path d="M-2.24065,325.5685v-11.30026h242.85966v11.30026z" fill="#c6c6c6" stroke="none" stroke-width="0" stroke-linecap="butt"/></g><g><path d="M238.38029,366.22318v-52c0,0 81.47357,0 122.13496,0c40.56112,0 121.5333,0 121.5333,0v52z" fill="#676767" stroke="none" stroke-width="0" stroke-linecap="butt"/><path d="M242.42699,356.27783h235.24396" fill="none" stroke="#444444" stroke-width="2" stroke-linecap="round"/><path d="M242.42699,345.71628h235.24396" fill="none" stroke="#444444" stroke-width="2" stroke-linecap="round"/><path d="M242.42699,334.55431h235.24396" fill="none" stroke="#444444" stroke-width="2" stroke-linecap="round"/><path d="M238.76801,325.5685v-11.30026h242.85967v11.30026z" fill="#c6c6c6" stroke="none" stroke-width="0" stroke-linecap="butt"/></g><g><path d="M-8.98801,3.3501v-52c0,0 25.20183,0 37.77943,0c12.54658,0 37.59332,0 37.59332,0v52z" fill="#676767" stroke="none" stroke-width="0" stroke-linecap="butt"/><path d="M65.03064,-6.59527h-72.7669" fill="none" stroke="#444444" stroke-width="2" stroke-linecap="round"/><path d="M65.03063,-17.1568h-72.7669" fill="none" stroke="#444444" stroke-width="2" stroke-linecap="round"/><path d="M-7.73626,-28.31873h72.7669" fill="none" stroke="#444444" stroke-width="2" stroke-linecap="round"/><path d="M-8.86808,-37.30455v-11.30026h75.12263v11.30026z" fill="#c6c6c6" stroke="none" stroke-width="0" stroke-linecap="butt"/></g><g><path d="M-8.62837,258.22317v-52c0,0 99.30625,0 148.86747,0c49.43901,0 148.13412,0 148.13412,0v52z" fill="#676767" stroke="none" stroke-width="0" stroke-linecap="butt"/><path d="M-3.69594,248.27782h286.73341" fill="none" stroke="#444444" stroke-width="2" stroke-linecap="round"/><path d="M-3.69594,237.71627h286.73341" fill="none" stroke="#444444" stroke-width="2" stroke-linecap="round"/><path d="M-3.69594,226.55434h286.73341" fill="none" stroke="#444444" stroke-width="2" stroke-linecap="round"/><path d="M-8.15578,217.56853v-11.30026h296.01601v11.30026z" fill="#c6c6c6" stroke="none" stroke-width="0" stroke-linecap="butt"/></g><g><path d="M-35.66905,205.29998v-206.66667c0,0 15.92246,0 23.86895,0c7.9269,0 23.75137,0 23.75137,0v206.66667z" fill="#676767" stroke="none" stroke-width="0" stroke-linecap="butt"/><path d="M-34.8782,165.77354h45.97396" fill="none" stroke="#444444" stroke-width="2" stroke-linecap="round"/><path d="M-34.8782,123.79819h45.97396" fill="none" stroke="#444444" stroke-width="2" stroke-linecap="round"/><path d="M-34.8782,79.43667h45.97396" fill="none" stroke="#444444" stroke-width="2" stroke-linecap="round"/><path d="M-35.03951,39.68223h45.97396" fill="none" stroke="#444444" stroke-width="2" stroke-linecap="round"/></g><path d="M389.83931,262.7768h-11.30026v-46.28823h11.30026z" fill="#c6c6c6" stroke="none" stroke-width="0" stroke-linecap="butt"/><path d="M287.83931,259.20534h-11.30026v-51.7168h11.30026z" fill="#c6c6c6" stroke="none" stroke-width="0" stroke-linecap="butt"/><path d="M481.67758,126.99859h-73.34074c0,0 0,-43.18416 0,-64.73628c0,-21.49898 0,-64.41738 0,-64.41738h73.34074z" fill="#676767" stroke="none" stroke-width="0" stroke-linecap="butt"/><path d="M467.65067,0.16524v124.68845" fill="none" stroke="#444444" stroke-width="2" stroke-linecap="round"/><path d="M452.75468,0.16524v124.68845" fill="none" stroke="#444444" stroke-width="2" stroke-linecap="round"/><path d="M437.01191,0.16524v124.68845" fill="none" stroke="#444444" stroke-width="2" stroke-linecap="round"/><path d="M424.33833,126.7931h-15.93786v-128.72508h15.93786z" fill="#c6c6c6" stroke="none" stroke-width="0" stroke-linecap="butt"/><path d="M486.23873,115.69683v11.30026h-72.94132v-11.30026z" fill="#c6c6c6" stroke="none" stroke-width="0" stroke-linecap="butt"/><g><path d="M392.94796,-0.14325v-52c0,0 30.65044,0 45.9473,0c15.25914,0 45.72096,0 45.72096,0v52z" fill="#676767" stroke="none" stroke-width="0" stroke-linecap="butt"/><path d="M394.47033,-10.0886h88.49903" fill="none" stroke="#444444" stroke-width="2" stroke-linecap="round"/><path d="M394.47033,-20.65015h88.49903" fill="none" stroke="#444444" stroke-width="2" stroke-linecap="round"/><path d="M482.96936,-31.81208h-88.49903" fill="none" stroke="#444444" stroke-width="2" stroke-linecap="round"/><path d="M393.09382,-40.79789v-11.30026h91.36406v11.30026z" fill="#c6c6c6" stroke="none" stroke-width="0" stroke-linecap="butt"/></g><g data-paper-data="{&quot;index&quot;:null}"><path d="M456.5671,-0.65357h52c0,0 0,42.39343 0,63.62944c0,21.2885 0,63.94444 0,63.94444h-52z" fill="#676767" stroke="none" stroke-width="0" stroke-linecap="butt"/><path d="M466.51245,124.80165v-123.16329" fill="none" stroke="#444444" stroke-width="2" stroke-linecap="round"/><path d="M477.074,124.80165v-123.16329" fill="none" stroke="#444444" stroke-width="2" stroke-linecap="round"/><path d="M488.23593,124.80165v-123.16329" fill="none" stroke="#444444" stroke-width="2" stroke-linecap="round"/><path d="M497.22174,-0.43321h11.30026v127.15054h-11.30026z" fill="#c6c6c6" stroke="none" stroke-width="0" stroke-linecap="butt"/></g><path d="M506.55146,115.69683v11.30026h-51.7168v-11.30026z" data-paper-data="{&quot;index&quot;:null}" fill="#c6c6c6" stroke="none" stroke-width="0" stroke-linecap="butt"/></g></g></svg>