<svg version="1.1" xmlns="http://www.w3.org/2000/svg" xmlns:xlink="http://www.w3.org/1999/xlink" width="507.6" height="383.8" viewBox="0,0,507.6,383.8"><g transform="translate(15.10781,11.16796)"><g data-paper-data="{&quot;isPaintingLayer&quot;:true}" fill-rule="nonzero" stroke-linejoin="miter" stroke-miterlimit="10" stroke-dasharray="" stroke-dashoffset="0" style="mix-blend-mode: normal"><path d="M-3.22656,363.12892v-368h488v368z" fill="#363636" stroke="#000000" stroke-width="2" stroke-linecap="butt"/><path d="M59.79219,-3.66796l-64.8,64.8" fill="none" stroke="#676767" stroke-width="5" stroke-linecap="round"/><path d="M119.99219,-3.46796l-129.6,129.6" fill="none" stroke="#676767" stroke-width="5" stroke-linecap="round"/><path d="M174.59219,0.73204l-187.2,187.2" fill="none" stroke="#676767" stroke-width="5" stroke-linecap="round"/><path d="M238.79219,-4.66796l-248.8,248.8" fill="none" stroke="#676767" stroke-width="5" stroke-linecap="round"/><path d="M301.59219,-6.66796l-309.6,309.6" fill="none" stroke="#676767" stroke-width="5" stroke-linecap="round"/><path d="M361.79219,-7.26796l-366.4,366.4" fill="none" stroke="#676767" stroke-width="5" stroke-linecap="round"/><path d="M421.99219,-8.66796l-375.2,375.2" fill="none" stroke="#676767" stroke-width="5" stroke-linecap="round"/><path d="M476.59219,-4.46796l-372,372" fill="none" stroke="#676767" stroke-width="5" stroke-linecap="round"/><path d="M485.59219,44.53204l-325.6,325.6" fill="none" stroke="#676767" stroke-width="5" stroke-linecap="round"/><path d="M488.19219,102.33204l-264.8,264.8" fill="none" stroke="#676767" stroke-width="5" stroke-linecap="round"/><path d="M489.99219,160.13204l-204,204" fill="none" stroke="#676767" stroke-width="5" stroke-linecap="round"/><path d="M483.79219,301.13204l-64.8,64.8" fill="none" stroke="#676767" stroke-width="5" stroke-linecap="round"/><path d="M484.79219,241.33204l-123.2,123.2" fill="none" stroke="#676767" stroke-width="5" stroke-linecap="round"/></g></g></svg>