<svg version="1.1" xmlns="http://www.w3.org/2000/svg" xmlns:xlink="http://www.w3.org/1999/xlink" width="552.42617" height="482.33832" viewBox="0,0,552.42617,482.33832"><g transform="translate(36.43024,33.0682)"><g data-paper-data="{&quot;isPaintingLayer&quot;:true}" fill-rule="nonzero" stroke-linejoin="miter" stroke-miterlimit="10" stroke-dasharray="" stroke-dashoffset="0" style="mix-blend-mode: normal"><path d="M483.34489,60.51774v44l-44,-44z" data-paper-data="{&quot;index&quot;:null}" fill="#444444" stroke="none" stroke-width="NaN" stroke-linecap="butt"/><path d="M400.86186,209.73572l12.25652,-12.25652l92.70956,92.70956l-12.25651,12.25651z" fill="#c6c6c6" stroke="none" stroke-width="NaN" stroke-linecap="butt"/><g><path d="M139.43682,223.82176v-52c0,0 115.33963,0 172.90271,0c57.42113,0 172.05096,0 172.05096,0v52z" fill="#676767" stroke="none" stroke-width="0" stroke-linecap="butt"/><path d="M478.19323,213.8764h-333.02764" fill="none" stroke="#444444" stroke-width="2" stroke-linecap="round"/><path d="M145.16561,203.31486h333.02764" fill="none" stroke="#444444" stroke-width="2" stroke-linecap="round"/><path d="M478.19323,192.15293h-333.02764" fill="none" stroke="#444444" stroke-width="2" stroke-linecap="round"/><path d="M139.9857,183.16712v-11.30026h343.80896v11.30026z" fill="#c6c6c6" stroke="none" stroke-width="0" stroke-linecap="butt"/></g><path d="M153.28084,305.8696l8.87357,-15.40162l226.33706,130.40301l-8.87357,15.40163z" fill="#b99573" stroke="none" stroke-width="0" stroke-linecap="butt"/><g data-paper-data="{&quot;index&quot;:null}"><g><path d="M-0.55263,363.28907v-52c0,0 32.43318,0 48.61976,0c16.14666,0 48.38025,0 48.38025,0v52z" fill="#5f2e00" stroke="none" stroke-width="0" stroke-linecap="butt"/><path d="M89.93489,335.30042l-3.77778,-4l-8.44444,-1.55556l-7.77778,5.11111l-6.66667,-3.33333l-4.66667,-0.88889l-8.88889,4.44445l-1.77778,-3.33333l-7.11111,-1.33333l-8.44445,5.55555l-6.88889,-3.33334l-9.11111,-1.77777l-10.22223,4l-6,-8.66667v-14.66666h95.33333v14.66666z" fill="#1c820e" stroke="#1c820e" stroke-width="2" stroke-linecap="round"/></g><g><path d="M95.92096,363.32219v-52c0,0 32.43318,0 48.61976,0c16.14666,0 48.38025,0 48.38025,0v52z" fill="#5f2e00" stroke="none" stroke-width="0" stroke-linecap="butt"/><path d="M186.4084,335.33356l-3.77778,-4l-8.44444,-1.55556l-7.77778,5.11111l-6.66667,-3.33333l-4.66667,-0.88889l-8.88889,4.44445l-1.77778,-3.33333l-7.11111,-1.33333l-8.44445,5.55555l-6.88889,-3.33334l-9.11111,-1.77777l-10.22223,4l-6,-8.66667v-14.66666h95.33333v14.66666z" fill="#1c820e" stroke="#1c820e" stroke-width="2" stroke-linecap="round"/></g></g><g data-paper-data="{&quot;index&quot;:null}"><path d="M384.90614,363.36903v-52c0,0 32.43318,0 48.61976,0c16.14666,0 48.38025,0 48.38025,0v52z" fill="#5f2e00" stroke="none" stroke-width="0" stroke-linecap="butt"/><path d="M475.39358,335.38043l-3.77778,-4l-8.44444,-1.55556l-7.77778,5.11111l-6.66667,-3.33333l-4.66667,-0.88889l-8.88889,4.44445l-1.77778,-3.33333l-7.11111,-1.33333l-8.44445,5.55555l-6.88889,-3.33334l-9.11111,-1.77777l-10.22223,4l-6,-8.66667v-14.66666h95.33333v14.66666z" fill="#1c820e" stroke="#1c820e" stroke-width="2" stroke-linecap="round"/></g><path d="" fill="#1c820e" stroke="#1c820e" stroke-width="2" stroke-linecap="butt"/><path d="" fill="#1c820e" stroke="#1c820e" stroke-width="2" stroke-linecap="butt"/><path d="M191.42714,449.27013v-135.48199l85.78102,47.33333l-1.33333,88.14866z" fill="#5f2e00" stroke="none" stroke-width="0" stroke-linecap="butt"/><path d="M-33.22745,328.62516v-339.7332h33.44769v339.7332z" fill="#5f2e00" stroke="none" stroke-width="0" stroke-linecap="butt"/><path d="M479.49124,326.7641v-339.7332h33.44769v339.7332z" fill="#5f2e00" stroke="none" stroke-width="0" stroke-linecap="butt"/><path d="M-33.22745,328.62516v-339.7332h33.44769v339.7332z" fill="#5f2e00" stroke="none" stroke-width="0" stroke-linecap="butt"/><path d="M-36.43024,-33.0682h552.42617v33.44769h-552.42617z" fill="#5f2e00" stroke="none" stroke-width="0" stroke-linecap="butt"/><g><path d="M400.43682,65.48842v-52c0,0 29.07405,0 43.58418,0c14.47434,0 43.36948,0 43.36948,0v52z" fill="#676767" stroke="none" stroke-width="0" stroke-linecap="butt"/><path d="M485.82832,55.54306h-83.94743" fill="none" stroke="#444444" stroke-width="2" stroke-linecap="round"/><path d="M401.88089,44.98152h83.94743" fill="none" stroke="#444444" stroke-width="2" stroke-linecap="round"/><path d="M485.82832,33.81958h-83.94743" fill="none" stroke="#444444" stroke-width="2" stroke-linecap="round"/><path d="M400.57518,24.83377v-11.30026h86.66511v11.30026z" fill="#c6c6c6" stroke="none" stroke-width="0" stroke-linecap="butt"/></g></g></g></svg>