<svg version="1.1" xmlns="http://www.w3.org/2000/svg" xmlns:xlink="http://www.w3.org/1999/xlink" width="501.19214" height="376.2291" viewBox="0,0,501.19214,376.2291"><g transform="translate(3.79231,13.97661)"><g data-paper-data="{&quot;isPaintingLayer&quot;:true}" fill-rule="nonzero" stroke-linejoin="miter" stroke-miterlimit="10" stroke-dasharray="" stroke-dashoffset="0" style="mix-blend-mode: normal"><g><g><path d="M209.33173,283.88881v-52c0,0 32.43318,0 48.61976,0c16.14666,0 48.38025,0 48.38025,0v52z" fill="#5f2e00" stroke="none" stroke-width="0" stroke-linecap="butt"/><path d="M299.81917,255.9002l-3.77778,-4l-8.44444,-1.55556l-7.77778,5.11111l-6.66667,-3.33333l-4.66667,-0.88889l-8.88889,4.44445l-1.77778,-3.33333l-7.11111,-1.33333l-8.44445,5.55555l-6.88889,-3.33334l-9.11111,-1.77777l-10.22223,4l-6,-8.66667v-14.66666h95.33333v14.66666z" fill="#1c820e" stroke="#1c820e" stroke-width="2" stroke-linecap="round"/></g><g><path d="M305.80525,283.92193v-52c0,0 32.43318,0 48.61976,0c16.14666,0 48.38025,0 48.38025,0v52z" fill="#5f2e00" stroke="none" stroke-width="0" stroke-linecap="butt"/><path d="M396.29269,255.93332l-3.77778,-4l-8.44444,-1.55556l-7.77778,5.11111l-6.66667,-3.33333l-4.66667,-0.88889l-8.88889,4.44445l-1.77778,-3.33333l-7.11111,-1.33333l-8.44445,5.55555l-6.88889,-3.33334l-9.11111,-1.77777l-10.22223,4l-6,-8.66667v-14.66666h95.33333v14.66666z" fill="#1c820e" stroke="#1c820e" stroke-width="2" stroke-linecap="round"/></g></g><g><g><path d="M233.99276,317.73062v-52c0,0 32.43318,0 48.61976,0c16.14666,0 48.38025,0 48.38025,0v52z" fill="#5f2e00" stroke="none" stroke-width="0" stroke-linecap="butt"/><path d="M324.48019,289.74201l-3.77778,-4l-8.44444,-1.55556l-7.77778,5.11111l-6.66667,-3.33333l-4.66667,-0.88889l-8.88889,4.44445l-1.77778,-3.33333l-7.11111,-1.33333l-8.44445,5.55555l-6.88889,-3.33334l-9.11111,-1.77777l-10.22223,4l-6,-8.66667v-14.66666h95.33333v14.66666z" fill="#1c820e" stroke="#1c820e" stroke-width="2" stroke-linecap="round"/></g><g><path d="M330.46627,317.76373v-52c0,0 32.43318,0 48.61976,0c16.14666,0 48.38025,0 48.38025,0v52z" fill="#5f2e00" stroke="none" stroke-width="0" stroke-linecap="butt"/><path d="M420.95371,289.77512l-3.77778,-4l-8.44444,-1.55556l-7.77778,5.11111l-6.66667,-3.33333l-4.66667,-0.88889l-8.88889,4.44445l-1.77778,-3.33333l-7.11111,-1.33333l-8.44445,5.55555l-6.88889,-3.33334l-9.11111,-1.77777l-10.22223,4l-6,-8.66667v-14.66666h95.33333v14.66666z" fill="#1c820e" stroke="#1c820e" stroke-width="2" stroke-linecap="round"/></g></g><path d="M471.09232,357.02339v-371h16v371z" fill="#5f2e00" stroke="none" stroke-width="0" stroke-linecap="butt"/><g><path d="M44.67724,212.87604v-52c0,0 32.43318,0 48.61976,0c16.14666,0 48.38025,0 48.38025,0v52z" fill="#5f2e00" stroke="none" stroke-width="0" stroke-linecap="butt"/><path d="M135.16467,184.88743l-3.77778,-4l-8.44444,-1.55556l-7.77778,5.11111l-6.66667,-3.33333l-4.66667,-0.88889l-8.88889,4.44445l-1.77778,-3.33333l-7.11111,-1.33333l-8.44445,5.55555l-6.88889,-3.33334l-9.11111,-1.77777l-10.22223,4l-6,-8.66667v-14.66666h95.33333v14.66666z" fill="#1c820e" stroke="#1c820e" stroke-width="2" stroke-linecap="round"/></g><g><path d="M259.74548,133.86711v-52c0,0 32.43318,0 48.61976,0c16.14666,0 48.38025,0 48.38025,0v52z" fill="#5f2e00" stroke="none" stroke-width="0" stroke-linecap="butt"/><path d="M350.23292,105.8785l-3.77778,-4l-8.44444,-1.55556l-7.77778,5.11111l-6.66667,-3.33333l-4.66667,-0.88889l-8.88889,4.44445l-1.77778,-3.33333l-7.11111,-1.33333l-8.44445,5.55555l-6.88889,-3.33334l-9.11111,-1.77777l-10.22223,4l-6,-8.66667v-14.66666h95.33333v14.66666z" fill="#1c820e" stroke="#1c820e" stroke-width="2" stroke-linecap="round"/></g><g><g><path d="M0.34869,359.51028v-52c0,0 32.43318,0 48.61976,0c16.14666,0 48.38025,0 48.38025,0v52z" fill="#5f2e00" stroke="none" stroke-width="0" stroke-linecap="butt"/><path d="M90.83614,331.52167l-3.77778,-4l-8.44444,-1.55556l-7.77778,5.11111l-6.66667,-3.33333l-4.66667,-0.88889l-8.88889,4.44445l-1.77778,-3.33333l-7.11111,-1.33333l-8.44445,5.55555l-6.88889,-3.33334l-9.11111,-1.77777l-10.22223,4l-6,-8.66667v-14.66666h95.33333v14.66666z" fill="#1c820e" stroke="#1c820e" stroke-width="2" stroke-linecap="round"/></g><g><path d="M96.82221,359.5434v-52c0,0 32.43318,0 48.61976,0c16.14666,0 48.38025,0 48.38025,0v52z" fill="#5f2e00" stroke="none" stroke-width="0" stroke-linecap="butt"/><path d="M187.30965,331.55479l-3.77778,-4l-8.44444,-1.55556l-7.77778,5.11111l-6.66667,-3.33333l-4.66667,-0.88889l-8.88889,4.44445l-1.77778,-3.33333l-7.11111,-1.33333l-8.44445,5.55555l-6.88889,-3.33334l-9.11111,-1.77777l-10.22223,4l-6,-8.66667v-14.66666h95.33333v14.66666z" fill="#1c820e" stroke="#1c820e" stroke-width="2" stroke-linecap="round"/></g></g><g><g><path d="M193.51981,359.55415v-52c0,0 32.43318,0 48.61976,0c16.14666,0 48.38025,0 48.38025,0v52z" fill="#5f2e00" stroke="none" stroke-width="0" stroke-linecap="butt"/><path d="M284.00724,331.56554l-3.77778,-4l-8.44444,-1.55556l-7.77778,5.11111l-6.66667,-3.33333l-4.66667,-0.88889l-8.88889,4.44445l-1.77778,-3.33333l-7.11111,-1.33333l-8.44445,5.55555l-6.88889,-3.33334l-9.11111,-1.77777l-10.22223,4l-6,-8.66667v-14.66666h95.33333v14.66666z" fill="#1c820e" stroke="#1c820e" stroke-width="2" stroke-linecap="round"/></g><g><path d="M289.99332,359.58726v-52c0,0 32.43318,0 48.61976,0c16.14666,0 48.38025,0 48.38025,0v52z" fill="#5f2e00" stroke="none" stroke-width="0" stroke-linecap="butt"/><path d="M380.48076,331.59865l-3.77778,-4l-8.44444,-1.55556l-7.77778,5.11111l-6.66667,-3.33333l-4.66667,-0.88889l-8.88889,4.44445l-1.77778,-3.33333l-7.11111,-1.33333l-8.44445,5.55555l-6.88889,-3.33334l-9.11111,-1.77777l-10.22223,4l-6,-8.66667v-14.66666h95.33333v14.66666z" fill="#1c820e" stroke="#1c820e" stroke-width="2" stroke-linecap="round"/></g></g><g><path d="M385.80739,359.59027v-52c0,0 32.43318,0 48.61976,0c16.14666,0 48.38025,0 48.38025,0v52z" fill="#5f2e00" stroke="none" stroke-width="0" stroke-linecap="butt"/><path d="M476.29483,331.60166l-3.77778,-4l-8.44444,-1.55556l-7.77778,5.11111l-6.66667,-3.33333l-4.66667,-0.88889l-8.88889,4.44445l-1.77778,-3.33333l-7.11111,-1.33333l-8.44445,5.55555l-6.88889,-3.33334l-9.11111,-1.77777l-10.22223,4l-6,-8.66667v-14.66666h95.33333v14.66666z" fill="#1c820e" stroke="#1c820e" stroke-width="2" stroke-linecap="round"/></g><path d="M-2.79231,361.25249v-362.15109h499.19214v362.15109z" fill="none" stroke="#000000" stroke-width="2" stroke-linecap="butt"/></g></g></svg>