<svg version="1.1" xmlns="http://www.w3.org/2000/svg" xmlns:xlink="http://www.w3.org/1999/xlink" width="491.03397" height="411.84636" viewBox="0,0,491.03397,411.84636"><g transform="translate(3.94164,52.25609)"><g data-paper-data="{&quot;isPaintingLayer&quot;:true}" fill-rule="nonzero" stroke-linejoin="miter" stroke-miterlimit="10" stroke-dasharray="" stroke-dashoffset="0" style="mix-blend-mode: normal"><g><g><path d="M209.33174,283.88881v-52c0,0 32.43318,0 48.61976,0c16.14666,0 48.38025,0 48.38025,0v52z" fill="#5f2e00" stroke="none" stroke-width="0" stroke-linecap="butt"/><path d="M299.81917,255.9002l-3.77778,-4l-8.44444,-1.55556l-7.77778,5.11111l-6.66667,-3.33333l-4.66667,-0.88889l-8.88889,4.44445l-1.77778,-3.33333l-7.11111,-1.33333l-8.44445,5.55555l-6.88889,-3.33334l-9.11111,-1.77777l-10.22223,4l-6,-8.66667v-14.66666h95.33333v14.66666z" fill="#1c820e" stroke="#1c820e" stroke-width="2" stroke-linecap="round"/></g><g><path d="M305.80526,283.92193v-52c0,0 32.43318,0 48.61976,0c16.14666,0 48.38025,0 48.38025,0v52z" fill="#5f2e00" stroke="none" stroke-width="0" stroke-linecap="butt"/><path d="M396.2927,255.93333l-3.77778,-4l-8.44444,-1.55556l-7.77778,5.11111l-6.66667,-3.33333l-4.66667,-0.88889l-8.88889,4.44445l-1.77778,-3.33333l-7.11111,-1.33333l-8.44445,5.55555l-6.88889,-3.33334l-9.11111,-1.77777l-10.22223,4l-6,-8.66667v-14.66666h95.33333v14.66666z" fill="#1c820e" stroke="#1c820e" stroke-width="2" stroke-linecap="round"/></g></g><g><g><path d="M233.99277,317.73062v-52c0,0 32.43318,0 48.61976,0c16.14666,0 48.38025,0 48.38025,0v52z" fill="#5f2e00" stroke="none" stroke-width="0" stroke-linecap="butt"/><path d="M324.48019,289.74201l-3.77778,-4l-8.44444,-1.55556l-7.77778,5.11111l-6.66667,-3.33333l-4.66667,-0.88889l-8.88889,4.44445l-1.77778,-3.33333l-7.11111,-1.33333l-8.44445,5.55555l-6.88889,-3.33334l-9.11111,-1.77777l-10.22223,4l-6,-8.66667v-14.66666h95.33333v14.66666z" fill="#1c820e" stroke="#1c820e" stroke-width="2" stroke-linecap="round"/></g><g><path d="M330.46628,317.76374v-52c0,0 32.43318,0 48.61976,0c16.14666,0 48.38025,0 48.38025,0v52z" fill="#5f2e00" stroke="none" stroke-width="0" stroke-linecap="butt"/><path d="M420.95372,289.77513l-3.77778,-4l-8.44444,-1.55556l-7.77778,5.11111l-6.66667,-3.33333l-4.66667,-0.88889l-8.88889,4.44445l-1.77778,-3.33333l-7.11111,-1.33333l-8.44445,5.55555l-6.88889,-3.33334l-9.11111,-1.77777l-10.22223,4l-6,-8.66667v-14.66666h95.33333v14.66666z" fill="#1c820e" stroke="#1c820e" stroke-width="2" stroke-linecap="round"/></g></g><path d="M471.09232,357.0234v-371h16v371z" fill="#5f2e00" stroke="none" stroke-width="0" stroke-linecap="butt"/><g><path d="M44.67725,212.87604v-52c0,0 32.43318,0 48.61976,0c16.14666,0 48.38025,0 48.38025,0v52z" fill="#5f2e00" stroke="none" stroke-width="0" stroke-linecap="butt"/><path d="M135.16468,184.88744l-3.77778,-4l-8.44444,-1.55556l-7.77778,5.11111l-6.66667,-3.33333l-4.66667,-0.88889l-8.88889,4.44445l-1.77778,-3.33333l-7.11111,-1.33333l-8.44445,5.55555l-6.88889,-3.33334l-9.11111,-1.77777l-10.22223,4l-6,-8.66667v-14.66666h95.33333v14.66666z" fill="#1c820e" stroke="#1c820e" stroke-width="2" stroke-linecap="round"/></g><g><path d="M259.74549,133.86711v-52c0,0 32.43318,0 48.61976,0c16.14666,0 48.38025,0 48.38025,0v52z" fill="#5f2e00" stroke="none" stroke-width="0" stroke-linecap="butt"/><path d="M350.23293,105.8785l-3.77778,-4l-8.44444,-1.55556l-7.77778,5.11111l-6.66667,-3.33333l-4.66667,-0.88889l-8.88889,4.44445l-1.77778,-3.33333l-7.11111,-1.33333l-8.44445,5.55555l-6.88889,-3.33334l-9.11111,-1.77777l-10.22223,4l-6,-8.66667v-14.66666h95.33333v14.66666z" fill="#1c820e" stroke="#1c820e" stroke-width="2" stroke-linecap="round"/></g><g><g><path d="M0.3487,359.51029v-52c0,0 32.43318,0 48.61976,0c16.14666,0 48.38025,0 48.38025,0v52z" fill="#5f2e00" stroke="none" stroke-width="0" stroke-linecap="butt"/><path d="M90.83615,331.52167l-3.77778,-4l-8.44444,-1.55556l-7.77778,5.11111l-6.66667,-3.33333l-4.66667,-0.88889l-8.88889,4.44445l-1.77778,-3.33333l-7.11111,-1.33333l-8.44445,5.55555l-6.88889,-3.33334l-9.11111,-1.77777l-10.22223,4l-6,-8.66667v-14.66666h95.33333v14.66666z" fill="#1c820e" stroke="#1c820e" stroke-width="2" stroke-linecap="round"/></g><g><path d="M96.82222,359.54341v-52c0,0 32.43318,0 48.61976,0c16.14666,0 48.38025,0 48.38025,0v52z" fill="#5f2e00" stroke="none" stroke-width="0" stroke-linecap="butt"/><path d="M187.30966,331.5548l-3.77778,-4l-8.44444,-1.55556l-7.77778,5.11111l-6.66667,-3.33333l-4.66667,-0.88889l-8.88889,4.44445l-1.77778,-3.33333l-7.11111,-1.33333l-8.44445,5.55555l-6.88889,-3.33334l-9.11111,-1.77777l-10.22223,4l-6,-8.66667v-14.66666h95.33333v14.66666z" fill="#1c820e" stroke="#1c820e" stroke-width="2" stroke-linecap="round"/></g></g><g><g><path d="M193.51982,359.55416v-52c0,0 32.43318,0 48.61976,0c16.14666,0 48.38025,0 48.38025,0v52z" fill="#5f2e00" stroke="none" stroke-width="0" stroke-linecap="butt"/><path d="M284.00725,331.56555l-3.77778,-4l-8.44444,-1.55556l-7.77778,5.11111l-6.66667,-3.33333l-4.66667,-0.88889l-8.88889,4.44445l-1.77778,-3.33333l-7.11111,-1.33333l-8.44445,5.55555l-6.88889,-3.33334l-9.11111,-1.77777l-10.22223,4l-6,-8.66667v-14.66666h95.33333v14.66666z" fill="#1c820e" stroke="#1c820e" stroke-width="2" stroke-linecap="round"/></g><g><path d="M289.99333,359.58727v-52c0,0 32.43318,0 48.61976,0c16.14666,0 48.38025,0 48.38025,0v52z" fill="#5f2e00" stroke="none" stroke-width="0" stroke-linecap="butt"/><path d="M380.48077,331.59866l-3.77778,-4l-8.44444,-1.55556l-7.77778,5.11111l-6.66667,-3.33333l-4.66667,-0.88889l-8.88889,4.44445l-1.77778,-3.33333l-7.11111,-1.33333l-8.44445,5.55555l-6.88889,-3.33334l-9.11111,-1.77777l-10.22223,4l-6,-8.66667v-14.66666h95.33333v14.66666z" fill="#1c820e" stroke="#1c820e" stroke-width="2" stroke-linecap="round"/></g></g><g><path d="M385.8074,359.59028v-52c0,0 32.43318,0 48.61976,0c16.14666,0 48.38025,0 48.38025,0v52z" fill="#5f2e00" stroke="none" stroke-width="0" stroke-linecap="butt"/><path d="M476.29484,331.60166l-3.77778,-4l-8.44444,-1.55556l-7.77778,5.11111l-6.66667,-3.33333l-4.66667,-0.88889l-8.88889,4.44445l-1.77778,-3.33333l-7.11111,-1.33333l-8.44445,5.55555l-6.88889,-3.33334l-9.11111,-1.77777l-10.22223,4l-6,-8.66667v-14.66666h95.33333v14.66666z" fill="#1c820e" stroke="#1c820e" stroke-width="2" stroke-linecap="round"/></g><g><g><path d="M-3.65129,0.51029v-52c0,0 32.43318,0 48.61976,0c16.14666,0 48.38025,0 48.38025,0v52z" fill="#5f2e00" stroke="none" stroke-width="0" stroke-linecap="butt"/><path d="M86.83616,-27.47832l-3.77778,-4l-8.44444,-1.55556l-7.77778,5.11111l-6.66667,-3.33333l-4.66667,-0.88889l-8.88889,4.44445l-1.77778,-3.33333l-7.11111,-1.33333l-8.44445,5.55555l-6.88889,-3.33334l-9.11111,-1.77777l-10.22223,4l-6,-8.66667v-14.66666h95.33333v14.66666z" fill="#1c820e" stroke="#1c820e" stroke-width="2" stroke-linecap="round"/></g><g><path d="M92.82223,0.54341v-52c0,0 32.43318,0 48.61976,0c16.14666,0 48.38025,0 48.38025,0v52z" fill="#5f2e00" stroke="none" stroke-width="0" stroke-linecap="butt"/><path d="M183.30967,-27.4452l-3.77778,-4l-8.44444,-1.55556l-7.77778,5.11111l-6.66667,-3.33333l-4.66667,-0.88889l-8.88889,4.44445l-1.77778,-3.33333l-7.11111,-1.33333l-8.44445,5.55555l-6.88889,-3.33334l-9.11111,-1.77777l-10.22223,4l-6,-8.66667v-14.66666h95.33333v14.66666z" fill="#1c820e" stroke="#1c820e" stroke-width="2" stroke-linecap="round"/></g></g><g><g><path d="M189.51983,0.55415v-52c0,0 32.43318,0 48.61976,0c16.14666,0 48.38025,0 48.38025,0v52z" fill="#5f2e00" stroke="none" stroke-width="0" stroke-linecap="butt"/><path d="M280.00726,-27.43446l-3.77778,-4l-8.44444,-1.55556l-7.77778,5.11111l-6.66667,-3.33333l-4.66667,-0.88889l-8.88889,4.44445l-1.77778,-3.33333l-7.11111,-1.33333l-8.44445,5.55555l-6.88889,-3.33334l-9.11111,-1.77777l-10.22223,4l-6,-8.66667v-14.66666h95.33333v14.66666z" fill="#1c820e" stroke="#1c820e" stroke-width="2" stroke-linecap="round"/></g><g><path d="M285.99334,0.58727v-52c0,0 32.43318,0 48.61976,0c16.14666,0 48.38025,0 48.38025,0v52z" fill="#5f2e00" stroke="none" stroke-width="0" stroke-linecap="butt"/><path d="M376.48078,-27.40134l-3.77778,-4l-8.44444,-1.55556l-7.77778,5.11111l-6.66667,-3.33333l-4.66667,-0.88889l-8.88889,4.44445l-1.77778,-3.33333l-7.11111,-1.33333l-8.44445,5.55555l-6.88889,-3.33334l-9.11111,-1.77777l-10.22223,4l-6,-8.66667v-14.66666h95.33333v14.66666z" fill="#1c820e" stroke="#1c820e" stroke-width="2" stroke-linecap="round"/></g></g><g><path d="M381.80741,0.59028v-52c0,0 32.43318,0 48.61976,0c16.14666,0 48.38025,0 48.38025,0v52z" fill="#5f2e00" stroke="none" stroke-width="0" stroke-linecap="butt"/><path d="M472.29485,-27.39833l-3.77778,-4l-8.44444,-1.55556l-7.77778,5.11111l-6.66667,-3.33333l-4.66667,-0.88889l-8.88889,4.44445l-1.77778,-3.33333l-7.11111,-1.33333l-8.44445,5.55555l-6.88889,-3.33334l-9.11111,-1.77777l-10.22223,4l-6,-8.66667v-14.66666h95.33333v14.66666z" fill="#1c820e" stroke="#1c820e" stroke-width="2" stroke-linecap="round"/></g></g></g></svg>