<svg version="1.1" xmlns="http://www.w3.org/2000/svg" xmlns:xlink="http://www.w3.org/1999/xlink" width="29.57684" height="33.15789" viewBox="0,0,29.57684,33.15789"><g transform="translate(-225.21158,-163.42105)"><g data-paper-data="{&quot;isPaintingLayer&quot;:true}" fill="#549a10" fill-rule="nonzero" stroke="none" stroke-width="1" stroke-linecap="butt" stroke-linejoin="miter" stroke-miterlimit="10" stroke-dasharray="" stroke-dashoffset="0" style="mix-blend-mode: normal"><path d="M254.78842,167.13474v16.71158c0,0.33158 -0.13263,0.66316 -0.39789,0.79579c-2.12211,1.85684 -4.77474,2.78526 -7.49368,2.78526c-2.71895,0 -5.37158,-0.99474 -7.49368,-2.78526c-1.72421,-1.45895 -3.84632,-2.32105 -6.10105,-2.32105c-2.05579,0 -4.04526,0.66316 -5.70316,1.98947v11.07474c0,0.66316 -0.53053,1.19368 -1.19368,1.19368c-0.66316,0 -1.19368,-0.53053 -1.19368,-1.19368v-28.25053c0,-0.53053 0.33158,-0.86211 0.66316,-1.06105c2.12211,-1.72421 4.64211,-2.65263 7.29474,-2.65263c2.71895,0 5.43789,0.99474 7.56,2.78526c1.72421,1.45895 3.84632,2.25474 6.10105,2.25474c2.25474,0 4.37684,-0.79579 6.10105,-2.25474c0.39789,-0.26526 0.86211,-0.33158 1.26,-0.13263c0.39789,0.19895 0.59684,0.59684 0.59684,1.06105z"/></g></g></svg>