<svg version="1.1" xmlns="http://www.w3.org/2000/svg" xmlns:xlink="http://www.w3.org/1999/xlink" width="229.8909" height="331.22425" viewBox="0,0,229.8909,331.22425"><g transform="translate(-245.93386,-10.46227)"><g data-paper-data="{&quot;isPaintingLayer&quot;:true}" fill="#9966ff" fill-rule="nonzero" stroke="none" stroke-linecap="butt" stroke-linejoin="miter" stroke-miterlimit="10" stroke-dasharray="" stroke-dashoffset="0" style="mix-blend-mode: normal"><path d="M262.49142,341.01985l9.84243,-15.11515l9.49091,15.11515z" stroke-width="NaN"/><path d="M354.49142,341.68652l9.84243,-15.11515l9.49091,15.11515z" stroke-width="NaN"/><path d="M293.82475,341.01985l9.84243,-15.11515l9.49091,15.11515z" stroke-width="NaN"/><path d="M385.82475,341.68652l9.84243,-15.11515l9.49091,15.11515z" stroke-width="NaN"/><path d="M323.15808,341.01985l9.84243,-15.11515l9.49091,15.11515z" stroke-width="NaN"/><path d="M415.15808,341.68652l9.84243,-15.11515l9.49091,15.11515z" stroke-width="NaN"/><path d="M273.15809,341.01985l9.84243,-15.11515l9.49091,15.11515z" stroke-width="NaN"/><path d="M365.15809,341.68652l9.84243,-15.11515l9.49091,15.11515z" stroke-width="NaN"/><path d="M304.49142,341.01985l9.84243,-15.11515l9.49091,15.11515z" stroke-width="NaN"/><path d="M396.49142,341.68652l9.84243,-15.11515l9.49091,15.11515z" stroke-width="NaN"/><path d="M333.82475,341.01985l9.84243,-15.11515l9.49091,15.11515z" stroke-width="NaN"/><path d="M425.82475,341.68652l9.84243,-15.11515l9.49091,15.11515z" stroke-width="NaN"/><path d="M446.49142,341.68652l9.84243,-15.11515l9.49091,15.11515z" stroke-width="NaN"/><path d="M283.15809,341.01985l9.84243,-15.11515l9.49091,15.11515z" stroke-width="NaN"/><path d="M375.15809,341.68652l9.84243,-15.11515l9.49091,15.11515z" stroke-width="NaN"/><path d="M314.49142,341.01985l9.84243,-15.11515l9.49091,15.11515z" stroke-width="NaN"/><path d="M406.49142,341.68652l9.84243,-15.11515l9.49091,15.11515z" stroke-width="NaN"/><path d="M343.82475,341.01985l9.84243,-15.11515l9.49091,15.11515z" stroke-width="NaN"/><path d="M435.82475,341.68652l9.84243,-15.11515l9.49091,15.11515z" stroke-width="NaN"/><path d="M456.49142,341.68652l9.84243,-15.11515l9.49091,15.11515z" stroke-width="NaN"/><path d="M386.71567,86.79561l-15.11515,-9.49091l15.11515,-9.84243z" data-paper-data="{&quot;index&quot;:null}" stroke-width="NaN"/><path d="M387.38234,118.79561l-15.11515,-9.49091l15.11515,-9.84243z" data-paper-data="{&quot;index&quot;:null}" stroke-width="NaN"/><path d="M386.71567,97.46228l-15.11515,-9.49091l15.11515,-9.84243z" data-paper-data="{&quot;index&quot;:null}" stroke-width="NaN"/><path d="M387.38234,129.46228l-15.11515,-9.49091l15.11515,-9.84243z" data-paper-data="{&quot;index&quot;:null}" stroke-width="NaN"/><path d="M386.71567,107.46228l-15.11515,-9.49091l15.11515,-9.84243z" data-paper-data="{&quot;index&quot;:null}" stroke-width="NaN"/><path d="M387.38234,139.46228l-15.11515,-9.49091l15.11515,-9.84243z" data-paper-data="{&quot;index&quot;:null}" stroke-width="NaN"/><path d="M261.04901,29.79561l-15.11515,-9.49091l15.11515,-9.84243z" data-paper-data="{&quot;index&quot;:null}" stroke-width="NaN"/><path d="M261.71567,61.79561l-15.11515,-9.49091l15.11515,-9.84243z" data-paper-data="{&quot;index&quot;:null}" stroke-width="NaN"/><path d="M261.04901,40.46228l-15.11515,-9.49091l15.11515,-9.84243z" data-paper-data="{&quot;index&quot;:null}" stroke-width="NaN"/><path d="M261.71567,72.46228l-15.11515,-9.49091l15.11515,-9.84243z" data-paper-data="{&quot;index&quot;:null}" stroke-width="NaN"/><path d="M261.04901,50.46228l-15.11515,-9.49091l15.11515,-9.84243z" data-paper-data="{&quot;index&quot;:null}" stroke-width="NaN"/><path d="M261.71567,82.46228l-15.11515,-9.49091l15.11515,-9.84243z" data-paper-data="{&quot;index&quot;:null}" stroke-width="NaN"/></g></g></svg>