<svg version="1.1" xmlns="http://www.w3.org/2000/svg" xmlns:xlink="http://www.w3.org/1999/xlink" width="41.58335" height="20.5" viewBox="0,0,41.58335,20.5"><g transform="translate(-91.41667,-142.55333)"><g data-paper-data="{&quot;isPaintingLayer&quot;:true}" fill-rule="nonzero" stroke-linecap="butt" stroke-linejoin="miter" stroke-miterlimit="10" stroke-dasharray="" stroke-dashoffset="0" style="mix-blend-mode: normal"><path d="M100.75002,161.25009v-15.92079h21v15.92079z" fill="#988282" stroke="none" stroke-width="0"/><path d="M112.75002,152.80333c0,-5.52285 4.47716,-10 10,-10c5.52284,0 10,4.47715 10,10c0,5.52285 -4.47716,10 -10,10c-5.52284,0 -10,-4.47715 -10,-10z" fill="#04ff00" stroke="#000000" stroke-width="0.5"/><path d="M107.41667,153.25005c0,4.41828 -3.58172,8 -8,8c-4.41828,0 -8,-3.58172 -8,-8c0,-4.41828 3.58172,-8 8,-8c4.41828,0 8,3.58172 8,8z" fill="#988282" stroke="none" stroke-width="0"/><path d="M104.66688,156.66698v-1.33334h1.33334v1.33334z" fill="#9966ff" stroke="none" stroke-width="0"/></g></g></svg>