<svg version="1.1" xmlns="http://www.w3.org/2000/svg" xmlns:xlink="http://www.w3.org/1999/xlink" width="306.36848" height="237.0589" viewBox="0,0,306.36848,237.0589"><g transform="translate(-98.84322,-95.4846)"><g data-paper-data="{&quot;isPaintingLayer&quot;:true}" fill-rule="nonzero" stroke-linejoin="miter" stroke-miterlimit="10" stroke-dasharray="" stroke-dashoffset="0" style="mix-blend-mode: normal"><g><path d="M99,140.5v-45h77v45z" fill="#453d34" stroke="none" stroke-width="0" stroke-linecap="butt"/><path d="M111.54202,109.33755l10.29412,-4.41177" fill="none" stroke="#8a2f00" stroke-width="3" stroke-linecap="round"/><path d="M123.30673,113.74931l-5.29412,-6.17647" fill="none" stroke="#8a2f00" stroke-width="3" stroke-linecap="round"/><path d="M127.71849,130.2199l7.35294,-7.64706" fill="none" stroke="#8a2f00" stroke-width="3" stroke-linecap="round"/><path d="M140.36555,127.57284l-7.05882,-1.17647" fill="none" stroke="#8a2f00" stroke-width="3" stroke-linecap="round"/><path d="M137.42437,110.51402l13.52941,-2.05882l8.52942,4.41177" fill="none" stroke="#8a2f00" stroke-width="3" stroke-linecap="round"/><path d="M115.07143,132.86694l-7.35295,-2.94117l0.88236,-7.35294" fill="none" stroke="#8a2f00" stroke-width="3" stroke-linecap="round"/><path d="M111.2479,132.86694l-2.05882,5.29412" fill="none" stroke="#8a2f00" stroke-width="3" stroke-linecap="round"/><path d="M144.77731,110.51402l4.11765,6.17647" fill="none" stroke="#8a2f00" stroke-width="3" stroke-linecap="round"/><path d="M149.4832,107.57284l5.88235,-4.41177" fill="none" stroke="#8a2f00" stroke-width="3" stroke-linecap="round"/><path d="M160.36555,129.92577l7.64706,-5.58823l6.17647,2.64706" fill="none" stroke="#8a2f00" stroke-width="3" stroke-linecap="round"/><path d="M158.01261,123.16108l5,2.35294" fill="none" stroke="#8a2f00" stroke-width="3" stroke-linecap="round"/><path d="M152.42437,134.04343l-14.70589,4.70588" fill="none" stroke="#8a2f00" stroke-width="3" stroke-linecap="round"/><path d="M147.42437,136.69049l4.41177,1.76471" fill="none" stroke="#8a2f00" stroke-width="3" stroke-linecap="round"/><path d="M100.36555,110.2199l0.29412,-13.2353h74.11765v13.2353l-5.51937,-1.27124l-5.64255,5.20184l-8.82322,-9.39217l-8.26602,7.81419l-12.47026,-7.74432l-8.70083,9.33194l-8.50212,-6.38236l-7.36974,6.26563z" fill="#94671e" stroke="#94671e" stroke-width="3" stroke-linecap="butt"/></g><g><path d="M122.75,244.25001v-45h77v45z" fill="#453d34" stroke="none" stroke-width="0" stroke-linecap="butt"/><path d="M175.58614,242.20519l-4.41177,-1.76471l-5.1082,-8.15371" fill="none" stroke="#8a2f00" stroke-width="3" stroke-linecap="round"/><path d="M124.59559,220.22794l17.64706,-7.94118l7.05882,6.17647l21.47059,-4.11765" fill="none" stroke="#8a2f00" stroke-width="3" stroke-linecap="round"/><path d="M157.53677,217.58089l14.11765,4.70588" fill="none" stroke="#8a2f00" stroke-width="3" stroke-linecap="round"/><path d="M140.18382,227.28677l3.82353,11.7647l-11.47059,3.23529" fill="none" stroke="#8a2f00" stroke-width="3" stroke-linecap="round"/><path d="M185.77206,214.3456l12.35294,-9.11765" fill="none" stroke="#8a2f00" stroke-width="3" stroke-linecap="round"/><path d="M186.06618,227.87501l12.35294,7.64705" fill="none" stroke="#8a2f00" stroke-width="3" stroke-linecap="round"/><path d="M190.77206,229.3456l5,-7.35294" fill="none" stroke="#8a2f00" stroke-width="3" stroke-linecap="round"/><path d="M188.71324,209.63972l-12.94117,-5" fill="none" stroke="#8a2f00" stroke-width="3" stroke-linecap="round"/><path d="M124.59559,206.11031l5.88235,-1.47059h7.94118" fill="none" stroke="#8a2f00" stroke-width="3" stroke-linecap="round"/></g><g><path d="M351.22734,244.5824v-52c0,0 18.04009,0 27.04344,0c8.98115,0 26.91022,0 26.91022,0v52z" fill="#676767" stroke="none" stroke-width="0" stroke-linecap="butt"/><path d="M352.12336,234.63704h52.08833" fill="none" stroke="#444444" stroke-width="2" stroke-linecap="round"/><path d="M352.12336,224.0755h52.08833" fill="none" stroke="#444444" stroke-width="2" stroke-linecap="round"/><path d="M352.12336,212.91357h52.08833" fill="none" stroke="#444444" stroke-width="2" stroke-linecap="round"/><path d="M351.9406,202.91084h52.08833" fill="none" stroke="#444444" stroke-width="2" stroke-linecap="round"/></g><g><path d="M247.83022,226.48946h52c0,0 0,35.46051 0,53.15795c0,17.6538 0,52.89609 0,52.89609h-52z" fill="#676767" stroke="none" stroke-width="0" stroke-linecap="butt"/><path d="M299.6086,332.52621v-52c0,0 18.04009,0 27.04344,0c8.98115,0 26.91022,0 26.91022,0v52z" fill="#676767" stroke="none" stroke-width="0" stroke-linecap="butt"/><path d="M258.88635,323.50314h93.7066" fill="none" stroke="#444444" stroke-width="2" stroke-linecap="round"/><path d="M268.89543,312.63476h83.69753" fill="none" stroke="#444444" stroke-width="2" stroke-linecap="round"/><path d="M352.59296,301.52863h-71.99465" fill="none" stroke="#444444" stroke-width="2" stroke-linecap="round"/><path d="M299.69445,291.87157v-11.30026h53.77462v11.30026z" fill="#c6c6c6" stroke="none" stroke-width="0" stroke-linecap="butt"/><path d="M258.73558,227.38549v95.83591" fill="none" stroke="#444444" stroke-width="2" stroke-linecap="round"/><path d="M268.95936,312.43528v-85.04979" fill="none" stroke="#444444" stroke-width="2" stroke-linecap="round"/><path d="M280.23504,227.38549v74.29125" fill="none" stroke="#444444" stroke-width="2" stroke-linecap="round"/><path d="M288.48486,226.57531h11.30026v65.23125h-11.30026z" fill="#c6c6c6" stroke="none" stroke-width="0" stroke-linecap="butt"/></g><g><path d="M318.44431,166.32644v-52c0,0 18.04009,0 27.04344,0c8.98115,0 26.91022,0 26.91022,0v52z" fill="#676767" stroke="none" stroke-width="0" stroke-linecap="butt"/><path d="M319.34034,156.38109h52.08833" fill="none" stroke="#444444" stroke-width="2" stroke-linecap="round"/><path d="M319.34034,145.81954h52.08833" fill="none" stroke="#444444" stroke-width="2" stroke-linecap="round"/><path d="M371.42867,134.65761h-52.08833" fill="none" stroke="#444444" stroke-width="2" stroke-linecap="round"/><path d="M318.53016,125.6718v-11.30026h53.77462v11.30026z" fill="#c6c6c6" stroke="none" stroke-width="0" stroke-linecap="butt"/></g></g></g></svg>