<svg version="1.1" xmlns="http://www.w3.org/2000/svg" xmlns:xlink="http://www.w3.org/1999/xlink" width="587.8451" height="412.13835" viewBox="0,0,587.8451,412.13835"><g transform="translate(67.47724,30.87217)"><g data-paper-data="{&quot;isPaintingLayer&quot;:true}" fill-rule="nonzero" stroke-linejoin="miter" stroke-miterlimit="10" stroke-dasharray="" stroke-dashoffset="0" style="mix-blend-mode: normal"><path d="M249.42532,75.77722l-12.19455,-32.46421c0,0 66.03497,-24.80475 98.99136,-37.18418c32.87512,-12.3489 98.50372,-37.00101 98.50372,-37.00101l12.19455,32.46421z" fill="#676767" stroke="none" stroke-width="0" stroke-linecap="butt"/><path d="M250.37291,68.33621l190.6671,-71.62039" fill="none" stroke="#444444" stroke-width="2" stroke-linecap="round"/><path d="M247.89611,61.74251l190.6671,-71.62039" fill="none" stroke="#444444" stroke-width="2" stroke-linecap="round"/><path d="M435.94562,-16.84641l-190.6671,71.62039" fill="none" stroke="#444444" stroke-width="2" stroke-linecap="round"/><path d="M240.20563,50.27801l-2.65003,-7.05489l196.8397,-73.93901l2.65003,7.05489z" fill="#c6c6c6" stroke="none" stroke-width="0" stroke-linecap="butt"/><path d="M238.56581,79.95444l-2.65003,-7.05488l215.5624,-80.97183l2.65003,7.05488z" fill="#c6c6c6" stroke="none" stroke-width="0" stroke-linecap="butt"/><g data-paper-data="{&quot;index&quot;:null}"><path d="M415.30774,57.48052l42.82541,-0.54497l0.28445,73.16402l-42.82542,0.54498z" fill="#453d34" stroke="none" stroke-width="0" stroke-linecap="butt"/><path d="M417.44892,107.65969l1.66313,-4.21335l7.74082,-4.95247" fill="none" stroke="#8a2f00" stroke-width="3" stroke-linecap="round"/><path d="M438.17577,58.94324l7.62262,16.67175l-5.85192,6.78198l3.99798,20.3511" fill="none" stroke="#8a2f00" stroke-width="3" stroke-linecap="round"/><path d="M440.81661,90.21131l-4.42632,13.47132" fill="none" stroke="#8a2f00" stroke-width="3" stroke-linecap="round"/><path d="M431.51563,73.84038l-11.18204,3.77552l-3.12132,-10.85997" fill="none" stroke="#8a2f00" stroke-width="3" stroke-linecap="round"/><path d="M452.72253,128.62791l-8.72269,-11.62714" fill="none" stroke="#8a2f00" stroke-width="3" stroke-linecap="round"/><path d="M431.12532,117.4441l-7.23187,11.83017" fill="none" stroke="#8a2f00" stroke-width="3" stroke-linecap="round"/><path d="M436.75927,126.59523l-7.01609,-4.66188" fill="none" stroke="#8a2f00" stroke-width="3" stroke-linecap="round"/><path d="M448.48919,119.73845l4.71056,-12.357" fill="none" stroke="#8a2f00" stroke-width="3" stroke-linecap="round"/><path d="M451.61119,58.77226l1.42127,5.5715l0.02933,7.54557" fill="none" stroke="#8a2f00" stroke-width="3" stroke-linecap="round"/></g><g data-paper-data="{&quot;index&quot;:null}"><path d="M427.43062,28.45024l40.537,-13.8226l23.0003,69.45532l-40.537,13.82261z" fill="#453d34" stroke="none" stroke-width="0" stroke-linecap="butt"/><path d="M445.05505,75.48122l0.27187,-4.52155l5.8192,-7.11226" fill="none" stroke="#8a2f00" stroke-width="3" stroke-linecap="round"/><path d="M449.62151,22.73615l12.42486,13.47867l-3.45539,8.26441l10.12264,18.10202" fill="none" stroke="#8a2f00" stroke-width="3" stroke-linecap="round"/><path d="M461.8236,65.81643l0.02215,-14.17986" fill="none" stroke="#8a2f00" stroke-width="3" stroke-linecap="round"/><path d="M447.91903,38.96526l-9.45578,7.06263l-6.34075,-9.35289" fill="none" stroke="#8a2f00" stroke-width="3" stroke-linecap="round"/><path d="M473.19418,76.11148l11.90328,8.34191" fill="none" stroke="#8a2f00" stroke-width="3" stroke-linecap="round"/><path d="M457.89571,94.02414l3.19873,-13.49151" fill="none" stroke="#8a2f00" stroke-width="3" stroke-linecap="round"/><path d="M461.17537,85.22912l8.11723,2.2515" fill="none" stroke="#8a2f00" stroke-width="3" stroke-linecap="round"/><path d="M478.3119,77.31899l0.6385,-13.20898" fill="none" stroke="#8a2f00" stroke-width="3" stroke-linecap="round"/><path d="M462.33899,18.39964l3.08184,4.85427l2.37207,7.16308" fill="none" stroke="#8a2f00" stroke-width="3" stroke-linecap="round"/></g><g data-paper-data="{&quot;index&quot;:null}"><path d="M369.47591,54.77072l8.39314,-41.99843l71.61642,14.97143l-8.39313,41.99844z" fill="#453d34" stroke="none" stroke-width="0" stroke-linecap="butt"/><path d="M418.99928,63.13545l-3.77416,-2.5048l-3.23027,-8.60305" fill="none" stroke="#8a2f00" stroke-width="3" stroke-linecap="round"/><path d="M375.67291,32.70981l17.89438,-3.98029l5.41331,7.13696l20.73742,0.33163" fill="none" stroke="#8a2f00" stroke-width="3" stroke-linecap="round"/><path d="M406.80467,36.6442l12.25287,7.13694" fill="none" stroke="#8a2f00" stroke-width="3" stroke-linecap="round"/><path d="M388.85468,42.3287l1.3619,11.72339l-11.27203,0.78921" fill="none" stroke="#8a2f00" stroke-width="3" stroke-linecap="round"/><path d="M433.66924,39.11462l13.18985,-6.10765" fill="none" stroke="#8a2f00" stroke-width="3" stroke-linecap="round"/><path d="M431.4194,51.79881l10.06298,9.5388" fill="none" stroke="#8a2f00" stroke-width="3" stroke-linecap="round"/><path d="M435.52196,54.08628l6.02186,-5.89032" fill="none" stroke="#8a2f00" stroke-width="3" stroke-linecap="round"/><path d="M437.28252,35.2945l-11.10379,-7.18268" fill="none" stroke="#8a2f00" stroke-width="3" stroke-linecap="round"/><path d="M378.30604,19.53384l5.74537,-0.22877l7.38595,1.54404" fill="none" stroke="#8a2f00" stroke-width="3" stroke-linecap="round"/></g><g data-paper-data="{&quot;index&quot;:null}"><path d="M394.42099,58.98894l27.22954,-33.0585l56.0606,47.01345l-27.22953,33.05852z" fill="#453d34" stroke="none" stroke-width="0" stroke-linecap="butt"/><path d="M434.12615,89.7466l-2.1442,-3.99008l1.21474,-9.10888" fill="none" stroke="#8a2f00" stroke-width="3" stroke-linecap="round"/><path d="M410.30045,42.46837l17.65333,4.94081l1.40186,8.84732l18.12345,10.08421" fill="none" stroke="#8a2f00" stroke-width="3" stroke-linecap="round"/><path d="M443.3163,72.71328l-7.43096,-12.07682" fill="none" stroke="#8a2f00" stroke-width="3" stroke-linecap="round"/><path d="M417.37831,57.17165l-4.33508,10.97724l-10.30895,-4.62678" fill="none" stroke="#8a2f00" stroke-width="3" stroke-linecap="round"/><path d="M458.39997,75.49916l14.51078,0.84413" fill="none" stroke="#8a2f00" stroke-width="3" stroke-linecap="round"/><path d="M450.42745,85.61792l4.36645,13.16004" fill="none" stroke="#8a2f00" stroke-width="3" stroke-linecap="round"/><path d="M461.05334,87.2226l-8.08958,2.34889" fill="none" stroke="#8a2f00" stroke-width="3" stroke-linecap="round"/><path d="M456.99243,62.26329l6.39645,11.57456" fill="none" stroke="#8a2f00" stroke-width="3" stroke-linecap="round"/><path d="M418.84304,32.09708l5.17257,2.51121l5.78164,4.84859" fill="none" stroke="#8a2f00" stroke-width="3" stroke-linecap="round"/></g><g data-paper-data="{&quot;index&quot;:null}"><path d="M427.12105,60.97369l40.537,-13.82261l23.0003,69.45532l-40.537,13.82262z" fill="#453d34" stroke="none" stroke-width="0" stroke-linecap="butt"/><path d="M444.74548,108.00467l0.27187,-4.52155l5.8192,-7.11226" fill="none" stroke="#8a2f00" stroke-width="3" stroke-linecap="round"/><path d="M449.31194,55.2596l12.42486,13.47867l-3.45539,8.26441l10.12264,18.10202" fill="none" stroke="#8a2f00" stroke-width="3" stroke-linecap="round"/><path d="M461.51403,98.33988l0.02215,-14.17985" fill="none" stroke="#8a2f00" stroke-width="3" stroke-linecap="round"/><path d="M447.60946,71.48871l-9.45578,7.06263l-6.34075,-9.35289" fill="none" stroke="#8a2f00" stroke-width="3" stroke-linecap="round"/><path d="M472.88461,108.63493l11.90328,8.34192" fill="none" stroke="#8a2f00" stroke-width="3" stroke-linecap="round"/><path d="M460.78487,113.05607l-3.19873,13.49151" fill="none" stroke="#8a2f00" stroke-width="3" stroke-linecap="round"/><path d="M468.98302,120.00407l-8.11723,-2.2515" fill="none" stroke="#8a2f00" stroke-width="3" stroke-linecap="round"/><path d="M478.00232,109.84244l0.63851,-13.20898" fill="none" stroke="#8a2f00" stroke-width="3" stroke-linecap="round"/><path d="M462.02942,50.92309l3.08184,4.85426l2.37207,7.16308" fill="none" stroke="#8a2f00" stroke-width="3" stroke-linecap="round"/></g><g><path d="M438.59689,263.635l40.537,-13.8226l23.0003,69.45532l-40.53699,13.82261z" fill="#453d34" stroke="none" stroke-width="0" stroke-linecap="butt"/><path d="M456.22134,310.66598l0.27187,-4.52155l5.8192,-7.11226" fill="none" stroke="#8a2f00" stroke-width="3" stroke-linecap="round"/><path d="M460.78778,257.92091l12.42486,13.47867l-3.45539,8.26441l10.12264,18.10202" fill="none" stroke="#8a2f00" stroke-width="3" stroke-linecap="round"/><path d="M473.01204,286.82133l-0.02215,14.17986" fill="none" stroke="#8a2f00" stroke-width="3" stroke-linecap="round"/><path d="M459.08532,274.15002l-9.45578,7.06263l-6.34075,-9.35289" fill="none" stroke="#8a2f00" stroke-width="3" stroke-linecap="round"/><path d="M484.36045,311.29624l11.90328,8.34191" fill="none" stroke="#8a2f00" stroke-width="3" stroke-linecap="round"/><path d="M472.26071,315.71738l-3.19873,13.49151" fill="none" stroke="#8a2f00" stroke-width="3" stroke-linecap="round"/><path d="M472.34166,320.41388l8.11723,2.2515" fill="none" stroke="#8a2f00" stroke-width="3" stroke-linecap="round"/><path d="M490.11669,299.29478l-0.63851,13.20898" fill="none" stroke="#8a2f00" stroke-width="3" stroke-linecap="round"/><path d="M473.50526,253.5844l3.08184,4.85427l2.37207,7.16308" fill="none" stroke="#8a2f00" stroke-width="3" stroke-linecap="round"/></g><g><path d="M380.6422,289.95547l8.39314,-41.99843l71.61642,14.97143l-8.39313,41.99844z" fill="#453d34" stroke="none" stroke-width="0" stroke-linecap="butt"/><path d="M430.16557,298.32021l-3.77416,-2.5048l-3.23027,-8.60305" fill="none" stroke="#8a2f00" stroke-width="3" stroke-linecap="round"/><path d="M386.83919,267.89457l17.89437,-3.98029l5.41331,7.13696l20.73742,0.33163" fill="none" stroke="#8a2f00" stroke-width="3" stroke-linecap="round"/><path d="M417.97096,271.82896l12.25287,7.13694" fill="none" stroke="#8a2f00" stroke-width="3" stroke-linecap="round"/><path d="M400.02098,277.51346l1.3619,11.72339l-11.27202,0.78921" fill="none" stroke="#8a2f00" stroke-width="3" stroke-linecap="round"/><path d="M444.83553,274.29938l13.18985,-6.10765" fill="none" stroke="#8a2f00" stroke-width="3" stroke-linecap="round"/><path d="M452.64867,296.52236l-10.06298,-9.5388" fill="none" stroke="#8a2f00" stroke-width="3" stroke-linecap="round"/><path d="M446.68825,289.27104l6.02186,-5.89032" fill="none" stroke="#8a2f00" stroke-width="3" stroke-linecap="round"/><path d="M448.44879,270.47926l-11.10379,-7.18268" fill="none" stroke="#8a2f00" stroke-width="3" stroke-linecap="round"/><path d="M389.47232,254.7186l5.74537,-0.22877l7.38595,1.54404" fill="none" stroke="#8a2f00" stroke-width="3" stroke-linecap="round"/></g><g><path d="M405.58728,294.1737l27.22954,-33.05851l56.0606,47.01345l-27.22953,33.05852z" fill="#453d34" stroke="none" stroke-width="0" stroke-linecap="butt"/><path d="M445.29244,324.93136l-2.1442,-3.99008l1.21474,-9.10888" fill="none" stroke="#8a2f00" stroke-width="3" stroke-linecap="round"/><path d="M421.46673,277.65313l17.65333,4.94081l1.40186,8.84732l18.12345,10.08421" fill="none" stroke="#8a2f00" stroke-width="3" stroke-linecap="round"/><path d="M447.05163,295.82122l7.43096,12.07682" fill="none" stroke="#8a2f00" stroke-width="3" stroke-linecap="round"/><path d="M428.54459,292.35641l-4.33508,10.97724l-10.30895,-4.62678" fill="none" stroke="#8a2f00" stroke-width="3" stroke-linecap="round"/><path d="M484.07704,311.52805l-14.51078,-0.84413" fill="none" stroke="#8a2f00" stroke-width="3" stroke-linecap="round"/><path d="M465.96019,333.96272l-4.36645,-13.16004" fill="none" stroke="#8a2f00" stroke-width="3" stroke-linecap="round"/><path d="M472.21963,322.40736l-8.08958,2.34889" fill="none" stroke="#8a2f00" stroke-width="3" stroke-linecap="round"/><path d="M468.15871,297.44805l6.39645,11.57456" fill="none" stroke="#8a2f00" stroke-width="3" stroke-linecap="round"/><path d="M430.00932,267.28184l5.17257,2.51121l5.78164,4.84859" fill="none" stroke="#8a2f00" stroke-width="3" stroke-linecap="round"/></g><g><path d="M-67.34411,295.04053l-0.13312,-44.99981l76.99967,-0.22778l0.13312,44.99981z" fill="#453d34" stroke="none" stroke-width="0" stroke-linecap="butt"/><path d="M-14.51427,292.83943l-4.41697,-1.75165l-5.1323,-8.13856" fill="none" stroke="#8a2f00" stroke-width="3" stroke-linecap="round"/><path d="M-65.56962,271.01312l17.62349,-7.99335l7.07707,6.15556l21.45831,-4.18114" fill="none" stroke="#8a2f00" stroke-width="3" stroke-linecap="round"/><path d="M-32.63639,268.26861l14.13151,4.6641" fill="none" stroke="#8a2f00" stroke-width="3" stroke-linecap="round"/><path d="M-49.96055,278.02581l3.85832,11.75334l-11.46097,3.26921" fill="none" stroke="#8a2f00" stroke-width="3" stroke-linecap="round"/><path d="M-4.41081,264.94983l12.32592,-9.15416" fill="none" stroke="#8a2f00" stroke-width="3" stroke-linecap="round"/><path d="M8.29886,286.08878l-12.37551,-7.61047" fill="none" stroke="#8a2f00" stroke-width="3" stroke-linecap="round"/><path d="M0.63354,279.93496l4.97823,-7.3677" fill="none" stroke="#8a2f00" stroke-width="3" stroke-linecap="round"/><path d="M-1.48355,260.23527l-12.9559,-4.96169" fill="none" stroke="#8a2f00" stroke-width="3" stroke-linecap="round"/><path d="M-65.61135,256.89554l5.87798,-1.48799l7.94114,-0.02349" fill="none" stroke="#8a2f00" stroke-width="3" stroke-linecap="round"/></g><g><path d="M5.03785,296.73278l-8.38936,-44.21107l75.65005,-14.35514l8.38937,44.21107z" fill="#453d34" stroke="none" stroke-width="0" stroke-linecap="butt"/><path d="M56.56645,284.87356l-4.66342,-0.91128l-6.53874,-7.05843" fill="none" stroke="#8a2f00" stroke-width="3" stroke-linecap="round"/><path d="M2.37265,272.7878l15.8572,-11.0919l8.08656,4.75221l20.32652,-8.04823" fill="none" stroke="#8a2f00" stroke-width="3" stroke-linecap="round"/><path d="M34.24282,264.04589l14.74746,1.99143" fill="none" stroke="#8a2f00" stroke-width="3" stroke-linecap="round"/><path d="M19.00356,276.81676l5.9498,10.84562l-10.66634,5.31703" fill="none" stroke="#8a2f00" stroke-width="3" stroke-linecap="round"/><path d="M71.81649,244.34267l-10.43657,11.26077" fill="none" stroke="#8a2f00" stroke-width="3" stroke-linecap="round"/><path d="M64.19117,268.84082l13.56202,5.21001" fill="none" stroke="#8a2f00" stroke-width="3" stroke-linecap="round"/><path d="M69.08873,269.4083l3.54153,-8.15618" fill="none" stroke="#8a2f00" stroke-width="3" stroke-linecap="round"/><path d="M49.74579,247.93202l13.64643,2.49971" fill="none" stroke="#8a2f00" stroke-width="3" stroke-linecap="round"/><path d="M-0.25932,258.91767l5.50507,-2.54146l7.80195,-1.48047" fill="none" stroke="#8a2f00" stroke-width="3" stroke-linecap="round"/></g><g><path d="M-0.12671,331.25844l-8.38937,-44.21107l75.65005,-14.35514l8.38937,44.21107z" fill="#453d34" stroke="none" stroke-width="0" stroke-linecap="butt"/><path d="M51.40188,319.39922l-4.66342,-0.91128l-6.53874,-7.05844" fill="none" stroke="#8a2f00" stroke-width="3" stroke-linecap="round"/><path d="M-2.79193,307.31345l15.8572,-11.0919l8.08656,4.75221l20.32651,-8.04823" fill="none" stroke="#8a2f00" stroke-width="3" stroke-linecap="round"/><path d="M43.82571,300.56298l-14.74746,-1.99142" fill="none" stroke="#8a2f00" stroke-width="3" stroke-linecap="round"/><path d="M13.83899,311.34242l5.9498,10.84563l-10.66633,5.31703" fill="none" stroke="#8a2f00" stroke-width="3" stroke-linecap="round"/><path d="M56.21535,290.12908l10.43657,-11.26077" fill="none" stroke="#8a2f00" stroke-width="3" stroke-linecap="round"/><path d="M59.02663,303.36647l13.56202,5.21001" fill="none" stroke="#8a2f00" stroke-width="3" stroke-linecap="round"/><path d="M67.46569,295.77778l-3.54153,8.15618" fill="none" stroke="#8a2f00" stroke-width="3" stroke-linecap="round"/><path d="M58.22766,284.95739l-13.64643,-2.49971" fill="none" stroke="#8a2f00" stroke-width="3" stroke-linecap="round"/><path d="M-5.42388,293.44332l5.50507,-2.54146l7.80195,-1.48048" fill="none" stroke="#8a2f00" stroke-width="3" stroke-linecap="round"/></g><g><path d="M0.17666,361.2306l-0.34383,-44.99869l76.99776,-0.58832l0.34382,44.9987z" fill="#453d34" stroke="none" stroke-width="0" stroke-linecap="butt"/><path d="M52.99562,358.78215l-4.42513,-1.73095l-5.17035,-8.11444" fill="none" stroke="#8a2f00" stroke-width="3" stroke-linecap="round"/><path d="M1.83866,337.19514l17.58586,-8.07578l7.10582,6.12235l21.4385,-4.28157" fill="none" stroke="#8a2f00" stroke-width="3" stroke-linecap="round"/><path d="M48.91185,338.89434l-14.15319,-4.59789" fill="none" stroke="#8a2f00" stroke-width="3" stroke-linecap="round"/><path d="M17.48036,344.13466l3.91331,11.73515l-11.44553,3.32283" fill="none" stroke="#8a2f00" stroke-width="3" stroke-linecap="round"/><path d="M75.25131,321.63378l-12.28293,9.21177" fill="none" stroke="#8a2f00" stroke-width="3" stroke-linecap="round"/><path d="M63.36588,344.37232l12.411,7.55244" fill="none" stroke="#8a2f00" stroke-width="3" stroke-linecap="round"/><path d="M68.08284,345.80691l4.94368,-7.39092" fill="none" stroke="#8a2f00" stroke-width="3" stroke-linecap="round"/><path d="M52.89453,321.21636l12.97899,4.90098" fill="none" stroke="#8a2f00" stroke-width="3" stroke-linecap="round"/><path d="M1.73078,323.07791l5.87095,-1.51549l7.94094,-0.06068" fill="none" stroke="#8a2f00" stroke-width="3" stroke-linecap="round"/></g><g><path d="M89.33283,363.02858l-43.64127,-10.97451l18.77862,-74.67506l43.64127,10.97451z" fill="#453d34" stroke="none" stroke-width="0" stroke-linecap="butt"/><path d="M100.23532,311.28911l-2.78736,3.84819l-9.15329,2.96546" fill="none" stroke="#8a2f00" stroke-width="3" stroke-linecap="round"/><path d="M66.48618,355.38028l-3.39767,-19.0509l7.71147,-5.33939l1.24289,-21.8265" fill="none" stroke="#8a2f00" stroke-width="3" stroke-linecap="round"/><path d="M79.95945,310.24445l-8.00678,12.54371" fill="none" stroke="#8a2f00" stroke-width="3" stroke-linecap="round"/><path d="M77.13349,341.98421l12.34195,-0.83892l0.34018,11.91325" fill="none" stroke="#8a2f00" stroke-width="3" stroke-linecap="round"/><path d="M75.70106,294.61641l-5.82975,-14.20356" fill="none" stroke="#8a2f00" stroke-width="3" stroke-linecap="round"/><path d="M88.89369,297.63068l10.42876,-10.11501" fill="none" stroke="#8a2f00" stroke-width="3" stroke-linecap="round"/><path d="M85.55601,286.78328l5.91153,6.64225" fill="none" stroke="#8a2f00" stroke-width="3" stroke-linecap="round"/><path d="M63.84947,301.94739l8.00509,-11.33103" fill="none" stroke="#8a2f00" stroke-width="3" stroke-linecap="round"/><path d="M52.79482,351.93729l0.00838,-6.06338l1.93668,-7.7014" fill="none" stroke="#8a2f00" stroke-width="3" stroke-linecap="round"/></g><g><path d="M80.34094,311.15862l-16.921,-41.69748l71.34902,-28.95371l16.92101,41.69748z" fill="#453d34" stroke="none" stroke-width="0" stroke-linecap="butt"/><path d="M128.53055,289.39633l-4.75156,0.02372l-7.79929,-5.63451" fill="none" stroke="#8a2f00" stroke-width="3" stroke-linecap="round"/><path d="M73.01822,288.20554l13.36589,-13.99407l8.86328,3.0689l18.34654,-11.88887" fill="none" stroke="#8a2f00" stroke-width="3" stroke-linecap="round"/><path d="M117.39761,272.4181l-14.85108,0.94803" fill="none" stroke="#8a2f00" stroke-width="3" stroke-linecap="round"/><path d="M90.11674,288.88482l7.96671,9.46356l-9.41222,7.31105" fill="none" stroke="#8a2f00" stroke-width="3" stroke-linecap="round"/><path d="M127.49309,259.7512l8.01793,-13.0935" fill="none" stroke="#8a2f00" stroke-width="3" stroke-linecap="round"/><path d="M132.85298,272.17708l14.32183,2.44085" fill="none" stroke="#8a2f00" stroke-width="3" stroke-linecap="round"/><path d="M137.7665,271.77023l1.86819,-8.69343" fill="none" stroke="#8a2f00" stroke-width="3" stroke-linecap="round"/><path d="M114.5774,254.51785l13.87152,-0.23312" fill="none" stroke="#8a2f00" stroke-width="3" stroke-linecap="round"/><path d="M67.70968,275.12399l4.89768,-3.57457l7.35837,-2.98606" fill="none" stroke="#8a2f00" stroke-width="3" stroke-linecap="round"/></g><g><path d="M107.00291,371.35682l-43.89538,9.90936l-16.95601,-75.10989l43.8954,-9.90936z" fill="#453d34" stroke="none" stroke-width="0" stroke-linecap="butt"/><path d="M93.37336,320.26795l-0.74988,4.69208l-6.82869,6.77832" fill="none" stroke="#8a2f00" stroke-width="3" stroke-linecap="round"/><path d="M83.16408,374.8464l-11.63227,-15.46517l4.47044,-8.24567l-8.74456,-20.03681" fill="none" stroke="#8a2f00" stroke-width="3" stroke-linecap="round"/><path d="M74.80966,328.48934l-1.48156,14.80738" fill="none" stroke="#8a2f00" stroke-width="3" stroke-linecap="round"/><path d="M86.61701,358.0864l10.63395,-6.32035l5.68178,10.47658" fill="none" stroke="#8a2f00" stroke-width="3" stroke-linecap="round"/><path d="M52.34055,306.42503l11.61406,10.04194" fill="none" stroke="#8a2f00" stroke-width="3" stroke-linecap="round"/><path d="M77.08715,313.20077l4.73911,-13.73365" fill="none" stroke="#8a2f00" stroke-width="3" stroke-linecap="round"/><path d="M69.21186,305.02849l8.27349,3.25809" fill="none" stroke="#8a2f00" stroke-width="3" stroke-linecap="round"/><path d="M58.71658,314.63425l-2.02752,13.72454" fill="none" stroke="#8a2f00" stroke-width="3" stroke-linecap="round"/><path d="M69.39299,377.9552l-2.72984,-5.41412l-1.7487,-7.74624" fill="none" stroke="#8a2f00" stroke-width="3" stroke-linecap="round"/></g><g><path d="M72.37964,283.44433l-0.51653,-44.99704l76.99493,-0.88384l0.51654,44.99704z" fill="#453d34" stroke="none" stroke-width="0" stroke-linecap="butt"/><path d="M125.1888,280.79318l-4.43173,-1.71395l-5.20146,-8.09454" fill="none" stroke="#8a2f00" stroke-width="3" stroke-linecap="round"/><path d="M73.94936,259.40267l17.55474,-8.14322l7.12927,6.09504l21.4219,-4.36382" fill="none" stroke="#8a2f00" stroke-width="3" stroke-linecap="round"/><path d="M106.85798,256.37766l14.17073,4.54352" fill="none" stroke="#8a2f00" stroke-width="3" stroke-linecap="round"/><path d="M89.61759,266.28211l3.95831,11.72003l-11.4327,3.36674" fill="none" stroke="#8a2f00" stroke-width="3" stroke-linecap="round"/><path d="M135.05426,252.8185l12.24748,-9.25885" fill="none" stroke="#8a2f00" stroke-width="3" stroke-linecap="round"/><path d="M147.94358,273.8484l-12.43991,-7.50475" fill="none" stroke="#8a2f00" stroke-width="3" stroke-linecap="round"/><path d="M140.22611,267.76012l4.91528,-7.40985" fill="none" stroke="#8a2f00" stroke-width="3" stroke-linecap="round"/><path d="M137.94124,248.07917l-12.9977,-4.85111" fill="none" stroke="#8a2f00" stroke-width="3" stroke-linecap="round"/><path d="M73.78729,245.28596l5.86509,-1.53802l7.94065,-0.09115" fill="none" stroke="#8a2f00" stroke-width="3" stroke-linecap="round"/></g><g><path d="M133.8014,282.16069l6.51739,-44.52554l76.18814,11.15198l-3.41034,23.2988l-21.51814,18.53183z" fill="#453d34" stroke="none" stroke-width="0" stroke-linecap="butt"/><path d="M186.37658,287.78975l-4.10967,-2.38506l-3.87343,-8.80757" fill="none" stroke="#8a2f00" stroke-width="3" stroke-linecap="round"/><path d="M139.10665,258.65922l18.61112,-5.30161l6.08987,7.13368l21.84057,-0.96462" fill="none" stroke="#8a2f00" stroke-width="3" stroke-linecap="round"/><path d="M172.0839,260.81095l13.28724,6.70094" fill="none" stroke="#8a2f00" stroke-width="3" stroke-linecap="round"/><path d="M153.50817,267.90128l2.07933,12.19442l-11.81822,1.53989" fill="none" stroke="#8a2f00" stroke-width="3" stroke-linecap="round"/><path d="M200.49003,261.69914l13.54322,-7.23243" fill="none" stroke="#8a2f00" stroke-width="3" stroke-linecap="round"/><path d="M198.8216,275.1285l2.40269,4.99926" fill="none" stroke="#8a2f00" stroke-width="3" stroke-linecap="round"/><path d="M209.27709,270.71387l-6.01222,6.55126" fill="none" stroke="#8a2f00" stroke-width="3" stroke-linecap="round"/><path d="M204.08178,257.46885l-12.08057,-6.82155" fill="none" stroke="#8a2f00" stroke-width="3" stroke-linecap="round"/><path d="M141.15132,244.69042l6.03333,-0.60314l7.85744,1.15013" fill="none" stroke="#8a2f00" stroke-width="3" stroke-linecap="round"/></g><g><path d="M-28.86302,165.14872l-4.29569,-44.78358l55.46666,-3.01957l4.29569,44.78358z" fill="#453d34" stroke="none" stroke-width="0" stroke-linecap="butt"/><path d="M9.00208,161.04174l-3.34646,-1.58321l-4.45802,-7.91418" fill="none" stroke="#8a2f00" stroke-width="3" stroke-linecap="round"/><path d="M-29.82671,141.16981l11.95393,-8.59502l5.6744,5.86994l15.07319,-4.93982" fill="none" stroke="#8a2f00" stroke-width="3" stroke-linecap="round"/><path d="M4.26847,141.3733l-10.61882,-4.12962" fill="none" stroke="#8a2f00" stroke-width="3" stroke-linecap="round"/><path d="M-17.92396,147.5834l3.87732,11.55817l-7.95395,3.66956" fill="none" stroke="#8a2f00" stroke-width="3" stroke-linecap="round"/><path d="M21.70803,123.35848l-8.02803,9.55823" fill="none" stroke="#8a2f00" stroke-width="3" stroke-linecap="round"/><path d="M24.81176,153.49535l-9.62837,-7.12584" fill="none" stroke="#8a2f00" stroke-width="3" stroke-linecap="round"/><path d="M21.61346,140.13484l-2.89983,7.51366" fill="none" stroke="#8a2f00" stroke-width="3" stroke-linecap="round"/><path d="M5.55003,123.64966l9.79943,4.46846" fill="none" stroke="#8a2f00" stroke-width="3" stroke-linecap="round"/><path d="M-31.17437,127.12007l4.09695,-1.6942l5.7204,-0.31142" fill="none" stroke="#8a2f00" stroke-width="3" stroke-linecap="round"/></g><g><path d="M59.45803,162.64175l-44.95248,-1.81554l4.52825,-55.36392l44.95249,1.81555z" fill="#453d34" stroke="none" stroke-width="0" stroke-linecap="butt"/><path d="M60.52257,124.56946l-2.02229,3.10092l-8.44551,3.34389" fill="none" stroke="#8a2f00" stroke-width="3" stroke-linecap="round"/><path d="M35.56986,160.34559l-6.895,-13.00884l6.58506,-4.82619l-2.85065,-15.60373" fill="none" stroke="#8a2f00" stroke-width="3" stroke-linecap="round"/><path d="M40.39397,126.5928l-5.53115,9.9609" fill="none" stroke="#8a2f00" stroke-width="3" stroke-linecap="round"/><path d="M43.53797,149.42226l11.97713,-2.27451l2.55732,8.37802" fill="none" stroke="#8a2f00" stroke-width="3" stroke-linecap="round"/><path d="M33.29142,116.12165l-8.38157,-9.24977" fill="none" stroke="#8a2f00" stroke-width="3" stroke-linecap="round"/><path d="M55.18927,107.88265l-8.36542,8.57337" fill="none" stroke="#8a2f00" stroke-width="3" stroke-linecap="round"/><path d="M48.56965,113.13179l-7.05114,-3.89173" fill="none" stroke="#8a2f00" stroke-width="3" stroke-linecap="round"/><path d="M23.00771,122.92017l5.75577,-9.10313" fill="none" stroke="#8a2f00" stroke-width="3" stroke-linecap="round"/><path d="M21.46715,159.77601l-1.12311,-4.28881l0.467,-5.7098" fill="none" stroke="#8a2f00" stroke-width="3" stroke-linecap="round"/></g><g><path d="M41.94396,119.79936l-44.95248,-1.81555l4.52825,-55.36392l44.95249,1.81555z" fill="#453d34" stroke="none" stroke-width="0" stroke-linecap="butt"/><path d="M43.00851,81.72705l-2.02229,3.10092l-8.4455,3.34389" fill="none" stroke="#8a2f00" stroke-width="3" stroke-linecap="round"/><path d="M18.0558,117.50319l-6.895,-13.00884l6.58506,-4.82618l-2.85065,-15.60373" fill="none" stroke="#8a2f00" stroke-width="3" stroke-linecap="round"/><path d="M17.34874,93.7113l5.53115,-9.9609" fill="none" stroke="#8a2f00" stroke-width="3" stroke-linecap="round"/><path d="M26.02389,106.57986l11.97713,-2.27451l2.55731,8.37801" fill="none" stroke="#8a2f00" stroke-width="3" stroke-linecap="round"/><path d="M15.77737,73.27925l-8.38157,-9.24977" fill="none" stroke="#8a2f00" stroke-width="3" stroke-linecap="round"/><path d="M29.30977,73.61362l8.36543,-8.57337" fill="none" stroke="#8a2f00" stroke-width="3" stroke-linecap="round"/><path d="M31.05558,70.28938l-7.05114,-3.89172" fill="none" stroke="#8a2f00" stroke-width="3" stroke-linecap="round"/><path d="M5.49365,80.07777l5.75577,-9.10313" fill="none" stroke="#8a2f00" stroke-width="3" stroke-linecap="round"/><path d="M3.95307,116.93361l-1.12311,-4.28881l0.467,-5.70981" fill="none" stroke="#8a2f00" stroke-width="3" stroke-linecap="round"/></g><g><path d="M45.72752,65.70955l-44.81804,3.91984l-2.55414,-55.49003l44.81804,-3.91985z" fill="#453d34" stroke="none" stroke-width="0" stroke-linecap="butt"/><path d="M41.93833,27.81132l-1.61123,3.33307l-7.9513,4.39147" fill="none" stroke="#8a2f00" stroke-width="3" stroke-linecap="round"/><path d="M21.74137,66.47204l-8.49444,-12.02562l5.91734,-5.62495l-4.8132,-15.1141" fill="none" stroke="#8a2f00" stroke-width="3" stroke-linecap="round"/><path d="M22.23085,32.37977l-4.21856,10.5838" fill="none" stroke="#8a2f00" stroke-width="3" stroke-linecap="round"/><path d="M28.25458,54.62351l11.59029,-3.78022l3.60271,7.98445" fill="none" stroke="#8a2f00" stroke-width="3" stroke-linecap="round"/><path d="M13.85353,22.89762l-9.49055,-8.10793" fill="none" stroke="#8a2f00" stroke-width="3" stroke-linecap="round"/><path d="M27.31847,21.50715l7.20637,-9.56825" fill="none" stroke="#8a2f00" stroke-width="3" stroke-linecap="round"/><path d="M28.62704,17.98776l-7.48907,-2.96276" fill="none" stroke="#8a2f00" stroke-width="3" stroke-linecap="round"/><path d="M4.5186,30.94957l4.55051,-9.7616" fill="none" stroke="#8a2f00" stroke-width="3" stroke-linecap="round"/><path d="M7.6808,67.7018l-1.65977,-4.11102l-0.26342,-5.72281" fill="none" stroke="#8a2f00" stroke-width="3" stroke-linecap="round"/></g><g><path d="M60.58253,115.75863l-40.57937,-19.42515l26.03,-49.07247l40.57937,19.42516z" fill="#453d34" stroke="none" stroke-width="0" stroke-linecap="butt"/><path d="M76.59992,81.20322l-3.08276,2.04988l-9.07955,-0.26424" fill="none" stroke="#8a2f00" stroke-width="3" stroke-linecap="round"/><path d="M39.5442,104.21283l-1.19544,-14.67453l7.95596,-1.83243l3.54502,-15.46077" fill="none" stroke="#8a2f00" stroke-width="3" stroke-linecap="round"/><path d="M48.29299,82.0766l9.01609,-6.96586" fill="none" stroke="#8a2f00" stroke-width="3" stroke-linecap="round"/><path d="M51.17922,97.32546l11.90153,2.64171l-0.96018,8.70684" fill="none" stroke="#8a2f00" stroke-width="3" stroke-linecap="round"/><path d="M54.92053,62.68553l-4.04603,-11.80841" fill="none" stroke="#8a2f00" stroke-width="3" stroke-linecap="round"/><path d="M78.29201,63.76675l-11.07176,4.57157" fill="none" stroke="#8a2f00" stroke-width="3" stroke-linecap="round"/><path d="M70.13725,65.97407l-4.94035,-6.36058" fill="none" stroke="#8a2f00" stroke-width="3" stroke-linecap="round"/><path d="M42.78761,64.86883l8.88361,-6.08913" fill="none" stroke="#8a2f00" stroke-width="3" stroke-linecap="round"/><path d="M26.81341,98.11867l0.66241,-4.38366l2.68453,-5.06096" fill="none" stroke="#8a2f00" stroke-width="3" stroke-linecap="round"/></g><g><path d="M69.13908,56.00011l-44.95248,-1.81555l4.52825,-55.36391l44.95249,1.81555z" fill="#453d34" stroke="none" stroke-width="0" stroke-linecap="butt"/><path d="M70.20362,17.92781l-2.0223,3.10092l-8.4455,3.34389" fill="none" stroke="#8a2f00" stroke-width="3" stroke-linecap="round"/><path d="M45.25092,53.70394l-6.895,-13.00884l6.58506,-4.82619l-2.85065,-15.60373" fill="none" stroke="#8a2f00" stroke-width="3" stroke-linecap="round"/><path d="M50.07501,19.95115l-5.53115,9.9609" fill="none" stroke="#8a2f00" stroke-width="3" stroke-linecap="round"/><path d="M53.21902,42.78061l11.97713,-2.27451l2.55731,8.37801" fill="none" stroke="#8a2f00" stroke-width="3" stroke-linecap="round"/><path d="M42.97249,9.48l-8.38157,-9.24977" fill="none" stroke="#8a2f00" stroke-width="3" stroke-linecap="round"/><path d="M64.87032,1.241l-8.36542,8.57338" fill="none" stroke="#8a2f00" stroke-width="3" stroke-linecap="round"/><path d="M51.19956,2.59841l7.05114,3.89172" fill="none" stroke="#8a2f00" stroke-width="3" stroke-linecap="round"/><path d="M38.44453,7.17539l-5.75577,9.10313" fill="none" stroke="#8a2f00" stroke-width="3" stroke-linecap="round"/><path d="M31.1482,53.13436l-1.12311,-4.28881l0.467,-5.70981" fill="none" stroke="#8a2f00" stroke-width="3" stroke-linecap="round"/></g><g><path d="M40.36799,55.37159l-44.95248,-1.81555l4.52825,-55.36392l44.95249,1.81555z" fill="#453d34" stroke="none" stroke-width="0" stroke-linecap="butt"/><path d="M41.43251,17.29929l-2.02229,3.10092l-8.44551,3.34389" fill="none" stroke="#8a2f00" stroke-width="3" stroke-linecap="round"/><path d="M16.47982,53.07542l-6.895,-13.00884l6.58505,-4.82619l-2.85065,-15.60373" fill="none" stroke="#8a2f00" stroke-width="3" stroke-linecap="round"/><path d="M21.30392,19.32263l-5.53115,9.9609" fill="none" stroke="#8a2f00" stroke-width="3" stroke-linecap="round"/><path d="M24.44791,42.15209l11.97713,-2.27451l2.55732,8.37801" fill="none" stroke="#8a2f00" stroke-width="3" stroke-linecap="round"/><path d="M14.20137,8.85148l-8.38157,-9.24977" fill="none" stroke="#8a2f00" stroke-width="3" stroke-linecap="round"/><path d="M36.09922,0.61248l-8.36542,8.57338" fill="none" stroke="#8a2f00" stroke-width="3" stroke-linecap="round"/><path d="M22.42844,1.96989l7.05114,3.89172" fill="none" stroke="#8a2f00" stroke-width="3" stroke-linecap="round"/><path d="M9.67343,6.54687l-5.75577,9.10313" fill="none" stroke="#8a2f00" stroke-width="3" stroke-linecap="round"/><path d="M2.37708,52.50584l-1.12311,-4.28881l0.467,-5.7098" fill="none" stroke="#8a2f00" stroke-width="3" stroke-linecap="round"/></g><g><path d="M79.06329,76.05813l-30.89555,-32.70302l41.91744,-36.44991l30.89555,32.70302z" fill="#453d34" stroke="none" stroke-width="0" stroke-linecap="butt"/><path d="M106.42244,49.56076l-3.61329,0.80595l-8.37888,-3.50748" fill="none" stroke="#8a2f00" stroke-width="3" stroke-linecap="round"/><path d="M63.57522,57.72684l4.15459,-14.12481l8.08326,1.14717l8.86117,-13.15608" fill="none" stroke="#8a2f00" stroke-width="3" stroke-linecap="round"/><path d="M90.60674,36.94655l-10.91631,3.26303" fill="none" stroke="#8a2f00" stroke-width="3" stroke-linecap="round"/><path d="M76.90755,55.47765l10.15872,6.73983l-4.02313,7.7811" fill="none" stroke="#8a2f00" stroke-width="3" stroke-linecap="round"/><path d="M93.30483,12.01882l-0.46483,12.47368" fill="none" stroke="#8a2f00" stroke-width="3" stroke-linecap="round"/><path d="M114.26389,33.89534l-11.97493,0.29021" fill="none" stroke="#8a2f00" stroke-width="3" stroke-linecap="round"/><path d="M105.86041,33.02664l-2.32637,-7.71052" fill="none" stroke="#8a2f00" stroke-width="3" stroke-linecap="round"/><path d="M91.21022,19.68029l-10.47779,2.49237" fill="none" stroke="#8a2f00" stroke-width="3" stroke-linecap="round"/><path d="M53.88252,47.46708l2.19258,-3.8533l4.32304,-3.75917" fill="none" stroke="#8a2f00" stroke-width="3" stroke-linecap="round"/></g><g><path d="M101.85418,44.41338l-8.24634,-44.22691l54.98104,-7.92169l8.24635,44.22692z" fill="#453d34" stroke="none" stroke-width="0" stroke-linecap="butt"/><path d="M139.20653,36.96795l-3.47357,-1.28051l-5.14163,-7.48811" fill="none" stroke="#8a2f00" stroke-width="3" stroke-linecap="round"/><path d="M98.76991,20.61413l11.14546,-9.62027l6.17212,5.34415l14.57629,-6.25579" fill="none" stroke="#8a2f00" stroke-width="3" stroke-linecap="round"/><path d="M132.74905,17.79621l-10.94293,-3.17263" fill="none" stroke="#8a2f00" stroke-width="3" stroke-linecap="round"/><path d="M111.19405,25.94799l4.88605,11.16922l-7.59757,4.3598" fill="none" stroke="#8a2f00" stroke-width="3" stroke-linecap="round"/><path d="M148.52403,-1.69281l-7.14966,10.23188" fill="none" stroke="#8a2f00" stroke-width="3" stroke-linecap="round"/><path d="M154.28548,28.05059l-10.22181,-6.24481" fill="none" stroke="#8a2f00" stroke-width="3" stroke-linecap="round"/><path d="M147.69333,22.76698l2.22277,-7.74102" fill="none" stroke="#8a2f00" stroke-width="3" stroke-linecap="round"/><path d="M132.45536,0.02872l10.15677,3.58272" fill="none" stroke="#8a2f00" stroke-width="3" stroke-linecap="round"/><path d="M96.18282,6.73904l3.93075,-2.0505l5.67032,-0.81699" fill="none" stroke="#8a2f00" stroke-width="3" stroke-linecap="round"/></g><g><path d="M61.82603,38.15634l-8.24634,-44.22691l54.98104,-7.92169l8.24634,44.22692z" fill="#453d34" stroke="none" stroke-width="0" stroke-linecap="butt"/><path d="M99.1784,30.71091l-3.47357,-1.28051l-5.14164,-7.48811" fill="none" stroke="#8a2f00" stroke-width="3" stroke-linecap="round"/><path d="M58.74176,14.3571l11.14547,-9.62027l6.17212,5.34415l14.57629,-6.25579" fill="none" stroke="#8a2f00" stroke-width="3" stroke-linecap="round"/><path d="M81.77795,8.36655l10.94293,3.17263" fill="none" stroke="#8a2f00" stroke-width="3" stroke-linecap="round"/><path d="M71.16591,19.69096l4.88605,11.16922l-7.59757,4.3598" fill="none" stroke="#8a2f00" stroke-width="3" stroke-linecap="round"/><path d="M101.34623,2.28203l7.14966,-10.23187" fill="none" stroke="#8a2f00" stroke-width="3" stroke-linecap="round"/><path d="M114.25734,21.79355l-10.22181,-6.24481" fill="none" stroke="#8a2f00" stroke-width="3" stroke-linecap="round"/><path d="M109.88796,8.76892l-2.22277,7.74103" fill="none" stroke="#8a2f00" stroke-width="3" stroke-linecap="round"/><path d="M102.58398,-2.64559l-10.15677,-3.58273" fill="none" stroke="#8a2f00" stroke-width="3" stroke-linecap="round"/><path d="M56.15466,0.482l3.93075,-2.0505l5.67032,-0.81699" fill="none" stroke="#8a2f00" stroke-width="3" stroke-linecap="round"/></g><path d="M362.32424,270.25253v-34.67898c0,0 41.20609,0 61.77101,0c20.51421,0 61.46672,0 61.46672,0v34.67898z" fill="#676767" stroke="none" stroke-width="0" stroke-linecap="butt"/><path d="M364.37089,263.61994h118.97705" fill="none" stroke="#444444" stroke-width="2" stroke-linecap="round"/><path d="M364.37089,256.57641h118.97705" fill="none" stroke="#444444" stroke-width="2" stroke-linecap="round"/><path d="M364.37089,249.13248h118.97705" fill="none" stroke="#444444" stroke-width="2" stroke-linecap="round"/><path d="M362.52033,243.13981v-7.53619h122.82878v7.53619z" fill="#c6c6c6" stroke="none" stroke-width="0" stroke-linecap="butt"/><path d="M369.74575,270.41748h-7.53618v-27.95947h7.53618z" fill="#c6c6c6" stroke="none" stroke-width="0" stroke-linecap="butt"/><g><path d="M438.28734,296.15845l40.537,-13.82261l23.0003,69.45532l-40.53699,13.82262z" fill="#453d34" stroke="none" stroke-width="0" stroke-linecap="butt"/><path d="M455.91177,343.18943l0.27187,-4.52155l5.8192,-7.11226" fill="none" stroke="#8a2f00" stroke-width="3" stroke-linecap="round"/><path d="M460.47822,290.44436l12.42486,13.47866l-3.45539,8.26441l10.12264,18.10202" fill="none" stroke="#8a2f00" stroke-width="3" stroke-linecap="round"/><path d="M472.68032,333.52463l0.02215,-14.17985" fill="none" stroke="#8a2f00" stroke-width="3" stroke-linecap="round"/><path d="M458.77575,306.67347l-9.45578,7.06263l-6.34075,-9.35289" fill="none" stroke="#8a2f00" stroke-width="3" stroke-linecap="round"/><path d="M484.05087,343.81969l11.90328,8.34192" fill="none" stroke="#8a2f00" stroke-width="3" stroke-linecap="round"/><path d="M468.75242,361.73234l3.19873,-13.49151" fill="none" stroke="#8a2f00" stroke-width="3" stroke-linecap="round"/><path d="M472.03209,352.93733l8.11723,2.2515" fill="none" stroke="#8a2f00" stroke-width="3" stroke-linecap="round"/><path d="M489.16861,345.02721l0.63851,-13.20898" fill="none" stroke="#8a2f00" stroke-width="3" stroke-linecap="round"/><path d="M473.19569,286.10785l3.08184,4.85426l2.37207,7.16308" fill="none" stroke="#8a2f00" stroke-width="3" stroke-linecap="round"/></g><path d="M392.65257,150.48705v-34.67898c0,0 41.20609,0 61.77101,0c20.51421,0 61.46672,0 61.46672,0v34.67898z" fill="#676767" stroke="none" stroke-width="0" stroke-linecap="butt"/><path d="M513.67625,143.85447h-118.97705" fill="none" stroke="#444444" stroke-width="2" stroke-linecap="round"/><path d="M394.69922,136.81093h118.97705" fill="none" stroke="#444444" stroke-width="2" stroke-linecap="round"/><path d="M394.69921,129.367h118.97705" fill="none" stroke="#444444" stroke-width="2" stroke-linecap="round"/><path d="M392.84866,123.37433v-7.53619h122.82878v7.53619z" fill="#c6c6c6" stroke="none" stroke-width="0" stroke-linecap="butt"/><path d="M400.07406,150.652h-7.53618v-27.95946h7.53618z" fill="#c6c6c6" stroke="none" stroke-width="0" stroke-linecap="butt"/><path d="M397.53909,150.57884v-7.53618h122.82878v7.53618z" fill="#c6c6c6" stroke="none" stroke-width="0" stroke-linecap="butt"/><g data-paper-data="{&quot;index&quot;:null}"><path d="M371.6439,43.58464l-3.35077,-42.6976l72.98805,-5.07935l3.35078,42.6976z" fill="#453d34" stroke="none" stroke-width="0" stroke-linecap="butt"/><path d="M421.57483,38.15909l-4.31329,-1.38339l-5.44919,-7.39957" fill="none" stroke="#8a2f00" stroke-width="3" stroke-linecap="round"/><path d="M371.60459,20.66991l16.13628,-8.69897l7.15096,5.39481l20.04529,-5.32328" fill="none" stroke="#8a2f00" stroke-width="3" stroke-linecap="round"/><path d="M416.36482,19.51912l-13.73247,-3.53383" fill="none" stroke="#8a2f00" stroke-width="3" stroke-linecap="round"/><path d="M386.90625,26.3393l4.50032,10.91053l-10.63203,3.82642" fill="none" stroke="#8a2f00" stroke-width="3" stroke-linecap="round"/><path d="M429.15555,11.05299l11.03041,-9.46603" fill="none" stroke="#8a2f00" stroke-width="3" stroke-linecap="round"/><path d="M430.4418,23.87078l12.27873,6.44092" fill="none" stroke="#8a2f00" stroke-width="3" stroke-linecap="round"/><path d="M439.20395,17.64914l-4.19198,7.30656" fill="none" stroke="#8a2f00" stroke-width="3" stroke-linecap="round"/><path d="M418.95391,2.50338l12.63919,3.89049" fill="none" stroke="#8a2f00" stroke-width="3" stroke-linecap="round"/><path d="M370.55337,7.27459l5.46636,-1.78339l7.52742,-0.52384" fill="none" stroke="#8a2f00" stroke-width="3" stroke-linecap="round"/></g><g data-paper-data="{&quot;index&quot;:null}"><path d="M435.86139,-6.36983l42.82558,0.53126l-1.554,73.14807l-42.82558,-0.53125z" fill="#453d34" stroke="none" stroke-width="0" stroke-linecap="butt"/><path d="M436.74108,43.84729l1.76847,-4.17023l7.86282,-4.75641" fill="none" stroke="#8a2f00" stroke-width="3" stroke-linecap="round"/><path d="M458.68546,-4.33299l7.20131,16.85801l-6.02048,6.6328l3.48536,20.44512" fill="none" stroke="#8a2f00" stroke-width="3" stroke-linecap="round"/><path d="M460.53981,26.99157l-4.76341,13.35585" fill="none" stroke="#8a2f00" stroke-width="3" stroke-linecap="round"/><path d="M451.65311,10.39211l-11.27338,3.49336l-2.84746,-10.93497" fill="none" stroke="#8a2f00" stroke-width="3" stroke-linecap="round"/><path d="M471.47671,65.69519l-8.42779,-11.84264" fill="none" stroke="#8a2f00" stroke-width="3" stroke-linecap="round"/><path d="M450.16731,53.97226l-7.52684,11.64471" fill="none" stroke="#8a2f00" stroke-width="3" stroke-linecap="round"/><path d="M448.67281,58.42536l6.89673,4.83669" fill="none" stroke="#8a2f00" stroke-width="3" stroke-linecap="round"/><path d="M472.48761,44.46743l-5.01956,12.23474" fill="none" stroke="#8a2f00" stroke-width="3" stroke-linecap="round"/><path d="M472.12092,-4.16633l1.28082,5.60545l-0.16027,7.54392" fill="none" stroke="#8a2f00" stroke-width="3" stroke-linecap="round"/></g><g data-paper-data="{&quot;index&quot;:null}"><path d="M408.13608,45.60972l-41.90168,8.86353l-14.50845,-71.71165l41.90168,-8.86354z" fill="#453d34" stroke="none" stroke-width="0" stroke-linecap="butt"/><path d="M396.2766,-3.19485l-0.81193,4.45634l-6.62982,6.36339" fill="none" stroke="#8a2f00" stroke-width="3" stroke-linecap="round"/><path d="M385.42023,48.62246l-10.7195,-14.87091l4.42117,-7.7906l-7.87965,-19.18494" fill="none" stroke="#8a2f00" stroke-width="3" stroke-linecap="round"/><path d="M376.74859,18.46504l1.72181,-14.07494" fill="none" stroke="#8a2f00" stroke-width="3" stroke-linecap="round"/><path d="M389.0559,32.71446l10.23423,-5.87818l5.17384,10.04554" fill="none" stroke="#8a2f00" stroke-width="3" stroke-linecap="round"/><path d="M368.41594,-7.19376l-10.81746,-9.70867" fill="none" stroke="#8a2f00" stroke-width="3" stroke-linecap="round"/><path d="M385.75139,-23.14334l-4.79298,13.01077" fill="none" stroke="#8a2f00" stroke-width="3" stroke-linecap="round"/><path d="M381.44107,-14.80489l-7.78879,-3.20832" fill="none" stroke="#8a2f00" stroke-width="3" stroke-linecap="round"/><path d="M363.47988,-9.00607l-2.21733,13.0372" fill="none" stroke="#8a2f00" stroke-width="3" stroke-linecap="round"/><path d="M372.27461,51.40319l-2.47771,-5.18869l-1.49628,-7.39578" fill="none" stroke="#8a2f00" stroke-width="3" stroke-linecap="round"/></g></g></g></svg>