<svg version="1.1" xmlns="http://www.w3.org/2000/svg" xmlns:xlink="http://www.w3.org/1999/xlink" width="37.91667" height="20.5" viewBox="0,0,37.91667,20.5"><g transform="translate(-94.33333,-101.80333)"><g data-paper-data="{&quot;isPaintingLayer&quot;:true}" fill-rule="nonzero" stroke-linecap="butt" stroke-linejoin="miter" stroke-miterlimit="10" stroke-dasharray="" stroke-dashoffset="0" style="mix-blend-mode: normal"><path d="M100,120.5001v-15.92079h21v15.92079z" fill="#988282" stroke="none" stroke-width="0"/><path d="M110.33333,112.50006c0,4.41828 -3.58172,8 -8,8c-4.41828,0 -8,-3.58172 -8,-8c0,-4.41828 3.58172,-8 8,-8c4.41828,0 8,3.58172 8,8z" fill="#988282" stroke="none" stroke-width="0"/><path d="M112,112.05334c0,-5.52285 4.47716,-10 10,-10c5.52284,0 10,4.47715 10,10c0,5.52285 -4.47716,10 -10,10c-5.52284,0 -10,-4.47715 -10,-10z" fill="#04ff00" stroke="#000000" stroke-width="0.5"/></g></g></svg>