<svg version="1.1" xmlns="http://www.w3.org/2000/svg" xmlns:xlink="http://www.w3.org/1999/xlink" width="152.86587" height="260.72087" viewBox="0,0,152.86587,260.72087"><g transform="translate(-205.82476,-46.29898)"><g data-paper-data="{&quot;isPaintingLayer&quot;:true}" fill="#9966ff" fill-rule="nonzero" stroke="none" stroke-linecap="butt" stroke-linejoin="miter" stroke-miterlimit="10" stroke-dasharray="" stroke-dashoffset="0" style="mix-blend-mode: normal"><path d="M230.66115,123.19194l13.59027,11.85941l-16.29383,7.28396z" stroke-width="NaN"/><path d="M221.99448,185.19194l13.59027,11.85941l-16.29383,7.28396z" stroke-width="NaN"/><path d="M225.99448,153.8586l13.59027,11.85941l-16.29383,7.28396z" stroke-width="NaN"/><path d="M217.32782,215.8586l13.59027,11.85941l-16.29383,7.28396z" stroke-width="NaN"/><path d="M229.16953,133.7538l13.59027,11.85941l-16.29383,7.28396z" stroke-width="NaN"/><path d="M220.50286,195.7538l13.59027,11.85941l-16.29383,7.28396z" stroke-width="NaN"/><path d="M224.50286,164.42047l13.59027,11.85941l-16.29383,7.28396z" stroke-width="NaN"/><path d="M215.8362,226.42047l13.59027,11.85941l-16.29383,7.28396z" stroke-width="NaN"/><path d="M227.77114,143.65554l13.59027,11.85941l-16.29383,7.28396z" stroke-width="NaN"/><path d="M219.10447,205.65554l13.59027,11.85941l-16.29383,7.28396z" stroke-width="NaN"/><path d="M223.10447,174.32221l13.59027,11.85941l-16.29383,7.28396z" stroke-width="NaN"/><path d="M214.4378,236.32221l13.59027,11.85941l-16.29383,7.28396z" stroke-width="NaN"/><path d="M205.82476,307.01985l9.84243,-15.11515l9.49091,15.11515z" stroke-width="NaN"/><path d="M237.15809,307.01985l9.84243,-15.11515l9.49091,15.11515z" stroke-width="NaN"/><path d="M266.49142,307.01985l9.84243,-15.11515l9.49091,15.11515z" stroke-width="NaN"/><path d="M216.49143,307.01985l9.84243,-15.11515l9.49091,15.11515z" stroke-width="NaN"/><path d="M247.82476,307.01985l9.84243,-15.11515l9.49091,15.11515z" stroke-width="NaN"/><path d="M277.15809,307.01985l9.84243,-15.11515l9.49091,15.11515z" stroke-width="NaN"/><path d="M226.49143,307.01985l9.84243,-15.11515l9.49091,15.11515z" stroke-width="NaN"/><path d="M257.82476,307.01985l9.84243,-15.11515l9.49091,15.11515z" stroke-width="NaN"/><path d="M287.15809,307.01985l9.84243,-15.11515l9.49091,15.11515z" stroke-width="NaN"/><path d="M330.59071,46.29898l16.08367,8.16436l-14.00993,11.05744z" data-paper-data="{&quot;index&quot;:null}" stroke-width="NaN"/><path d="M337.39364,108.53106l16.08367,8.16436l-14.00993,11.05744z" data-paper-data="{&quot;index&quot;:null}" stroke-width="NaN"/><path d="M333.58727,77.17362l16.08367,8.16436l-14.00993,11.05744z" data-paper-data="{&quot;index&quot;:null}" stroke-width="NaN"/><path d="M340.39021,139.40569l16.08367,8.16436l-14.00993,11.05744z" data-paper-data="{&quot;index&quot;:null}" stroke-width="NaN"/><path d="M331.73484,56.90412l16.08367,8.16436l-14.00993,11.05744z" data-paper-data="{&quot;index&quot;:null}" stroke-width="NaN"/><path d="M338.53778,119.13619l16.08367,8.16436l-14.00993,11.05744z" data-paper-data="{&quot;index&quot;:null}" stroke-width="NaN"/><path d="M334.73141,87.77875l16.08367,8.16436l-14.00993,11.05744z" data-paper-data="{&quot;index&quot;:null}" stroke-width="NaN"/><path d="M341.53434,150.01082l16.08367,8.16436l-14.00993,11.05744z" data-paper-data="{&quot;index&quot;:null}" stroke-width="NaN"/><path d="M332.80747,66.84642l16.08367,8.16436l-14.00993,11.05744z" data-paper-data="{&quot;index&quot;:null}" stroke-width="NaN"/><path d="M339.6104,129.0785l16.08367,8.16436l-14.00993,11.05744z" data-paper-data="{&quot;index&quot;:null}" stroke-width="NaN"/><path d="M335.80403,97.72105l16.08367,8.16436l-14.00993,11.05744z" data-paper-data="{&quot;index&quot;:null}" stroke-width="NaN"/><path d="M342.60697,159.95313l16.08367,8.16436l-14.00993,11.05744z" data-paper-data="{&quot;index&quot;:null}" stroke-width="NaN"/></g></g></svg>