<svg version="1.1" xmlns="http://www.w3.org/2000/svg" xmlns:xlink="http://www.w3.org/1999/xlink" width="569.60346" height="411.84637" viewBox="0,0,569.60346,411.84637"><g transform="translate(1.40935,53.11373)"><g data-paper-data="{&quot;isPaintingLayer&quot;:true}" fill-rule="nonzero" stroke-linejoin="miter" stroke-miterlimit="10" stroke-dasharray="" stroke-dashoffset="0" style="mix-blend-mode: normal"><g data-paper-data="{&quot;index&quot;:null}"><path d="M138.69282,304.68544l-26.13838,-44.95314c0,0 27.8654,-16.20257 41.82393,-24.31887c13.99304,-8.13636 42.03098,-24.43925 42.03098,-24.43925l26.13838,44.95315z" fill="#5f2e00" stroke="none" stroke-width="0" stroke-linecap="butt"/><path d="M120.8716,272.13231l-7.37236,-12.67909l82.4141,-47.92035l7.37236,12.67908l-0.83051,10.50816l-10.8476,1.68039l-6.98279,6.11665l-4.2798,6.34439l-10.09265,-0.55798l-5.47722,4.72713l0.13867,3.77524l-9.91835,0.62594l-3.58745,3.11419l-4.08769,6.23269l-9.29291,-0.50889l-6.51817,5.58945l-1.25518,5.35687z" fill="#1c820e" stroke="#1c820e" stroke-width="2" stroke-linecap="round"/></g><g data-paper-data="{&quot;index&quot;:null}"><path d="M277.64757,215.44502l-0.08967,-51.99992c0,0 32.23353,-0.05558 48.38018,-0.08342c16.18656,-0.0279 48.61968,-0.08383 48.61968,-0.08383l0.08966,51.99993z" fill="#5f2e00" stroke="none" stroke-width="0" stroke-linecap="butt"/><path d="M278.54063,178.34373l-0.02529,-14.66664l95.33318,-0.16438l0.02529,14.66664l-5.98505,8.677l-10.22912,-3.98236l-9.10803,1.79347l-6.88313,3.34521l-8.45402,-5.54098l-7.1088,1.3456l-1.77204,3.3364l-8.89654,-4.42912l-4.66513,0.89694l-6.66091,3.34483l-7.78657,-5.09769l-8.44176,1.57012l-3.77087,4.0065z" fill="#1c820e" stroke="#1c820e" stroke-width="2" stroke-linecap="round"/></g><g data-paper-data="{&quot;index&quot;:null}"><path d="M55.3742,353.06487l-26.13837,-44.95315c0,0 27.8654,-16.20257 41.82393,-24.31887c13.99303,-8.13636 42.03098,-24.43926 42.03098,-24.43926l26.13837,44.95315z" fill="#5f2e00" stroke="none" stroke-width="0" stroke-linecap="butt"/><path d="M37.55297,320.51172l-7.37236,-12.67908l82.41409,-47.92036l7.37236,12.67908l-0.83051,10.50816l-10.84759,1.68038l-6.98279,6.11665l-4.27978,6.3444l-10.09265,-0.55798l-5.47722,4.72713l0.13868,3.77523l-9.91836,0.62595l-3.58746,3.11418l-4.08769,6.23269l-9.29291,-0.50889l-6.51817,5.58944l-1.25518,5.35687z" fill="#1c820e" stroke="#1c820e" stroke-width="2" stroke-linecap="round"/></g><g data-paper-data="{&quot;index&quot;:null}"><g><path d="M384.09231,358.65268v-52c0,0 32.23359,0 48.38025,0c16.18658,0 48.61976,0 48.61976,0v52z" fill="#5f2e00" stroke="none" stroke-width="0" stroke-linecap="butt"/><path d="M385.04934,321.55293v-14.66666h95.33333v14.66666l-6,8.66667l-10.22223,-4l-9.11111,1.77777l-6.88889,3.33334l-8.44445,-5.55555l-7.11111,1.33333l-1.77778,3.33333l-8.88889,-4.44445l-4.66667,0.88889l-6.66667,3.33333l-7.77778,-5.11111l-8.44444,1.55556l-3.77778,4z" fill="#1c820e" stroke="#1c820e" stroke-width="2" stroke-linecap="round"/></g><g><path d="M287.61879,358.6858v-52c0,0 32.23359,0 48.38025,0c16.18658,0 48.61976,0 48.61976,0v52z" fill="#5f2e00" stroke="none" stroke-width="0" stroke-linecap="butt"/><path d="M288.57583,321.58607v-14.66666h95.33333v14.66666l-6,8.66667l-10.22223,-4l-9.11111,1.77777l-6.88889,3.33334l-8.44445,-5.55555l-7.11111,1.33333l-1.77778,3.33333l-8.88889,-4.44445l-4.66667,0.88889l-6.66667,3.33333l-7.77778,-5.11111l-8.44444,1.55556l-3.77778,4z" fill="#1c820e" stroke="#1c820e" stroke-width="2" stroke-linecap="round"/></g></g><g data-paper-data="{&quot;index&quot;:null}"><g><path d="M190.92119,358.69655v-52c0,0 32.23359,0 48.38025,0c16.18658,0 48.61976,0 48.61976,0v52z" fill="#5f2e00" stroke="none" stroke-width="0" stroke-linecap="butt"/><path d="M191.87824,321.59681v-14.66666h95.33333v14.66666l-6,8.66667l-10.22223,-4l-9.11111,1.77777l-6.88889,3.33334l-8.44445,-5.55555l-7.11111,1.33333l-1.77778,3.33333l-8.88889,-4.44445l-4.66667,0.88889l-6.66667,3.33333l-7.77778,-5.11111l-8.44444,1.55556l-3.77778,4z" fill="#1c820e" stroke="#1c820e" stroke-width="2" stroke-linecap="round"/></g><g><path d="M94.44768,358.72966v-52c0,0 32.23359,0 48.38025,0c16.18658,0 48.61976,0 48.61976,0v52z" fill="#5f2e00" stroke="none" stroke-width="0" stroke-linecap="butt"/><path d="M95.40472,321.62993v-14.66666h95.33333v14.66666l-6,8.66667l-10.22223,-4l-9.11111,1.77777l-6.88889,3.33334l-8.44445,-5.55555l-7.11111,1.33333l-1.77778,3.33333l-8.88889,-4.44445l-4.66667,0.88889l-6.66667,3.33333l-7.77778,-5.11111l-8.44444,1.55556l-3.77778,4z" fill="#1c820e" stroke="#1c820e" stroke-width="2" stroke-linecap="round"/></g></g><g data-paper-data="{&quot;index&quot;:null}"><path d="M-1.36639,358.73264v-52c0,0 32.23359,0 48.38025,0c16.18658,0 48.61976,0 48.61976,0v52z" fill="#5f2e00" stroke="none" stroke-width="0" stroke-linecap="butt"/><path d="M-0.40935,321.63293v-14.66666h95.33333v14.66666l-6,8.66667l-10.22223,-4l-9.11111,1.77777l-6.88889,3.33334l-8.44445,-5.55555l-7.11111,1.33333l-1.77778,3.33333l-8.88889,-4.44445l-4.66667,0.88889l-6.66667,3.33333l-7.77778,-5.11111l-8.44444,1.55556l-3.77778,4z" fill="#1c820e" stroke="#1c820e" stroke-width="2" stroke-linecap="round"/></g><g data-paper-data="{&quot;index&quot;:null}"><path d="M220.68392,257.07117l-26.13838,-44.95314c0,0 27.8654,-16.20257 41.82393,-24.31887c13.99304,-8.13636 42.03098,-24.43925 42.03098,-24.43925l26.13838,44.95315z" fill="#5f2e00" stroke="none" stroke-width="0" stroke-linecap="butt"/><path d="M202.86268,224.51803l-7.37236,-12.67909l82.41409,-47.92035l7.37236,12.67909l-0.83051,10.50816l-10.8476,1.68039l-6.98279,6.11665l-4.27979,6.34439l-10.09265,-0.55798l-5.47722,4.72713l0.13867,3.77524l-9.91835,0.62594l-3.58745,3.11419l-4.08769,6.23269l-9.29291,-0.50889l-6.51817,5.58945l-1.25518,5.35687z" fill="#1c820e" stroke="#1c820e" stroke-width="2" stroke-linecap="round"/></g><g data-paper-data="{&quot;index&quot;:null}"><g><path d="M386.09231,-0.34732v-52c0,0 32.23359,0 48.38025,0c16.18658,0 48.61976,0 48.61976,0v52z" fill="#5f2e00" stroke="none" stroke-width="0" stroke-linecap="butt"/><path d="M387.04934,-37.44707v-14.66666h95.33333v14.66666l-6,8.66667l-10.22223,-4l-9.11111,1.77777l-6.88889,3.33334l-8.44445,-5.55555l-7.11111,1.33333l-1.77778,3.33333l-8.88889,-4.44445l-4.66667,0.88889l-6.66667,3.33333l-7.77778,-5.11111l-8.44444,1.55556l-3.77778,4z" fill="#1c820e" stroke="#1c820e" stroke-width="2" stroke-linecap="round"/></g><g><path d="M289.61879,-0.3142v-52c0,0 32.23359,0 48.38025,0c16.18658,0 48.61976,0 48.61976,0v52z" fill="#5f2e00" stroke="none" stroke-width="0" stroke-linecap="butt"/><path d="M290.57583,-37.41393v-14.66666h95.33333v14.66666l-6,8.66667l-10.22223,-4l-9.11111,1.77777l-6.88889,3.33334l-8.44445,-5.55555l-7.11111,1.33333l-1.77778,3.33333l-8.88889,-4.44445l-4.66667,0.88889l-6.66667,3.33333l-7.77778,-5.11111l-8.44444,1.55556l-3.77778,4z" fill="#1c820e" stroke="#1c820e" stroke-width="2" stroke-linecap="round"/></g></g><g data-paper-data="{&quot;index&quot;:null}"><g><path d="M192.92119,-0.30345v-52c0,0 32.23359,0 48.38025,0c16.18658,0 48.61976,0 48.61976,0v52z" fill="#5f2e00" stroke="none" stroke-width="0" stroke-linecap="butt"/><path d="M193.87824,-37.40319v-14.66666h95.33333v14.66666l-6,8.66667l-10.22223,-4l-9.11111,1.77777l-6.88889,3.33334l-8.44445,-5.55555l-7.11111,1.33333l-1.77778,3.33333l-8.88889,-4.44445l-4.66667,0.88889l-6.66667,3.33333l-7.77778,-5.11111l-8.44444,1.55556l-3.77778,4z" fill="#1c820e" stroke="#1c820e" stroke-width="2" stroke-linecap="round"/></g><g><path d="M96.44768,-0.27034v-52c0,0 32.23359,0 48.38025,0c16.18658,0 48.61976,0 48.61976,0v52z" fill="#5f2e00" stroke="none" stroke-width="0" stroke-linecap="butt"/><path d="M97.40472,-37.37007v-14.66666h95.33333v14.66666l-6,8.66667l-10.22223,-4l-9.11111,1.77777l-6.88889,3.33334l-8.44445,-5.55555l-7.11111,1.33333l-1.77778,3.33333l-8.88889,-4.44445l-4.66667,0.88889l-6.66667,3.33333l-7.77778,-5.11111l-8.44444,1.55556l-3.77778,4z" fill="#1c820e" stroke="#1c820e" stroke-width="2" stroke-linecap="round"/></g></g><g data-paper-data="{&quot;index&quot;:null}"><path d="M0.63361,-0.26736v-52c0,0 32.23359,0 48.38025,0c16.18658,0 48.61976,0 48.61976,0v52z" fill="#5f2e00" stroke="none" stroke-width="0" stroke-linecap="butt"/><path d="M1.59065,-37.36707v-14.66666h95.33333v14.66666l-6,8.66667l-10.22223,-4l-9.11111,1.77777l-6.88889,3.33334l-8.44445,-5.55555l-7.11111,1.33333l-1.77778,3.33333l-8.88889,-4.44445l-4.66667,0.88889l-6.66667,3.33333l-7.77778,-5.11111l-8.44444,1.55556l-3.77778,4z" fill="#1c820e" stroke="#1c820e" stroke-width="2" stroke-linecap="round"/></g><g data-paper-data="{&quot;index&quot;:null}"><path d="M374.20061,214.9865l-0.08966,-51.99992c0,0 32.23353,-0.05558 48.38018,-0.08342c16.18656,-0.02791 48.61968,-0.08383 48.61968,-0.08383l0.08967,51.99993z" fill="#5f2e00" stroke="none" stroke-width="0" stroke-linecap="butt"/><path d="M375.09366,177.88521l-0.02528,-14.66664l95.33318,-0.16438l0.02528,14.66664l-5.98505,8.677l-10.22912,-3.98237l-9.10803,1.79348l-6.88313,3.34521l-8.45402,-5.54098l-7.1088,1.34561l-1.77204,3.33639l-8.89654,-4.42912l-4.66513,0.89694l-6.66091,3.34482l-7.78657,-5.09769l-8.44175,1.57011l-3.77087,4.00651z" fill="#1c820e" stroke="#1c820e" stroke-width="2" stroke-linecap="round"/></g><g data-paper-data="{&quot;index&quot;:null}"><path d="M470.96733,214.84071l-0.08966,-51.99992c0,0 32.23353,-0.05558 48.38018,-0.08342c16.18656,-0.02791 48.61968,-0.08383 48.61968,-0.08383l0.08967,51.99993z" fill="#5f2e00" stroke="none" stroke-width="0" stroke-linecap="butt"/><path d="M471.86039,177.73942l-0.02528,-14.66664l95.33318,-0.16438l0.02529,14.66664l-5.98505,8.677l-10.22912,-3.98236l-9.10803,1.79348l-6.88313,3.34521l-8.45402,-5.54098l-7.10881,1.34561l-1.77203,3.33639l-8.89654,-4.42912l-4.66513,0.89694l-6.66092,3.34482l-7.78657,-5.09769l-8.44175,1.57012l-3.77087,4.00651z" fill="#1c820e" stroke="#1c820e" stroke-width="2" stroke-linecap="round"/></g></g></g></svg>