<svg version="1.1" xmlns="http://www.w3.org/2000/svg" xmlns:xlink="http://www.w3.org/1999/xlink" width="498.62358" height="373.65428" viewBox="0,0,498.62358,373.65428"><g transform="translate(0.50894,14.92163)"><g data-paper-data="{&quot;isPaintingLayer&quot;:true}" fill-rule="nonzero" stroke-linejoin="miter" stroke-miterlimit="10" stroke-dasharray="" stroke-dashoffset="0" style="mix-blend-mode: normal"><g data-paper-data="{&quot;index&quot;:null}"><path d="M293.04886,152.01843v-52c0,0 32.43318,0 48.61976,0c16.14666,0 48.38025,0 48.38025,0v52z" fill="#5f2e00" stroke="none" stroke-width="0" stroke-linecap="butt"/><path d="M383.53629,124.02982l-3.77778,-4l-8.44444,-1.55556l-7.77778,5.11111l-6.66667,-3.33333l-4.66667,-0.88889l-8.88889,4.44445l-1.77778,-3.33333l-7.11111,-1.33333l-8.44445,5.55555l-6.88889,-3.33334l-9.11111,-1.77777l-10.22223,4l-6,-8.66667v-14.66666h95.33333v14.66666z" fill="#1c820e" stroke="#1c820e" stroke-width="2" stroke-linecap="round"/></g><g data-paper-data="{&quot;index&quot;:null}"><g><path d="M261.36438,313.873v-52c0,0 32.43318,0 48.61976,0c16.14666,0 48.38025,0 48.38025,0v52z" fill="#5f2e00" stroke="none" stroke-width="0" stroke-linecap="butt"/><path d="M351.85181,285.88437l-3.77778,-4l-8.44444,-1.55556l-7.77778,5.11111l-6.66667,-3.33333l-4.66667,-0.88889l-8.88889,4.44445l-1.77778,-3.33333l-7.11111,-1.33333l-8.44445,5.55555l-6.88889,-3.33334l-9.11111,-1.77777l-10.22223,4l-6,-8.66667v-14.66666h95.33333v14.66666z" fill="#1c820e" stroke="#1c820e" stroke-width="2" stroke-linecap="round"/></g><g><path d="M357.83789,313.90612v-52c0,0 32.43318,0 48.61976,0c16.14666,0 48.38025,0 48.38025,0v52z" fill="#5f2e00" stroke="none" stroke-width="0" stroke-linecap="butt"/><path d="M448.32533,285.9175l-3.77778,-4l-8.44444,-1.55556l-7.77778,5.11111l-6.66667,-3.33333l-4.66667,-0.88889l-8.88889,4.44445l-1.77778,-3.33333l-7.11111,-1.33333l-8.44445,5.55555l-6.88889,-3.33334l-9.11111,-1.77777l-10.22223,4l-6,-8.66667v-14.66666h95.33333v14.66666z" fill="#1c820e" stroke="#1c820e" stroke-width="2" stroke-linecap="round"/></g></g><path d="M-0.50894,357.02344v-371h16v371z" data-paper-data="{&quot;index&quot;:null}" fill="#5f2e00" stroke="none" stroke-width="0" stroke-linecap="butt"/><g data-paper-data="{&quot;index&quot;:null}"><g><path d="M390.09231,358.65269v-52c0,0 32.23359,0 48.38025,0c16.18658,0 48.61976,0 48.61976,0v52z" fill="#5f2e00" stroke="none" stroke-width="0" stroke-linecap="butt"/><path d="M391.04934,321.55294v-14.66666h95.33333v14.66666l-6,8.66667l-10.22223,-4l-9.11111,1.77777l-6.88889,3.33334l-8.44445,-5.55555l-7.11111,1.33333l-1.77778,3.33333l-8.88889,-4.44445l-4.66667,0.88889l-6.66667,3.33333l-7.77778,-5.11111l-8.44444,1.55556l-3.77778,4z" fill="#1c820e" stroke="#1c820e" stroke-width="2" stroke-linecap="round"/></g><g><path d="M293.61879,358.6858v-52c0,0 32.23359,0 48.38025,0c16.18658,0 48.61976,0 48.61976,0v52z" fill="#5f2e00" stroke="none" stroke-width="0" stroke-linecap="butt"/><path d="M294.57583,321.58608v-14.66666h95.33333v14.66666l-6,8.66667l-10.22223,-4l-9.11111,1.77777l-6.88889,3.33334l-8.44445,-5.55555l-7.11111,1.33333l-1.77778,3.33333l-8.88889,-4.44445l-4.66667,0.88889l-6.66667,3.33333l-7.77778,-5.11111l-8.44444,1.55556l-3.77778,4z" fill="#1c820e" stroke="#1c820e" stroke-width="2" stroke-linecap="round"/></g></g><g data-paper-data="{&quot;index&quot;:null}"><g><path d="M196.92119,358.69656v-52c0,0 32.23359,0 48.38025,0c16.18658,0 48.61976,0 48.61976,0v52z" fill="#5f2e00" stroke="none" stroke-width="0" stroke-linecap="butt"/><path d="M197.87824,321.59682v-14.66666h95.33333v14.66666l-6,8.66667l-10.22223,-4l-9.11111,1.77777l-6.88889,3.33334l-8.44445,-5.55555l-7.11111,1.33333l-1.77778,3.33333l-8.88889,-4.44445l-4.66667,0.88889l-6.66667,3.33333l-7.77778,-5.11111l-8.44444,1.55556l-3.77778,4z" fill="#1c820e" stroke="#1c820e" stroke-width="2" stroke-linecap="round"/></g><g><path d="M100.44768,358.72967v-52c0,0 32.23359,0 48.38025,0c16.18658,0 48.61976,0 48.61976,0v52z" fill="#5f2e00" stroke="none" stroke-width="0" stroke-linecap="butt"/><path d="M101.40472,321.62994v-14.66666h95.33333v14.66666l-6,8.66667l-10.22223,-4l-9.11111,1.77777l-6.88889,3.33334l-8.44445,-5.55555l-7.11111,1.33333l-1.77778,3.33333l-8.88889,-4.44445l-4.66667,0.88889l-6.66667,3.33333l-7.77778,-5.11111l-8.44444,1.55556l-3.77778,4z" fill="#1c820e" stroke="#1c820e" stroke-width="2" stroke-linecap="round"/></g></g><g data-paper-data="{&quot;index&quot;:null}"><path d="M4.63361,358.73265v-52c0,0 32.23359,0 48.38025,0c16.18658,0 48.61976,0 48.61976,0v52z" fill="#5f2e00" stroke="none" stroke-width="0" stroke-linecap="butt"/><path d="M5.59065,321.63293v-14.66666h95.33333v14.66666l-6,8.66667l-10.22223,-4l-9.11111,1.77777l-6.88889,3.33334l-8.44445,-5.55555l-7.11111,1.33333l-1.77778,3.33333l-8.88889,-4.44445l-4.66667,0.88889l-6.66667,3.33333l-7.77778,-5.11111l-8.44444,1.55556l-3.77778,4z" fill="#1c820e" stroke="#1c820e" stroke-width="2" stroke-linecap="round"/></g><path d="M360.33805,151.56704v-152h44v152z" fill="#5f2e00" stroke="none" stroke-width="NaN" stroke-linecap="butt"/><path d="M145.48336,236.69145v-237.6h44v237.6z" fill="#5f2e00" stroke="none" stroke-width="NaN" stroke-linecap="butt"/><path d="M14.28336,306.29145v-217.6h57.7226v217.6z" fill="#5f2e00" stroke="none" stroke-width="0" stroke-linecap="butt"/><path d="M0.35084,0.07837v-15h280.85714v15z" fill="#5f2e00" stroke="none" stroke-width="0" stroke-linecap="butt"/><path d="M360.11464,0.22122v-15h138v15z" fill="#5f2e00" stroke="none" stroke-width="0" stroke-linecap="butt"/></g></g></svg>