<svg version="1.1" xmlns="http://www.w3.org/2000/svg" xmlns:xlink="http://www.w3.org/1999/xlink" width="152.86588" height="260.72087" viewBox="0,0,152.86588,260.72087"><defs><linearGradient x1="236.1045" y1="123.19194" x2="236.1045" y2="142.33531" gradientUnits="userSpaceOnUse" id="color-1"><stop offset="0" stop-color="#1b1b1b"/><stop offset="1" stop-color="#b1b1b1"/></linearGradient><linearGradient x1="227.43783" y1="185.19194" x2="227.43783" y2="204.33531" gradientUnits="userSpaceOnUse" id="color-2"><stop offset="0" stop-color="#1b1b1b"/><stop offset="1" stop-color="#b1b1b1"/></linearGradient><linearGradient x1="231.43783" y1="153.8586" x2="231.43783" y2="173.00197" gradientUnits="userSpaceOnUse" id="color-3"><stop offset="0" stop-color="#1b1b1b"/><stop offset="1" stop-color="#b1b1b1"/></linearGradient><linearGradient x1="222.77117" y1="215.8586" x2="222.77117" y2="235.00197" gradientUnits="userSpaceOnUse" id="color-4"><stop offset="0" stop-color="#1b1b1b"/><stop offset="1" stop-color="#b1b1b1"/></linearGradient><linearGradient x1="234.61288" y1="133.7538" x2="234.61288" y2="152.89717" gradientUnits="userSpaceOnUse" id="color-5"><stop offset="0" stop-color="#1b1b1b"/><stop offset="1" stop-color="#b1b1b1"/></linearGradient><linearGradient x1="225.94621" y1="195.7538" x2="225.94621" y2="214.89717" gradientUnits="userSpaceOnUse" id="color-6"><stop offset="0" stop-color="#1b1b1b"/><stop offset="1" stop-color="#b1b1b1"/></linearGradient><linearGradient x1="229.94621" y1="164.42047" x2="229.94621" y2="183.56384" gradientUnits="userSpaceOnUse" id="color-7"><stop offset="0" stop-color="#1b1b1b"/><stop offset="1" stop-color="#b1b1b1"/></linearGradient><linearGradient x1="221.27955" y1="226.42047" x2="221.27955" y2="245.56384" gradientUnits="userSpaceOnUse" id="color-8"><stop offset="0" stop-color="#1b1b1b"/><stop offset="1" stop-color="#b1b1b1"/></linearGradient><linearGradient x1="233.21449" y1="143.65554" x2="233.21449" y2="162.79891" gradientUnits="userSpaceOnUse" id="color-9"><stop offset="0" stop-color="#1b1b1b"/><stop offset="1" stop-color="#b1b1b1"/></linearGradient><linearGradient x1="224.54782" y1="205.65554" x2="224.54782" y2="224.79891" gradientUnits="userSpaceOnUse" id="color-10"><stop offset="0" stop-color="#1b1b1b"/><stop offset="1" stop-color="#b1b1b1"/></linearGradient><linearGradient x1="228.54782" y1="174.32221" x2="228.54782" y2="193.46558" gradientUnits="userSpaceOnUse" id="color-11"><stop offset="0" stop-color="#1b1b1b"/><stop offset="1" stop-color="#b1b1b1"/></linearGradient><linearGradient x1="219.88115" y1="236.32221" x2="219.88115" y2="255.46558" gradientUnits="userSpaceOnUse" id="color-12"><stop offset="0" stop-color="#1b1b1b"/><stop offset="1" stop-color="#b1b1b1"/></linearGradient><linearGradient x1="215.49143" y1="291.9047" x2="215.49143" y2="307.01985" gradientUnits="userSpaceOnUse" id="color-13"><stop offset="0" stop-color="#1b1b1b"/><stop offset="1" stop-color="#b1b1b1"/></linearGradient><linearGradient x1="246.82476" y1="291.9047" x2="246.82476" y2="307.01985" gradientUnits="userSpaceOnUse" id="color-14"><stop offset="0" stop-color="#1b1b1b"/><stop offset="1" stop-color="#b1b1b1"/></linearGradient><linearGradient x1="276.15809" y1="291.9047" x2="276.15809" y2="307.01985" gradientUnits="userSpaceOnUse" id="color-15"><stop offset="0" stop-color="#1b1b1b"/><stop offset="1" stop-color="#b1b1b1"/></linearGradient><linearGradient x1="226.1581" y1="291.9047" x2="226.1581" y2="307.01985" gradientUnits="userSpaceOnUse" id="color-16"><stop offset="0" stop-color="#1b1b1b"/><stop offset="1" stop-color="#b1b1b1"/></linearGradient><linearGradient x1="257.49143" y1="291.9047" x2="257.49143" y2="307.01985" gradientUnits="userSpaceOnUse" id="color-17"><stop offset="0" stop-color="#1b1b1b"/><stop offset="1" stop-color="#b1b1b1"/></linearGradient><linearGradient x1="286.82476" y1="291.9047" x2="286.82476" y2="307.01985" gradientUnits="userSpaceOnUse" id="color-18"><stop offset="0" stop-color="#1b1b1b"/><stop offset="1" stop-color="#b1b1b1"/></linearGradient><linearGradient x1="236.1581" y1="291.9047" x2="236.1581" y2="307.01985" gradientUnits="userSpaceOnUse" id="color-19"><stop offset="0" stop-color="#1b1b1b"/><stop offset="1" stop-color="#b1b1b1"/></linearGradient><linearGradient x1="267.49143" y1="291.9047" x2="267.49143" y2="307.01985" gradientUnits="userSpaceOnUse" id="color-20"><stop offset="0" stop-color="#1b1b1b"/><stop offset="1" stop-color="#b1b1b1"/></linearGradient><linearGradient x1="296.82476" y1="291.9047" x2="296.82476" y2="307.01985" gradientUnits="userSpaceOnUse" id="color-21"><stop offset="0" stop-color="#1b1b1b"/><stop offset="1" stop-color="#b1b1b1"/></linearGradient><linearGradient x1="338.63254" y1="46.29898" x2="338.63254" y2="65.52078" gradientUnits="userSpaceOnUse" id="color-22"><stop offset="0" stop-color="#1b1b1b"/><stop offset="1" stop-color="#b1b1b1"/></linearGradient><linearGradient x1="345.43547" y1="108.53106" x2="345.43547" y2="127.75286" gradientUnits="userSpaceOnUse" id="color-23"><stop offset="0" stop-color="#1b1b1b"/><stop offset="1" stop-color="#b1b1b1"/></linearGradient><linearGradient x1="341.6291" y1="77.17362" x2="341.6291" y2="96.39542" gradientUnits="userSpaceOnUse" id="color-24"><stop offset="0" stop-color="#1b1b1b"/><stop offset="1" stop-color="#b1b1b1"/></linearGradient><linearGradient x1="348.43204" y1="139.40569" x2="348.43204" y2="158.62749" gradientUnits="userSpaceOnUse" id="color-25"><stop offset="0" stop-color="#1b1b1b"/><stop offset="1" stop-color="#b1b1b1"/></linearGradient><linearGradient x1="339.77667" y1="56.90412" x2="339.77667" y2="76.12592" gradientUnits="userSpaceOnUse" id="color-26"><stop offset="0" stop-color="#1b1b1b"/><stop offset="1" stop-color="#b1b1b1"/></linearGradient><linearGradient x1="346.57961" y1="119.13619" x2="346.57961" y2="138.35799" gradientUnits="userSpaceOnUse" id="color-27"><stop offset="0" stop-color="#1b1b1b"/><stop offset="1" stop-color="#b1b1b1"/></linearGradient><linearGradient x1="342.77324" y1="87.77875" x2="342.77324" y2="107.00055" gradientUnits="userSpaceOnUse" id="color-28"><stop offset="0" stop-color="#1b1b1b"/><stop offset="1" stop-color="#b1b1b1"/></linearGradient><linearGradient x1="349.57617" y1="150.01082" x2="349.57617" y2="169.23262" gradientUnits="userSpaceOnUse" id="color-29"><stop offset="0" stop-color="#1b1b1b"/><stop offset="1" stop-color="#b1b1b1"/></linearGradient><linearGradient x1="340.8493" y1="66.84642" x2="340.8493" y2="86.06822" gradientUnits="userSpaceOnUse" id="color-30"><stop offset="0" stop-color="#1b1b1b"/><stop offset="1" stop-color="#b1b1b1"/></linearGradient><linearGradient x1="347.65223" y1="129.0785" x2="347.65223" y2="148.3003" gradientUnits="userSpaceOnUse" id="color-31"><stop offset="0" stop-color="#1b1b1b"/><stop offset="1" stop-color="#b1b1b1"/></linearGradient><linearGradient x1="343.84586" y1="97.72105" x2="343.84586" y2="116.94285" gradientUnits="userSpaceOnUse" id="color-32"><stop offset="0" stop-color="#1b1b1b"/><stop offset="1" stop-color="#b1b1b1"/></linearGradient><linearGradient x1="350.6488" y1="159.95313" x2="350.6488" y2="179.17493" gradientUnits="userSpaceOnUse" id="color-33"><stop offset="0" stop-color="#1b1b1b"/><stop offset="1" stop-color="#b1b1b1"/></linearGradient></defs><g transform="translate(-205.82476,-46.29898)"><g data-paper-data="{&quot;isPaintingLayer&quot;:true}" fill-rule="nonzero" stroke="none" stroke-linecap="butt" stroke-linejoin="miter" stroke-miterlimit="10" stroke-dasharray="" stroke-dashoffset="0" style="mix-blend-mode: normal"><path d="M230.66115,123.19194l13.59027,11.85941l-16.29383,7.28396z" fill="url(#color-1)" stroke-width="NaN"/><path d="M221.99448,185.19194l13.59027,11.85941l-16.29383,7.28396z" fill="url(#color-2)" stroke-width="NaN"/><path d="M225.99448,153.8586l13.59027,11.85941l-16.29383,7.28396z" fill="url(#color-3)" stroke-width="NaN"/><path d="M217.32782,215.8586l13.59027,11.85941l-16.29383,7.28396z" fill="url(#color-4)" stroke-width="NaN"/><path d="M229.16953,133.7538l13.59027,11.85941l-16.29383,7.28396z" fill="url(#color-5)" stroke-width="NaN"/><path d="M220.50286,195.7538l13.59027,11.85941l-16.29383,7.28396z" fill="url(#color-6)" stroke-width="NaN"/><path d="M224.50286,164.42047l13.59027,11.85941l-16.29383,7.28396z" fill="url(#color-7)" stroke-width="NaN"/><path d="M215.8362,226.42047l13.59027,11.85941l-16.29383,7.28396z" fill="url(#color-8)" stroke-width="NaN"/><path d="M227.77114,143.65554l13.59027,11.85941l-16.29383,7.28396z" fill="url(#color-9)" stroke-width="NaN"/><path d="M219.10447,205.65554l13.59027,11.85941l-16.29383,7.28396z" fill="url(#color-10)" stroke-width="NaN"/><path d="M223.10447,174.32221l13.59027,11.85941l-16.29383,7.28396z" fill="url(#color-11)" stroke-width="NaN"/><path d="M214.4378,236.32221l13.59027,11.85941l-16.29383,7.28396z" fill="url(#color-12)" stroke-width="NaN"/><path d="M205.82476,307.01985l9.84243,-15.11515l9.49091,15.11515z" fill="url(#color-13)" stroke-width="NaN"/><path d="M237.15809,307.01985l9.84243,-15.11515l9.49091,15.11515z" fill="url(#color-14)" stroke-width="NaN"/><path d="M266.49142,307.01985l9.84243,-15.11515l9.49091,15.11515z" fill="url(#color-15)" stroke-width="NaN"/><path d="M216.49143,307.01985l9.84243,-15.11515l9.49091,15.11515z" fill="url(#color-16)" stroke-width="NaN"/><path d="M247.82476,307.01985l9.84243,-15.11515l9.49091,15.11515z" fill="url(#color-17)" stroke-width="NaN"/><path d="M277.15809,307.01985l9.84243,-15.11515l9.49091,15.11515z" fill="url(#color-18)" stroke-width="NaN"/><path d="M226.49143,307.01985l9.84243,-15.11515l9.49091,15.11515z" fill="url(#color-19)" stroke-width="NaN"/><path d="M257.82476,307.01985l9.84243,-15.11515l9.49091,15.11515z" fill="url(#color-20)" stroke-width="NaN"/><path d="M287.15809,307.01985l9.84243,-15.11515l9.49091,15.11515z" fill="url(#color-21)" stroke-width="NaN"/><path d="M330.59071,46.29898l16.08367,8.16436l-14.00993,11.05744z" data-paper-data="{&quot;index&quot;:null}" fill="url(#color-22)" stroke-width="NaN"/><path d="M337.39364,108.53106l16.08367,8.16436l-14.00993,11.05744z" data-paper-data="{&quot;index&quot;:null}" fill="url(#color-23)" stroke-width="NaN"/><path d="M333.58727,77.17362l16.08367,8.16436l-14.00993,11.05744z" data-paper-data="{&quot;index&quot;:null}" fill="url(#color-24)" stroke-width="NaN"/><path d="M340.39021,139.40569l16.08367,8.16436l-14.00993,11.05744z" data-paper-data="{&quot;index&quot;:null}" fill="url(#color-25)" stroke-width="NaN"/><path d="M331.73484,56.90412l16.08367,8.16436l-14.00993,11.05744z" data-paper-data="{&quot;index&quot;:null}" fill="url(#color-26)" stroke-width="NaN"/><path d="M338.53778,119.13619l16.08367,8.16436l-14.00993,11.05744z" data-paper-data="{&quot;index&quot;:null}" fill="url(#color-27)" stroke-width="NaN"/><path d="M334.73141,87.77875l16.08367,8.16436l-14.00993,11.05744z" data-paper-data="{&quot;index&quot;:null}" fill="url(#color-28)" stroke-width="NaN"/><path d="M341.53434,150.01082l16.08367,8.16436l-14.00993,11.05744z" data-paper-data="{&quot;index&quot;:null}" fill="url(#color-29)" stroke-width="NaN"/><path d="M332.80747,66.84642l16.08367,8.16436l-14.00993,11.05744z" data-paper-data="{&quot;index&quot;:null}" fill="url(#color-30)" stroke-width="NaN"/><path d="M339.6104,129.0785l16.08367,8.16436l-14.00993,11.05744z" data-paper-data="{&quot;index&quot;:null}" fill="url(#color-31)" stroke-width="NaN"/><path d="M335.80403,97.72105l16.08367,8.16436l-14.00993,11.05744z" data-paper-data="{&quot;index&quot;:null}" fill="url(#color-32)" stroke-width="NaN"/><path d="M342.60697,159.95313l16.08367,8.16436l-14.00993,11.05744z" data-paper-data="{&quot;index&quot;:null}" fill="url(#color-33)" stroke-width="NaN"/></g></g></svg>