<svg version="1.1" xmlns="http://www.w3.org/2000/svg" xmlns:xlink="http://www.w3.org/1999/xlink" width="60.30732" height="28.00729" viewBox="0,0,60.30732,28.00729"><g transform="translate(-209.84634,-165.99636)"><g data-paper-data="{&quot;isPaintingLayer&quot;:true}" fill-rule="nonzero" stroke-linecap="butt" stroke-linejoin="miter" stroke-miterlimit="10" stroke-dasharray="" stroke-dashoffset="0" style="mix-blend-mode: normal"><path d="M265.30508,167.67528h4.84858v1.57054h-2.5264v2.11661h2.5264v1.77619h-2.5264v2.11593h2.5264v3.0724h-4.84858v-10.65167" fill="#9eb300" stroke="none" stroke-width="0.85738"/><path d="M224.65795,182.84744c1.63672,0 2.96349,-1.32677 2.96349,-2.96349c0,-1.63543 -1.32677,-2.9622 -2.96349,-2.9622c-1.63672,0 -2.96349,1.32677 -2.96349,2.9622c0,1.63672 1.32677,2.96349 2.96349,2.96349zM215.37132,182.84744c1.63672,0 2.96349,-1.32677 2.96349,-2.96349c0,-1.63543 -1.32677,-2.9622 -2.96349,-2.9622c-1.63679,0 -2.96349,1.32677 -2.96349,2.9622c0,1.63672 1.32669,2.96349 2.96349,2.96349zM229.49095,186.60659c0,-0.76973 -0.17373,-1.498 -0.48375,-2.1477c-1.1361,1.10622 -2.68916,1.78912 -4.40242,1.78912c-1.79237,0 -3.40965,-0.74643 -4.55739,-1.94545c-0.35858,0.68933 -0.56158,1.47267 -0.56158,2.306c0,2.76306 2.23982,5.00159 5.00227,5.00159c2.76374,-0.00129 5.00288,-2.24043 5.00288,-5.00356zM229.08117,175.48471c0.26389,-0.60885 0.41046,-1.28131 0.41046,-1.98751c0,-2.76313 -2.23982,-5.00295 -5.00227,-5.00295c-2.76245,0 -5.00227,2.23982 -5.00227,5.00295c0,0.82615 0.19975,1.60366 0.47596,2.1626c1.15296,-1.25151 2.80594,-2.03682 4.64301,-2.03682c1.74896,0 3.3325,0.71202 4.4751,1.86173zM230.67182,177.62793c0.39042,1.24569 0.52724,3.32857 0,4.72401l2.43828,-2.33701zM217.0923,173.44532c0,-4.11388 3.33507,-7.44895 7.44895,-7.44895c4.11388,0 7.44895,3.33507 7.44895,7.44895c0,1.45709 2.89602,5.08653 4.32981,6.79396c-1.50254,1.2295 -4.32981,4.84926 -4.32981,6.31603c0,4.11388 -3.33507,7.44835 -7.44895,7.44835c-4.11388,0 -7.44895,-3.33576 -7.44895,-7.44835c0,-0.50251 0.04992,-0.99406 0.14529,-1.47002c-0.58299,0.20883 -1.21135,0.32296 -1.86566,0.32296c-3.05228,0 -5.52558,-2.47262 -5.52558,-5.52558c0,-3.05167 2.4733,-5.52558 5.52558,-5.52558c0.63744,0 1.25023,0.10823 1.82088,0.3067c-0.0661,-0.39488 -0.10052,-0.80278 -0.10052,-1.21846z" fill="#b38a00" stroke="none" stroke-width="0.85738"/><path d="M233.41808,177.26929h36.73559v5.59887h-36.73559z" fill="#9eb300" stroke="none" stroke-width="0.85738"/><path d="M233.82795,177.40549c0,-0.52724 0.39746,-0.95586 0.88771,-0.95586v0c0.49026,0 0.88779,0.42801 0.88779,0.95586v5.32651c0,0.52785 -0.39753,0.95647 -0.88779,0.95647v0c-0.49026,0 -0.88771,-0.42801 -0.88771,-0.95647z" fill="#9eb300" stroke="none" stroke-width="0.85738"/><path d="M236.71527,177.40549c0,-0.52724 0.39753,-0.95586 0.88779,-0.95586v0c0.49026,0 0.88771,0.42801 0.88771,0.95586v5.32651c0,0.52785 -0.39746,0.95647 -0.88771,0.95647v0c-0.49026,0 -0.88779,-0.42801 -0.88779,-0.95647z" fill="#9eb300" stroke="none" stroke-width="0.85738"/><path d="M258.92228,170.98698h2.79875v6.55534h-2.79875v-6.55534" fill="#9eb300" stroke="none" stroke-width="0.85738"/><path d="M236.30639,187.78874l4.78437,1.1938" fill="none" stroke="none" stroke-width="0.85738"/><path d="M236.30639,187.78874l4.78437,1.1938" fill="none" stroke="#d9c400" stroke-width="0.2146"/></g></g></svg>