<svg version="1.1" xmlns="http://www.w3.org/2000/svg" xmlns:xlink="http://www.w3.org/1999/xlink" width="559.8605" height="400.00719" viewBox="0,0,559.8605,400.00719"><g transform="translate(38.88538,17.49729)"><g data-paper-data="{&quot;isPaintingLayer&quot;:true}" fill-rule="nonzero" stroke-linejoin="miter" stroke-miterlimit="10" stroke-dasharray="" stroke-dashoffset="0" style="mix-blend-mode: normal"><g><path d="M432.85699,382.5099l-0.13313,-44.99981l76.99966,-0.22778l0.13312,44.99981z" fill="#453d34" stroke="none" stroke-width="0" stroke-linecap="butt"/><path d="M485.68679,380.30878l-4.41697,-1.75165l-5.13229,-8.13856" fill="none" stroke="#8a2f00" stroke-width="3" stroke-linecap="round"/><path d="M434.63147,358.48247l17.62349,-7.99335l7.07707,6.15556l21.45831,-4.18114" fill="none" stroke="#8a2f00" stroke-width="3" stroke-linecap="round"/><path d="M467.56467,355.73797l14.13151,4.66411" fill="none" stroke="#8a2f00" stroke-width="3" stroke-linecap="round"/><path d="M450.24053,365.49517l3.85833,11.75333l-11.46098,3.26921" fill="none" stroke="#8a2f00" stroke-width="3" stroke-linecap="round"/><path d="M495.79026,352.41918l12.32592,-9.15416" fill="none" stroke="#8a2f00" stroke-width="3" stroke-linecap="round"/><path d="M508.49996,373.55813l-12.37551,-7.61047" fill="none" stroke="#8a2f00" stroke-width="3" stroke-linecap="round"/><path d="M500.83465,367.40432l4.97823,-7.3677" fill="none" stroke="#8a2f00" stroke-width="3" stroke-linecap="round"/><path d="M485.76161,342.74293l12.9559,4.96169" fill="none" stroke="#8a2f00" stroke-width="3" stroke-linecap="round"/><path d="M434.58973,344.3649l5.87798,-1.48798l7.94115,-0.0235" fill="none" stroke="#8a2f00" stroke-width="3" stroke-linecap="round"/></g><g><path d="M427.0671,339.53501l-0.13313,-44.99981l76.99966,-0.22778l0.13312,44.99981z" fill="#453d34" stroke="none" stroke-width="0" stroke-linecap="butt"/><path d="M479.89696,337.33389l-4.41697,-1.75165l-5.13229,-8.13856" fill="none" stroke="#8a2f00" stroke-width="3" stroke-linecap="round"/><path d="M428.84162,315.50758l17.62349,-7.99335l7.07707,6.15556l21.45831,-4.18114" fill="none" stroke="#8a2f00" stroke-width="3" stroke-linecap="round"/><path d="M475.90633,317.42718l-14.13151,-4.6641" fill="none" stroke="#8a2f00" stroke-width="3" stroke-linecap="round"/><path d="M444.45065,322.52028l3.85832,11.75333l-11.46097,3.26921" fill="none" stroke="#8a2f00" stroke-width="3" stroke-linecap="round"/><path d="M502.32628,300.29013l-12.32592,9.15416" fill="none" stroke="#8a2f00" stroke-width="3" stroke-linecap="round"/><path d="M490.33455,322.97277l12.37551,7.61047" fill="none" stroke="#8a2f00" stroke-width="3" stroke-linecap="round"/><path d="M500.02297,317.06173l-4.97823,7.3677" fill="none" stroke="#8a2f00" stroke-width="3" stroke-linecap="round"/><path d="M492.92767,304.72973l-12.9559,-4.96169" fill="none" stroke="#8a2f00" stroke-width="3" stroke-linecap="round"/><path d="M428.79981,301.39001l5.87798,-1.48798l7.94115,-0.0235" fill="none" stroke="#8a2f00" stroke-width="3" stroke-linecap="round"/></g><g><path d="M423.64687,295.04053l-0.13312,-44.99981l76.99967,-0.22778l0.13312,44.99981z" fill="#453d34" stroke="none" stroke-width="0" stroke-linecap="butt"/><path d="M476.4767,292.83942l-4.41697,-1.75165l-5.1323,-8.13856" fill="none" stroke="#8a2f00" stroke-width="3" stroke-linecap="round"/><path d="M425.42139,271.01311l17.62349,-7.99335l7.07707,6.15556l21.45831,-4.18114" fill="none" stroke="#8a2f00" stroke-width="3" stroke-linecap="round"/><path d="M458.35459,268.26861l14.13151,4.6641" fill="none" stroke="#8a2f00" stroke-width="3" stroke-linecap="round"/><path d="M441.03043,278.0258l3.85832,11.75334l-11.46097,3.26921" fill="none" stroke="#8a2f00" stroke-width="3" stroke-linecap="round"/><path d="M486.58015,264.94982l12.32592,-9.15416" fill="none" stroke="#8a2f00" stroke-width="3" stroke-linecap="round"/><path d="M486.91434,278.4783l12.37551,7.61047" fill="none" stroke="#8a2f00" stroke-width="3" stroke-linecap="round"/><path d="M496.60276,272.56726l-4.97823,7.3677" fill="none" stroke="#8a2f00" stroke-width="3" stroke-linecap="round"/><path d="M489.50743,260.23526l-12.9559,-4.96169" fill="none" stroke="#8a2f00" stroke-width="3" stroke-linecap="round"/><path d="M425.37963,256.89553l5.87798,-1.48799l7.94114,-0.02349" fill="none" stroke="#8a2f00" stroke-width="3" stroke-linecap="round"/></g><g><path d="M310.34684,374.47546l0.07274,-44.99995l76.99991,0.12449l-0.07276,44.99995z" fill="#453d34" stroke="none" stroke-width="0" stroke-linecap="butt"/><path d="M363.18625,372.51606l-4.40892,-1.77185l-5.09501,-8.16195" fill="none" stroke="#8a2f00" stroke-width="3" stroke-linecap="round"/><path d="M312.23125,350.45641l17.65988,-7.91264l7.04883,6.18787l21.47722,-4.08293" fill="none" stroke="#8a2f00" stroke-width="3" stroke-linecap="round"/><path d="M359.28675,352.5913l-14.11003,-4.7287" fill="none" stroke="#8a2f00" stroke-width="3" stroke-linecap="round"/><path d="M327.80807,357.54044l3.80451,11.77086l-11.47581,3.21675" fill="none" stroke="#8a2f00" stroke-width="3" stroke-linecap="round"/><path d="M373.4172,344.67297l12.36766,-9.09767" fill="none" stroke="#8a2f00" stroke-width="3" stroke-linecap="round"/><path d="M386.03,365.86984l-12.34056,-7.667" fill="none" stroke="#8a2f00" stroke-width="3" stroke-linecap="round"/><path d="M383.40482,352.33618l-5.01189,7.34486" fill="none" stroke="#8a2f00" stroke-width="3" stroke-linecap="round"/><path d="M376.36598,339.97185l-12.93306,-5.02091" fill="none" stroke="#8a2f00" stroke-width="3" stroke-linecap="round"/><path d="M312.25408,336.33879l5.88473,-1.46108l7.94117,0.01284" fill="none" stroke="#8a2f00" stroke-width="3" stroke-linecap="round"/></g><g><path d="M310.74899,332.26058l0.07274,-44.99995l76.99991,0.12449l-0.07275,44.99994z" fill="#453d34" stroke="none" stroke-width="0" stroke-linecap="butt"/><path d="M363.5884,330.30117l-4.40891,-1.77184l-5.09501,-8.16195" fill="none" stroke="#8a2f00" stroke-width="3" stroke-linecap="round"/><path d="M312.63345,308.24152l17.65988,-7.91264l7.04883,6.18788l21.47722,-4.08294" fill="none" stroke="#8a2f00" stroke-width="3" stroke-linecap="round"/><path d="M345.57888,305.64772l14.11003,4.7287" fill="none" stroke="#8a2f00" stroke-width="3" stroke-linecap="round"/><path d="M328.2102,315.32555l3.80451,11.77087l-11.47581,3.21675" fill="none" stroke="#8a2f00" stroke-width="3" stroke-linecap="round"/><path d="M373.81933,302.45809l12.36767,-9.09768" fill="none" stroke="#8a2f00" stroke-width="3" stroke-linecap="round"/><path d="M386.43217,323.65496l-12.34056,-7.66701" fill="none" stroke="#8a2f00" stroke-width="3" stroke-linecap="round"/><path d="M383.80697,310.1213l-5.01189,7.34485" fill="none" stroke="#8a2f00" stroke-width="3" stroke-linecap="round"/><path d="M363.83509,292.73606l12.93306,5.02091" fill="none" stroke="#8a2f00" stroke-width="3" stroke-linecap="round"/><path d="M312.65623,294.1239l5.88473,-1.46108l7.94117,0.01284" fill="none" stroke="#8a2f00" stroke-width="3" stroke-linecap="round"/></g><g><path d="M256.39259,285.52335l38.62213,-23.09399l39.51635,66.08675l-38.62212,23.09398z" fill="#453d34" stroke="none" stroke-width="0" stroke-linecap="butt"/><path d="M285.26304,329.82158l-0.74952,-4.69214l4.37655,-8.56869" fill="none" stroke="#8a2f00" stroke-width="3" stroke-linecap="round"/><path d="M277.95714,274.77924l15.87213,11.07052l-1.67849,9.22814l14.55275,16.31437" fill="none" stroke="#8a2f00" stroke-width="3" stroke-linecap="round"/><path d="M300.34069,316.22498l-3.20625,-14.53181" fill="none" stroke="#8a2f00" stroke-width="3" stroke-linecap="round"/><path d="M279.8986,291.78073l-8.13505,9.31926l-8.66345,-8.18451" fill="none" stroke="#8a2f00" stroke-width="3" stroke-linecap="round"/><path d="M314.40148,324.26631l14.16492,5.92298" fill="none" stroke="#8a2f00" stroke-width="3" stroke-linecap="round"/><path d="M302.71687,345.98864l0.2237,-14.52661" fill="none" stroke="#8a2f00" stroke-width="3" stroke-linecap="round"/><path d="M304.09344,336.25565l8.87682,0.51782" fill="none" stroke="#8a2f00" stroke-width="3" stroke-linecap="round"/><path d="M319.94982,324.37559l-2.35005,-13.673" fill="none" stroke="#8a2f00" stroke-width="3" stroke-linecap="round"/><path d="M290.07383,267.53407l4.28099,4.29394l4.0754,6.81567" fill="none" stroke="#8a2f00" stroke-width="3" stroke-linecap="round"/></g><g><path d="M220.01824,284.87237l25.88739,-36.80821l62.98291,44.2962l-25.88738,36.8082z" fill="#453d34" stroke="none" stroke-width="0" stroke-linecap="butt"/><path d="M264.41245,313.5951l-2.59346,-3.98145l0.51232,-9.60802" fill="none" stroke="#8a2f00" stroke-width="3" stroke-linecap="round"/><path d="M235.34718,266.28499l19.00295,3.65635l2.22066,9.11287l19.93086,8.98342" fill="none" stroke="#8a2f00" stroke-width="3" stroke-linecap="round"/><path d="M272.655,295.04082l-8.84049,-11.97077" fill="none" stroke="#8a2f00" stroke-width="3" stroke-linecap="round"/><path d="M244.03696,281.02636l-3.64044,11.82264l-11.24367,-3.95241" fill="none" stroke="#8a2f00" stroke-width="3" stroke-linecap="round"/><path d="M304.12039,296.31524l-15.34937,0.35153" fill="none" stroke="#8a2f00" stroke-width="3" stroke-linecap="round"/><path d="M281.22848,307.90249l5.70506,13.36132" fill="none" stroke="#8a2f00" stroke-width="3" stroke-linecap="round"/><path d="M284.2317,311.81255l8.31977,-3.13804" fill="none" stroke="#8a2f00" stroke-width="3" stroke-linecap="round"/><path d="M286.17501,282.97502l7.70898,11.53453" fill="none" stroke="#8a2f00" stroke-width="3" stroke-linecap="round"/><path d="M243.46871,254.73733l5.65753,2.18109l6.49556,4.56836" fill="none" stroke="#8a2f00" stroke-width="3" stroke-linecap="round"/></g><g data-paper-data="{&quot;index&quot;:null}"><path d="M12.12722,329.92483l-32.52912,-29.33125l29.47468,-32.66066l32.52911,29.33125z" fill="#453d34" stroke="none" stroke-width="0" stroke-linecap="butt"/><path d="M16.37311,307.83964l3.93871,7.48135l-0.41312,3.02157" fill="none" stroke="#8a2f00" stroke-width="3" stroke-linecap="round"/><path d="M1.60265,298.14156l11.1952,-6.42315l-1.76275,-7.01996l12.49552,-2.30915" fill="none" stroke="#8a2f00" stroke-width="3" stroke-linecap="round"/><path d="M7.00532,303.69193l2.00233,-9.05553" fill="none" stroke="#8a2f00" stroke-width="3" stroke-linecap="round"/><path d="M36.43647,300.1357l-6.72949,2.75664l-7.04074,-9.2901" fill="none" stroke="#8a2f00" stroke-width="3" stroke-linecap="round"/><path d="M-15.45861,303.80077l11.31943,0.70326" fill="none" stroke="#8a2f00" stroke-width="3" stroke-linecap="round"/><path d="M6.3275,323.6714l-0.79926,-10.22407" fill="none" stroke="#8a2f00" stroke-width="3" stroke-linecap="round"/><path d="M4.78992,316.40193l-7.22915,-2.67187" fill="none" stroke="#8a2f00" stroke-width="3" stroke-linecap="round"/><path d="M-8.66676,302.68424l1.33938,-8.74821" fill="none" stroke="#8a2f00" stroke-width="3" stroke-linecap="round"/><path d="M6.97088,278.09226l3.03979,-3.36837l3.31474,-1.53655" fill="none" stroke="#8a2f00" stroke-width="3" stroke-linecap="round"/></g><g><path d="M38.20911,297.54364l-9.8371,-43.91163l75.13769,-16.83236l9.83709,43.91163z" fill="#453d34" stroke="none" stroke-width="0" stroke-linecap="butt"/><path d="M89.32036,283.99818l-4.69084,-0.75761l-6.76707,-6.83984" fill="none" stroke="#8a2f00" stroke-width="3" stroke-linecap="round"/><path d="M34.75878,273.69912l15.48429,-11.6068l8.2383,4.48401l20.05117,-8.71157" fill="none" stroke="#8a2f00" stroke-width="3" stroke-linecap="round"/><path d="M81.12952,265.42099l-14.80492,-1.50592" fill="none" stroke="#8a2f00" stroke-width="3" stroke-linecap="round"/><path d="M51.51307,277.17961l6.30284,10.64433l-10.48593,5.66454" fill="none" stroke="#8a2f00" stroke-width="3" stroke-linecap="round"/><path d="M103.2308,242.98823l-10.06103,11.59751" fill="none" stroke="#8a2f00" stroke-width="3" stroke-linecap="round"/><path d="M96.41431,267.72363l13.72584,4.76172" fill="none" stroke="#8a2f00" stroke-width="3" stroke-linecap="round"/><path d="M101.32786,268.12994l3.27171,-8.26812" fill="none" stroke="#8a2f00" stroke-width="3" stroke-linecap="round"/><path d="M95.01109,249.35072l-13.72118,-2.0501" fill="none" stroke="#8a2f00" stroke-width="3" stroke-linecap="round"/><path d="M31.67264,259.92293l5.41861,-2.72092l7.74912,-1.73596" fill="none" stroke="#8a2f00" stroke-width="3" stroke-linecap="round"/></g><g><path d="M-19.39403,316.73323l43.80029,-0.00964l0.02812,43.99402l-43.80029,0.00965z" fill="#453d34" stroke="none" stroke-width="0" stroke-linecap="butt"/><path d="M-17.38443,346.92078l1.71606,-2.52105l7.93446,-2.92032" fill="none" stroke="#8a2f00" stroke-width="3" stroke-linecap="round"/><path d="M3.98827,317.78256l7.73591,10.08097l-6.00922,4.03439l4.01572,12.26635" fill="none" stroke="#8a2f00" stroke-width="3" stroke-linecap="round"/><path d="M2.00152,344.67011l4.57527,-8.06714" fill="none" stroke="#8a2f00" stroke-width="3" stroke-linecap="round"/><path d="M-2.87668,326.69043l-11.44966,2.1871l-3.15323,-6.55304" fill="none" stroke="#8a2f00" stroke-width="3" stroke-linecap="round"/><path d="M9.73613,352.73454l8.87909,7.05591" fill="none" stroke="#8a2f00" stroke-width="3" stroke-linecap="round"/><path d="M-3.43247,352.90549l-7.43867,7.05951" fill="none" stroke="#8a2f00" stroke-width="3" stroke-linecap="round"/><path d="M-4.86213,355.59451l7.15873,2.85517" fill="none" stroke="#8a2f00" stroke-width="3" stroke-linecap="round"/><path d="M19.1796,347.01896l-4.86197,7.39502" fill="none" stroke="#8a2f00" stroke-width="3" stroke-linecap="round"/><path d="M17.72953,317.77954l1.43353,3.36057l0.0029,4.53721" fill="none" stroke="#8a2f00" stroke-width="3" stroke-linecap="round"/></g><g><path d="M-38.88538,296.65403l0.50996,-44.99711l76.99506,0.87261l-0.50997,44.99711z" fill="#453d34" stroke="none" stroke-width="0" stroke-linecap="butt"/><path d="M13.97056,295.20811l-4.39149,-1.8146l-5.01547,-8.21107" fill="none" stroke="#8a2f00" stroke-width="3" stroke-linecap="round"/><path d="M-36.76766,272.65441l17.73592,-7.74068l6.98838,6.25607l21.51587,-3.87407" fill="none" stroke="#8a2f00" stroke-width="3" stroke-linecap="round"/><path d="M-3.7986,270.38084l14.06342,4.86557" fill="none" stroke="#8a2f00" stroke-width="3" stroke-linecap="round"/><path d="M-21.26043,279.88946l3.68996,11.80728l-11.50652,3.10509" fill="none" stroke="#8a2f00" stroke-width="3" stroke-linecap="round"/><path d="M24.47154,267.46574l12.45547,-8.97708" fill="none" stroke="#8a2f00" stroke-width="3" stroke-linecap="round"/><path d="M36.87781,288.78416l-12.26549,-7.78655" fill="none" stroke="#8a2f00" stroke-width="3" stroke-linecap="round"/><path d="M29.30123,282.52144l5.08301,-7.29581" fill="none" stroke="#8a2f00" stroke-width="3" stroke-linecap="round"/><path d="M14.5822,257.64715l12.88367,5.14633" fill="none" stroke="#8a2f00" stroke-width="3" stroke-linecap="round"/><path d="M-36.60767,258.53769l5.89864,-1.40383l7.94067,0.08999" fill="none" stroke="#8a2f00" stroke-width="3" stroke-linecap="round"/></g><g><path d="M87.4126,280.79927l-0.08083,-39.12555l16.54319,-5.13302l60.44451,-0.90038l0.09295,44.99991z" fill="#453d34" stroke="none" stroke-width="0" stroke-linecap="butt"/><path d="M140.24442,278.64531l-4.41541,-1.75559l-5.12503,-8.14314" fill="none" stroke="#8a2f00" stroke-width="3" stroke-linecap="round"/><path d="M89.20857,256.77344l17.63062,-7.97761l7.07157,6.16188l21.46204,-4.16199" fill="none" stroke="#8a2f00" stroke-width="3" stroke-linecap="round"/><path d="M136.27155,258.73506l-14.12734,-4.67672" fill="none" stroke="#8a2f00" stroke-width="3" stroke-linecap="round"/><path d="M104.81133,263.80007l3.84783,11.75678l-11.46389,3.25898" fill="none" stroke="#8a2f00" stroke-width="3" stroke-linecap="round"/><path d="M162.70682,241.62159l-12.33408,9.14315" fill="none" stroke="#8a2f00" stroke-width="3" stroke-linecap="round"/><path d="M150.69481,264.29351l12.36871,7.62151" fill="none" stroke="#8a2f00" stroke-width="3" stroke-linecap="round"/><path d="M155.40372,265.75438l4.9848,-7.36326" fill="none" stroke="#8a2f00" stroke-width="3" stroke-linecap="round"/><path d="M140.35277,241.07955l12.95146,4.97325" fill="none" stroke="#8a2f00" stroke-width="3" stroke-linecap="round"/><path d="M89.17942,242.65584l5.87931,-1.48274l7.94116,-0.0164" fill="none" stroke="#8a2f00" stroke-width="3" stroke-linecap="round"/></g><g><path d="M157.72359,280.28365l3.90491,-44.83026l76.70955,6.68176l-3.90492,44.83025z" fill="#453d34" stroke="none" stroke-width="0" stroke-linecap="butt"/><path d="M210.53792,282.83145l-4.242,-2.1409l-4.38138,-8.56622" fill="none" stroke="#8a2f00" stroke-width="3" stroke-linecap="round"/><path d="M161.64676,256.51235l18.26959,-6.37989l6.49623,6.76571l21.74691,-2.23898" fill="none" stroke="#8a2f00" stroke-width="3" stroke-linecap="round"/><path d="M194.69338,256.73377l13.65604,5.91321" fill="none" stroke="#8a2f00" stroke-width="3" stroke-linecap="round"/><path d="M176.56364,264.89725l2.78822,12.05211l-11.70807,2.22772" fill="none" stroke="#8a2f00" stroke-width="3" stroke-linecap="round"/><path d="M236.20046,247.94952l-13.09753,8.01132" fill="none" stroke="#8a2f00" stroke-width="3" stroke-linecap="round"/><path d="M222.22191,269.46474l11.64276,8.69014" fill="none" stroke="#8a2f00" stroke-width="3" stroke-linecap="round"/><path d="M226.78245,271.33814l5.6192,-6.89133" fill="none" stroke="#8a2f00" stroke-width="3" stroke-linecap="round"/><path d="M226.44138,251.52794l-12.45847,-6.10412" fill="none" stroke="#8a2f00" stroke-width="3" stroke-linecap="round"/><path d="M162.87184,242.44797l5.98777,-0.9546l7.91123,0.68911" fill="none" stroke="#8a2f00" stroke-width="3" stroke-linecap="round"/></g><g><path d="M234.12238,287.44665l0.07274,-44.99995l76.99991,0.12449l-0.07276,44.99995z" fill="#453d34" stroke="none" stroke-width="0" stroke-linecap="butt"/><path d="M286.96173,285.48724l-4.40892,-1.77184l-5.09501,-8.16195" fill="none" stroke="#8a2f00" stroke-width="3" stroke-linecap="round"/><path d="M236.00679,263.4276l17.65988,-7.91264l7.04883,6.18788l21.47722,-4.08294" fill="none" stroke="#8a2f00" stroke-width="3" stroke-linecap="round"/><path d="M283.06226,265.56249l-14.11003,-4.7287" fill="none" stroke="#8a2f00" stroke-width="3" stroke-linecap="round"/><path d="M251.58358,270.51162l3.80451,11.77087l-11.47581,3.21675" fill="none" stroke="#8a2f00" stroke-width="3" stroke-linecap="round"/><path d="M309.56032,248.54648l-12.36766,9.09768" fill="none" stroke="#8a2f00" stroke-width="3" stroke-linecap="round"/><path d="M297.46493,271.17402l12.34057,7.66701" fill="none" stroke="#8a2f00" stroke-width="3" stroke-linecap="round"/><path d="M302.16839,272.65223l5.01189,-7.34485" fill="none" stroke="#8a2f00" stroke-width="3" stroke-linecap="round"/><path d="M287.20842,247.92213l12.93306,5.02091" fill="none" stroke="#8a2f00" stroke-width="3" stroke-linecap="round"/><path d="M236.02962,249.30998l5.88473,-1.46108l7.94117,0.01284" fill="none" stroke="#8a2f00" stroke-width="3" stroke-linecap="round"/></g><g><path d="M225.01824,289.87237l25.88739,-36.80821l62.98291,44.2962l-25.88738,36.8082z" fill="#453d34" stroke="none" stroke-width="0" stroke-linecap="butt"/><path d="M269.41245,318.5951l-2.59346,-3.98145l0.51232,-9.60802" fill="none" stroke="#8a2f00" stroke-width="3" stroke-linecap="round"/><path d="M240.34718,271.28499l19.00295,3.65635l2.22066,9.11287l19.93086,8.98342" fill="none" stroke="#8a2f00" stroke-width="3" stroke-linecap="round"/><path d="M277.655,300.04082l-8.84049,-11.97077" fill="none" stroke="#8a2f00" stroke-width="3" stroke-linecap="round"/><path d="M249.03696,286.02636l-3.64044,11.82264l-11.24367,-3.95241" fill="none" stroke="#8a2f00" stroke-width="3" stroke-linecap="round"/><path d="M309.12039,301.31524l-15.34937,0.35153" fill="none" stroke="#8a2f00" stroke-width="3" stroke-linecap="round"/><path d="M286.22848,312.90249l5.70506,13.36132" fill="none" stroke="#8a2f00" stroke-width="3" stroke-linecap="round"/><path d="M289.2317,316.81255l8.31977,-3.13804" fill="none" stroke="#8a2f00" stroke-width="3" stroke-linecap="round"/><path d="M291.17501,287.97502l7.70898,11.53453" fill="none" stroke="#8a2f00" stroke-width="3" stroke-linecap="round"/><path d="M248.46871,259.73733l5.65753,2.18109l6.49556,4.56836" fill="none" stroke="#8a2f00" stroke-width="3" stroke-linecap="round"/></g><g><path d="M296.15209,305.22603l44.99951,0.21371l-0.3657,76.99914l-44.9995,-0.21373z" fill="#453d34" stroke="none" stroke-width="0" stroke-linecap="butt"/><path d="M297.94597,358.07128l1.78565,-4.40335l8.17787,-5.06941" fill="none" stroke="#8a2f00" stroke-width="3" stroke-linecap="round"/><path d="M320.16515,307.18568l7.85728,17.68457l-6.20992,7.02942l4.01563,21.4899" fill="none" stroke="#8a2f00" stroke-width="3" stroke-linecap="round"/><path d="M317.88284,354.23421l4.77289,-14.09515" fill="none" stroke="#8a2f00" stroke-width="3" stroke-linecap="round"/><path d="M313.03236,322.7402l-11.78273,3.76761l-3.18078,-11.48583" fill="none" stroke="#8a2f00" stroke-width="3" stroke-linecap="round"/><path d="M325.75685,368.38939l9.05889,12.39611" fill="none" stroke="#8a2f00" stroke-width="3" stroke-linecap="round"/><path d="M312.22625,368.61926l-7.70563,12.31649" fill="none" stroke="#8a2f00" stroke-width="3" stroke-linecap="round"/><path d="M310.7333,373.31809l7.32912,5.03487" fill="none" stroke="#8a2f00" stroke-width="3" stroke-linecap="round"/><path d="M330.44874,371.3529l5.0614,-12.91727" fill="none" stroke="#8a2f00" stroke-width="3" stroke-linecap="round"/><path d="M334.28263,307.25272l1.44264,5.88927l-0.03771,7.94109" fill="none" stroke="#8a2f00" stroke-width="3" stroke-linecap="round"/></g><g><path d="M310.55091,287.64473l0.07274,-44.99995l76.99991,0.12449l-0.07276,44.99995z" fill="#453d34" stroke="none" stroke-width="0" stroke-linecap="butt"/><path d="M363.39034,285.68532l-4.40892,-1.77184l-5.09501,-8.16195" fill="none" stroke="#8a2f00" stroke-width="3" stroke-linecap="round"/><path d="M312.43539,263.62567l17.65988,-7.91264l7.04883,6.18788l21.47722,-4.08294" fill="none" stroke="#8a2f00" stroke-width="3" stroke-linecap="round"/><path d="M345.38081,261.03187l14.11003,4.7287" fill="none" stroke="#8a2f00" stroke-width="3" stroke-linecap="round"/><path d="M328.01214,270.7097l3.80451,11.77087l-11.47581,3.21675" fill="none" stroke="#8a2f00" stroke-width="3" stroke-linecap="round"/><path d="M373.62129,257.84224l12.36766,-9.09768" fill="none" stroke="#8a2f00" stroke-width="3" stroke-linecap="round"/><path d="M373.89354,271.3721l12.34057,7.66701" fill="none" stroke="#8a2f00" stroke-width="3" stroke-linecap="round"/><path d="M378.597,272.8503l5.01189,-7.34485" fill="none" stroke="#8a2f00" stroke-width="3" stroke-linecap="round"/><path d="M376.57007,253.14112l-12.93306,-5.02091" fill="none" stroke="#8a2f00" stroke-width="3" stroke-linecap="round"/><path d="M312.45815,249.50805l5.88473,-1.46108l7.94117,0.01284" fill="none" stroke="#8a2f00" stroke-width="3" stroke-linecap="round"/></g><g><path d="M385.57498,375.27378l0.07274,-44.99995l76.99991,0.12449l-0.07276,44.99994z" fill="#453d34" stroke="none" stroke-width="0" stroke-linecap="butt"/><path d="M438.41434,373.31437l-4.40891,-1.77184l-5.09501,-8.16196" fill="none" stroke="#8a2f00" stroke-width="3" stroke-linecap="round"/><path d="M387.45937,351.25472l17.65988,-7.91264l7.04883,6.18788l21.47722,-4.08294" fill="none" stroke="#8a2f00" stroke-width="3" stroke-linecap="round"/><path d="M434.51485,353.38962l-14.11003,-4.7287" fill="none" stroke="#8a2f00" stroke-width="3" stroke-linecap="round"/><path d="M403.03619,358.33875l3.80451,11.77087l-11.47581,3.21675" fill="none" stroke="#8a2f00" stroke-width="3" stroke-linecap="round"/><path d="M448.6453,345.47129l12.36766,-9.09768" fill="none" stroke="#8a2f00" stroke-width="3" stroke-linecap="round"/><path d="M448.91754,359.00115l12.34057,7.66701" fill="none" stroke="#8a2f00" stroke-width="3" stroke-linecap="round"/><path d="M458.63289,353.1345l-5.01189,7.34485" fill="none" stroke="#8a2f00" stroke-width="3" stroke-linecap="round"/><path d="M451.59408,340.77017l-12.93306,-5.02091" fill="none" stroke="#8a2f00" stroke-width="3" stroke-linecap="round"/><path d="M387.48222,337.1371l5.88473,-1.46108l7.94117,0.01284" fill="none" stroke="#8a2f00" stroke-width="3" stroke-linecap="round"/></g><g><path d="M385.97714,333.05889l0.07274,-44.99995l76.99991,0.12449l-0.07276,44.99995z" fill="#453d34" stroke="none" stroke-width="0" stroke-linecap="butt"/><path d="M438.81652,331.09949l-4.40892,-1.77185l-5.09501,-8.16195" fill="none" stroke="#8a2f00" stroke-width="3" stroke-linecap="round"/><path d="M387.86156,309.03984l17.65988,-7.91264l7.04883,6.18787l21.47722,-4.08293" fill="none" stroke="#8a2f00" stroke-width="3" stroke-linecap="round"/><path d="M434.917,311.17473l-14.11003,-4.7287" fill="none" stroke="#8a2f00" stroke-width="3" stroke-linecap="round"/><path d="M403.43835,316.12387l3.80451,11.77086l-11.47581,3.21675" fill="none" stroke="#8a2f00" stroke-width="3" stroke-linecap="round"/><path d="M461.41512,294.15873l-12.36766,9.09767" fill="none" stroke="#8a2f00" stroke-width="3" stroke-linecap="round"/><path d="M461.66025,324.45327l-12.34056,-7.667" fill="none" stroke="#8a2f00" stroke-width="3" stroke-linecap="round"/><path d="M454.0232,318.26447l5.01189,-7.34486" fill="none" stroke="#8a2f00" stroke-width="3" stroke-linecap="round"/><path d="M451.99625,298.55528l-12.93306,-5.02091" fill="none" stroke="#8a2f00" stroke-width="3" stroke-linecap="round"/><path d="M387.88438,294.92222l5.88473,-1.46108l7.94117,0.01284" fill="none" stroke="#8a2f00" stroke-width="3" stroke-linecap="round"/></g><g><path d="M382.84231,288.15378l3.82367,-44.83727l76.72153,6.54274l-3.82368,44.83726z" fill="#453d34" stroke="none" stroke-width="0" stroke-linecap="butt"/><path d="M435.66111,290.60587l-4.24587,-2.1332l-4.3969,-8.55827" fill="none" stroke="#8a2f00" stroke-width="3" stroke-linecap="round"/><path d="M386.72236,264.37541l18.258,-6.41298l6.50848,6.75393l21.74282,-2.27839" fill="none" stroke="#8a2f00" stroke-width="3" stroke-linecap="round"/><path d="M419.76935,264.53695l13.66673,5.88845" fill="none" stroke="#8a2f00" stroke-width="3" stroke-linecap="round"/><path d="M401.65444,272.73326l2.81005,12.04704l-11.70402,2.24893" fill="none" stroke="#8a2f00" stroke-width="3" stroke-linecap="round"/><path d="M448.17743,263.71254l13.083,-8.03505" fill="none" stroke="#8a2f00" stroke-width="3" stroke-linecap="round"/><path d="M447.32089,277.21801l11.6585,8.66902" fill="none" stroke="#8a2f00" stroke-width="3" stroke-linecap="round"/><path d="M451.88479,279.08314l5.60671,-6.9015" fill="none" stroke="#8a2f00" stroke-width="3" stroke-linecap="round"/><path d="M439.03831,253.19206l12.46951,6.08153" fill="none" stroke="#8a2f00" stroke-width="3" stroke-linecap="round"/><path d="M387.92195,250.30883l5.98604,-0.96545l7.91246,0.67477" fill="none" stroke="#8a2f00" stroke-width="3" stroke-linecap="round"/></g><g><path d="M379.16197,-10.44782l44.81651,-4.05965l6.94651,76.68602l-44.81652,4.05966z" fill="#453d34" stroke="none" stroke-width="0" stroke-linecap="butt"/><path d="M385.96504,41.98841l1.35951,-4.55299l7.65962,-5.82294" fill="none" stroke="#8a2f00" stroke-width="3" stroke-linecap="round"/><path d="M403.25258,-10.77688l9.50084,16.85869l-5.51448,7.58725l6.03782,21.01156" fill="none" stroke="#8a2f00" stroke-width="3" stroke-linecap="round"/><path d="M408.86062,21.79118l-3.41308,14.48462" fill="none" stroke="#8a2f00" stroke-width="3" stroke-linecap="round"/><path d="M397.62882,5.38459l-11.37179,4.8693l-4.25691,-11.13195" fill="none" stroke="#8a2f00" stroke-width="3" stroke-linecap="round"/><path d="M414.62992,49.61946l10.1949,11.48003" fill="none" stroke="#8a2f00" stroke-width="3" stroke-linecap="round"/><path d="M394.68078,64.12538l6.50145,-12.99245" fill="none" stroke="#8a2f00" stroke-width="3" stroke-linecap="round"/><path d="M407.91621,60.26856l-7.77404,-4.31627" fill="none" stroke="#8a2f00" stroke-width="3" stroke-linecap="round"/><path d="M419.58197,52.12411l3.81212,-13.33947" fill="none" stroke="#8a2f00" stroke-width="3" stroke-linecap="round"/><path d="M417.31265,-12.0505l1.99526,5.7257l0.71641,7.9088" fill="none" stroke="#8a2f00" stroke-width="3" stroke-linecap="round"/></g><g><path d="M404.07712,-16.58751l44.99235,0.83022l-1.42061,76.9869l-44.99235,-0.83023z" fill="#453d34" stroke="none" stroke-width="0" stroke-linecap="butt"/><path d="M405.14678,36.27736l1.8458,-4.37847l8.24657,-4.95689" fill="none" stroke="#8a2f00" stroke-width="3" stroke-linecap="round"/><path d="M428.06107,-14.29905l7.61425,17.79056l-6.30565,6.94368l3.72082,21.5429" fill="none" stroke="#8a2f00" stroke-width="3" stroke-linecap="round"/><path d="M425.13438,32.71379l4.96555,-14.02843" fill="none" stroke="#8a2f00" stroke-width="3" stroke-linecap="round"/><path d="M420.71583,1.15629l-11.83323,3.60583l-3.02312,-11.52833" fill="none" stroke="#8a2f00" stroke-width="3" stroke-linecap="round"/><path d="M441.70194,59.49459l-8.8882,-12.51906" fill="none" stroke="#8a2f00" stroke-width="3" stroke-linecap="round"/><path d="M411.40754,59.22975l7.87365,-12.20975" fill="none" stroke="#8a2f00" stroke-width="3" stroke-linecap="round"/><path d="M417.72404,51.69793l7.25944,5.13481" fill="none" stroke="#8a2f00" stroke-width="3" stroke-linecap="round"/><path d="M442.70245,37.15632l-5.2379,12.84672" fill="none" stroke="#8a2f00" stroke-width="3" stroke-linecap="round"/><path d="M442.1763,-14.03859l1.36181,5.90848l-0.14651,7.93983" fill="none" stroke="#8a2f00" stroke-width="3" stroke-linecap="round"/></g><g><path d="M444.36927,-16.38443l44.98625,-1.11286l1.9042,76.97645l-44.98624,1.11285z" fill="#453d34" stroke="none" stroke-width="0" stroke-linecap="butt"/><path d="M447.72012,36.38498l1.65506,-4.45407l8.0249,-5.30827" fill="none" stroke="#8a2f00" stroke-width="3" stroke-linecap="round"/><path d="M468.42965,-15.13347l8.37516,17.44527l-6.00001,7.20942l4.64735,21.36219" fill="none" stroke="#8a2f00" stroke-width="3" stroke-linecap="round"/><path d="M471.89054,17.73217l-4.35532,14.22971" fill="none" stroke="#8a2f00" stroke-width="3" stroke-linecap="round"/><path d="M461.75846,0.62455l-11.66654,4.11331l-3.51797,-11.38708" fill="none" stroke="#8a2f00" stroke-width="3" stroke-linecap="round"/><path d="M475.82304,45.87881l9.42035,12.12369" fill="none" stroke="#8a2f00" stroke-width="3" stroke-linecap="round"/><path d="M454.96587,59.0457l7.33922,-12.53827" fill="none" stroke="#8a2f00" stroke-width="3" stroke-linecap="round"/><path d="M468.42565,56.06487l-7.47434,-4.81664" fill="none" stroke="#8a2f00" stroke-width="3" stroke-linecap="round"/><path d="M480.60024,48.70273l4.67843,-13.06086" fill="none" stroke="#8a2f00" stroke-width="3" stroke-linecap="round"/><path d="M482.54296,-15.4826l1.61561,5.84419l0.19639,7.93875" fill="none" stroke="#8a2f00" stroke-width="3" stroke-linecap="round"/></g><g><path d="M385.12771,58.09664l44.97106,1.61382l-2.76144,76.95047l-44.97106,-1.61383z" fill="#453d34" stroke="none" stroke-width="0" stroke-linecap="butt"/><path d="M385.27635,110.97212l1.92179,-4.34565l8.33166,-4.81249" fill="none" stroke="#8a2f00" stroke-width="3" stroke-linecap="round"/><path d="M409.06814,60.80253l7.3032,17.9205l-6.42564,6.83279l3.345,21.60444" fill="none" stroke="#8a2f00" stroke-width="3" stroke-linecap="round"/><path d="M410.53214,93.81745l-5.20916,13.9398" fill="none" stroke="#8a2f00" stroke-width="3" stroke-linecap="round"/><path d="M401.4548,76.12758l-11.89425,3.39916l-2.82185,-11.57924" fill="none" stroke="#8a2f00" stroke-width="3" stroke-linecap="round"/><path d="M412.75273,122.1506l8.66878,12.67199" fill="none" stroke="#8a2f00" stroke-width="3" stroke-linecap="round"/><path d="M399.22148,121.95934l-8.08514,12.07075" fill="none" stroke="#8a2f00" stroke-width="3" stroke-linecap="round"/><path d="M404.75197,131.86993l-7.1689,-5.26049" fill="none" stroke="#8a2f00" stroke-width="3" stroke-linecap="round"/><path d="M422.811,112.50514l-5.46089,12.75353" fill="none" stroke="#8a2f00" stroke-width="3" stroke-linecap="round"/><path d="M423.1767,61.30883l1.25869,5.93131l-0.28479,7.93607" fill="none" stroke="#8a2f00" stroke-width="3" stroke-linecap="round"/></g><g><path d="M426.39813,60.00602l44.99235,0.83022l-1.42061,76.9869l-44.99235,-0.83023z" fill="#453d34" stroke="none" stroke-width="0" stroke-linecap="butt"/><path d="M427.46784,112.87089l1.8458,-4.37847l8.24657,-4.95689" fill="none" stroke="#8a2f00" stroke-width="3" stroke-linecap="round"/><path d="M450.38208,62.29448l7.61425,17.79057l-6.30565,6.94368l3.72082,21.5429" fill="none" stroke="#8a2f00" stroke-width="3" stroke-linecap="round"/><path d="M447.4554,109.30732l4.96555,-14.02843" fill="none" stroke="#8a2f00" stroke-width="3" stroke-linecap="round"/><path d="M443.03685,77.74982l-11.83324,3.60583l-3.02312,-11.52833" fill="none" stroke="#8a2f00" stroke-width="3" stroke-linecap="round"/><path d="M455.13476,123.56906l8.88819,12.51906" fill="none" stroke="#8a2f00" stroke-width="3" stroke-linecap="round"/><path d="M433.72858,135.82328l7.87365,-12.20975" fill="none" stroke="#8a2f00" stroke-width="3" stroke-linecap="round"/><path d="M440.04506,128.29147l7.25944,5.13481" fill="none" stroke="#8a2f00" stroke-width="3" stroke-linecap="round"/><path d="M465.02347,113.74986l-5.23791,12.84672" fill="none" stroke="#8a2f00" stroke-width="3" stroke-linecap="round"/><path d="M464.49732,62.55495l1.36181,5.90848l-0.14651,7.93982" fill="none" stroke="#8a2f00" stroke-width="3" stroke-linecap="round"/></g><g><path d="M451.67875,60.20911l44.98625,-1.11285l1.9042,76.97645l-44.98624,1.11285z" fill="#453d34" stroke="none" stroke-width="0" stroke-linecap="butt"/><path d="M455.02957,112.97852l1.65507,-4.45407l8.02489,-5.30827" fill="none" stroke="#8a2f00" stroke-width="3" stroke-linecap="round"/><path d="M475.7391,61.46006l8.37517,17.44527l-6.00002,7.20942l4.64735,21.36219" fill="none" stroke="#8a2f00" stroke-width="3" stroke-linecap="round"/><path d="M474.84468,108.55541l4.35532,-14.22971" fill="none" stroke="#8a2f00" stroke-width="3" stroke-linecap="round"/><path d="M469.06793,77.21808l-11.66654,4.1133l-3.51797,-11.38707" fill="none" stroke="#8a2f00" stroke-width="3" stroke-linecap="round"/><path d="M483.13251,122.47234l9.42036,12.12369" fill="none" stroke="#8a2f00" stroke-width="3" stroke-linecap="round"/><path d="M462.27534,135.63924l7.33922,-12.53827" fill="none" stroke="#8a2f00" stroke-width="3" stroke-linecap="round"/><path d="M468.26079,127.84176l7.47435,4.81664" fill="none" stroke="#8a2f00" stroke-width="3" stroke-linecap="round"/><path d="M487.90967,125.29626l4.67844,-13.06086" fill="none" stroke="#8a2f00" stroke-width="3" stroke-linecap="round"/><path d="M489.8524,61.11093l1.61561,5.84419l0.19638,7.93876" fill="none" stroke="#8a2f00" stroke-width="3" stroke-linecap="round"/></g><g><path d="M382.35945,135.34785l31.68556,-31.93417l26.06052,28.3517l-31.68557,31.93416z" fill="#453d34" stroke="none" stroke-width="0" stroke-linecap="butt"/><path d="M401.68159,153.35121l-0.25059,-2.87675l4.01236,-7.66712" fill="none" stroke="#8a2f00" stroke-width="3" stroke-linecap="round"/><path d="M399.89858,118.98018l11.56419,0.86227l-1.95994,6.98221l10.16601,4.98347" fill="none" stroke="#8a2f00" stroke-width="3" stroke-linecap="round"/><path d="M414.37593,137.76847l-1.46457,-8.5377" fill="none" stroke="#8a2f00" stroke-width="3" stroke-linecap="round"/><path d="M400.20413,129.72912l-6.98973,9.75663l-6.16025,-1.92759" fill="none" stroke="#8a2f00" stroke-width="3" stroke-linecap="round"/><path d="M424.74559,137.3312l10.60079,-1.92192" fill="none" stroke="#8a2f00" stroke-width="3" stroke-linecap="round"/><path d="M414.11513,157.01573l1.20363,-9.97511" fill="none" stroke="#8a2f00" stroke-width="3" stroke-linecap="round"/><path d="M422.7456,146.43996l-6.86963,3.37698" fill="none" stroke="#8a2f00" stroke-width="3" stroke-linecap="round"/><path d="M429.05454,135.07465l-0.8593,-8.31323" fill="none" stroke="#8a2f00" stroke-width="3" stroke-linecap="round"/><path d="M409.83918,108.96163l3.02635,1.1223l2.68768,2.92397" fill="none" stroke="#8a2f00" stroke-width="3" stroke-linecap="round"/></g><g><path d="M410.12936,163.73568l-0.59553,-44.98519l55.52701,1.55546l0.59552,44.98519z" fill="#453d34" stroke="none" stroke-width="0" stroke-linecap="butt"/><path d="M448.20402,162.75886l-3.20481,-1.85325l-3.79158,-8.25421" fill="none" stroke="#8a2f00" stroke-width="3" stroke-linecap="round"/><path d="M411.14236,139.7588l12.62074,-7.58208l5.17207,6.31702l15.42859,-3.68257" fill="none" stroke="#8a2f00" stroke-width="3" stroke-linecap="round"/><path d="M434.8622,137.77805l10.24293,4.98952" fill="none" stroke="#8a2f00" stroke-width="3" stroke-linecap="round"/><path d="M422.47691,147.13022l2.91295,11.83806l-8.22897,3.00251" fill="none" stroke="#8a2f00" stroke-width="3" stroke-linecap="round"/><path d="M455.1807,135.11421l8.78742,-8.86512" fill="none" stroke="#8a2f00" stroke-width="3" stroke-linecap="round"/><path d="M464.58112,156.53916l-9.00927,-7.89406" fill="none" stroke="#8a2f00" stroke-width="3" stroke-linecap="round"/><path d="M462.4932,142.96076l-3.50835,7.24952" fill="none" stroke="#8a2f00" stroke-width="3" stroke-linecap="round"/><path d="M447.84097,125.20952l9.39844,5.25977" fill="none" stroke="#8a2f00" stroke-width="3" stroke-linecap="round"/><path d="M410.95552,125.64581l4.22248,-1.35128l5.72662,0.16041" fill="none" stroke="#8a2f00" stroke-width="3" stroke-linecap="round"/></g><g><path d="M465.50847,165.14872l-4.29569,-44.78358l55.46666,-3.01957l4.29569,44.78358z" fill="#453d34" stroke="none" stroke-width="0" stroke-linecap="butt"/><path d="M503.37356,161.04174l-3.34646,-1.58321l-4.45802,-7.91418" fill="none" stroke="#8a2f00" stroke-width="3" stroke-linecap="round"/><path d="M464.54478,141.16981l11.95393,-8.59502l5.6744,5.86994l15.07319,-4.93982" fill="none" stroke="#8a2f00" stroke-width="3" stroke-linecap="round"/><path d="M488.02114,137.24368l10.61882,4.12962" fill="none" stroke="#8a2f00" stroke-width="3" stroke-linecap="round"/><path d="M476.4475,147.5834l3.87732,11.55817l-7.95395,3.66956" fill="none" stroke="#8a2f00" stroke-width="3" stroke-linecap="round"/><path d="M508.05148,132.91671l8.02803,-9.55823" fill="none" stroke="#8a2f00" stroke-width="3" stroke-linecap="round"/><path d="M519.18324,153.49535l-9.62837,-7.12584" fill="none" stroke="#8a2f00" stroke-width="3" stroke-linecap="round"/><path d="M513.0851,147.6485l2.89983,-7.51366" fill="none" stroke="#8a2f00" stroke-width="3" stroke-linecap="round"/><path d="M509.72092,128.11812l-9.79943,-4.46846" fill="none" stroke="#8a2f00" stroke-width="3" stroke-linecap="round"/><path d="M463.19711,127.12007l4.09695,-1.6942l5.7204,-0.31142" fill="none" stroke="#8a2f00" stroke-width="3" stroke-linecap="round"/></g></g></g></svg>