<svg version="1.1" xmlns="http://www.w3.org/2000/svg" xmlns:xlink="http://www.w3.org/1999/xlink" width="229.8909" height="331.22425" viewBox="0,0,229.8909,331.22425"><defs><linearGradient x1="272.15809" y1="325.9047" x2="272.15809" y2="341.01985" gradientUnits="userSpaceOnUse" id="color-1"><stop offset="0" stop-color="#1b1b1b"/><stop offset="1" stop-color="#b1b1b1"/></linearGradient><linearGradient x1="364.15809" y1="326.57137" x2="364.15809" y2="341.68652" gradientUnits="userSpaceOnUse" id="color-2"><stop offset="0" stop-color="#1b1b1b"/><stop offset="1" stop-color="#b1b1b1"/></linearGradient><linearGradient x1="303.49142" y1="325.9047" x2="303.49142" y2="341.01985" gradientUnits="userSpaceOnUse" id="color-3"><stop offset="0" stop-color="#1b1b1b"/><stop offset="1" stop-color="#b1b1b1"/></linearGradient><linearGradient x1="395.49142" y1="326.57137" x2="395.49142" y2="341.68652" gradientUnits="userSpaceOnUse" id="color-4"><stop offset="0" stop-color="#1b1b1b"/><stop offset="1" stop-color="#b1b1b1"/></linearGradient><linearGradient x1="332.82475" y1="325.9047" x2="332.82475" y2="341.01985" gradientUnits="userSpaceOnUse" id="color-5"><stop offset="0" stop-color="#1b1b1b"/><stop offset="1" stop-color="#b1b1b1"/></linearGradient><linearGradient x1="424.82475" y1="326.57137" x2="424.82475" y2="341.68652" gradientUnits="userSpaceOnUse" id="color-6"><stop offset="0" stop-color="#1b1b1b"/><stop offset="1" stop-color="#b1b1b1"/></linearGradient><linearGradient x1="282.82476" y1="325.9047" x2="282.82476" y2="341.01985" gradientUnits="userSpaceOnUse" id="color-7"><stop offset="0" stop-color="#1b1b1b"/><stop offset="1" stop-color="#b1b1b1"/></linearGradient><linearGradient x1="374.82476" y1="326.57137" x2="374.82476" y2="341.68652" gradientUnits="userSpaceOnUse" id="color-8"><stop offset="0" stop-color="#1b1b1b"/><stop offset="1" stop-color="#b1b1b1"/></linearGradient><linearGradient x1="314.15809" y1="325.9047" x2="314.15809" y2="341.01985" gradientUnits="userSpaceOnUse" id="color-9"><stop offset="0" stop-color="#1b1b1b"/><stop offset="1" stop-color="#b1b1b1"/></linearGradient><linearGradient x1="406.15809" y1="326.57137" x2="406.15809" y2="341.68652" gradientUnits="userSpaceOnUse" id="color-10"><stop offset="0" stop-color="#1b1b1b"/><stop offset="1" stop-color="#b1b1b1"/></linearGradient><linearGradient x1="343.49142" y1="325.9047" x2="343.49142" y2="341.01985" gradientUnits="userSpaceOnUse" id="color-11"><stop offset="0" stop-color="#1b1b1b"/><stop offset="1" stop-color="#b1b1b1"/></linearGradient><linearGradient x1="435.49142" y1="326.57137" x2="435.49142" y2="341.68652" gradientUnits="userSpaceOnUse" id="color-12"><stop offset="0" stop-color="#1b1b1b"/><stop offset="1" stop-color="#b1b1b1"/></linearGradient><linearGradient x1="456.15809" y1="326.57137" x2="456.15809" y2="341.68652" gradientUnits="userSpaceOnUse" id="color-13"><stop offset="0" stop-color="#1b1b1b"/><stop offset="1" stop-color="#b1b1b1"/></linearGradient><linearGradient x1="292.82476" y1="325.9047" x2="292.82476" y2="341.01985" gradientUnits="userSpaceOnUse" id="color-14"><stop offset="0" stop-color="#1b1b1b"/><stop offset="1" stop-color="#b1b1b1"/></linearGradient><linearGradient x1="384.82476" y1="326.57137" x2="384.82476" y2="341.68652" gradientUnits="userSpaceOnUse" id="color-15"><stop offset="0" stop-color="#1b1b1b"/><stop offset="1" stop-color="#b1b1b1"/></linearGradient><linearGradient x1="324.15809" y1="325.9047" x2="324.15809" y2="341.01985" gradientUnits="userSpaceOnUse" id="color-16"><stop offset="0" stop-color="#1b1b1b"/><stop offset="1" stop-color="#b1b1b1"/></linearGradient><linearGradient x1="416.15809" y1="326.57137" x2="416.15809" y2="341.68652" gradientUnits="userSpaceOnUse" id="color-17"><stop offset="0" stop-color="#1b1b1b"/><stop offset="1" stop-color="#b1b1b1"/></linearGradient><linearGradient x1="353.49142" y1="325.9047" x2="353.49142" y2="341.01985" gradientUnits="userSpaceOnUse" id="color-18"><stop offset="0" stop-color="#1b1b1b"/><stop offset="1" stop-color="#b1b1b1"/></linearGradient><linearGradient x1="445.49142" y1="326.57137" x2="445.49142" y2="341.68652" gradientUnits="userSpaceOnUse" id="color-19"><stop offset="0" stop-color="#1b1b1b"/><stop offset="1" stop-color="#b1b1b1"/></linearGradient><linearGradient x1="466.15809" y1="326.57137" x2="466.15809" y2="341.68652" gradientUnits="userSpaceOnUse" id="color-20"><stop offset="0" stop-color="#1b1b1b"/><stop offset="1" stop-color="#b1b1b1"/></linearGradient><linearGradient x1="379.15809" y1="67.46227" x2="379.15809" y2="86.79561" gradientUnits="userSpaceOnUse" id="color-21"><stop offset="0" stop-color="#1b1b1b"/><stop offset="1" stop-color="#b1b1b1"/></linearGradient><linearGradient x1="379.82476" y1="99.46227" x2="379.82476" y2="118.79561" gradientUnits="userSpaceOnUse" id="color-22"><stop offset="0" stop-color="#1b1b1b"/><stop offset="1" stop-color="#b1b1b1"/></linearGradient><linearGradient x1="379.15809" y1="78.12894" x2="379.15809" y2="97.46228" gradientUnits="userSpaceOnUse" id="color-23"><stop offset="0" stop-color="#1b1b1b"/><stop offset="1" stop-color="#b1b1b1"/></linearGradient><linearGradient x1="379.82476" y1="110.12894" x2="379.82476" y2="129.46228" gradientUnits="userSpaceOnUse" id="color-24"><stop offset="0" stop-color="#1b1b1b"/><stop offset="1" stop-color="#b1b1b1"/></linearGradient><linearGradient x1="379.15809" y1="88.12894" x2="379.15809" y2="107.46228" gradientUnits="userSpaceOnUse" id="color-25"><stop offset="0" stop-color="#1b1b1b"/><stop offset="1" stop-color="#b1b1b1"/></linearGradient><linearGradient x1="379.82476" y1="120.12894" x2="379.82476" y2="139.46228" gradientUnits="userSpaceOnUse" id="color-26"><stop offset="0" stop-color="#1b1b1b"/><stop offset="1" stop-color="#b1b1b1"/></linearGradient><linearGradient x1="253.49143" y1="10.46227" x2="253.49143" y2="29.79561" gradientUnits="userSpaceOnUse" id="color-27"><stop offset="0" stop-color="#1b1b1b"/><stop offset="1" stop-color="#b1b1b1"/></linearGradient><linearGradient x1="254.15809" y1="42.46227" x2="254.15809" y2="61.79561" gradientUnits="userSpaceOnUse" id="color-28"><stop offset="0" stop-color="#1b1b1b"/><stop offset="1" stop-color="#b1b1b1"/></linearGradient><linearGradient x1="253.49143" y1="21.12894" x2="253.49143" y2="40.46228" gradientUnits="userSpaceOnUse" id="color-29"><stop offset="0" stop-color="#1b1b1b"/><stop offset="1" stop-color="#b1b1b1"/></linearGradient><linearGradient x1="254.15809" y1="53.12894" x2="254.15809" y2="72.46228" gradientUnits="userSpaceOnUse" id="color-30"><stop offset="0" stop-color="#1b1b1b"/><stop offset="1" stop-color="#b1b1b1"/></linearGradient><linearGradient x1="253.49143" y1="31.12894" x2="253.49143" y2="50.46228" gradientUnits="userSpaceOnUse" id="color-31"><stop offset="0" stop-color="#1b1b1b"/><stop offset="1" stop-color="#b1b1b1"/></linearGradient><linearGradient x1="254.15809" y1="63.12894" x2="254.15809" y2="82.46228" gradientUnits="userSpaceOnUse" id="color-32"><stop offset="0" stop-color="#1b1b1b"/><stop offset="1" stop-color="#b1b1b1"/></linearGradient></defs><g transform="translate(-245.93386,-10.46227)"><g data-paper-data="{&quot;isPaintingLayer&quot;:true}" fill-rule="nonzero" stroke="none" stroke-linecap="butt" stroke-linejoin="miter" stroke-miterlimit="10" stroke-dasharray="" stroke-dashoffset="0" style="mix-blend-mode: normal"><path d="M262.49142,341.01985l9.84243,-15.11515l9.49091,15.11515z" fill="url(#color-1)" stroke-width="NaN"/><path d="M354.49142,341.68652l9.84243,-15.11515l9.49091,15.11515z" fill="url(#color-2)" stroke-width="NaN"/><path d="M293.82475,341.01985l9.84243,-15.11515l9.49091,15.11515z" fill="url(#color-3)" stroke-width="NaN"/><path d="M385.82475,341.68652l9.84243,-15.11515l9.49091,15.11515z" fill="url(#color-4)" stroke-width="NaN"/><path d="M323.15808,341.01985l9.84243,-15.11515l9.49091,15.11515z" fill="url(#color-5)" stroke-width="NaN"/><path d="M415.15808,341.68652l9.84243,-15.11515l9.49091,15.11515z" fill="url(#color-6)" stroke-width="NaN"/><path d="M273.15809,341.01985l9.84243,-15.11515l9.49091,15.11515z" fill="url(#color-7)" stroke-width="NaN"/><path d="M365.15809,341.68652l9.84243,-15.11515l9.49091,15.11515z" fill="url(#color-8)" stroke-width="NaN"/><path d="M304.49142,341.01985l9.84243,-15.11515l9.49091,15.11515z" fill="url(#color-9)" stroke-width="NaN"/><path d="M396.49142,341.68652l9.84243,-15.11515l9.49091,15.11515z" fill="url(#color-10)" stroke-width="NaN"/><path d="M333.82475,341.01985l9.84243,-15.11515l9.49091,15.11515z" fill="url(#color-11)" stroke-width="NaN"/><path d="M425.82475,341.68652l9.84243,-15.11515l9.49091,15.11515z" fill="url(#color-12)" stroke-width="NaN"/><path d="M446.49142,341.68652l9.84243,-15.11515l9.49091,15.11515z" fill="url(#color-13)" stroke-width="NaN"/><path d="M283.15809,341.01985l9.84243,-15.11515l9.49091,15.11515z" fill="url(#color-14)" stroke-width="NaN"/><path d="M375.15809,341.68652l9.84243,-15.11515l9.49091,15.11515z" fill="url(#color-15)" stroke-width="NaN"/><path d="M314.49142,341.01985l9.84243,-15.11515l9.49091,15.11515z" fill="url(#color-16)" stroke-width="NaN"/><path d="M406.49142,341.68652l9.84243,-15.11515l9.49091,15.11515z" fill="url(#color-17)" stroke-width="NaN"/><path d="M343.82475,341.01985l9.84243,-15.11515l9.49091,15.11515z" fill="url(#color-18)" stroke-width="NaN"/><path d="M435.82475,341.68652l9.84243,-15.11515l9.49091,15.11515z" fill="url(#color-19)" stroke-width="NaN"/><path d="M456.49142,341.68652l9.84243,-15.11515l9.49091,15.11515z" fill="url(#color-20)" stroke-width="NaN"/><path d="M386.71567,86.79561l-15.11515,-9.49091l15.11515,-9.84243z" data-paper-data="{&quot;index&quot;:null}" fill="url(#color-21)" stroke-width="NaN"/><path d="M387.38234,118.79561l-15.11515,-9.49091l15.11515,-9.84243z" data-paper-data="{&quot;index&quot;:null}" fill="url(#color-22)" stroke-width="NaN"/><path d="M386.71567,97.46228l-15.11515,-9.49091l15.11515,-9.84243z" data-paper-data="{&quot;index&quot;:null}" fill="url(#color-23)" stroke-width="NaN"/><path d="M387.38234,129.46228l-15.11515,-9.49091l15.11515,-9.84243z" data-paper-data="{&quot;index&quot;:null}" fill="url(#color-24)" stroke-width="NaN"/><path d="M386.71567,107.46228l-15.11515,-9.49091l15.11515,-9.84243z" data-paper-data="{&quot;index&quot;:null}" fill="url(#color-25)" stroke-width="NaN"/><path d="M387.38234,139.46228l-15.11515,-9.49091l15.11515,-9.84243z" data-paper-data="{&quot;index&quot;:null}" fill="url(#color-26)" stroke-width="NaN"/><path d="M261.04901,29.79561l-15.11515,-9.49091l15.11515,-9.84243z" data-paper-data="{&quot;index&quot;:null}" fill="url(#color-27)" stroke-width="NaN"/><path d="M261.71567,61.79561l-15.11515,-9.49091l15.11515,-9.84243z" data-paper-data="{&quot;index&quot;:null}" fill="url(#color-28)" stroke-width="NaN"/><path d="M261.04901,40.46228l-15.11515,-9.49091l15.11515,-9.84243z" data-paper-data="{&quot;index&quot;:null}" fill="url(#color-29)" stroke-width="NaN"/><path d="M261.71567,72.46228l-15.11515,-9.49091l15.11515,-9.84243z" data-paper-data="{&quot;index&quot;:null}" fill="url(#color-30)" stroke-width="NaN"/><path d="M261.04901,50.46228l-15.11515,-9.49091l15.11515,-9.84243z" data-paper-data="{&quot;index&quot;:null}" fill="url(#color-31)" stroke-width="NaN"/><path d="M261.71567,82.46228l-15.11515,-9.49091l15.11515,-9.84243z" data-paper-data="{&quot;index&quot;:null}" fill="url(#color-32)" stroke-width="NaN"/></g></g></svg>