<svg version="1.1" xmlns="http://www.w3.org/2000/svg" xmlns:xlink="http://www.w3.org/1999/xlink" width="655.07966" height="380.54274" viewBox="0,0,655.07966,380.54274"><g transform="translate(90.95646,11.11136)"><g data-paper-data="{&quot;isPaintingLayer&quot;:true}" fill-rule="nonzero" stroke-linejoin="miter" stroke-miterlimit="10" stroke-dasharray="" stroke-dashoffset="0" style="mix-blend-mode: normal"><g><path d="M106.0605,38.66983v38.45292c0,0 -17.60471,0 -26.42338,0c-8.84047,0 -26.55419,0 -26.55419,0v-38.45292z" fill="#676767" stroke="none" stroke-width="0" stroke-linecap="butt"/><path d="M53.96275,46.02422h51.14598" fill="none" stroke="#444444" stroke-width="2" stroke-linecap="round"/><path d="M53.96275,53.83427h51.14598" fill="none" stroke="#444444" stroke-width="2" stroke-linecap="round"/><path d="M53.96275,62.08829h51.14598" fill="none" stroke="#444444" stroke-width="2" stroke-linecap="round"/><path d="M105.96899,68.73311v8.35631h-52.80176v-8.35631z" fill="#c6c6c6" stroke="none" stroke-width="0" stroke-linecap="butt"/><path d="M53.05837,38.4537h7.05842v36.5865h-7.05842z" fill="#c6c6c6" stroke="none" stroke-width="0" stroke-linecap="butt"/><path d="M99.01538,38.61212h7.05842v36.5865h-7.05842z" fill="#c6c6c6" stroke="none" stroke-width="0" stroke-linecap="butt"/></g><g><path d="M274.72075,38.66983v38.45292c0,0 -17.60471,0 -26.42338,0c-8.84047,0 -26.55419,0 -26.55419,0v-38.45292z" fill="#676767" stroke="none" stroke-width="0" stroke-linecap="butt"/><path d="M222.623,46.02421h51.14598" fill="none" stroke="#444444" stroke-width="2" stroke-linecap="round"/><path d="M273.76898,53.83427h-51.14598" fill="none" stroke="#444444" stroke-width="2" stroke-linecap="round"/><path d="M222.623,62.08827h51.14598" fill="none" stroke="#444444" stroke-width="2" stroke-linecap="round"/><path d="M274.62924,68.73311v8.35631h-52.80176v-8.35631z" fill="#c6c6c6" stroke="none" stroke-width="0" stroke-linecap="butt"/><path d="M221.71862,38.4537h7.05842v36.5865h-7.05842z" fill="#c6c6c6" stroke="none" stroke-width="0" stroke-linecap="butt"/><path d="M267.67563,38.61212h7.05842v36.5865h-7.05842z" fill="#c6c6c6" stroke="none" stroke-width="0" stroke-linecap="butt"/></g><g><path d="M444.39042,38.66983v38.45292c0,0 -17.60471,0 -26.42338,0c-8.84047,0 -26.55419,0 -26.55419,0v-38.45292z" fill="#676767" stroke="none" stroke-width="0" stroke-linecap="butt"/><path d="M392.29267,46.02421h51.14598" fill="none" stroke="#444444" stroke-width="2" stroke-linecap="round"/><path d="M392.29267,53.83427h51.14598" fill="none" stroke="#444444" stroke-width="2" stroke-linecap="round"/><path d="M392.29267,62.08827h51.14598" fill="none" stroke="#444444" stroke-width="2" stroke-linecap="round"/><path d="M444.29891,68.73311v8.35631h-52.80176v-8.35631z" fill="#c6c6c6" stroke="none" stroke-width="0" stroke-linecap="butt"/><path d="M391.38829,38.4537h7.05842v36.5865h-7.05842z" fill="#c6c6c6" stroke="none" stroke-width="0" stroke-linecap="butt"/><path d="M437.3453,38.61212h7.05842v36.5865h-7.05842z" fill="#c6c6c6" stroke="none" stroke-width="0" stroke-linecap="butt"/></g><g><path d="M-10.42065,369.43139v-52c0,0 169.04446,0 253.41026,0c84.15775,0 252.1619,0 252.1619,0v52z" fill="#676767" stroke="none" stroke-width="0" stroke-linecap="butt"/><path d="M-2.02443,359.48603h488.0931" fill="none" stroke="#444444" stroke-width="2" stroke-linecap="round"/><path d="M486.06867,348.92448h-488.0931" fill="none" stroke="#444444" stroke-width="2" stroke-linecap="round"/><path d="M486.06872,337.76255h-488.0931" fill="none" stroke="#444444" stroke-width="2" stroke-linecap="round"/></g><g><path d="M-10.73021,337.22689v-52c0,0 169.04445,0 253.41026,0c84.15775,0 252.1619,0 252.1619,0v52z" fill="#676767" stroke="none" stroke-width="0" stroke-linecap="butt"/><path d="M-2.334,327.28153h488.0931" fill="none" stroke="#444444" stroke-width="2" stroke-linecap="round"/><path d="M-2.334,316.71997h488.0931" fill="none" stroke="#444444" stroke-width="2" stroke-linecap="round"/><path d="M485.75915,305.55805h-488.0931" fill="none" stroke="#444444" stroke-width="2" stroke-linecap="round"/></g><g><path d="M-12.91596,305.96047v-52c0,0 169.04446,0 253.41027,0c84.15775,0 252.1619,0 252.1619,0v52z" fill="#676767" stroke="none" stroke-width="0" stroke-linecap="butt"/><path d="M-4.51975,296.01509h488.0931" fill="none" stroke="#444444" stroke-width="2" stroke-linecap="round"/><path d="M483.57335,285.45354h-488.0931" fill="none" stroke="#444444" stroke-width="2" stroke-linecap="round"/><path d="M483.57341,274.29161h-488.0931" fill="none" stroke="#444444" stroke-width="2" stroke-linecap="round"/></g><g><path d="M-11.34653,274.69404v-52c0,0 169.04446,0 253.41026,0c84.15775,0 252.1619,0 252.1619,0v52z" fill="#676767" stroke="none" stroke-width="0" stroke-linecap="butt"/><path d="M-2.95032,264.74868h488.0931" fill="none" stroke="#444444" stroke-width="2" stroke-linecap="round"/><path d="M-2.95032,254.18714h488.0931" fill="none" stroke="#444444" stroke-width="2" stroke-linecap="round"/><path d="M485.14283,243.02521h-488.0931" fill="none" stroke="#444444" stroke-width="2" stroke-linecap="round"/></g><g><path d="M-15.40845,243.42762v-52c0,0 169.04446,0 253.41026,0c84.15775,0 252.1619,0 252.1619,0v52z" fill="#676767" stroke="none" stroke-width="0" stroke-linecap="butt"/><path d="M-7.01223,233.48228h488.0931" fill="none" stroke="#444444" stroke-width="2" stroke-linecap="round"/><path d="M-7.01223,222.92072h488.0931" fill="none" stroke="#444444" stroke-width="2" stroke-linecap="round"/><path d="M481.08092,211.7588h-488.0931" fill="none" stroke="#444444" stroke-width="2" stroke-linecap="round"/></g><g data-paper-data="{&quot;index&quot;:null}"><path d="M564.1232,-11.11136v52c0,0 -217.68626,0 -326.73109,0c-109.3144,0 -328.34857,0 -328.34857,0v-52z" fill="#676767" stroke="none" stroke-width="0" stroke-linecap="butt"/><path d="M552.35443,-1.16601h-632.43173" fill="none" stroke="#444444" stroke-width="2" stroke-linecap="round"/><path d="M-80.07731,9.39554h632.43173" fill="none" stroke="#444444" stroke-width="2" stroke-linecap="round"/><path d="M552.35443,20.55747h-632.43173" fill="none" stroke="#444444" stroke-width="2" stroke-linecap="round"/><path d="M562.99173,29.54328v11.30026h-652.90586v-11.30026z" fill="#c6c6c6" stroke="none" stroke-width="0" stroke-linecap="butt"/></g><g><path d="M-18.53227,211.22314v-52c0,0 169.04446,0 253.41027,0c84.15775,0 252.1619,0 252.1619,0v52z" fill="#676767" stroke="none" stroke-width="0" stroke-linecap="butt"/><path d="M-10.13606,201.27778h488.0931" fill="none" stroke="#444444" stroke-width="2" stroke-linecap="round"/><path d="M-10.13606,190.71621h488.0931" fill="none" stroke="#444444" stroke-width="2" stroke-linecap="round"/><path d="M477.95709,179.5543h-488.0931" fill="none" stroke="#444444" stroke-width="2" stroke-linecap="round"/><path d="M-17.72783,170.56847v-11.30026h503.89446v11.30026z" fill="#c6c6c6" stroke="none" stroke-width="0" stroke-linecap="butt"/></g></g></g></svg>