<svg version="1.1" xmlns="http://www.w3.org/2000/svg" xmlns:xlink="http://www.w3.org/1999/xlink" width="24.57714" height="88.03267" viewBox="0,0,24.57714,88.03267"><g transform="translate(-227.71143,-135.1554)"><g data-paper-data="{&quot;isPaintingLayer&quot;:true}" fill-rule="nonzero" stroke="none" stroke-width="0" stroke-linecap="butt" stroke-linejoin="miter" stroke-miterlimit="10" stroke-dasharray="" stroke-dashoffset="0" style="mix-blend-mode: normal"><path d="M227.71143,223.12171v-87.58399h24.57714v87.58399z" fill="#c6c6c6"/><path d="M235.977,223.18807v-88.03267h8.046v88.03267z" fill="#444444"/><path d="M231.00742,180c0,-4.96647 4.02612,-8.99258 8.99258,-8.99258c4.96647,0 8.99258,4.02612 8.99258,8.99258c0,4.96647 -4.02612,8.99258 -8.99258,8.99258c-4.96647,0 -8.99258,-4.02612 -8.99258,-8.99258z" fill="#444444"/><path d="M234.4388,180c0,-3.07137 2.48984,-5.5612 5.5612,-5.5612c3.07137,0 5.5612,2.48984 5.5612,5.5612c0,3.07137 -2.48984,5.5612 -5.5612,5.5612c-3.07137,0 -5.5612,-2.48984 -5.5612,-5.5612z" fill="#9eb300"/></g></g></svg>