<svg version="1.1" xmlns="http://www.w3.org/2000/svg" xmlns:xlink="http://www.w3.org/1999/xlink" width="607.31245" height="364" viewBox="0,0,607.31245,364"><g transform="translate(58.87205,0.97661)"><g data-paper-data="{&quot;isPaintingLayer&quot;:true}" fill-rule="nonzero" stroke-linejoin="miter" stroke-miterlimit="10" stroke-dasharray="" stroke-dashoffset="0" style="mix-blend-mode: normal"><g><g><path d="M0.3056,359.27889v-52c0,0 32.43318,0 48.61976,0c16.14666,0 48.38025,0 48.38025,0v52z" fill="#5f2e00" stroke="none" stroke-width="0" stroke-linecap="butt"/><path d="M0.44967,321.19561l-0.02174,-12.92532l97.10857,-0.27278l-0.27278,14.45717l-96.06898,-0.14148l3.91159,4.09785l5.40171,0.5588l6.89184,3.16652l5.58798,-2.23519l8.19571,-0.37253l4.47038,-1.86266l11.73477,3.53905l3.72532,4.28412l8.94077,-3.72532l3.53905,-3.91159l8.94078,0.55879l6.51931,-1.86266l8.00944,3.72532l4.84292,-2.42145l5.40171,-2.79399" fill="#0f820e" stroke="#0f820e" stroke-width="2" stroke-linecap="round"/><path d="M7.61259,323.14266c-1.89698,0.7355 -8.98589,-0.64728 -6.99748,-4.12699c0.92606,-1.62061 6.97496,-1.82238 7.63041,-0.16817c0.5724,0.45814 0.939,1.16269 0.939,1.95288c0,0.94257 -0.52163,1.76331 -1.29197,2.18928c-0.08483,0.06162 -0.17759,0.11332 -0.27995,0.15301z" fill="#0f820e" stroke="none" stroke-width="0.5" stroke-linecap="butt"/></g><path d="M41.10739,322.40676c-1.76415,1.72203 -1.6966,3.10795 -4.95391,2.45071c-1.96216,-0.39591 -3.90008,-0.91088 -5.86947,-1.26908c-3.64498,-0.66296 -7.89864,-0.53945 -11.93937,-0.47088c-0.8749,1.14529 -3.12135,1.7947 -6.63882,0.91533h-0.30776c-0.48069,-0.12017 -0.91877,-0.25465 -1.31577,-0.40071c-1.94459,0.24672 -3.82367,0.29378 -5.29563,-0.80489c-4.92709,-3.6776 -0.56774,-6.3165 3.97018,-5.79837c3.64182,0.41582 6.68551,0.45253 10.18304,0.30442c3.16475,-0.13403 8.79642,0.07691 12.00205,0.16218c2.06174,0.05484 4.12315,0.18695 6.18541,0.15768c2.45615,-0.03485 10.40002,-0.45442 13.94164,-0.27918c0.14646,-0.02672 0.29737,-0.04067 0.45155,-0.04067c0.34932,0 0.68191,0.07164 0.98387,0.20104c0.89156,0.38205 1.51613,1.26757 1.51613,2.29896c0,1.38071 -1.11929,2.5 -2.5,2.5c-0.16666,0 -0.32951,-0.01631 -0.48705,-0.04742c-3.12768,0.5682 -6.78761,-2.94265 -9.92608,0.12089z" fill="#0f820e" stroke="none" stroke-width="0.5" stroke-linecap="butt"/></g><g><g><path d="M97.0518,359.3723v-52.32258c0,0 32.43318,2.5 48.61976,2.5c16.14666,0 48.38025,-2.5 48.38025,-2.5v52.32258z" fill="#5f2e00" stroke="none" stroke-width="0" stroke-linecap="butt"/><path d="M97.19587,321.05277l-0.02174,-13.0055l97.10857,-0.27447l-0.27278,14.54685l-96.06898,-0.14236l3.91159,4.12327l5.40171,0.56227l6.89184,3.18616l5.58798,-2.24906l8.19571,-0.37484l4.47038,0.62579l11.73477,3.561l3.72532,4.3107l8.94077,-3.74843l3.53905,-3.93586l8.94078,-1.93774l6.51931,-1.87421l8.00944,3.74843l4.84292,-2.43647l5.40171,-2.81132" fill="#0f820e" stroke="#0f820e" stroke-width="2" stroke-linecap="round"/><path d="M104.35878,323.0119c-1.89698,0.74006 -8.98589,-0.65129 -6.99748,-4.15259c0.92606,-1.63066 6.97496,-1.83369 7.6304,-0.16922c0.5724,0.46098 0.939,1.1699 0.939,1.96499c0,0.94842 -0.52163,1.77425 -1.29197,2.20287c-0.08483,0.062 -0.17759,0.11402 -0.27995,0.15395z" fill="#0f820e" stroke="none" stroke-width="0.5" stroke-linecap="butt"/></g><path d="M137.85358,324.77143c-1.76415,1.73272 -1.6966,3.12724 -4.95391,2.46591c-1.96215,-0.39837 -3.90009,-3.41653 -5.86948,-3.77695c-3.64498,-0.66707 -7.89864,-0.5428 -11.93937,-0.4738c-0.8749,1.1524 -3.12135,1.80582 -6.63882,0.921h-0.30777c-0.48068,-0.12092 -0.91876,-0.25623 -1.31577,-0.40319c-1.94459,0.24825 -3.82367,0.29561 -5.29563,-0.80988c-4.92709,-3.70041 -0.56774,-6.35569 3.97018,-5.83434c3.64181,0.4184 6.68551,0.45534 10.18305,0.3063c3.16475,-0.13486 8.79642,0.07739 12.00205,0.16318c2.06175,0.05518 4.12314,2.68811 6.18541,2.65866c2.45615,-0.03507 10.40002,-0.45724 13.94164,-0.28092c0.14646,-0.02688 0.29737,-0.04093 0.45155,-0.04093c0.34932,0 0.68191,0.07209 0.98387,0.20229c0.89156,0.38443 1.51613,1.27543 1.51613,2.31322c0,1.38928 -1.11929,2.51551 -2.5,2.51551c-0.16666,0 -0.32951,-0.01641 -0.48705,-0.04771c-3.12768,0.57172 -6.78761,-2.96091 -9.92608,0.12164z" fill="#0f820e" stroke="none" stroke-width="0.5" stroke-linecap="butt"/></g><g><g><path d="M193.3056,359.27879v-52.49692c0,0 32.43318,0 48.61976,0c16.14666,0 48.38025,0 48.38025,0v52.49692z" fill="#5f2e00" stroke="none" stroke-width="0" stroke-linecap="butt"/><path d="M193.44967,320.83159l-0.02174,-13.04884l97.10857,-0.27539l-0.27278,14.59532l-96.06898,-0.14283l3.91159,4.13701l5.40171,0.56414l6.89184,3.19678l5.58798,-2.25655l8.19571,-0.37609l4.47038,-1.88046l11.73477,3.57287l3.72532,4.32506l8.94077,-3.76092l3.53905,-3.94897l8.94078,0.56413l6.51931,-1.88046l8.00944,3.76092l4.84292,-2.44459l5.40171,-2.82069" fill="#0f820e" stroke="#0f820e" stroke-width="2" stroke-linecap="round"/><path d="M200.61259,322.79724c-1.89698,0.74253 -8.98589,-0.65347 -6.99748,-4.16643c0.92606,-1.6361 6.97496,-1.83979 7.63041,-0.16978c0.5724,0.46252 0.939,1.1738 0.939,1.97154c0,0.95158 -0.52163,1.78016 -1.29197,2.2102c-0.08483,0.06221 -0.17759,0.1144 -0.27995,0.15447z" fill="#0f820e" stroke="none" stroke-width="0.5" stroke-linecap="butt"/></g><path d="M234.10739,322.05431c-1.76415,1.73849 -1.6966,3.13765 -4.95391,2.47413c-1.96216,-0.39969 -3.90008,-0.91958 -5.86947,-1.28121c-3.64498,-0.6693 -7.89864,-0.54461 -11.93937,-0.47538c-0.8749,1.15623 -3.12135,1.81185 -6.63882,0.92408h-0.30776c-0.48069,-0.12132 -0.91877,-0.25708 -1.31577,-0.40454c-1.94459,0.24908 -3.82367,0.29659 -5.29563,-0.81258c-4.92709,-3.71274 -0.56774,-6.37686 3.97018,-5.85378c3.64182,0.41979 6.68551,0.45685 10.18304,0.30733c3.16475,-0.13531 8.79642,0.07764 12.00205,0.16373c2.06174,0.05536 4.12315,0.18874 6.18541,0.15919c2.45615,-0.03518 10.40002,-0.45876 13.94164,-0.28185c0.14646,-0.02698 0.29737,-0.04106 0.45155,-0.04106c0.34932,0 0.68191,0.07232 0.98387,0.20296c0.89156,0.3857 1.51613,1.27968 1.51613,2.32093c0,1.3939 -1.11929,2.52389 -2.5,2.52389c-0.16666,0 -0.32951,-0.01647 -0.48705,-0.04787c-3.12768,0.57363 -6.78761,-2.97077 -9.92608,0.12205z" fill="#0f820e" stroke="none" stroke-width="0.5" stroke-linecap="butt"/></g><g><g><path d="M353.6907,283.78897v-52.82258c0,0 32.43318,0 48.61976,0c16.14666,0 48.38025,0 48.38025,0v52.82258z" fill="#5f2e00" stroke="none" stroke-width="0" stroke-linecap="butt"/><path d="M353.83477,245.10325l-0.02174,-13.12978l97.10857,-0.27709l-0.27278,14.68586l-96.06898,-0.14372l3.91159,4.16267l5.40171,0.56764l6.89184,3.21661l5.58798,-2.27055l8.19571,-0.37842l4.47038,-1.89212l11.73477,3.59503l3.72532,4.35189l8.94077,-3.78425l3.53905,-3.97347l8.94078,0.56763l6.51931,-1.89212l8.00944,3.78425l4.84292,-2.45975l5.40171,-2.83819" fill="#0f820e" stroke="#0f820e" stroke-width="2" stroke-linecap="round"/><path d="M360.99768,247.08111c-1.89698,0.74713 -8.98589,-0.65751 -6.99748,-4.19227c0.92606,-1.64624 6.97496,-1.85121 7.6304,-0.17084c0.5724,0.46539 0.939,1.18108 0.939,1.98377c0,0.95748 -0.52163,1.7912 -1.29197,2.22392c-0.08483,0.06259 -0.17759,0.11511 -0.27995,0.15542z" fill="#0f820e" stroke="none" stroke-width="0.5" stroke-linecap="butt"/></g><path d="M394.49248,246.33356c-1.76415,1.74928 -1.6966,3.15712 -4.95391,2.48947c-1.96215,-0.40218 -3.90009,-0.92529 -5.86948,-1.28915c-3.64498,-0.67344 -7.89864,-0.54799 -11.93937,-0.47833c-0.8749,1.16341 -3.12135,1.82308 -6.63882,0.9298h-0.30777c-0.48068,-0.12208 -0.91876,-0.25868 -1.31577,-0.40704c-1.94459,0.25062 -3.82367,0.29843 -5.29563,-0.81762c-4.92709,-3.73577 -0.56774,-6.41643 3.97018,-5.89009c3.64181,0.4224 6.68551,0.45969 10.18305,0.30923c3.16475,-0.13615 8.79642,0.07813 12.00205,0.16474c2.06175,0.05571 4.12314,0.18991 6.18541,0.16018c2.45615,-0.03541 10.40002,-0.46161 13.94164,-0.2836c0.14646,-0.02714 0.29737,-0.04132 0.45155,-0.04132c0.34932,0 0.68191,0.07278 0.98387,0.20422c0.89156,0.3881 1.51613,1.28762 1.51613,2.33533c0,1.40256 -1.11929,2.53955 -2.5,2.53955c-0.16666,0 -0.32951,-0.01657 -0.48705,-0.04817c-3.12768,0.57718 -6.78761,-2.9892 -9.92608,0.1228z" fill="#0f820e" stroke="none" stroke-width="0.5" stroke-linecap="butt"/></g><g><g><path d="M450.1907,283.78897v-52.82258c0,0 32.43318,0 48.61976,0c16.14666,0 48.38025,0 48.38025,0v52.82258z" fill="#5f2e00" stroke="none" stroke-width="0" stroke-linecap="butt"/><path d="M450.33477,245.10325l-0.02174,-13.12978l97.10857,-0.27709l-0.27278,14.68586l-96.06898,-0.14372l3.91159,4.16267l5.40171,0.56764l6.89184,3.21661l5.58798,-2.27055l8.19571,-0.37842l4.47038,-1.89212l11.73477,3.59503l3.72532,4.35189l8.94077,-3.78425l3.53905,-3.97347l8.94078,0.56763l6.51931,-1.89212l8.00944,3.78425l4.84292,-2.45975l5.40171,-2.83819" fill="#0f820e" stroke="#0f820e" stroke-width="2" stroke-linecap="round"/><path d="M457.49768,247.08111c-1.89698,0.74713 -8.98589,-0.65751 -6.99748,-4.19227c0.92606,-1.64624 6.97496,-1.85121 7.6304,-0.17084c0.5724,0.46539 0.939,1.18108 0.939,1.98377c0,0.95748 -0.52163,1.7912 -1.29197,2.22392c-0.08483,0.06259 -0.17759,0.11511 -0.27995,0.15542z" fill="#0f820e" stroke="none" stroke-width="0.5" stroke-linecap="butt"/></g><path d="M490.99248,246.33356c-1.76415,1.74928 -1.6966,3.15712 -4.95391,2.48947c-1.96215,-0.40218 -3.90009,-0.92529 -5.86948,-1.28915c-3.64498,-0.67344 -7.89864,-0.54799 -11.93937,-0.47833c-0.8749,1.16341 -3.12135,1.82308 -6.63882,0.9298h-0.30777c-0.48068,-0.12208 -0.91876,-0.25868 -1.31577,-0.40704c-1.94459,0.25062 -3.82367,0.29843 -5.29563,-0.81762c-4.92709,-3.73577 -0.56774,-6.41643 3.97018,-5.89009c3.64181,0.4224 6.68551,0.45969 10.18305,0.30923c3.16475,-0.13615 8.79642,0.07813 12.00205,0.16474c2.06175,0.05571 4.12314,0.18991 6.18541,0.16018c2.45615,-0.03541 10.40002,-0.46161 13.94164,-0.2836c0.14646,-0.02714 0.29737,-0.04132 0.45155,-0.04132c0.34932,0 0.68191,0.07278 0.98387,0.20422c0.89156,0.3881 1.51613,1.28762 1.51613,2.33533c0,1.40256 -1.11929,2.53955 -2.5,2.53955c-0.16666,0 -0.32951,-0.01657 -0.48705,-0.04817c-3.12768,0.57718 -6.78761,-2.9892 -9.92608,0.1228z" fill="#0f820e" stroke="none" stroke-width="0.5" stroke-linecap="butt"/></g><g><g><path d="M306.1907,321.28897v-52.82258c0,0 32.43318,0 48.61976,0c16.14666,0 48.38025,0 48.38025,0v52.82258z" fill="#5f2e00" stroke="none" stroke-width="0" stroke-linecap="butt"/><path d="M306.33477,282.60325l-0.02174,-13.12978l97.10857,-0.27709l-0.27278,14.68586l-96.06898,-0.14372l3.91159,4.16267l5.40171,0.56764l6.89184,3.21661l5.58798,-2.27055l8.19571,-0.37842l4.47038,-1.89212l11.73477,3.59503l3.72532,4.35189l8.94077,-3.78425l3.53905,-3.97347l8.94078,0.56763l6.51931,-1.89212l8.00944,3.78425l4.84292,-2.45975l5.40171,-2.83819" fill="#0f820e" stroke="#0f820e" stroke-width="2" stroke-linecap="round"/><path d="M313.49768,284.58111c-1.89698,0.74713 -8.98589,-0.65751 -6.99748,-4.19227c0.92606,-1.64624 6.97496,-1.85121 7.6304,-0.17084c0.5724,0.46539 0.939,1.18108 0.939,1.98377c0,0.95748 -0.52163,1.7912 -1.29197,2.22392c-0.08483,0.06259 -0.17759,0.11511 -0.27995,0.15542z" fill="#0f820e" stroke="none" stroke-width="0.5" stroke-linecap="butt"/></g><path d="M346.99248,283.83356c-1.76415,1.74928 -1.6966,3.15712 -4.95391,2.48947c-1.96215,-0.40218 -3.90009,-0.92529 -5.86948,-1.28915c-3.64498,-0.67344 -7.89864,-0.54799 -11.93937,-0.47833c-0.8749,1.16341 -3.12135,1.82308 -6.63882,0.9298h-0.30777c-0.48068,-0.12208 -0.91876,-0.25868 -1.31577,-0.40704c-1.94459,0.25062 -3.82367,0.29843 -5.29563,-0.81762c-4.92709,-3.73577 -0.56774,-6.41643 3.97018,-5.89009c3.64181,0.4224 6.68551,0.45969 10.18305,0.30923c3.16475,-0.13615 8.79642,0.07813 12.00205,0.16474c2.06175,0.05571 4.12314,0.18991 6.18541,0.16018c2.45615,-0.03541 10.40002,-0.46161 13.94164,-0.2836c0.14646,-0.02714 0.29737,-0.04132 0.45155,-0.04132c0.34932,0 0.68191,0.07278 0.98387,0.20422c0.89156,0.3881 1.51613,1.28762 1.51613,2.33533c0,1.40256 -1.11929,2.53955 -2.5,2.53955c-0.16666,0 -0.32951,-0.01657 -0.48705,-0.04817c-3.12768,0.57718 -6.78761,-2.9892 -9.92608,0.1228z" fill="#0f820e" stroke="none" stroke-width="0.5" stroke-linecap="butt"/></g><g><g><path d="M289.69068,359.28897v-52.82258c0,0 32.43318,0 48.61976,0c16.14666,0 48.38025,0 48.38025,0v52.82258z" fill="#5f2e00" stroke="none" stroke-width="0" stroke-linecap="butt"/><path d="M289.83475,320.60325l-0.02174,-13.12978l97.10857,-0.27709l-0.27278,14.68586l-96.06898,-0.14372l3.91159,4.16267l5.40171,0.56764l6.89184,3.21661l5.58798,-2.27055l8.19571,-0.37842l4.47038,-1.89212l11.73477,3.59503l3.72532,4.35189l8.94077,-3.78425l3.53905,-3.97347l8.94078,0.56763l6.51931,-1.89212l8.00944,3.78425l4.84292,-2.45975l5.40171,-2.83819" fill="#0f820e" stroke="#0f820e" stroke-width="2" stroke-linecap="round"/><path d="M296.99767,322.58111c-1.89698,0.74713 -8.98589,-0.65751 -6.99748,-4.19227c0.92606,-1.64624 6.97496,-1.85121 7.6304,-0.17084c0.5724,0.46539 0.939,1.18108 0.939,1.98377c0,0.95748 -0.52163,1.7912 -1.29197,2.22392c-0.08483,0.06259 -0.17759,0.11511 -0.27995,0.15542z" fill="#0f820e" stroke="none" stroke-width="0.5" stroke-linecap="butt"/></g><path d="M330.49247,321.83356c-1.76415,1.74928 -1.6966,3.15712 -4.95391,2.48947c-1.96215,-0.40218 -3.90009,-0.92529 -5.86948,-1.28915c-3.64498,-0.67344 -7.89864,-0.54799 -11.93937,-0.47833c-0.8749,1.16341 -3.12135,1.82308 -6.63882,0.9298h-0.30777c-0.48068,-0.12208 -0.91876,-0.25868 -1.31577,-0.40704c-1.94459,0.25062 -3.82367,0.29843 -5.29563,-0.81762c-4.92709,-3.73577 -0.56774,-6.41643 3.97018,-5.89009c3.64181,0.4224 6.68551,0.45969 10.18305,0.30923c3.16475,-0.13615 8.79642,0.07813 12.00205,0.16474c2.06175,0.05571 4.12314,0.18991 6.18541,0.16018c2.45615,-0.03541 10.40002,-0.46161 13.94164,-0.2836c0.14646,-0.02714 0.29737,-0.04132 0.45155,-0.04132c0.34932,0 0.68191,0.07278 0.98387,0.20422c0.89156,0.3881 1.51613,1.28762 1.51613,2.33533c0,1.40256 -1.11929,2.53955 -2.5,2.53955c-0.16666,0 -0.32951,-0.01657 -0.48705,-0.04817c-3.12768,0.57718 -6.78761,-2.9892 -9.92608,0.1228z" fill="#0f820e" stroke="none" stroke-width="0.5" stroke-linecap="butt"/></g><g><g><path d="M402.6907,321.28897v-52.82258c0,0 32.43318,0 48.61976,0c16.14666,0 48.38025,0 48.38025,0v52.82258z" fill="#5f2e00" stroke="none" stroke-width="0" stroke-linecap="butt"/><path d="M402.83477,282.60325l-0.02174,-13.12978l97.10857,-0.27709l-0.27278,14.68586l-96.06898,-0.14372l3.91159,4.16267l5.40171,0.56764l6.89184,3.21661l5.58798,-2.27055l8.19571,-0.37842l4.47038,-1.89212l11.73477,3.59503l3.72532,4.35189l8.94077,-3.78425l3.53905,-3.97347l8.94078,0.56763l6.51931,-1.89212l8.00944,3.78425l4.84292,-2.45975l5.40171,-2.83819" fill="#0f820e" stroke="#0f820e" stroke-width="2" stroke-linecap="round"/><path d="M409.99768,284.58111c-1.89698,0.74713 -8.98589,-0.65751 -6.99748,-4.19227c0.92606,-1.64624 6.97496,-1.85121 7.6304,-0.17084c0.5724,0.46539 0.939,1.18108 0.939,1.98377c0,0.95748 -0.52163,1.7912 -1.29197,2.22392c-0.08483,0.06259 -0.17759,0.11511 -0.27995,0.15542z" fill="#0f820e" stroke="none" stroke-width="0.5" stroke-linecap="butt"/></g><path d="M443.49248,283.83356c-1.76415,1.74928 -1.6966,3.15712 -4.95391,2.48947c-1.96215,-0.40218 -3.90009,-0.92529 -5.86948,-1.28915c-3.64498,-0.67344 -7.89864,-0.54799 -11.93937,-0.47833c-0.8749,1.16341 -3.12135,1.82308 -6.63882,0.9298h-0.30777c-0.48068,-0.12208 -0.91876,-0.25868 -1.31577,-0.40704c-1.94459,0.25062 -3.82367,0.29843 -5.29563,-0.81762c-4.92709,-3.73577 -0.56774,-6.41643 3.97018,-5.89009c3.64181,0.4224 6.68551,0.45969 10.18305,0.30923c3.16475,-0.13615 8.79642,0.07813 12.00205,0.16474c2.06175,0.05571 4.12314,0.18991 6.18541,0.16018c2.45615,-0.03541 10.40002,-0.46161 13.94164,-0.2836c0.14646,-0.02714 0.29737,-0.04132 0.45155,-0.04132c0.34932,0 0.68191,0.07278 0.98387,0.20422c0.89156,0.3881 1.51613,1.28762 1.51613,2.33533c0,1.40256 -1.11929,2.53955 -2.5,2.53955c-0.16666,0 -0.32951,-0.01657 -0.48705,-0.04817c-3.12768,0.57718 -6.78761,-2.9892 -9.92608,0.1228z" fill="#0f820e" stroke="none" stroke-width="0.5" stroke-linecap="butt"/></g><g><g><path d="M386.1907,359.28897v-52.82258c0,0 32.43318,0 48.61976,0c16.14666,0 48.38025,0 48.38025,0v52.82258z" fill="#5f2e00" stroke="none" stroke-width="0" stroke-linecap="butt"/><path d="M386.33477,320.60325l-0.02174,-13.12978l97.10857,-0.27709l-0.27278,14.68586l-96.06898,-0.14372l3.91159,4.16267l5.40171,0.56764l6.89184,3.21661l5.58798,-2.27055l8.19571,-0.37842l4.47038,-1.89212l11.73477,3.59503l3.72532,4.35189l8.94077,-3.78425l3.53905,-3.97347l8.94078,0.56763l6.51931,-1.89212l8.00944,3.78425l4.84292,-2.45975l5.40171,-2.83819" fill="#0f820e" stroke="#0f820e" stroke-width="2" stroke-linecap="round"/><path d="M393.49768,322.58111c-1.89698,0.74713 -8.98589,-0.65751 -6.99748,-4.19227c0.92606,-1.64624 6.97496,-1.85121 7.6304,-0.17084c0.5724,0.46539 0.939,1.18108 0.939,1.98377c0,0.95748 -0.52163,1.7912 -1.29197,2.22392c-0.08483,0.06259 -0.17759,0.11511 -0.27995,0.15542z" fill="#0f820e" stroke="none" stroke-width="0.5" stroke-linecap="butt"/></g><path d="M426.99248,321.83356c-1.76415,1.74928 -1.6966,3.15712 -4.95391,2.48947c-1.96215,-0.40218 -3.90009,-0.92529 -5.86948,-1.28915c-3.64498,-0.67344 -7.89864,-0.54799 -11.93937,-0.47833c-0.8749,1.16341 -3.12135,1.82308 -6.63882,0.9298h-0.30777c-0.48068,-0.12208 -0.91876,-0.25868 -1.31577,-0.40704c-1.94459,0.25062 -3.82367,0.29843 -5.29563,-0.81762c-4.92709,-3.73577 -0.56774,-6.41643 3.97018,-5.89009c3.64181,0.4224 6.68551,0.45969 10.18305,0.30923c3.16475,-0.13615 8.79642,0.07813 12.00205,0.16474c2.06175,0.05571 4.12314,0.18991 6.18541,0.16018c2.45615,-0.03541 10.40002,-0.46161 13.94164,-0.2836c0.14646,-0.02714 0.29737,-0.04132 0.45155,-0.04132c0.34932,0 0.68191,0.07278 0.98387,0.20422c0.89156,0.3881 1.51613,1.28762 1.51613,2.33533c0,1.40256 -1.11929,2.53955 -2.5,2.53955c-0.16666,0 -0.32951,-0.01657 -0.48705,-0.04817c-3.12768,0.57718 -6.78761,-2.9892 -9.92608,0.1228z" fill="#0f820e" stroke="none" stroke-width="0.5" stroke-linecap="butt"/></g><g><g><path d="M134.19069,208.28897v-52.82258c0,0 32.43318,0 48.61976,0c16.14666,0 48.38025,0 48.38025,0v52.82258z" fill="#5f2e00" stroke="none" stroke-width="0" stroke-linecap="butt"/><path d="M134.33476,169.60325l-0.02174,-13.12978l97.10857,-0.27709l-0.27278,14.68586l-96.06898,-0.14372l3.91159,4.16267l5.40171,0.56764l6.89184,3.21661l5.58798,-2.27055l8.19571,-0.37842l4.47038,-1.89212l11.73477,3.59503l3.72532,4.35189l8.94077,-3.78425l3.53905,-3.97347l8.94078,0.56763l6.51931,-1.89212l8.00944,3.78425l4.84292,-2.45975l5.40171,-2.83819" fill="#0f820e" stroke="#0f820e" stroke-width="2" stroke-linecap="round"/><path d="M141.49767,171.58111c-1.89698,0.74713 -8.98589,-0.65751 -6.99748,-4.19227c0.92606,-1.64624 6.97496,-1.85121 7.6304,-0.17084c0.5724,0.46539 0.939,1.18108 0.939,1.98377c0,0.95748 -0.52163,1.7912 -1.29197,2.22392c-0.08483,0.06259 -0.17759,0.11511 -0.27995,0.15542z" fill="#0f820e" stroke="none" stroke-width="0.5" stroke-linecap="butt"/></g><path d="M174.99248,170.83356c-1.76415,1.74928 -1.6966,3.15712 -4.95391,2.48947c-1.96215,-0.40218 -3.90009,-0.92529 -5.86948,-1.28915c-3.64498,-0.67344 -7.89864,-0.54799 -11.93937,-0.47833c-0.8749,1.16341 -3.12135,1.82308 -6.63882,0.9298h-0.30777c-0.48068,-0.12208 -0.91876,-0.25868 -1.31577,-0.40704c-1.94459,0.25062 -3.82367,0.29843 -5.29563,-0.81762c-4.92709,-3.73577 -0.56774,-6.41643 3.97018,-5.89009c3.64181,0.4224 6.68551,0.45969 10.18305,0.30923c3.16475,-0.13615 8.79642,0.07813 12.00205,0.16474c2.06175,0.05571 4.12314,0.18991 6.18541,0.16018c2.45615,-0.03541 10.40002,-0.46161 13.94164,-0.2836c0.14646,-0.02714 0.29737,-0.04132 0.45155,-0.04132c0.34932,0 0.68191,0.07278 0.98387,0.20422c0.89156,0.3881 1.51613,1.28762 1.51613,2.33533c0,1.40256 -1.11929,2.53955 -2.5,2.53955c-0.16666,0 -0.32951,-0.01657 -0.48705,-0.04817c-3.12768,0.57718 -6.78761,-2.9892 -9.92608,0.1228z" fill="#0f820e" stroke="none" stroke-width="0.5" stroke-linecap="butt"/></g><g><g><path d="M38.1907,208.28897v-52.82258c0,0 32.43318,0 48.61976,0c16.14666,0 48.38025,0 48.38025,0v52.82258z" fill="#5f2e00" stroke="none" stroke-width="0" stroke-linecap="butt"/><path d="M38.33476,169.60325l-0.02174,-13.12978l97.10857,-0.27709l-0.27278,14.68586l-96.06898,-0.14372l3.91159,4.16267l5.40171,0.56764l6.89184,3.21661l5.58798,-2.27055l8.19571,-0.37842l4.47038,-1.89212l11.73477,3.59503l3.72532,4.35189l8.94077,-3.78425l3.53905,-3.97347l8.94078,0.56763l6.51931,-1.89212l8.00944,3.78425l4.84292,-2.45975l5.40171,-2.83819" fill="#0f820e" stroke="#0f820e" stroke-width="2" stroke-linecap="round"/><path d="M45.49767,171.58111c-1.89698,0.74713 -8.98589,-0.65751 -6.99748,-4.19227c0.92606,-1.64624 6.97496,-1.85121 7.6304,-0.17084c0.5724,0.46539 0.939,1.18108 0.939,1.98377c0,0.95748 -0.52163,1.7912 -1.29197,2.22392c-0.08483,0.06259 -0.17759,0.11511 -0.27995,0.15542z" fill="#0f820e" stroke="none" stroke-width="0.5" stroke-linecap="butt"/></g><path d="M78.99248,170.83356c-1.76415,1.74928 -1.6966,3.15712 -4.95391,2.48947c-1.96215,-0.40218 -3.90009,-0.92529 -5.86948,-1.28915c-3.64498,-0.67344 -7.89864,-0.54799 -11.93937,-0.47833c-0.8749,1.16341 -3.12135,1.82308 -6.63882,0.9298h-0.30777c-0.48068,-0.12208 -0.91876,-0.25868 -1.31577,-0.40704c-1.94459,0.25062 -3.82367,0.29843 -5.29563,-0.81762c-4.92709,-3.73577 -0.56774,-6.41643 3.97018,-5.89009c3.64181,0.4224 6.68551,0.45969 10.18305,0.30923c3.16475,-0.13615 8.79642,0.07813 12.00205,0.16474c2.06175,0.05571 4.12314,0.18991 6.18541,0.16018c2.45615,-0.03541 10.40002,-0.46161 13.94164,-0.2836c0.14646,-0.02714 0.29737,-0.04132 0.45155,-0.04132c0.34932,0 0.68191,0.07278 0.98387,0.20422c0.89156,0.3881 1.51613,1.28762 1.51613,2.33533c0,1.40256 -1.11929,2.53955 -2.5,2.53955c-0.16666,0 -0.32951,-0.01657 -0.48705,-0.04817c-3.12768,0.57718 -6.78761,-2.9892 -9.92608,0.1228z" fill="#0f820e" stroke="none" stroke-width="0.5" stroke-linecap="butt"/></g><g><g><path d="M-57.44602,208.28897v-52.82258c0,0 32.43318,0 48.61976,0c16.14666,0 48.38025,0 48.38025,0v52.82258z" fill="#5f2e00" stroke="none" stroke-width="0" stroke-linecap="butt"/><path d="M-57.30195,169.60325l-0.02174,-13.12978l97.10857,-0.27709l-0.27278,14.68586l-96.06898,-0.14372l3.91159,4.16267l5.40171,0.56764l6.89184,3.21661l5.58798,-2.27055l8.19571,-0.37842l4.47038,-1.89212l11.73477,3.59503l3.72532,4.35189l8.94077,-3.78425l3.53905,-3.97347l8.94078,0.56763l6.51931,-1.89212l8.00944,3.78425l4.84292,-2.45975l5.40171,-2.83819" fill="#0f820e" stroke="#0f820e" stroke-width="2" stroke-linecap="round"/><path d="M-50.13904,171.58111c-1.89698,0.74713 -8.98589,-0.65751 -6.99748,-4.19227c0.92606,-1.64624 6.97496,-1.85121 7.6304,-0.17084c0.5724,0.46539 0.939,1.18108 0.939,1.98377c0,0.95748 -0.52163,1.7912 -1.29197,2.22392c-0.08483,0.06259 -0.17759,0.11511 -0.27995,0.15542z" fill="#0f820e" stroke="none" stroke-width="0.5" stroke-linecap="butt"/></g><path d="M-16.64425,170.83356c-1.76415,1.74928 -1.6966,3.15712 -4.95391,2.48947c-1.96215,-0.40218 -3.90009,-0.92529 -5.86948,-1.28915c-3.64498,-0.67344 -7.89864,-0.54799 -11.93937,-0.47833c-0.8749,1.16341 -3.12135,1.82308 -6.63882,0.9298h-0.30777c-0.48068,-0.12208 -0.91876,-0.25868 -1.31577,-0.40704c-1.94459,0.25062 -3.82367,0.29843 -5.29563,-0.81762c-4.92709,-3.73577 -0.56774,-6.41643 3.97018,-5.89009c3.64181,0.4224 6.68551,0.45969 10.18305,0.30923c3.16475,-0.13615 8.79642,0.07813 12.00205,0.16474c2.06175,0.05571 4.12314,0.18991 6.18541,0.16018c2.45615,-0.03541 10.40002,-0.46161 13.94164,-0.2836c0.14646,-0.02714 0.29737,-0.04132 0.45155,-0.04132c0.34932,0 0.68191,0.07278 0.98387,0.20422c0.89156,0.3881 1.51613,1.28762 1.51613,2.33533c0,1.40256 -1.11929,2.53955 -2.5,2.53955c-0.16666,0 -0.32951,-0.01657 -0.48705,-0.04817c-3.12768,0.57718 -6.78761,-2.9892 -9.92608,0.1228z" fill="#0f820e" stroke="none" stroke-width="0.5" stroke-linecap="butt"/></g><path d="M-11.9077,363.02339v-364h22v364z" fill="#5f2e00" stroke="none" stroke-width="NaN" stroke-linecap="butt"/></g></g></svg>