<svg version="1.1" xmlns="http://www.w3.org/2000/svg" xmlns:xlink="http://www.w3.org/1999/xlink" width="135.81407" height="500.82361" viewBox="0,0,135.81407,500.82361"><g transform="translate(-358.56082,78.14278)"><g data-paper-data="{&quot;isPaintingLayer&quot;:true}" fill-rule="nonzero" stroke-linejoin="miter" stroke-miterlimit="10" stroke-dasharray="" stroke-dashoffset="0" style="mix-blend-mode: normal"><g><path d="M360.85929,349.57016l42.72702,-14.12099l24.16257,73.11067l-42.72702,14.12099z" fill="#453d34" stroke="none" stroke-width="0" stroke-linecap="butt"/><path d="M379.38079,399.09584l0.29116,-4.7427l6.13891,-7.40881" fill="none" stroke="#8a2f00" stroke-width="3" stroke-linecap="round"/><path d="M384.24713,343.78441l13.07771,14.26375l-3.64943,8.64046l10.64712,19.09397" fill="none" stroke="#8a2f00" stroke-width="3" stroke-linecap="round"/><path d="M397.05934,389.11232l0.03808,-14.88126" fill="none" stroke="#8a2f00" stroke-width="3" stroke-linecap="round"/><path d="M382.43642,360.80032l-9.97063,7.32217l-6.67134,-9.87597" fill="none" stroke="#8a2f00" stroke-width="3" stroke-linecap="round"/><path d="M409.0295,400.02493l12.53347,8.86787" fill="none" stroke="#8a2f00" stroke-width="3" stroke-linecap="round"/><path d="M396.27578,404.54972l-3.38444,14.12863" fill="none" stroke="#8a2f00" stroke-width="3" stroke-linecap="round"/><path d="M396.35617,409.47936l8.55054,2.4401" fill="none" stroke="#8a2f00" stroke-width="3" stroke-linecap="round"/><path d="M415.10714,387.48436l-0.68651,13.85649" fill="none" stroke="#8a2f00" stroke-width="3" stroke-linecap="round"/><path d="M397.65167,339.3543l3.24219,5.12376l2.49194,7.54006" fill="none" stroke="#8a2f00" stroke-width="3" stroke-linecap="round"/></g><g><path d="M370.89161,272.75461l44.61228,5.89446l-10.08609,76.33656l-44.61228,-5.89447z" fill="#453d34" stroke="none" stroke-width="0" stroke-linecap="butt"/><path d="M365.9979,325.40335l2.3274,-4.14261l8.75257,-3.99615" fill="none" stroke="#8a2f00" stroke-width="3" stroke-linecap="round"/><path d="M394.46495,277.7309l5.56121,18.53521l-7.04788,6.18897l1.26978,21.82495" fill="none" stroke="#8a2f00" stroke-width="3" stroke-linecap="round"/><path d="M386.25971,324.11458l6.51459,-13.37959" fill="none" stroke="#8a2f00" stroke-width="3" stroke-linecap="round"/><path d="M385.42506,292.26018l-12.16417,2.24956l-1.7049,-11.79555" fill="none" stroke="#8a2f00" stroke-width="3" stroke-linecap="round"/><path d="M392.28321,339.15078l7.42101,13.44082" fill="none" stroke="#8a2f00" stroke-width="3" stroke-linecap="round"/><path d="M378.83186,337.67018l-9.19925,11.24484" fill="none" stroke="#8a2f00" stroke-width="3" stroke-linecap="round"/><path d="M376.75752,342.14287l6.63465,5.92007" fill="none" stroke="#8a2f00" stroke-width="3" stroke-linecap="round"/><path d="M403.21534,330.50832l-6.65206,12.17472" fill="none" stroke="#8a2f00" stroke-width="3" stroke-linecap="round"/><path d="M408.46095,279.58014l0.6874,6.0243l-1.0402,7.87275" fill="none" stroke="#8a2f00" stroke-width="3" stroke-linecap="round"/></g><g><path d="M404.2857,282.54661l44.999,0.30133l-0.51563,76.99828l-44.999,-0.30134z" fill="#453d34" stroke="none" stroke-width="0" stroke-linecap="butt"/><path d="M405.97666,335.39526l1.79422,-4.39986l8.18773,-5.05348" fill="none" stroke="#8a2f00" stroke-width="3" stroke-linecap="round"/><path d="M428.29487,284.55302l7.82283,17.69984l-6.22359,7.01732l3.97377,21.49768" fill="none" stroke="#8a2f00" stroke-width="3" stroke-linecap="round"/><path d="M425.92096,331.59701l4.80033,-14.08582" fill="none" stroke="#8a2f00" stroke-width="3" stroke-linecap="round"/><path d="M421.13181,300.09362l-11.79004,3.74467l-3.15841,-11.492" fill="none" stroke="#8a2f00" stroke-width="3" stroke-linecap="round"/><path d="M433.76741,345.7675l9.03474,12.41373" fill="none" stroke="#8a2f00" stroke-width="3" stroke-linecap="round"/><path d="M420.23635,345.97103l-7.72959,12.30146" fill="none" stroke="#8a2f00" stroke-width="3" stroke-linecap="round"/><path d="M418.73428,350.66694l7.31929,5.04913" fill="none" stroke="#8a2f00" stroke-width="3" stroke-linecap="round"/><path d="M443.54004,335.83275l-5.08654,12.90739" fill="none" stroke="#8a2f00" stroke-width="3" stroke-linecap="round"/><path d="M442.41219,284.64756l1.43116,5.89207l-0.05317,7.941" fill="none" stroke="#8a2f00" stroke-width="3" stroke-linecap="round"/></g><g><path d="M440.60619,282.78938l44.97674,1.44692l-2.47586,76.96018l-44.97674,-1.44693z" fill="#453d34" stroke="none" stroke-width="0" stroke-linecap="butt"/><path d="M440.95107,335.66395l1.90565,-4.35275l8.31374,-4.84339" fill="none" stroke="#8a2f00" stroke-width="3" stroke-linecap="round"/><path d="M464.55649,285.40641l7.36966,17.89328l-6.40024,6.85658l3.42515,21.59188" fill="none" stroke="#8a2f00" stroke-width="3" stroke-linecap="round"/><path d="M460.98561,332.37471l5.15739,-13.95903" fill="none" stroke="#8a2f00" stroke-width="3" stroke-linecap="round"/><path d="M457.00009,300.75961l-11.88156,3.44329l-2.86479,-11.56869" fill="none" stroke="#8a2f00" stroke-width="3" stroke-linecap="round"/><path d="M468.46873,346.74039l8.71575,12.63973" fill="none" stroke="#8a2f00" stroke-width="3" stroke-linecap="round"/><path d="M454.93687,346.59935l-8.04029,12.10067" fill="none" stroke="#8a2f00" stroke-width="3" stroke-linecap="round"/><path d="M453.31573,351.25549l7.18837,5.23384" fill="none" stroke="#8a2f00" stroke-width="3" stroke-linecap="round"/><path d="M478.49113,337.05767l-5.41352,12.7737" fill="none" stroke="#8a2f00" stroke-width="3" stroke-linecap="round"/><path d="M478.66683,285.86035l1.28069,5.9266l-0.25534,7.93707" fill="none" stroke="#8a2f00" stroke-width="3" stroke-linecap="round"/></g><g><path d="M369.50202,214.8303l44.9993,-0.25124l0.42989,76.9988l-44.9993,0.25124z" fill="#453d34" stroke="none" stroke-width="0" stroke-linecap="butt"/><path d="M371.8418,267.6542l1.74005,-4.42156l8.12506,-5.15364" fill="none" stroke="#8a2f00" stroke-width="3" stroke-linecap="round"/><path d="M393.53402,216.54174l8.03958,17.60244l-6.13696,7.09321l4.23745,21.44725" fill="none" stroke="#8a2f00" stroke-width="3" stroke-linecap="round"/><path d="M391.73795,263.61133l4.627,-14.1437" fill="none" stroke="#8a2f00" stroke-width="3" stroke-linecap="round"/><path d="M386.56232,232.16913l-11.74318,3.88916l-3.29927,-11.45235" fill="none" stroke="#8a2f00" stroke-width="3" stroke-linecap="round"/><path d="M399.75782,277.68441l9.18649,12.30185" fill="none" stroke="#8a2f00" stroke-width="3" stroke-linecap="round"/><path d="M386.23027,278.05407l-7.57796,12.39544" fill="none" stroke="#8a2f00" stroke-width="3" stroke-linecap="round"/><path d="M384.78598,282.76807l7.38074,4.95888" fill="none" stroke="#8a2f00" stroke-width="3" stroke-linecap="round"/><path d="M409.40771,267.6304l-4.92766,12.96888" fill="none" stroke="#8a2f00" stroke-width="3" stroke-linecap="round"/><path d="M407.65143,216.46292l1.50341,5.87405l0.04433,7.94105" fill="none" stroke="#8a2f00" stroke-width="3" stroke-linecap="round"/></g><g><path d="M405.44593,215.3457l44.42321,-7.18184l12.28891,76.01304l-44.42322,7.18184z" fill="#453d34" stroke="none" stroke-width="0" stroke-linecap="butt"/><path d="M415.89698,267.17825l1.038,-4.63686l7.23395,-6.34402" fill="none" stroke="#8a2f00" stroke-width="3" stroke-linecap="round"/><path d="M429.45464,213.3338l10.6558,16.15348l-4.97074,7.9541l7.49149,20.53822" fill="none" stroke="#8a2f00" stroke-width="3" stroke-linecap="round"/><path d="M434.93261,260.11803l2.39245,-14.68773" fill="none" stroke="#8a2f00" stroke-width="3" stroke-linecap="round"/><path d="M424.9741,229.84878l-11.00369,5.65213l-5.02447,-10.80723" fill="none" stroke="#8a2f00" stroke-width="3" stroke-linecap="round"/><path d="M445.02511,272.78733l10.97228,10.73947" fill="none" stroke="#8a2f00" stroke-width="3" stroke-linecap="round"/><path d="M431.71607,275.23693l-5.57755,13.41505" fill="none" stroke="#8a2f00" stroke-width="3" stroke-linecap="round"/><path d="M431.01536,280.11717l8.05668,3.76242" fill="none" stroke="#8a2f00" stroke-width="3" stroke-linecap="round"/><path d="M453.01062,261.36651l-2.87054,13.57327" fill="none" stroke="#8a2f00" stroke-width="3" stroke-linecap="round"/><path d="M443.39132,211.08068l2.39054,5.57225l1.26738,7.83938" fill="none" stroke="#8a2f00" stroke-width="3" stroke-linecap="round"/></g><g><path d="M447.39515,208.14852l44.98275,1.2457l-2.13155,76.97049l-44.98277,-1.2457z" fill="#453d34" stroke="none" stroke-width="0" stroke-linecap="butt"/><path d="M447.97655,261.02101l1.88617,-4.36123l8.29199,-4.88053" fill="none" stroke="#8a2f00" stroke-width="3" stroke-linecap="round"/><path d="M471.35691,210.65838l7.44962,17.86013l-6.36951,6.88515l3.52171,21.57634" fill="none" stroke="#8a2f00" stroke-width="3" stroke-linecap="round"/><path d="M467.99617,257.64218l5.0949,-13.98197" fill="none" stroke="#8a2f00" stroke-width="3" stroke-linecap="round"/><path d="M463.86926,226.04523l-11.86604,3.4964l-2.91651,-11.55575" fill="none" stroke="#8a2f00" stroke-width="3" stroke-linecap="round"/><path d="M475.54348,271.97424l8.7722,12.60062" fill="none" stroke="#8a2f00" stroke-width="3" stroke-linecap="round"/><path d="M462.01113,271.89373l-7.98607,12.13651" fill="none" stroke="#8a2f00" stroke-width="3" stroke-linecap="round"/><path d="M460.41083,276.55708l7.21172,5.20164" fill="none" stroke="#8a2f00" stroke-width="3" stroke-linecap="round"/><path d="M485.52247,262.24678l-5.35632,12.7978" fill="none" stroke="#8a2f00" stroke-width="3" stroke-linecap="round"/><path d="M485.46914,211.04919l1.30719,5.92081l-0.21983,7.93813" fill="none" stroke="#8a2f00" stroke-width="3" stroke-linecap="round"/></g><g><path d="M400.8004,245.98154l44.98275,1.2457l-2.13154,76.97049l-44.98277,-1.2457z" fill="#453d34" stroke="none" stroke-width="0" stroke-linecap="butt"/><path d="M401.3818,298.85402l1.88617,-4.36123l8.29199,-4.88053" fill="none" stroke="#8a2f00" stroke-width="3" stroke-linecap="round"/><path d="M424.76217,248.4914l7.44963,17.86012l-6.36951,6.88515l3.52171,21.57634" fill="none" stroke="#8a2f00" stroke-width="3" stroke-linecap="round"/><path d="M421.40142,295.4752l5.0949,-13.98196" fill="none" stroke="#8a2f00" stroke-width="3" stroke-linecap="round"/><path d="M417.27452,263.87825l-11.86604,3.4964l-2.91651,-11.55575" fill="none" stroke="#8a2f00" stroke-width="3" stroke-linecap="round"/><path d="M428.94874,309.80726l8.7722,12.60062" fill="none" stroke="#8a2f00" stroke-width="3" stroke-linecap="round"/><path d="M415.41638,309.72675l-7.98608,12.13652" fill="none" stroke="#8a2f00" stroke-width="3" stroke-linecap="round"/><path d="M413.81609,314.39009l7.21172,5.20165" fill="none" stroke="#8a2f00" stroke-width="3" stroke-linecap="round"/><path d="M438.92772,300.0798l-5.35632,12.7978" fill="none" stroke="#8a2f00" stroke-width="3" stroke-linecap="round"/><path d="M438.87439,248.88221l1.30719,5.92081l-0.21983,7.93813" fill="none" stroke="#8a2f00" stroke-width="3" stroke-linecap="round"/></g><g data-paper-data="{&quot;index&quot;:null}"><path d="M494.32112,-5.0321l-42.72702,14.12099l-24.16257,-73.11067l42.72702,-14.12099z" fill="#453d34" stroke="none" stroke-width="0" stroke-linecap="butt"/><path d="M475.79962,-54.55778l-0.29116,4.7427l-6.13891,7.40881" fill="none" stroke="#8a2f00" stroke-width="3" stroke-linecap="round"/><path d="M470.93328,0.75365l-13.07771,-14.26375l3.64943,-8.64046l-10.64712,-19.09397" fill="none" stroke="#8a2f00" stroke-width="3" stroke-linecap="round"/><path d="M458.12107,-44.57426l-0.03808,14.88126" fill="none" stroke="#8a2f00" stroke-width="3" stroke-linecap="round"/><path d="M472.74399,-16.26226l9.97063,-7.32217l6.67134,9.87597" fill="none" stroke="#8a2f00" stroke-width="3" stroke-linecap="round"/><path d="M433.61744,-64.35474l12.53347,8.86787" fill="none" stroke="#8a2f00" stroke-width="3" stroke-linecap="round"/><path d="M462.28907,-74.14029l-3.38444,14.12863" fill="none" stroke="#8a2f00" stroke-width="3" stroke-linecap="round"/><path d="M458.82424,-64.9413l-8.55054,-2.4401" fill="none" stroke="#8a2f00" stroke-width="3" stroke-linecap="round"/><path d="M440.75978,-56.80279l-0.68651,13.85649" fill="none" stroke="#8a2f00" stroke-width="3" stroke-linecap="round"/><path d="M457.52874,5.18375l-3.24219,-5.12376l-2.49194,-7.54006" fill="none" stroke="#8a2f00" stroke-width="3" stroke-linecap="round"/></g><g data-paper-data="{&quot;index&quot;:null}"><path d="M484.28879,71.78345l-44.61228,-5.89446l10.0861,-76.33656l44.61228,5.89447z" fill="#453d34" stroke="none" stroke-width="0" stroke-linecap="butt"/><path d="M489.1825,19.13471l-2.3274,4.14261l-8.75257,3.99614" fill="none" stroke="#8a2f00" stroke-width="3" stroke-linecap="round"/><path d="M460.71545,66.80715l-5.5612,-18.53521l7.04787,-6.18897l-1.26977,-21.82495" fill="none" stroke="#8a2f00" stroke-width="3" stroke-linecap="round"/><path d="M462.4061,33.80306l6.51459,-13.37959" fill="none" stroke="#8a2f00" stroke-width="3" stroke-linecap="round"/><path d="M469.75534,52.27787l12.16418,-2.24956l1.7049,11.79555" fill="none" stroke="#8a2f00" stroke-width="3" stroke-linecap="round"/><path d="M455.47618,-8.05354l7.42101,13.44082" fill="none" stroke="#8a2f00" stroke-width="3" stroke-linecap="round"/><path d="M476.34855,6.86788l9.19925,-11.24484" fill="none" stroke="#8a2f00" stroke-width="3" stroke-linecap="round"/><path d="M471.78823,-3.52489l6.63465,5.92008" fill="none" stroke="#8a2f00" stroke-width="3" stroke-linecap="round"/><path d="M458.61712,1.85502l-6.65206,12.17472" fill="none" stroke="#8a2f00" stroke-width="3" stroke-linecap="round"/><path d="M446.71946,64.95792l-0.6874,-6.0243l1.0402,-7.87276" fill="none" stroke="#8a2f00" stroke-width="3" stroke-linecap="round"/></g><g data-paper-data="{&quot;index&quot;:null}"><path d="M450.8947,61.99145l-44.999,-0.30134l0.51564,-76.99827l44.99899,0.30134z" fill="#453d34" stroke="none" stroke-width="0" stroke-linecap="butt"/><path d="M449.20374,9.1428l-1.79422,4.39986l-8.18773,5.05348" fill="none" stroke="#8a2f00" stroke-width="3" stroke-linecap="round"/><path d="M426.88553,59.98504l-7.82283,-17.69983l6.22359,-7.01732l-3.97377,-21.49767" fill="none" stroke="#8a2f00" stroke-width="3" stroke-linecap="round"/><path d="M429.25944,12.94105l-4.80032,14.08582" fill="none" stroke="#8a2f00" stroke-width="3" stroke-linecap="round"/><path d="M434.0486,44.44443l11.79004,-3.74467l3.15841,11.492" fill="none" stroke="#8a2f00" stroke-width="3" stroke-linecap="round"/><path d="M421.41299,-1.22944l-9.03473,-12.41373" fill="none" stroke="#8a2f00" stroke-width="3" stroke-linecap="round"/><path d="M442.67365,-13.73443l-7.7296,12.30146" fill="none" stroke="#8a2f00" stroke-width="3" stroke-linecap="round"/><path d="M436.44612,-6.12888l-7.31929,-5.04913" fill="none" stroke="#8a2f00" stroke-width="3" stroke-linecap="round"/><path d="M416.72691,-4.20209l-5.08654,12.90739" fill="none" stroke="#8a2f00" stroke-width="3" stroke-linecap="round"/><path d="M412.76822,59.8905l-1.43117,-5.89207l0.05317,-7.941" fill="none" stroke="#8a2f00" stroke-width="3" stroke-linecap="round"/></g><g data-paper-data="{&quot;index&quot;:null}"><path d="M414.57421,61.74868l-44.97674,-1.44692l2.47586,-76.96018l44.97674,1.44692z" fill="#453d34" stroke="none" stroke-width="0" stroke-linecap="butt"/><path d="M414.22934,8.87411l-1.90565,4.35275l-8.31375,4.84338" fill="none" stroke="#8a2f00" stroke-width="3" stroke-linecap="round"/><path d="M390.62391,59.13164l-7.36966,-17.89327l6.40024,-6.85659l-3.42516,-21.59188" fill="none" stroke="#8a2f00" stroke-width="3" stroke-linecap="round"/><path d="M394.1948,12.16334l-5.1574,13.95904" fill="none" stroke="#8a2f00" stroke-width="3" stroke-linecap="round"/><path d="M398.18032,43.77845l11.88156,-3.44328l2.86479,11.56869" fill="none" stroke="#8a2f00" stroke-width="3" stroke-linecap="round"/><path d="M377.99593,-14.84206l8.71575,12.63973" fill="none" stroke="#8a2f00" stroke-width="3" stroke-linecap="round"/><path d="M400.24353,-2.06129l8.04029,-12.10067" fill="none" stroke="#8a2f00" stroke-width="3" stroke-linecap="round"/><path d="M394.67631,-11.95128l7.18836,5.23385" fill="none" stroke="#8a2f00" stroke-width="3" stroke-linecap="round"/><path d="M382.1028,-5.29331l-5.41352,12.7737" fill="none" stroke="#8a2f00" stroke-width="3" stroke-linecap="round"/><path d="M376.51358,58.67771l-1.28069,-5.9266l0.25534,-7.93707" fill="none" stroke="#8a2f00" stroke-width="3" stroke-linecap="round"/></g><g data-paper-data="{&quot;index&quot;:null}"><path d="M485.67838,129.70776l-44.9993,0.25125l-0.42989,-76.9988l44.9993,-0.25124z" fill="#453d34" stroke="none" stroke-width="0" stroke-linecap="butt"/><path d="M483.33861,76.88386l-1.74005,4.42156l-8.12506,5.15364" fill="none" stroke="#8a2f00" stroke-width="3" stroke-linecap="round"/><path d="M461.64639,127.99632l-8.03958,-17.60244l6.13696,-7.09321l-4.23746,-21.44725" fill="none" stroke="#8a2f00" stroke-width="3" stroke-linecap="round"/><path d="M463.44245,80.92673l-4.627,14.1437" fill="none" stroke="#8a2f00" stroke-width="3" stroke-linecap="round"/><path d="M468.61808,112.36893l11.74318,-3.88917l3.29927,11.45235" fill="none" stroke="#8a2f00" stroke-width="3" stroke-linecap="round"/><path d="M455.42259,66.85365l-9.18649,-12.30185" fill="none" stroke="#8a2f00" stroke-width="3" stroke-linecap="round"/><path d="M476.52809,54.08854l-7.57796,12.39545" fill="none" stroke="#8a2f00" stroke-width="3" stroke-linecap="round"/><path d="M470.39443,61.76999l-7.38074,-4.95888" fill="none" stroke="#8a2f00" stroke-width="3" stroke-linecap="round"/><path d="M450.70036,63.93878l-4.92766,12.96888" fill="none" stroke="#8a2f00" stroke-width="3" stroke-linecap="round"/><path d="M447.52898,128.07513l-1.50341,-5.87405l-0.04433,-7.94105" fill="none" stroke="#8a2f00" stroke-width="3" stroke-linecap="round"/></g><g data-paper-data="{&quot;index&quot;:null}"><path d="M448.23297,129.19236l-44.4232,7.18183l-12.2889,-76.01304l44.42322,-7.18183z" fill="#453d34" stroke="none" stroke-width="0" stroke-linecap="butt"/><path d="M437.78192,77.3598l-1.03799,4.63687l-7.23395,6.34403" fill="none" stroke="#8a2f00" stroke-width="3" stroke-linecap="round"/><path d="M424.22426,131.20426l-10.6558,-16.15348l4.97074,-7.9541l-7.49149,-20.53822" fill="none" stroke="#8a2f00" stroke-width="3" stroke-linecap="round"/><path d="M416.35384,99.10777l2.39245,-14.68774" fill="none" stroke="#8a2f00" stroke-width="3" stroke-linecap="round"/><path d="M428.7048,114.68928l11.00369,-5.65213l5.02447,10.80723" fill="none" stroke="#8a2f00" stroke-width="3" stroke-linecap="round"/><path d="M408.65379,71.75073l-10.97228,-10.73947" fill="none" stroke="#8a2f00" stroke-width="3" stroke-linecap="round"/><path d="M421.96283,69.30113l5.57755,-13.41504" fill="none" stroke="#8a2f00" stroke-width="3" stroke-linecap="round"/><path d="M414.60686,60.65847l8.05668,3.76242" fill="none" stroke="#8a2f00" stroke-width="3" stroke-linecap="round"/><path d="M403.53882,69.59828l-2.87054,13.57327" fill="none" stroke="#8a2f00" stroke-width="3" stroke-linecap="round"/><path d="M410.28758,133.45738l-2.39054,-5.57225l-1.26738,-7.83939" fill="none" stroke="#8a2f00" stroke-width="3" stroke-linecap="round"/></g><g data-paper-data="{&quot;index&quot;:null}"><path d="M403.09379,137.11356l-44.53297,-6.46637l11.0647,-76.20087l44.53299,6.46637z" fill="#453d34" stroke="none" stroke-width="0" stroke-linecap="butt"/><path d="M408.66261,84.53195l-2.38036,4.1124l-8.80312,3.88352" fill="none" stroke="#8a2f00" stroke-width="3" stroke-linecap="round"/><path d="M379.58624,131.83523l-5.32293,-18.60504l7.1267,-6.09803l-0.98965,-21.83945" fill="none" stroke="#8a2f00" stroke-width="3" stroke-linecap="round"/><path d="M388.38594,85.56064l-6.68572,13.2949" fill="none" stroke="#8a2f00" stroke-width="3" stroke-linecap="round"/><path d="M388.81181,117.42312l12.19204,-2.0933l1.55341,11.81644" fill="none" stroke="#8a2f00" stroke-width="3" stroke-linecap="round"/><path d="M382.55585,70.4484l-7.24795,-13.53493" fill="none" stroke="#8a2f00" stroke-width="3" stroke-linecap="round"/><path d="M395.9871,72.10145l9.34277,-11.12587" fill="none" stroke="#8a2f00" stroke-width="3" stroke-linecap="round"/><path d="M398.11865,67.65575l-6.55815,-6.00472" fill="none" stroke="#8a2f00" stroke-width="3" stroke-linecap="round"/><path d="M378.32145,66.86151l-6.80771,12.08837" fill="none" stroke="#8a2f00" stroke-width="3" stroke-linecap="round"/><path d="M365.61513,129.80656l-0.61005,-6.03263l1.14112,-7.85875" fill="none" stroke="#8a2f00" stroke-width="3" stroke-linecap="round"/></g><g data-paper-data="{&quot;index&quot;:null}"><path d="M454.38,98.55652l-44.98275,-1.2457l2.13155,-76.97049l44.98276,1.2457z" fill="#453d34" stroke="none" stroke-width="0" stroke-linecap="butt"/><path d="M453.7986,45.68403l-1.88617,4.36123l-8.29199,4.88053" fill="none" stroke="#8a2f00" stroke-width="3" stroke-linecap="round"/><path d="M430.41824,96.04666l-7.44962,-17.86012l6.36951,-6.88515l-3.52171,-21.57634" fill="none" stroke="#8a2f00" stroke-width="3" stroke-linecap="round"/><path d="M433.77898,49.06286l-5.0949,13.98197" fill="none" stroke="#8a2f00" stroke-width="3" stroke-linecap="round"/><path d="M437.90589,80.65981l11.86604,-3.49639l2.91651,11.55575" fill="none" stroke="#8a2f00" stroke-width="3" stroke-linecap="round"/><path d="M417.45946,22.13019l8.77221,12.60062" fill="none" stroke="#8a2f00" stroke-width="3" stroke-linecap="round"/><path d="M439.76402,34.8113l7.98607,-12.13651" fill="none" stroke="#8a2f00" stroke-width="3" stroke-linecap="round"/><path d="M441.36432,30.14796l-7.21171,-5.20165" fill="none" stroke="#8a2f00" stroke-width="3" stroke-linecap="round"/><path d="M416.25268,44.45826l5.35632,-12.7978" fill="none" stroke="#8a2f00" stroke-width="3" stroke-linecap="round"/><path d="M416.30601,95.65585l-1.30719,-5.92081l0.21983,-7.93812" fill="none" stroke="#8a2f00" stroke-width="3" stroke-linecap="round"/></g></g></g></svg>