<svg version="1.1" xmlns="http://www.w3.org/2000/svg" xmlns:xlink="http://www.w3.org/1999/xlink" width="590.91821" height="384.39794" viewBox="0,0,590.91821,384.39794"><g transform="translate(58.57474,21.37455)"><g data-paper-data="{&quot;isPaintingLayer&quot;:true}" fill-rule="nonzero" stroke-linejoin="miter" stroke-miterlimit="10" stroke-dasharray="" stroke-dashoffset="0" style="mix-blend-mode: normal"><g><path d="M-58.48962,208.39946v-52c0,0 32.43318,0 48.61976,0c16.14666,0 48.38025,0 48.38025,0v52z" fill="#5f2e00" stroke="none" stroke-width="0" stroke-linecap="butt"/><path d="M32.20306,180.41085l-3.77778,-4l-8.44444,-1.55556l-7.77778,5.11111l-6.66667,-3.33333l-4.66667,-0.88889l-8.88889,4.44445l-1.77778,-3.33333l-7.11111,-1.33333l-8.44445,5.55555l-6.88889,-3.33334l-9.11111,-1.77777l-10.22223,4l-6,-8.66667v-14.66666h95.33333v14.66666z" fill="#1c820e" stroke="#1c820e" stroke-width="2" stroke-linecap="round"/></g><g><path d="M37.01365,208.42542v-52c0,0 32.43318,0 48.61976,0c16.14666,0 48.38025,0 48.38025,0v52z" fill="#5f2e00" stroke="none" stroke-width="0" stroke-linecap="butt"/><path d="M127.70633,180.43681l-3.77778,-4l-8.44444,-1.55556l-7.77778,5.11111l-6.66667,-3.33333l-4.66667,-0.88889l-8.88889,4.44445l-1.77778,-3.33333l-7.11111,-1.33333l-8.44445,5.55555l-6.88889,-3.33334l-9.11111,-1.77777l-10.22223,4l-6,-8.66667v-14.66666h95.33333v14.66666z" fill="#1c820e" stroke="#1c820e" stroke-width="2" stroke-linecap="round"/></g><g><path d="M132.79749,208.45433v-52c0,0 32.43318,0 48.61976,0c16.14666,0 48.38025,0 48.38025,0v52z" fill="#5f2e00" stroke="none" stroke-width="0" stroke-linecap="butt"/><path d="M223.49017,180.46572l-3.77778,-4l-8.44444,-1.55556l-7.77778,5.11111l-6.66667,-3.33333l-4.66667,-0.88889l-8.88889,4.44445l-1.77778,-3.33333l-7.11111,-1.33333l-8.44445,5.55555l-6.88889,-3.33334l-9.11111,-1.77777l-10.22223,4l-6,-8.66667v-14.66666h95.33333v14.66666z" fill="#1c820e" stroke="#1c820e" stroke-width="2" stroke-linecap="round"/></g><path d="M-11.9077,363.02339v-364h22v364z" fill="#5f2e00" stroke="none" stroke-width="NaN" stroke-linecap="butt"/><g data-paper-data="{&quot;index&quot;:null}"><g><path d="M435.0531,285.07525v-52c0,0 32.23359,0 48.38025,0c16.18658,0 48.61976,0 48.61976,0v52z" fill="#5f2e00" stroke="none" stroke-width="0" stroke-linecap="butt"/><path d="M436.01014,247.97553v-14.66666h95.33333v14.66666l-6,8.66667l-10.22223,-4l-9.11111,1.77777l-6.88889,3.33334l-8.44445,-5.55555l-7.11111,1.33333l-1.77778,3.33333l-8.88889,-4.44445l-4.66667,0.88889l-6.66667,3.33333l-7.77778,-5.11111l-8.44444,1.55556l-3.77778,4z" fill="#1c820e" stroke="#1c820e" stroke-width="2" stroke-linecap="round"/></g><g><path d="M338.95787,285.0943v-52c0,0 32.23359,0 48.38025,0c16.18658,0 48.61976,0 48.61976,0v52z" fill="#5f2e00" stroke="none" stroke-width="0" stroke-linecap="butt"/><path d="M339.91491,247.99458v-14.66666h95.33333v14.66666l-6,8.66667l-10.22223,-4l-9.11111,1.77777l-6.88889,3.33334l-8.44445,-5.55555l-7.11111,1.33333l-1.77778,3.33333l-8.88889,-4.44445l-4.66667,0.88889l-6.66667,3.33333l-7.77778,-5.11111l-8.44444,1.55556l-3.77778,4z" fill="#1c820e" stroke="#1c820e" stroke-width="2" stroke-linecap="round"/></g></g><g data-paper-data="{&quot;index&quot;:null}"><g><path d="M408.38644,321.68369v-52c0,0 32.23359,0 48.38025,0c16.18658,0 48.61976,0 48.61976,0v52z" fill="#5f2e00" stroke="none" stroke-width="0" stroke-linecap="butt"/><path d="M409.34348,284.58397v-14.66666h95.33333v14.66666l-6,8.66667l-10.22223,-4l-9.11111,1.77777l-6.88889,3.33334l-8.44445,-5.55555l-7.11111,1.33333l-1.77778,3.33333l-8.88889,-4.44445l-4.66667,0.88889l-6.66667,3.33333l-7.77778,-5.11111l-8.44444,1.55556l-3.77778,4z" fill="#1c820e" stroke="#1c820e" stroke-width="2" stroke-linecap="round"/></g><g><path d="M312.2912,321.70274v-52c0,0 32.23359,0 48.38025,0c16.18658,0 48.61976,0 48.61976,0v52z" fill="#5f2e00" stroke="none" stroke-width="0" stroke-linecap="butt"/><path d="M313.24824,284.60302v-14.66666h95.33333v14.66666l-6,8.66667l-10.22223,-4l-9.11111,1.77777l-6.88889,3.33334l-8.44445,-5.55555l-7.11111,1.33333l-1.77778,3.33333l-8.88889,-4.44445l-4.66667,0.88889l-6.66667,3.33333l-7.77778,-5.11111l-8.44444,1.55556l-3.77778,4z" fill="#1c820e" stroke="#1c820e" stroke-width="2" stroke-linecap="round"/></g></g><g data-paper-data="{&quot;index&quot;:null}"><g><path d="M393.38644,360.07525v-52c0,0 32.23359,0 48.38025,0c16.18658,0 48.61976,0 48.61976,0v52z" fill="#5f2e00" stroke="none" stroke-width="0" stroke-linecap="butt"/><path d="M394.34348,322.97553v-14.66666h95.33333v14.66666l-6,8.66667l-10.22223,-4l-9.11111,1.77777l-6.88889,3.33334l-8.44445,-5.55555l-7.11111,1.33333l-1.77778,3.33333l-8.88889,-4.44445l-4.66667,0.88889l-6.66667,3.33333l-7.77778,-5.11111l-8.44444,1.55556l-3.77778,4z" fill="#1c820e" stroke="#1c820e" stroke-width="2" stroke-linecap="round"/></g><g><path d="M297.2912,360.0943v-52c0,0 32.23359,0 48.38025,0c16.18658,0 48.61976,0 48.61976,0v52z" fill="#5f2e00" stroke="none" stroke-width="0" stroke-linecap="butt"/><path d="M298.24824,322.99458v-14.66666h95.33333v14.66666l-6,8.66667l-10.22223,-4l-9.11111,1.77777l-6.88889,3.33334l-8.44445,-5.55555l-7.11111,1.33333l-1.77778,3.33333l-8.88889,-4.44445l-4.66667,0.88889l-6.66667,3.33333l-7.77778,-5.11111l-8.44444,1.55556l-3.77778,4z" fill="#1c820e" stroke="#1c820e" stroke-width="2" stroke-linecap="round"/></g></g><g data-paper-data="{&quot;index&quot;:null}"><g><path d="M200.59157,360.1573v-52c0,0 32.23359,0 48.38025,0c16.18658,0 48.61976,0 48.61976,0v52z" fill="#5f2e00" stroke="none" stroke-width="0" stroke-linecap="butt"/><path d="M201.54861,323.05758v-14.66666h95.33333v14.66666l-6,8.66667l-10.22223,-4l-9.11111,1.77777l-6.88889,3.33334l-8.44445,-5.55555l-7.11111,1.33333l-1.77778,3.33333l-8.88889,-4.44445l-4.66667,0.88889l-6.66667,3.33333l-7.77778,-5.11111l-8.44444,1.55556l-3.77778,4z" fill="#1c820e" stroke="#1c820e" stroke-width="2" stroke-linecap="round"/></g><g><path d="M104.49633,360.17635v-52c0,0 32.23359,0 48.38025,0c16.18658,0 48.61976,0 48.61976,0v52z" fill="#5f2e00" stroke="none" stroke-width="0" stroke-linecap="butt"/><path d="M105.45337,323.07663v-14.66666h95.33333v14.66666l-6,8.66667l-10.22223,-4l-9.11111,1.77777l-6.88889,3.33334l-8.44445,-5.55555l-7.11111,1.33333l-1.77778,3.33333l-8.88889,-4.44445l-4.66667,0.88889l-6.66667,3.33333l-7.77778,-5.11111l-8.44444,1.55556l-3.77778,4z" fill="#1c820e" stroke="#1c820e" stroke-width="2" stroke-linecap="round"/></g></g><g data-paper-data="{&quot;index&quot;:null}"><path d="M9.96381,360.21883v-52c0,0 32.23359,0 48.38025,0c16.18658,0 48.61976,0 48.61976,0v52z" fill="#5f2e00" stroke="none" stroke-width="0" stroke-linecap="butt"/><path d="M10.92085,323.11911v-14.66666h95.33333v14.66666l-6,8.66667l-10.22223,-4l-9.11111,1.77777l-6.88889,3.33334l-8.44445,-5.55555l-7.11111,1.33333l-1.77778,3.33333l-8.88889,-4.44445l-4.66667,0.88889l-6.66667,3.33333l-7.77778,-5.11111l-8.44444,1.55556l-3.77778,4z" fill="#1c820e" stroke="#1c820e" stroke-width="2" stroke-linecap="round"/></g><g><g><path d="M0.32043,360.07525v-52c0,0 32.43318,0 48.61976,0c16.14666,0 48.38025,0 48.38025,0v52z" fill="#5f2e00" stroke="none" stroke-width="0" stroke-linecap="butt"/><path d="M90.80787,332.08664l-3.77778,-4l-8.44444,-1.55556l-7.77778,5.11111l-6.66667,-3.33333l-4.66667,-0.88889l-8.88889,4.44445l-1.77778,-3.33333l-7.11111,-1.33333l-8.44445,5.55555l-6.88889,-3.33334l-9.11111,-1.77777l-10.22223,4l-6,-8.66667v-14.66666h95.33333v14.66666z" fill="#1c820e" stroke="#1c820e" stroke-width="2" stroke-linecap="round"/></g><g><path d="M96.41567,360.0943v-52c0,0 32.43318,0 48.61976,0c16.14666,0 48.38025,0 48.38025,0v52z" fill="#5f2e00" stroke="none" stroke-width="0" stroke-linecap="butt"/><path d="M186.90311,332.10569l-3.77778,-4l-8.44444,-1.55556l-7.77778,5.11111l-6.66667,-3.33333l-4.66667,-0.88889l-8.88889,4.44445l-1.77778,-3.33333l-7.11111,-1.33333l-8.44445,5.55555l-6.88889,-3.33334l-9.11111,-1.77777l-10.22223,4l-6,-8.66667v-14.66666h95.33333v14.66666z" fill="#1c820e" stroke="#1c820e" stroke-width="2" stroke-linecap="round"/></g></g><g><path d="M193.1153,360.1573v-52c0,0 32.43318,0 48.61976,0c16.14666,0 48.38025,0 48.38025,0v52z" fill="#5f2e00" stroke="none" stroke-width="0" stroke-linecap="butt"/><path d="M283.60274,332.16869l-3.77778,-4l-8.44444,-1.55556l-7.77778,5.11111l-6.66667,-3.33333l-4.66667,-0.88889l-8.88889,4.44445l-1.77778,-3.33333l-7.11111,-1.33333l-8.44445,5.55555l-6.88889,-3.33334l-9.11111,-1.77777l-10.22223,4l-6,-8.66667v-14.66666h95.33333v14.66666z" fill="#1c820e" stroke="#1c820e" stroke-width="2" stroke-linecap="round"/></g><g><path d="M384.92646,360.21883v-52c0,0 32.43318,0 48.61976,0c16.14666,0 48.38025,0 48.38025,0v52z" fill="#5f2e00" stroke="none" stroke-width="0" stroke-linecap="butt"/><path d="M475.4139,332.23022l-3.77778,-4l-8.44444,-1.55556l-7.77778,5.11111l-6.66667,-3.33333l-4.66667,-0.88889l-8.88889,4.44445l-1.77778,-3.33333l-7.11111,-1.33333l-8.44445,5.55555l-6.88889,-3.33334l-9.11111,-1.77777l-10.22223,4l-6,-8.66667v-14.66666h95.33333v14.66666z" fill="#1c820e" stroke="#1c820e" stroke-width="2" stroke-linecap="round"/></g><path d="M486.26383,0.62545l-496.93311,0l0,-22l496.93311,0z" fill="#5f2e00" stroke="none" stroke-width="NaN" stroke-linecap="butt"/></g></g></svg>